<?xml version="1.0" standalone="no"?>
<!DOCTYPE svg PUBLIC "-//W3C//DTD SVG 1.1//EN" "http://www.w3.org/Graphics/SVG/1.1/DTD/svg11.dtd" >
<svg>
<metadata>
Created by FontForge 20090914 at Sat Feb 24 10:59:07 2018
 By www-data
Copyright (c) 2013 by Andriy Konstantynov. All rights reserved.
</metadata>
<defs>
<font id="PancettaPro-Regular8" horiz-adv-x="516" >
  <font-face 
    font-family="Pancetta Pro  2"
    font-weight="400"
    font-stretch="normal"
    units-per-em="1000"
    panose-1="2 11 0 3 3 2 0 8 0 4"
    ascent="774"
    descent="-226"
    x-height="499.998"
    cap-height="704.001"
    bbox="-86 -208 1058 902.001"
    underline-thickness="50"
    underline-position="-50"
    unicode-range="U+0020-U+FB03"
  />
<missing-glyph horiz-adv-x="216" 
 />
    <glyph glyph-name="ff" unicode="ff" horiz-adv-x="697" 
d="M667 402l-113.002 0.00292969v-397c-26.667 -5.33301 -53.334 -8 -80.001 -8c-12 0 -24.5 0.666992 -37.5 2s-23.167 2.66602 -30.5 3.99902l-11 2v397h-162v-397c-26 -5.33301 -52.333 -8 -79 -8c-12 0 -24.667 0.666992 -38 2s-23.666 2.66602 -30.999 3.99902l-11 2
v397h-42c-4.66699 12.667 -7 29 -7 49c0 8.66699 0.5 17.167 1.5 25.5s2.16699 14.166 3.5 17.499l2 6h42v41c0 55.333 11.833 96.833 35.5 124.5s62.834 41.5 117.501 41.5c52 0 92 -4.66699 120 -14c4 -14.667 6 -30 6 -46l-6 -45c-9.33301 4.66699 -29.333 7 -60 7
c-20 0 -34 -5.16699 -42 -15.5s-12 -27.833 -12 -52.5v-41h162v41c0 55.333 11.833 96.833 35.5 124.5s62.5 41.5 116.5 41.5c21.333 0 42 -1.16699 62 -3.5s34.333 -4.5 43 -6.5s13.667 -3.33301 15 -4c4 -14.667 6 -30 6 -46l-6 -45c-9.33301 4.66699 -29.333 7 -60 7
c-20 0 -33.833 -5.16699 -41.5 -15.5s-11.5 -27.833 -11.5 -52.5v-41h113c4.66699 -12.667 7 -29 7 -49c0 -8.66699 -0.666992 -17 -2 -25s-2.66602 -14 -3.99902 -18z" />
    <glyph glyph-name="fi" unicode="fi" horiz-adv-x="606" 
d="M347 402l-114.002 0.00195312v-397c-26 -5.33301 -52.333 -8 -79 -8c-12 0 -24.667 0.666992 -38 2s-23.666 2.66602 -30.999 3.99902l-11 2v397h-42c-4.66699 12.667 -7 29 -7 49c0 8.66699 0.5 17.167 1.5 25.5s2.16699 14.166 3.5 17.499l2 6h42v41
c0 55.333 11.833 96.833 35.5 124.5s62.834 41.5 117.501 41.5c52 0 92 -4.66699 120 -14c4 -14.667 6 -30 6 -46l-6 -45c-9.33301 4.66699 -29.333 7 -60 7c-20 0 -34 -5.16699 -42 -15.5s-12 -27.833 -12 -52.5v-41h114c4 -12.667 6 -29 6 -49
c0 -8.66699 -0.5 -17 -1.5 -25s-2.16699 -14 -3.5 -18zM564.998 496.002l-0.00195312 -492c-26.667 -5.33301 -53 -8 -79 -8c-12 0 -24.667 0.666992 -38 2s-23.666 2.66602 -30.999 3.99902l-11 2v492c26.667 5.33301 53.334 8 80.001 8c12 0 24.5 -0.666992 37.5 -2
s23.167 -2.66602 30.5 -3.99902zM564.996 696.002l-0.00195312 -122.001c-26.667 -4.66699 -53 -7 -79 -7c-12 0 -24.667 0.5 -38 1.5s-23.666 2.16699 -30.999 3.5l-11 2v122c26.667 5.33301 53.334 8 80.001 8c12 0 24.5 -0.666992 37.5 -2s23.167 -2.66602 30.5 -3.99902
z" />
    <glyph glyph-name="ffi" unicode="ffi" horiz-adv-x="927" 
d="M667 402l-113.002 0.00292969v-397c-26.667 -5.33301 -53.334 -8 -80.001 -8c-12 0 -24.5 0.666992 -37.5 2s-23.167 2.66602 -30.5 3.99902l-11 2v397h-162v-397c-26 -5.33301 -52.333 -8 -79 -8c-12 0 -24.667 0.666992 -38 2s-23.666 2.66602 -30.999 3.99902l-11 2
v397h-42c-4.66699 12.667 -7 29 -7 49c0 8.66699 0.5 17.167 1.5 25.5s2.16699 14.166 3.5 17.499l2 6h42v41c0 55.333 11.833 96.833 35.5 124.5s62.834 41.5 117.501 41.5c52 0 92 -4.66699 120 -14c4 -14.667 6 -30 6 -46l-6 -45c-9.33301 4.66699 -29.333 7 -60 7
c-20 0 -34 -5.16699 -42 -15.5s-12 -27.833 -12 -52.5v-41h162v41c0 55.333 11.833 96.833 35.5 124.5s62.5 41.5 116.5 41.5c21.333 0 42 -1.16699 62 -3.5s34.333 -4.5 43 -6.5s13.667 -3.33301 15 -4c4 -14.667 6 -30 6 -46l-6 -45c-9.33301 4.66699 -29.333 7 -60 7
c-20 0 -33.833 -5.16699 -41.5 -15.5s-11.5 -27.833 -11.5 -52.5v-41h113c4.66699 -12.667 7 -29 7 -49c0 -8.66699 -0.666992 -17 -2 -25s-2.66602 -14 -3.99902 -18zM885.998 496.003v-492c-26.667 -5.33301 -53.334 -8 -80.001 -8c-12 0 -24.667 0.666992 -38 2
s-23.666 2.66602 -30.999 3.99902l-11 2v492c26.667 5.33301 53.334 8 80.001 8c12 0 24.667 -0.666992 38 -2s23.666 -2.66602 30.999 -3.99902zM885.998 696.003v-122.001c-26.667 -4.66699 -53.334 -7 -80.001 -7c-12 0 -24.667 0.5 -38 1.5s-23.666 2.16699 -30.999 3.5
l-11 2v122c26.667 5.33301 53.334 8 80.001 8c12 0 24.667 -0.666992 38 -2s23.666 -2.66602 30.999 -3.99902z" />
    <glyph glyph-name="f_f_j" unicode="ffj" horiz-adv-x="931" 
d="M667 402l-113.002 0.00292969v-397c-26.667 -5.33301 -53.334 -8 -80.001 -8c-12 0 -24.5 0.666992 -37.5 2s-23.167 2.66602 -30.5 3.99902l-11 2v397h-162v-397c-26 -5.33301 -52.333 -8 -79 -8c-12 0 -24.667 0.666992 -38 2s-23.666 2.66602 -30.999 3.99902l-11 2
v397h-42c-4.66699 12.667 -7 29 -7 49c0 8.66699 0.5 17.167 1.5 25.5s2.16699 14.166 3.5 17.499l2 6h42v41c0 55.333 11.833 96.833 35.5 124.5s62.834 41.5 117.501 41.5c52 0 92 -4.66699 120 -14c4 -14.667 6 -30 6 -46l-6 -45c-9.33301 4.66699 -29.333 7 -60 7
c-20 0 -34 -5.16699 -42 -15.5s-12 -27.833 -12 -52.5v-41h162v41c0 55.333 11.833 96.833 35.5 124.5s62.5 41.5 116.5 41.5c21.333 0 42 -1.16699 62 -3.5s34.333 -4.5 43 -6.5s13.667 -3.33301 15 -4c4 -14.667 6 -30 6 -46l-6 -45c-9.33301 4.66699 -29.333 7 -60 7
c-20 0 -33.833 -5.16699 -41.5 -15.5s-11.5 -27.833 -11.5 -52.5v-41h113c4.66699 -12.667 7 -29 7 -49c0 -8.66699 -0.666992 -17 -2 -25s-2.66602 -14 -3.99902 -18zM730.998 -41.9971l0.00292969 537.997c26.667 5.33301 53 8 79 8c12 0 24.667 -0.666992 38 -2
s23.666 -2.66602 30.999 -3.99902l11 -2v-538c0 -55.333 -11.667 -96.666 -35 -123.999s-61.666 -41 -114.999 -41c-11.333 0 -22.5 0.5 -33.5 1.5s-20.667 2.33301 -29 4s-15.833 3.33398 -22.5 5.00098s-11.834 3 -15.501 4s-5.83398 1.5 -6.50098 1.5c-4 14 -6 29 -6 45
l6 44c9.33301 -4.66699 25 -7 47 -7c19.333 0 32.666 5 39.999 15s11 27.333 11 52zM890.001 696v-122.001c-26.667 -4.66699 -53.334 -7 -80.001 -7c-11.333 0 -23.666 0.5 -36.999 1.5s-23.666 2.16699 -30.999 3.5l-11 2v122c26.667 5.33301 53 8 79 8
c12 0 24.667 -0.666992 38 -2s23.666 -2.66602 30.999 -3.99902z" />
    <glyph glyph-name="f_j" unicode="fj" horiz-adv-x="611" 
d="M347 402l-114.002 0.00195312v-397c-26 -5.33301 -52.333 -8 -79 -8c-12 0 -24.667 0.666992 -38 2s-23.666 2.66602 -30.999 3.99902l-11 2v397h-42c-4.66699 12.667 -7 29 -7 49c0 8.66699 0.5 17.167 1.5 25.5s2.16699 14.166 3.5 17.499l2 6h42v41
c0 55.333 11.833 96.833 35.5 124.5s62.834 41.5 117.501 41.5c52 0 92 -4.66699 120 -14c4 -14.667 6 -30 6 -46l-6 -45c-9.33301 4.66699 -29.333 7 -60 7c-20 0 -34 -5.16699 -42 -15.5s-12 -27.833 -12 -52.5v-41h114c4 -12.667 6 -29 6 -49
c0 -8.66699 -0.5 -17 -1.5 -25s-2.16699 -14 -3.5 -18zM410.998 -41.998l-0.00195312 537.997c26 5.33301 52.333 8 79 8c12 0 24.667 -0.666992 38 -2s23.666 -2.66602 30.999 -3.99902l11 -2v-538c0 -55.333 -11.667 -96.666 -35 -123.999s-61.666 -41 -114.999 -41
c-11.333 0 -22.666 0.5 -33.999 1.5s-21.166 2.33301 -29.499 4s-15.666 3.33398 -21.999 5.00098s-11.5 3.16699 -15.5 4.5l-6 1c-4 14 -6 29 -6 45l6 44c9.33301 -4.66699 25 -7 47 -7c19.333 0 32.666 5 39.999 15s11 27.333 11 52zM569.996 695.999l0.00195312 -122.001
c-26.667 -4.66699 -53.334 -7 -80.001 -7c-12 0 -24.5 0.5 -37.5 1.5s-23.167 2.16699 -30.5 3.5l-11 2v122c26 5.33301 52.333 8 79 8c12 0 24.667 -0.666992 38 -2s23.666 -2.66602 30.999 -3.99902z" />
    <glyph glyph-name="f_iogonek" unicode="f&#x12f;" horiz-adv-x="606" 
d="M347 402l-114.002 0.00195312v-397c-26 -5.33301 -52.333 -8 -79 -8c-12 0 -24.667 0.666992 -38 2s-23.666 2.66602 -30.999 3.99902l-11 2v397h-42c-4.66699 12.667 -7 29 -7 49c0 8.66699 0.5 17.167 1.5 25.5s2.16699 14.166 3.5 17.499l2 6h42v41
c0 55.333 11.833 96.833 35.5 124.5s62.834 41.5 117.501 41.5c52 0 92 -4.66699 120 -14c4 -14.667 6 -30 6 -46l-6 -45c-9.33301 4.66699 -29.333 7 -60 7c-20 0 -34 -5.16699 -42 -15.5s-12 -27.833 -12 -52.5v-41h114c4 -12.667 6 -29 6 -49
c0 -8.66699 -0.5 -17 -1.5 -25s-2.16699 -14 -3.5 -18zM423.998 -93.998c0 30.667 15.665 60.666 46.998 89.999l-65 8v492c26.667 5.33301 53.334 8 80.001 8c12 0 24.5 -0.666992 37.5 -2s23.167 -2.66602 30.5 -3.99902l11 -2v-492c-8 -2 -17 -3.33301 -27 -4
c-20 -31.333 -30 -59 -30 -83c0 -20.667 9.66699 -31 29 -31c6 0 11.833 0.833008 17.5 2.5s9.83398 3.5 12.501 5.5l4 2c3.33301 -8 5 -17 5 -27l-5 -26c-13.333 -11.333 -33.333 -17 -60 -17c-58 0 -87 26.667 -87 80zM564.996 696.001l-0.00195312 -122.001
c-26.667 -4.66699 -53 -7 -79 -7c-12 0 -24.667 0.5 -38 1.5s-23.666 2.16699 -30.999 3.5l-11 2v122c26.667 5.33301 53.334 8 80.001 8c12 0 24.5 -0.666992 37.5 -2s23.167 -2.66602 30.5 -3.99902z" />
    <glyph glyph-name="f_f_iogonek" unicode="ff&#x12f;" horiz-adv-x="927" 
d="M667 402l-113.002 0.00292969v-397c-26.667 -5.33301 -53.334 -8 -80.001 -8c-12 0 -24.5 0.666992 -37.5 2s-23.167 2.66602 -30.5 3.99902l-11 2v397h-162v-397c-26 -5.33301 -52.333 -8 -79 -8c-12 0 -24.667 0.666992 -38 2s-23.666 2.66602 -30.999 3.99902l-11 2
v397h-42c-4.66699 12.667 -7 29 -7 49c0 8.66699 0.5 17.167 1.5 25.5s2.16699 14.166 3.5 17.499l2 6h42v41c0 55.333 11.833 96.833 35.5 124.5s62.834 41.5 117.501 41.5c52 0 92 -4.66699 120 -14c4 -14.667 6 -30 6 -46l-6 -45c-9.33301 4.66699 -29.333 7 -60 7
c-20 0 -34 -5.16699 -42 -15.5s-12 -27.833 -12 -52.5v-41h162v41c0 55.333 11.833 96.833 35.5 124.5s62.5 41.5 116.5 41.5c21.333 0 42 -1.16699 62 -3.5s34.333 -4.5 43 -6.5s13.667 -3.33301 15 -4c4 -14.667 6 -30 6 -46l-6 -45c-9.33301 4.66699 -29.333 7 -60 7
c-20 0 -33.833 -5.16699 -41.5 -15.5s-11.5 -27.833 -11.5 -52.5v-41h113c4.66699 -12.667 7 -29 7 -49c0 -8.66699 -0.666992 -17 -2 -25s-2.66602 -14 -3.99902 -18zM743.998 -93.9971c0 30.667 15.666 60.666 46.999 89.999l-65 8v492c26.667 5.33301 53.334 8 80.001 8
c12 0 24.667 -0.666992 38 -2s23.666 -2.66602 30.999 -3.99902l11 -2v-492c-8 -2 -17 -3.33301 -27 -4c-20 -31.333 -30 -59 -30 -83c0 -20.667 9.33301 -31 28 -31c6 0 11.833 0.833008 17.5 2.5s9.83398 3.5 12.501 5.5l4 2c3.33301 -8 5 -17 5 -27l-5 -26
c-12.667 -11.333 -32.667 -17 -60 -17c-58 0 -87 26.667 -87 80zM885.997 696.002v-122.001c-26.667 -4.66699 -53.334 -7 -80.001 -7c-12 0 -24.667 0.5 -38 1.5s-23.666 2.16699 -30.999 3.5l-11 2v122c26.667 5.33301 53.334 8 80.001 8c12 0 24.667 -0.666992 38 -2
s23.666 -2.66602 30.999 -3.99902z" />
    <glyph glyph-name="quoteright_afii10104" unicode="&#x2019;&#x457;" horiz-adv-x="433" 
d="M322 496l-0.00195312 -492c-26.667 -5.33301 -53 -8 -79 -8c-12 0 -24.667 0.666992 -38 2s-23.666 2.66602 -30.999 3.99902l-11 2v492c26.667 5.33301 53.334 8 80.001 8c12 0 24.5 -0.666992 37.5 -2s23.167 -2.66602 30.5 -3.99902zM173.998 696
c0 -33.333 -3.00098 -64.668 -9.00098 -94.001s-13.333 -53 -22 -71s-17.334 -33.667 -26.001 -47s-16 -22.666 -22 -27.999l-9 -9c-12 -5.33301 -24 -8 -36 -8c-5.33301 0 -11.166 0.666992 -17.499 2s-11.166 2.66602 -14.499 3.99902l-5 2c2.66699 6 6 15 10 27
s9.5 39.5 16.5 82.5s10.5 89.5 10.5 139.5c20.667 5.33301 41.334 8 62.001 8c9.33301 0 19.166 -0.666992 29.499 -2s18.5 -2.66602 24.5 -3.99902zM391.997 695.998v-109c-18 -4.66699 -38.667 -7 -62 -7c-10.667 0 -21.167 0.666992 -31.5 2
s-17.833 2.66602 -22.5 3.99902l-8 1v109c18 5.33301 38.667 8 62 8c10.667 0 21.167 -0.666992 31.5 -2s17.833 -2.66602 22.5 -3.99902z" />
    <glyph glyph-name="afii10103_afii10104" unicode="&#x456;&#x457;" horiz-adv-x="482" 
d="M200 496v-492c-26.667 -5.33301 -53.334 -8 -80.001 -8c-11.333 0 -23.666 0.666992 -36.999 2s-23.666 2.66602 -30.999 3.99902l-11 2v492c26.667 5.33301 53 8 79 8c12 0 24.667 -0.666992 38 -2s23.666 -2.66602 30.999 -3.99902zM183 696v-122.001
c-24 -4.66699 -47.667 -7 -71 -7c-10.667 0 -21.834 0.5 -33.501 1.5s-20.834 2.16699 -27.501 3.5l-10 2v122c23.333 5.33301 47 8 71 8c10.667 0 21.834 -0.666992 33.501 -2s20.834 -2.66602 27.501 -3.99902zM441 495.999l0.00195312 -492
c-26.667 -5.33301 -53.334 -8 -80.001 -8c-12 0 -24.5 0.666992 -37.5 2s-23.167 2.66602 -30.5 3.99902l-11 2v492c26 5.33301 52.333 8 79 8c12 0 24.667 -0.666992 38 -2s23.666 -2.66602 30.999 -3.99902zM347.002 695.999l0.000976562 -109
c-18.667 -4.66699 -39.334 -7 -62.001 -7c-10.667 0 -21.167 0.666992 -31.5 2s-18.166 2.66602 -23.499 3.99902l-8 1v109c18.667 5.33301 39.667 8 63 8c10 0 20.167 -0.666992 30.5 -2s18.166 -2.66602 23.499 -3.99902zM511.003 695.999l0.000976562 -109
c-18.667 -4.66699 -39.334 -7 -62.001 -7c-10.667 0 -21.167 0.666992 -31.5 2s-18.166 2.66602 -23.499 3.99902l-7 1v109c18 5.33301 38.667 8 62 8c10 0 20.167 -0.666992 30.5 -2s18.166 -2.66602 23.499 -3.99902z" />
    <glyph glyph-name="afii10104_afii10104" unicode="&#x457;&#x457;" horiz-adv-x="482" 
d="M200 496v-492c-26.667 -5.33301 -53.334 -8 -80.001 -8c-11.333 0 -23.666 0.666992 -36.999 2s-23.666 2.66602 -30.999 3.99902l-11 2v492c26.667 5.33301 53 8 79 8c12 0 24.667 -0.666992 38 -2s23.666 -2.66602 30.999 -3.99902zM95 696v-109
c-18 -4.66699 -38.667 -7 -62 -7c-10.667 0 -21.167 0.666992 -31.5 2s-18.166 2.66602 -23.499 3.99902l-7 1v109c18 5.33301 38.667 8 62 8c10.667 0 21.167 -0.666992 31.5 -2s18.166 -2.66602 23.499 -3.99902zM303 696l0.000976562 -109
c-18.667 -4.66699 -39.334 -7 -62.001 -7c-10.667 0 -21.167 0.666992 -31.5 2s-18.166 2.66602 -23.499 3.99902l-7 1v109c18 5.33301 38.667 8 62 8c10.667 0 21.167 -0.666992 31.5 -2s18.166 -2.66602 23.499 -3.99902zM441.001 496l0.00195312 -492
c-26.667 -5.33301 -53.334 -8 -80.001 -8c-12 0 -24.5 0.666992 -37.5 2s-23.167 2.66602 -30.5 3.99902l-11 2v492c26 5.33301 52.333 8 79 8c12 0 24.667 -0.666992 38 -2s23.666 -2.66602 30.999 -3.99902zM511.003 696l0.000976562 -109
c-18.667 -4.66699 -39.334 -7 -62.001 -7c-10.667 0 -21.167 0.666992 -31.5 2s-18.166 2.66602 -23.499 3.99902l-7 1v109c18 5.33301 38.667 8 62 8c10 0 20.167 -0.666992 30.5 -2s18.166 -2.66602 23.499 -3.99902z" />
    <glyph glyph-name=".notdef" horiz-adv-x="216" 
 />
    <glyph glyph-name="space" unicode=" " horiz-adv-x="216" 
 />
    <glyph glyph-name="exclam" unicode="!" horiz-adv-x="241" 
d="M200 137l0.00195312 -133c-26.667 -5.33301 -53.334 -8 -80.001 -8c-12 0 -24.5 0.666992 -37.5 2s-23.167 2.66602 -30.5 3.99902l-11 2v133c26 5.33301 52.333 8 79 8c12 0 24.667 -0.666992 38 -2s23.666 -2.66602 30.999 -3.99902zM200.002 696v-475
c-26.667 -4.66699 -53.334 -7 -80.001 -7c-11.333 0 -23.666 0.666992 -36.999 2s-23.666 2.66602 -30.999 3.99902l-11 1v475c26.667 5.33301 53 8 79 8c12 0 24.667 -0.666992 38 -2s23.666 -2.66602 30.999 -3.99902z" />
    <glyph glyph-name="quotedbl" unicode="&#x22;" horiz-adv-x="332" 
d="M148 696l-12.999 -210.001c-15.333 -4.66699 -30.333 -7 -45 -7c-6.66699 0 -13.834 0.5 -21.501 1.5s-13.5 2.16699 -17.5 3.5l-6 2l-13 210c19.333 5.33301 38.666 8 57.999 8c8.66699 0 17.834 -0.666992 27.501 -2s17.167 -2.66602 22.5 -3.99902zM300.001 695.999
l-13 -210.001c-14.667 -4.66699 -29.667 -7 -45 -7c-6.66699 0 -13.667 0.5 -21 1.5s-13 2.16699 -17 3.5l-7 2l-13 210c19.333 5.33301 38.666 8 57.999 8c8.66699 0 17.834 -0.666992 27.501 -2s17.167 -2.66602 22.5 -3.99902z" />
    <glyph glyph-name="numbersign" unicode="#" horiz-adv-x="532" 
d="M480 161l-47.9941 -0.00195312l-13 -157c-20.667 -5.33301 -41.334 -8 -62.001 -8c-9.33301 0 -19.333 0.666992 -30 2s-19 2.66602 -25 3.99902l-8 2l14 157h-116l-13 -157c-20.667 -5.33301 -41.334 -8 -62.001 -8c-9.33301 0 -19.333 0.666992 -30 2
s-19 2.66602 -25 3.99902l-8 2l14 157h-39c-4 12.667 -6 29 -6 49c0 8.66699 0.5 17 1.5 25s2.16699 14 3.5 18l1 6h48l14 182h-39c-4 12.667 -6 29 -6 49c0 8.66699 0.5 17 1.5 25s1.83301 14 2.5 18l2 6h48l14 157c20.667 5.33301 41.667 8 63 8
c9.33301 0 19.166 -0.666992 29.499 -2s18.166 -2.66602 23.499 -3.99902l9 -2l-15 -157h116l14 157c20.667 5.33301 41.667 8 63 8c9.33301 0 19.166 -0.666992 29.499 -2s18.166 -2.66602 23.499 -3.99902l9 -2l-15 -157h39c4 -13.333 6 -29.666 6 -48.999
c0 -8.66699 -0.5 -17 -1.5 -25s-2.16699 -14 -3.5 -18l-1 -6h-48l-14 -182h39c4 -13.333 6 -29.666 6 -48.999c0 -8.66699 -0.5 -17 -1.5 -25s-1.83301 -14 -2.5 -18zM215.006 440.998l-14 -182h116l14 182h-116z" />
    <glyph glyph-name="dollar" unicode="$" horiz-adv-x="564" 
d="M199 508l-0.000976562 -29.9961c0 -16.667 11.5 -30.5 34.5 -41.5s50.833 -20.833 83.5 -29.5s65.334 -19 98.001 -31s60.5 -31 83.5 -57s34.5 -58.333 34.5 -97v-30c0 -58.667 -15 -104.334 -45 -137.001s-78.667 -52.334 -146 -59.001v-92
c-21.333 -5.33301 -42.333 -8 -63 -8c-9.33301 0 -19.166 0.666992 -29.499 2s-18.166 2.66602 -23.499 3.99902l-9 2v92c-70.667 6 -119.667 25 -147 57s-41 78.333 -41 139v12c28 4.66699 55.333 7 82 7c12 0 24.833 -0.5 38.5 -1.5s24.167 -2.16699 31.5 -3.5l11 -2v-12
c0 -34.667 6.16699 -58.667 18.5 -72s34.833 -20 67.5 -20c33.333 0 56.166 6.66699 68.499 20s18.5 37.333 18.5 72v30c0 18.667 -11.333 34 -34 46s-50.334 22.333 -83.001 31s-65.334 18.834 -98.001 30.501s-60.334 30 -83.001 55s-34 56.167 -34 93.5v30
c0 58 14.333 103.167 43 135.5s75.667 52.166 141 59.499v93c20.667 5.33301 41.334 8 62.001 8c9.33301 0 19.333 -0.666992 30 -2s19 -2.66602 25 -3.99902l8 -2v-92c69.333 -6.66699 117.333 -25.834 144 -57.501s40 -77.834 40 -138.501v-12
c-27.333 -4.66699 -54.333 -7 -81 -7c-12.667 0 -25.667 0.5 -39 1.5s-23.666 2.16699 -30.999 3.5l-11 2v12c0 34 -5.83301 57.833 -17.5 71.5s-33.167 20.5 -64.5 20.5c-30.667 0 -52.167 -7 -64.5 -21s-18.5 -37.667 -18.5 -71z" />
    <glyph glyph-name="percent" unicode="%" horiz-adv-x="648" 
d="M600 696l-418 -692c-22.667 -5.33301 -45 -8 -67 -8c-10 0 -20.667 0.666992 -32 2s-20 2.66602 -26 3.99902l-9 2l418 692c22 5.33301 44.333 8 67 8c10 0 20.5 -0.666992 31.5 -2s19.5 -2.66602 25.5 -3.99902zM28 560v29c0 76 45.667 114 137 114
c92 0 138 -38 138 -114v-29c0 -76.667 -46 -115 -138 -115c-91.333 0 -137 38.333 -137 115zM346 111v29c0 76.667 45.667 115 137 115s137 -38.333 137 -115v-29c0 -76 -45.667 -114 -137 -114s-137 38 -137 114zM440 140v-29c0 -20.667 14.333 -31 43 -31s43 10.333 43 31
v29c0 11.333 -3.16699 19.333 -9.5 24s-17.5 7 -33.5 7s-27.167 -2.33301 -33.5 -7s-9.5 -12.667 -9.5 -24zM122 589v-29c0 -21.333 14.333 -32 43 -32s43 10.667 43 32v29c0 10.667 -3.16699 18.334 -9.5 23.001s-17.5 7 -33.5 7s-27.167 -2.33301 -33.5 -7
s-9.5 -12.334 -9.5 -23.001z" />
    <glyph glyph-name="ampersand" unicode="&#x26;" horiz-adv-x="669" 
d="M630 402l-104.999 -0.00292969v-243c0 -24.667 4 -42.167 12 -52.5s22.333 -15.5 43 -15.5c17.333 0 34 4 50 12c4 -13.333 6 -28 6 -44l-6 -44c-0.666992 0 -2.83398 -0.833008 -6.50098 -2.5s-8.5 -3.5 -14.5 -5.5s-12.833 -4 -20.5 -6s-16.834 -3.83301 -27.501 -5.5
s-21 -2.5 -31 -2.5c-34 0 -62 6.33301 -84 19c-54 -12.667 -98.333 -19 -133 -19c-100 0 -172.167 16 -216.5 48s-66.5 80 -66.5 144v34c0 71.333 35.333 118.333 106 141c-64 22.667 -96 66.667 -96 132v27c0 62.667 19.833 109.667 59.5 141s103.834 47 192.501 47
s149.667 -15.167 183 -45.5s50 -77.166 50 -140.499v-21h105c4 -13.333 6 -29.666 6 -48.999c0 -8.66699 -0.5 -17.167 -1.5 -25.5s-1.83301 -14.166 -2.5 -17.499zM292.001 404.997l41 -0.00390625c4 -13.333 6 -29.666 6 -48.999c0 -8.66699 -0.5 -17.167 -1.5 -25.5
s-2.16699 -14.5 -3.5 -18.5l-1 -6h-41c-38.667 0 -65.5 -6.66699 -80.5 -20s-22.5 -35.666 -22.5 -66.999v-34c0 -34.667 8.83301 -59 26.5 -73s50.167 -21 97.5 -21c28 0 54 5 78 15c-4.66699 14.667 -7 32.334 -7 53.001v362c0 32.667 -6.5 55.5 -19.5 68.5
s-37.167 19.5 -72.5 19.5c-34.667 0 -58.834 -7 -72.501 -21s-20.5 -37 -20.5 -69v-27c0 -31.333 6.83301 -53.666 20.5 -66.999s37.834 -20 72.501 -20z" />
    <glyph glyph-name="quotesingle" unicode="'" horiz-adv-x="180" 
d="M148 696l-12.999 -210.001c-15.333 -4.66699 -30.333 -7 -45 -7c-6.66699 0 -13.834 0.5 -21.501 1.5s-13.5 2.16699 -17.5 3.5l-6 2l-13 210c19.333 5.33301 38.666 8 57.999 8c8.66699 0 17.834 -0.666992 27.501 -2s17.167 -2.66602 22.5 -3.99902z" />
    <glyph glyph-name="parenleft" unicode="(" horiz-adv-x="281" 
d="M257 -51c4 -12.667 6 -28.667 6 -48c0 -8.66699 -0.5 -17.167 -1.5 -25.5s-2.16699 -14.5 -3.5 -18.5l-1 -6c-76.667 0 -131.834 14.833 -165.501 44.5s-50.5 74.167 -50.5 133.5v546c0 59.333 16.833 103.833 50.5 133.5s88.834 44.5 165.501 44.5
c4 -14.667 6 -31.334 6 -50.001c0 -8.66699 -0.5 -17.167 -1.5 -25.5s-2.16699 -14.166 -3.5 -17.499l-1 -6c-26.667 0 -45 -5.83301 -55 -17.5s-15 -32.167 -15 -61.5v-546c0 -30 5 -50.833 15 -62.5s28.333 -17.5 55 -17.5z" />
    <glyph glyph-name="parenright" unicode=")" horiz-adv-x="281" 
d="M24 654c-4 12.667 -6 29 -6 49c0 8.66699 0.5 17.167 1.5 25.5s1.83301 14.5 2.5 18.5l2 6c76.667 0 131.834 -14.833 165.501 -44.5s50.5 -74.167 50.5 -133.5v-546c0 -59.333 -16.833 -103.833 -50.5 -133.5s-88.834 -44.5 -165.501 -44.5c-4 14 -6 30.667 -6 50
c0 8.66699 0.5 17 1.5 25s1.83301 14 2.5 18l2 5c26.667 0 45 5.83301 55 17.5s15 32.5 15 62.5v546c0 29.333 -5 49.833 -15 61.5s-28.333 17.5 -55 17.5z" />
    <glyph glyph-name="asterisk" unicode="*" horiz-adv-x="463" 
d="M60 613l122.001 -49.001l-8 132c18.667 5.33301 38 8 58 8c8 0 16.833 -0.666992 26.5 -2s17.5 -2.66602 23.5 -3.99902l8 -2l-9 -132l123 49c10.667 -16 19 -33.667 25 -53c2.66699 -8 4.83398 -16.667 6.50098 -26s2.5 -16.666 2.5 -21.999l1 -9l-127 -32l85 -103
c-13.333 -14.667 -27.666 -27.667 -42.999 -39c-6.66699 -5.33301 -14.334 -10.333 -23.001 -15s-15.667 -8 -21 -10l-8 -3l-70 112l-71 -112c-18 7.33301 -35 16.666 -51 27.999c-6.66699 5.33301 -13.5 11.333 -20.5 18s-12.167 12 -15.5 16l-6 6l83 101l-127 33
c1.33301 19.333 4.66602 38.333 9.99902 57c2.66699 8 6.16699 16.5 10.5 25.5s8.16602 15.833 11.499 20.5z" />
    <glyph glyph-name="plus" unicode="+" horiz-adv-x="399" 
d="M250 469l-0.00195312 -120.002h118c4.66699 -13.333 7 -29.666 7 -48.999c0 -8.66699 -0.5 -17 -1.5 -25s-2.16699 -14 -3.5 -18l-2 -6h-118v-119c-13.333 -4.66699 -30.333 -7 -51 -7c-9.33301 0 -18.166 0.5 -26.499 1.5s-14.5 2.16699 -18.5 3.5l-6 2v119h-118
c-4 12.667 -6 29 -6 49c0 8.66699 0.5 17 1.5 25s1.83301 14 2.5 18l2 6h118v120c13.333 4.66699 30.333 7 51 7c8.66699 0 17.334 -0.666992 26.001 -2s15 -2.66602 19 -3.99902z" />
    <glyph glyph-name="comma" unicode="," horiz-adv-x="232" 
d="M188 137c0 -33.333 -3.33008 -65 -9.99707 -95s-14.834 -54.5 -24.501 -73.5s-19.334 -35.5 -29.001 -49.5s-17.834 -24.333 -24.501 -31l-10 -9c-14.667 -4.66699 -29.667 -7 -45 -7c-6.66699 0 -13.667 0.666992 -21 2s-13.333 2.66602 -18 3.99902l-6 1
c3.33301 6.66699 7.5 16.5 12.5 29.5s11.5 41.833 19.5 86.5s12 92 12 142c24 5.33301 48 8 72 8c10.667 0 22 -0.666992 34 -2s21.333 -2.66602 28 -3.99902z" />
    <glyph glyph-name="hyphen" unicode="-" horiz-adv-x="275" 
d="M243 228l-213.001 -0.00195312c-4 12.667 -6 29 -6 49c0 8.66699 0.5 17 1.5 25s1.83301 14 2.5 18l2 6h213c4.66699 -13.333 7 -29.666 7 -48.999c0 -8.66699 -0.666992 -17.167 -2 -25.5s-2.66602 -14.166 -3.99902 -17.499z" />
    <glyph glyph-name="period" unicode="." horiz-adv-x="232" 
d="M192 137l-0.000976562 -133c-26 -5.33301 -51.333 -8 -76 -8c-11.333 0 -23.166 0.666992 -35.499 2s-21.833 2.66602 -28.5 3.99902l-11 2v133c24.667 5.33301 49.667 8 75 8c11.333 0 23.333 -0.666992 36 -2s22.667 -2.66602 30 -3.99902z" />
    <glyph glyph-name="slash" unicode="/" horiz-adv-x="386" 
d="M367 746l-197.003 -842c-25.333 -5.33301 -50.333 -8 -75 -8c-11.333 0 -23.166 0.666992 -35.499 2s-22.166 2.66602 -29.499 3.99902l-10 2l196 842c24.667 5.33301 49.667 8 75 8c11.333 0 23.333 -0.666992 36 -2s22.334 -2.66602 29.001 -3.99902z" />
    <glyph glyph-name="zero" unicode="0" horiz-adv-x="555" 
d="M36 170v360c0 59.333 18.833 103.666 56.5 132.999s99.167 44 184.5 44s146.666 -14.667 183.999 -44s56 -73.666 56 -132.999v-360c0 -59.333 -18.667 -103.666 -56 -132.999s-98.666 -44 -183.999 -44s-146.833 14.667 -184.5 44s-56.5 73.666 -56.5 132.999zM196 530
v-360c0 -29.333 5.66699 -49.833 17 -61.5s32.666 -17.5 63.999 -17.5s52.666 5.83301 63.999 17.5s17 32.167 17 61.5v360c0 29.333 -5.66699 49.833 -17 61.5s-32.666 17.5 -63.999 17.5s-52.666 -5.83301 -63.999 -17.5s-17 -32.167 -17 -61.5z" />
    <glyph glyph-name="one" unicode="1" horiz-adv-x="396" 
d="M311 703l0.000976562 -698.997c-26.667 -5.33301 -53.334 -8 -80.001 -8c-12 0 -24.5 0.666992 -37.5 2s-23.167 2.66602 -30.5 3.99902l-11 2v580c-22.667 0 -44.5 0.666992 -65.5 2s-36.5 2.66602 -46.5 3.99902l-14 3c-4.66699 14 -7 31 -7 51
c0 9.33301 0.5 18.166 1.5 26.499s2.16699 14.5 3.5 18.5l2 6c72.667 5.33301 167.667 8 285 8z" />
    <glyph glyph-name="two" unicode="2" horiz-adv-x="555" 
d="M364 478l0.00195312 30.0039c0 36 -6.83301 61.833 -20.5 77.5s-36.834 23.5 -69.501 23.5c-34 0 -57.333 -7.5 -70 -22.5s-19 -41.167 -19 -78.5v-12c-25.333 -4.66699 -51 -7 -77 -7c-11.333 0 -23.333 0.5 -36 1.5s-22.667 2.16699 -30 3.5l-11 2v12
c0 68 17.333 118.167 52 150.5s98.334 48.5 191.001 48.5c88 0 151.167 -16.333 189.5 -49s57.5 -82.667 57.5 -150v-30c0 -43.333 -11.333 -80.166 -34 -110.499s-50 -53.5 -82 -69.5s-64 -30.833 -96 -44.5s-59.333 -30.334 -82 -50.001s-34 -43.5 -34 -71.5v-34h316
c4 -12.667 6 -29 6 -49c0 -8.66699 -0.5 -17 -1.5 -25s-2.16699 -14 -3.5 -18l-1 -6h-251c-39.333 0 -77.333 0.833008 -114 2.5s-63.334 3.5 -80.001 5.5l-26 2v122c0 30.667 6 58 18 82s27.5 43.667 46.5 59s40.167 29.166 63.5 41.499s46.666 23.666 69.999 33.999
s44.5 21.166 63.5 32.499s34.5 25.166 46.5 41.499s18 34.833 18 55.5z" />
    <glyph glyph-name="three" unicode="3" horiz-adv-x="536" 
d="M47 596c-4.66699 14.667 -7.00391 31.9951 -7.00391 51.9951c0 8.66699 0.666992 17.334 2 26.001s2.66602 15.334 3.99902 20.001l1 6h428c4.66699 -13.333 7 -29.666 7 -48.999c0 -8.66699 -0.666992 -17.167 -2 -25.5s-2.66602 -14.166 -3.99902 -17.499l-1 -6
l-174 -187c136 0 204 -63 204 -189v-41c0 -64 -21.333 -112 -64 -144s-112.667 -48 -210 -48c-33.333 0 -65.666 3.16699 -96.999 9.5s-54.666 12.833 -69.999 19.5l-22 10c-6 13.333 -9 30.333 -9 51c0 6 0.333008 11.667 1 17s1.5 9.83301 2.5 13.5s1.83301 7 2.5 10
s1.33398 5.16699 2.00098 6.5l1 3c0 -1.33301 7.5 -5.16602 22.5 -11.499s38 -13 69 -20s62.5 -10.5 94.5 -10.5c45.333 0 76.333 7 93 21s25 38.333 25 73v41c0 33.333 -7.66699 57 -23 71s-42.666 21 -81.999 21h-93c-4 14 -6 31.333 -6 52c0 9.33301 0.5 18.333 1.5 27
s1.83301 15 2.5 19l2 6l157 174h-258z" />
    <glyph glyph-name="four" unicode="4" horiz-adv-x="560" 
d="M482 496v-241.998h51c4.66699 -14 7 -31.333 7 -52c0 -8.66699 -0.666992 -17.334 -2 -26.001s-2.66602 -15.334 -3.99902 -20.001l-1 -6h-46v-146c-26 -5.33301 -52 -8 -78 -8c-11.333 0 -23.5 0.666992 -36.5 2s-23.167 2.66602 -30.5 3.99902l-11 2v146h-296
c-4 13.333 -6 30 -6 50l162 496c18.667 4.66699 43 7 73 7c14 0 27.667 -0.5 41 -1.5s23 -2.16699 29 -3.5l10 -2l-142 -442h131v242c24.667 5.33301 49.334 8 74.001 8c11.333 0 23.166 -0.666992 35.499 -2s22.166 -2.66602 29.499 -3.99902z" />
    <glyph glyph-name="five" unicode="5" horiz-adv-x="530" 
d="M212 602l-11.002 -175.003h41c95.333 0 162 -16 200 -48s57 -81 57 -147v-47c0 -64 -21 -112 -63 -144s-110.667 -48 -206 -48c-33.333 0 -65.666 3.16699 -96.999 9.5s-54.333 12.833 -69 19.5l-23 10c-6 13.333 -9 30.333 -9 51c0 6 0.333008 11.667 1 17
s1.33398 9.83301 2.00098 13.5s1.5 7 2.5 10s1.83301 5.16699 2.5 6.5l1 3c0 -1.33301 7.5 -5.16602 22.5 -11.499s38 -13 69 -20s62.833 -10.5 95.5 -10.5c42.667 0 72 7 88 21s24 38.333 24 73v47c0 32.667 -7.16699 56 -21.5 70s-39.833 21 -76.5 21h-181
c-4.66699 14 -7 31.333 -7 52l26 315c58.667 6.66699 132 10 220 10h150c4.66699 -13.333 7 -29.666 7 -48.999c0 -8.66699 -0.5 -17.167 -1.5 -25.5s-2.16699 -14.166 -3.5 -17.499l-2 -6h-238z" />
    <glyph glyph-name="six" unicode="6" horiz-adv-x="553" 
d="M196 421c38.667 24.667 86.335 36.9971 143.002 36.9971c63.333 0 108.666 -14.667 135.999 -44s41 -73.666 41 -132.999v-111c0 -59.333 -18.667 -103.666 -56 -132.999s-98.666 -44 -183.999 -44c-84.667 0 -145.834 14.833 -183.501 44.5s-56.5 73.834 -56.5 132.501
v343c0 129.333 90.667 194 272 194c28.667 0 56.667 -2.16699 84 -6.5s47.666 -8.5 60.999 -12.5l20 -6c4.66699 -12.667 7 -29 7 -49c0 -5.33301 -0.166992 -10.666 -0.5 -15.999s-1 -10 -2 -14l-2.5 -10c-0.666992 -2.66699 -1 -5 -1 -7l-1 -2
c0 0.666992 -7.16699 3 -21.5 7s-35.833 8 -64.5 12s-58 6 -88 6c-38 0 -64.667 -7.83301 -80 -23.5s-23 -39.834 -23 -72.501v-92zM196.001 331.997l-0.000976562 -161.999c0 -29.333 5.66699 -49.833 17 -61.5s32.333 -17.5 63 -17.5s51.834 5.83301 63.501 17.5
s17.5 32.167 17.5 61.5v111c0 29.333 -5.33301 49.833 -16 61.5s-30.334 17.5 -59.001 17.5c-18 0 -34.167 -2.33301 -48.5 -7s-24.166 -9.33398 -29.499 -14.001z" />
    <glyph glyph-name="seven" unicode="7" horiz-adv-x="529" 
d="M495 651l-219 -648.002c-20 -4.66699 -45.667 -7 -77 -7c-14.667 0 -29.167 0.666992 -43.5 2s-24.833 2.66602 -31.5 3.99902l-10 1l209 593h-283c-4.66699 14.667 -7 32 -7 52c0 8.66699 0.5 17.334 1.5 26.001s2.16699 15.334 3.5 20.001l2 6h448
c4.66699 -13.333 7 -29.666 7 -48.999z" />
    <glyph glyph-name="eight" unicode="8" horiz-adv-x="554" 
d="M47 486v44c0 59.333 18 103.666 54 132.999s94.667 44 176 44s140 -14.667 176 -44s54 -73.666 54 -132.999v-44c0 -60 -23.333 -102 -70 -126c56.667 -23.333 85 -67 85 -131v-59c0 -59.333 -19 -103.666 -57 -132.999s-100.667 -44 -188 -44s-150 14.667 -188 44
s-57 73.666 -57 132.999v59c0 64 28.333 107.667 85 131c-46.667 24 -70 66 -70 126zM191 229v-59c0 -29.333 6.16699 -49.833 18.5 -61.5s34.833 -17.5 67.5 -17.5s55.167 5.83301 67.5 17.5s18.5 32.167 18.5 61.5v59c0 29.333 -6.16699 49.833 -18.5 61.5
s-34.833 17.5 -67.5 17.5s-55.167 -5.83301 -67.5 -17.5s-18.5 -32.167 -18.5 -61.5zM206 530v-44c0 -29.333 5.16699 -49.833 15.5 -61.5s28.833 -17.5 55.5 -17.5s45.167 5.83301 55.5 17.5s15.5 32.167 15.5 61.5v44c0 29.333 -5.16699 49.833 -15.5 61.5
s-28.833 17.5 -55.5 17.5s-45.167 -5.83301 -55.5 -17.5s-15.5 -32.167 -15.5 -61.5z" />
    <glyph glyph-name="nine" unicode="9" horiz-adv-x="553" 
d="M357 187l0.00292969 103.001c-38.667 -25.333 -86.667 -38 -144 -38c-62.667 0 -107.834 14.833 -135.501 44.5s-41.5 74.167 -41.5 133.5v99c0 59.333 18.667 103.833 56 133.5s98.666 44.5 183.999 44.5s146.666 -14.833 183.999 -44.5s56 -74.167 56 -133.5v-342
c0 -129.333 -92 -194 -276 -194c-29.333 0 -58 2.16699 -86 6.5s-48.667 8.5 -62 12.5l-21 6c-4.66699 12.667 -7 29 -7 49c0 5.33301 0.166992 10.666 0.5 15.999s1 9.83301 2 13.5s1.83301 7 2.5 10s1 5.5 1 7.5l1 2c0 -0.666992 7.33301 -3 22 -7s37 -8 67 -12
s60.333 -6 91 -6c39.333 0 66.833 8 82.5 24s23.5 40 23.5 72zM357.003 379.001l0.000976562 150c0 30 -5.83301 50.833 -17.5 62.5s-32.834 17.5 -63.501 17.5s-51.667 -5.83301 -63 -17.5s-17 -32.5 -17 -62.5v-99c0 -29.333 5.16699 -50 15.5 -62s29.833 -18 58.5 -18
c18 0 34.333 2.33301 49 7s24.667 9.66699 30 15z" />
    <glyph glyph-name="colon" unicode=":" horiz-adv-x="232" 
d="M192 137l-0.000976562 -133c-26 -5.33301 -51.333 -8 -76 -8c-11.333 0 -23.166 0.666992 -35.499 2s-21.833 2.66602 -28.5 3.99902l-11 2v133c24.667 5.33301 49.667 8 75 8c11.333 0 23.333 -0.666992 36 -2s22.667 -2.66602 30 -3.99902zM191.999 496
l-0.000976562 -133c-26 -5.33301 -51.333 -8 -76 -8c-11.333 0 -23.166 0.666992 -35.499 2s-21.833 2.66602 -28.5 3.99902l-11 2v133c24.667 5.33301 49.667 8 75 8c11.333 0 23.333 -0.666992 36 -2s22.667 -2.66602 30 -3.99902z" />
    <glyph glyph-name="semicolon" unicode=";" horiz-adv-x="232" 
d="M192 496l-0.000976562 -133c-26 -5.33301 -51.333 -8 -76 -8c-11.333 0 -23.166 0.666992 -35.499 2s-21.833 2.66602 -28.5 3.99902l-11 2v133c24.667 5.33301 49.667 8 75 8c11.333 0 23.333 -0.666992 36 -2s22.667 -2.66602 30 -3.99902zM187.999 137
c0 -33.333 -3.33008 -65 -9.99707 -95s-14.834 -54.5 -24.501 -73.5s-19.334 -35.5 -29.001 -49.5s-17.834 -24.333 -24.501 -31l-10 -9c-14.667 -4.66699 -29.667 -7 -45 -7c-6.66699 0 -13.667 0.666992 -21 2s-13.333 2.66602 -18 3.99902l-6 1
c3.33301 6.66699 7.5 16.5 12.5 29.5s11.5 41.833 19.5 86.5s12 92 12 142c24 5.33301 48 8 72 8c10.667 0 22 -0.666992 34 -2s21.333 -2.66602 28 -3.99902z" />
    <glyph glyph-name="less" unicode="&#x3c;" horiz-adv-x="459" 
d="M422 404l-190.002 -102l190 -102c5.33301 -22 8 -42.333 8 -61c0 -8 -0.666992 -16.833 -2 -26.5s-2.66602 -17.5 -3.99902 -23.5l-2 -9l-398 222l398 222c5.33301 -22 8 -42 8 -60c0 -8 -0.666992 -17 -2 -27s-2.66602 -18 -3.99902 -24z" />
    <glyph glyph-name="equal" unicode="=" horiz-adv-x="419" 
d="M388 155l-358 -0.000976562c-4 12 -6 28.333 -6 49c0 8.66699 0.5 17 1.5 25s1.83301 14 2.5 18l2 6h358c4 -13.333 6 -29.666 6 -48.999c0 -8.66699 -0.5 -17.167 -1.5 -25.5s-1.83301 -14.5 -2.5 -18.5zM388 352.999l-358 -0.000976562c-4 12.667 -6 29 -6 49
c0 8.66699 0.5 17 1.5 25s1.83301 14 2.5 18l2 6h358c4.66699 -13.333 7 -29.666 7 -48.999c0 -8.66699 -0.5 -17.167 -1.5 -25.5s-2.16699 -14.5 -3.5 -18.5z" />
    <glyph glyph-name="greater" unicode="&#x3e;" horiz-adv-x="459" 
d="M37 201l190 102l-190 102c-4.66699 22 -7 42.333 -7 61l7 58l398 -221l-398 -223c-4.66699 22.667 -7 43 -7 61z" />
    <glyph glyph-name="question" unicode="?" horiz-adv-x="549" 
d="M359 478l0.00292969 30.0029c0 36.667 -6.66699 62.667 -20 78s-36 23 -68 23c-32.667 0 -55.167 -7.5 -67.5 -22.5s-18.5 -41.167 -18.5 -78.5v-12c-25.333 -4.66699 -51 -7 -77 -7c-11.333 0 -23.333 0.5 -36 1.5s-22.667 2.16699 -30 3.5l-11 2v12
c0 68 17.167 118.167 51.5 150.5s97.166 48.5 188.499 48.5c87.333 0 150 -16.333 188 -49s57 -82.667 57 -150v-30c0 -28 -5.66699 -52 -17 -72s-25 -35.5 -41 -46.5s-32.167 -21.167 -48.5 -30.5s-30.166 -20.333 -41.499 -33s-17 -27.667 -17 -45v-30
c-26 -4.66699 -52.333 -7 -79 -7c-12 0 -24.667 0.666992 -38 2s-23.666 2.66602 -30.999 3.99902l-11 1v30c0 24 4.16699 45.167 12.5 63.5s18.666 32.666 30.999 42.999s25.666 20.166 39.999 29.499s27.666 17.5 39.999 24.5s22.666 16.167 30.999 27.5
s12.5 24.333 12.5 39zM352.003 137.003v-133c-26.667 -5.33301 -53.334 -8 -80.001 -8c-12 0 -24.667 0.666992 -38 2s-23.666 2.66602 -30.999 3.99902l-11 2v133c26.667 5.33301 53.334 8 80.001 8c12 0 24.667 -0.666992 38 -2s23.666 -2.66602 30.999 -3.99902z" />
    <glyph glyph-name="at" unicode="@" horiz-adv-x="728" 
d="M41 40l-0.00390625 239.001c0 76 27.5 133 82.5 171s145.167 57 270.5 57c104 0 178.833 -15.333 224.5 -46s68.5 -76.667 68.5 -138v-319c-26 -5.33301 -52.333 -8 -79 -8c-12.667 0 -25.667 0.666992 -39 2s-23.666 2.66602 -30.999 3.99902l-10 2v26
c-35.333 -24.667 -78.666 -37 -129.999 -37c-52.667 0 -90.667 12.333 -114 37s-35 62 -35 112v11c0 42 14.5 74.5 43.5 97.5s77.167 38.833 144.5 47.5l91 11v14c0 31.333 -9.66699 53.5 -29 66.5s-54.333 19.5 -105 19.5c-73.333 0 -124 -9.66699 -152 -29
s-42 -53 -42 -101v-239c0 -58 14.333 -97.333 43 -118s82.334 -31 161.001 -31c46.667 0 92.667 3.5 138 10.5s79.166 13.667 101.499 20s33.5 10.166 33.5 11.499l1 -3c0.666992 -1.33301 1.5 -3.5 2.5 -6.5s1.83301 -6.33301 2.5 -10s1.33398 -8.16699 2.00098 -13.5
s1 -11 1 -17c0 -9.33301 -0.666992 -18.166 -2 -26.499s-2.66602 -14.5 -3.99902 -18.5l-3 -6c-75.333 -26 -166.333 -39 -273 -39c-130 0 -223 20.167 -279 60.5s-84 102.5 -84 186.5zM527.996 214.001l-60 -9c-39.333 -6 -59 -23.333 -59 -52v-11
c0 -18.667 3.83301 -31.834 11.5 -39.501s21.5 -11.5 41.5 -11.5c14 0 26.5 2.33301 37.5 7s18.5 9.33398 22.5 14.001l6 7v95z" />
    <glyph glyph-name="A" unicode="A" horiz-adv-x="618" 
d="M9 4l187 692.001c35.333 5.33301 73 8 113 8c17.333 0 35.5 -0.666992 54.5 -2s33.833 -2.66602 44.5 -3.99902l15 -2l187 -692c-28.667 -5.33301 -55.667 -8 -81 -8c-11.333 0 -24 0.666992 -38 2s-25 2.66602 -33 3.99902l-13 2l-35 142h-201l-36 -142
c-29.333 -5.33301 -57 -8 -83 -8c-11.333 0 -23.833 0.666992 -37.5 2s-24.5 2.66602 -32.5 3.99902zM310 567.001l-78 -314h154z" />
    <glyph glyph-name="B" unicode="B" horiz-adv-x="582" 
d="M41 9l-0.000976562 682.002c68 9.33301 150.667 14 248 14c89.333 0 153.833 -15.333 193.5 -46s59.5 -77.334 59.5 -140.001v-27c0 -66 -32 -110.333 -96 -133c70.667 -22.667 106 -69.334 106 -140.001v-34c0 -63.333 -20.5 -110.833 -61.5 -142.5
s-108.167 -47.5 -201.5 -47.5c-43.333 0 -85.666 1.16699 -126.999 3.5s-72 4.83301 -92 7.5zM208.999 306.002v-204.998h80c36 0 60.833 6.16699 74.5 18.5s20.5 34.166 20.5 65.499v34c0 31.333 -6.83301 53.666 -20.5 66.999s-38.5 20 -74.5 20h-80zM208.999 599.004
v-190h80c31.333 0 53.333 6.5 66 19.5s19 34.167 19 63.5v27c0 28.667 -6.33301 49.167 -19 61.5s-34.667 18.5 -66 18.5h-80z" />
    <glyph glyph-name="C" unicode="C" horiz-adv-x="560" 
d="M36 192l-0.000976562 316c0 66 20 115.667 60 149s105.667 50 197 50s154.166 -16.167 188.499 -48.5s51.5 -82.5 51.5 -150.5v-12c-25.333 -4.66699 -50.333 -7 -75 -7c-11.333 0 -23.333 0.5 -36 1.5s-22.667 2.16699 -30 3.5l-10 2v12
c0 34.667 -6.33301 58.667 -19 72s-36 20 -70 20s-57.333 -6.83301 -70 -20.5s-19 -37.5 -19 -71.5v-316c0 -34 8 -57.833 24 -71.5s44.667 -20.5 86 -20.5c34 0 67.333 3.5 100 10.5s57 13.5 73 19.5s24 9.66699 24 11l1 -3c0.666992 -1.33301 1.5 -3.5 2.5 -6.5
s1.83301 -6.5 2.5 -10.5s1.33398 -9 2.00098 -15s1 -12 1 -18c0 -10 -0.666992 -19.667 -2 -29s-2.66602 -16.333 -3.99902 -21l-3 -6c-54 -26 -120 -39 -198 -39c-98.667 0 -169.5 16.5 -212.5 49.5s-64.5 82.833 -64.5 149.5z" />
    <glyph glyph-name="D" unicode="D" horiz-adv-x="591" 
d="M41 691c67.333 9.33301 151.667 14 253 14c92.667 0 159.167 -16.333 199.5 -49s60.5 -82 60.5 -148v-316c0 -66 -20.167 -115.333 -60.5 -148s-106.833 -49 -199.5 -49c-45.333 0 -89 1.16699 -131 3.5s-73 4.83301 -93 7.5l-29 3v682zM209.001 599v-498h85
c34.667 0 58.667 6.66699 72 20s20 37 20 71v316c0 34 -6.66699 57.667 -20 71s-37.333 20 -72 20h-85z" />
    <glyph glyph-name="E" unicode="E" horiz-adv-x="511" 
d="M209 306l-0.000976562 -199h273c4.66699 -14 7 -32 7 -54c0 -9.33301 -0.5 -18.5 -1.5 -27.5s-2.16699 -15.5 -3.5 -19.5l-2 -6h-221c-39.333 -0 -77.333 0.833008 -114 2.5s-63.667 3.5 -81 5.5l-25 2v680c58.667 6.66699 132 10 220 10h216c4.66699 -14 7 -32 7 -54
c0 -9.33301 -0.666992 -18.5 -2 -27.5s-2.66602 -15.5 -3.99902 -19.5l-1 -6h-268v-180h238c4 -14 6 -31.667 6 -53c0 -9.33301 -0.5 -18.5 -1.5 -27.5s-2.16699 -15.833 -3.5 -20.5l-1 -6h-238z" />
    <glyph glyph-name="F" unicode="F" horiz-adv-x="500" 
d="M209 306v-301.999c-28 -5.33301 -56 -8 -84 -8c-12.667 0 -26 0.666992 -40 2s-25 2.66602 -33 3.99902l-11 2v686c58.667 6.66699 132 10 220 10h211c4 -14 6 -32 6 -54c0 -9.33301 -0.5 -18.5 -1.5 -27.5s-1.83301 -15.5 -2.5 -19.5l-2 -6h-263v-180h232
c4 -14 6 -31.667 6 -53c0 -9.33301 -0.5 -18.5 -1.5 -27.5s-2.16699 -15.833 -3.5 -20.5l-1 -6h-232z" />
    <glyph glyph-name="G" unicode="G" horiz-adv-x="583" 
d="M542 382l-0.00195312 -339.002c-7.33301 -3.33301 -17.833 -7.66602 -31.5 -12.999s-41.667 -12.5 -84 -21.5s-85.166 -13.5 -128.499 -13.5c-92.667 0 -159.5 16.333 -200.5 49s-61.5 82 -61.5 148v316c0 66.667 20.333 116.5 61 149.5s107.667 49.5 201 49.5
c92.667 0 156.5 -16.167 191.5 -48.5s52.5 -82.5 52.5 -150.5v-12c-25.333 -4.66699 -50.333 -7 -75 -7c-11.333 0 -23.166 0.5 -35.499 1.5s-22.166 2.16699 -29.499 3.5l-10 2v12c0 34.667 -6.66699 58.667 -20 72s-38 20 -74 20s-60.667 -6.66699 -74 -20
s-20 -37.333 -20 -72v-316c0 -34 6.83301 -57.667 20.5 -71s38.167 -20 73.5 -20c16.667 0 32 1.33301 46 4s24 5.33398 30 8.00098l9 4v169h-79c-4 14 -6 32 -6 54c0 9.33301 0.5 18.5 1.5 27.5s1.83301 15.5 2.5 19.5l2 6h44c34.667 0 68.167 -0.833008 100.5 -2.5
s56.166 -3.5 71.499 -5.5z" />
    <glyph glyph-name="H" unicode="H" horiz-adv-x="622" 
d="M581 696v-692c-27.333 -5.33301 -55.333 -8 -84 -8c-12.667 0 -26 0.666992 -40 2s-25 2.66602 -33 3.99902l-11 2v298h-204v-298c-28 -5.33301 -56 -8 -84 -8c-12.667 0 -26 0.666992 -40 2s-25 2.66602 -33 3.99902l-11 2v692c27.333 5.33301 55.333 8 84 8
c12.667 0 26 -0.666992 40 -2s25 -2.66602 33 -3.99902l11 -2v-287h204v287c28 5.33301 56 8 84 8c12.667 0 26 -0.666992 40 -2s25 -2.66602 33 -3.99902z" />
    <glyph glyph-name="I" unicode="I" horiz-adv-x="342" 
d="M28 107h59v486h-59c-4 14 -6 31.667 -6 53c0 10 0.5 19.5 1.5 28.5s1.83301 15.5 2.5 19.5l2 6h286c4.66699 -14 7 -32 7 -54c0 -9.33301 -0.5 -18.5 -1.5 -27.5s-2.16699 -15.5 -3.5 -19.5l-2 -6h-59v-486h59c4.66699 -14 7 -32 7 -54c0 -9.33301 -0.5 -18.5 -1.5 -27.5
s-2.16699 -15.5 -3.5 -19.5l-2 -6h-286c-4 14 -6 31.667 -6 53c0 10 0.5 19.5 1.5 28.5s1.83301 15.5 2.5 19.5z" />
    <glyph glyph-name="J" unicode="J" horiz-adv-x="470" 
d="M429 696l-0.000976562 -504.002c0 -66.667 -18.833 -116.5 -56.5 -149.5s-99.834 -49.5 -186.501 -49.5c-26 0 -51.5 3.16699 -76.5 9.5s-43.5 12.833 -55.5 19.5l-17 10c-6 14.667 -9 33.334 -9 56.001c0 6 0.333008 12 1 18s1.33398 11 2.00098 15s1.5 7.5 2.5 10.5
s1.83301 5.16699 2.5 6.5l1 3c0 -1.33301 5.83301 -5 17.5 -11s29.834 -12.5 54.501 -19.5s49.667 -10.5 75 -10.5c29.333 0 49.5 6.66699 60.5 20s16.5 37.333 16.5 72v504c28 5.33301 56 8 84 8c12.667 0 26 -0.666992 40 -2s25 -2.66602 33 -3.99902z" />
    <glyph glyph-name="K" unicode="K" horiz-adv-x="594" 
d="M407 4l-161.999 299l-36 -9v-290c-28.667 -5.33301 -56.667 -8 -84 -8c-12.667 0 -26 0.666992 -40 2s-25 2.66602 -33 3.99902l-11 2v692c27.333 5.33301 55.333 8 84 8c12 0 25 -0.666992 39 -2s25 -2.66602 33 -3.99902l12 -2v-288l36 9l150 279
c30 5.33301 59.333 8 88 8c12.667 0 26 -0.666992 40 -2s25 -2.66602 33 -3.99902l11 -2l-175 -336l190 -356c-30 -5.33301 -59 -8 -87 -8c-12 0 -25.333 0.666992 -40 2s-26.334 2.66602 -35.001 3.99902z" />
    <glyph glyph-name="L" unicode="L" horiz-adv-x="480" 
d="M209 696v-589.001h243c4.66699 -14 7 -32 7 -54c0 -9.33301 -0.5 -18.5 -1.5 -27.5s-2.16699 -15.5 -3.5 -19.5l-2 -6h-191c-39.333 0 -77.333 0.833008 -114 2.5s-63.667 3.5 -81 5.5l-25 2v686c27.333 5.33301 55.333 8 84 8c12.667 0 26 -0.666992 40 -2
s25 -2.66602 33 -3.99902z" />
    <glyph glyph-name="M" unicode="M" horiz-adv-x="801" 
d="M761 697l-0.00195312 -691.998c-26.667 -5.33301 -53.334 -8 -80.001 -8c-12 0 -24.667 0.666992 -38 2s-23.666 2.66602 -30.999 3.99902l-11 2v468l-131 -366c-20.667 -4.66699 -43.667 -7 -69 -7c-10.667 0 -22 0.666992 -34 2s-21 2.66602 -27 3.99902l-10 1
l-130 365v-468c-26.667 -5.33301 -53.334 -8 -80.001 -8c-11.333 0 -23.666 0.666992 -36.999 2s-23.666 2.66602 -30.999 3.99902l-11 2v692c0 0.666992 5 1.5 15 2.5s24.167 2 42.5 3s36.5 1.5 54.5 1.5c17.333 0 35.333 -0.5 54 -1.5s33 -2.16699 43 -3.5l15 -2l135 -375
l136 376c36 4.66699 73.333 7 112 7c17.333 0 35.333 -0.666992 54 -2s33.334 -2.66602 44.001 -3.99902z" />
    <glyph glyph-name="N" unicode="N" horiz-adv-x="618" 
d="M41 4l-0.000976562 692c23.333 5.33301 47 8 71 8c10.667 0 21.834 -0.666992 33.501 -2s20.834 -2.66602 27.501 -3.99902l10 -2l235 -386v386c26.667 5.33301 53.334 8 80.001 8c12 0 24.667 -0.666992 38 -2s23.666 -2.66602 30.999 -3.99902l11 -2v-692
c-24 -5.33301 -47.667 -8 -71 -8c-10.667 0 -21.834 0.666992 -33.501 2s-20.834 2.66602 -27.501 3.99902l-10 2l-236 386v-386c-26.667 -5.33301 -53.334 -8 -80.001 -8c-11.333 0 -23.666 0.666992 -36.999 2s-23.666 2.66602 -30.999 3.99902z" />
    <glyph glyph-name="O" unicode="O" horiz-adv-x="594" 
d="M36 192v316c0 66 20.5 115.667 61.5 149s107.5 50 199.5 50s158.333 -16.667 199 -50s61 -83 61 -149v-316c0 -66 -20.333 -115.667 -61 -149s-107 -50 -199 -50s-158.5 16.667 -199.5 50s-61.5 83 -61.5 149zM204 508v-316c0 -34 6.66699 -57.833 20 -71.5
s37.666 -20.5 72.999 -20.5c34.667 0 58.667 6.83301 72 20.5s20 37.5 20 71.5v316c0 34 -6.66699 57.833 -20 71.5s-37.333 20.5 -72 20.5c-35.333 0 -59.666 -6.83301 -72.999 -20.5s-20 -37.5 -20 -71.5z" />
    <glyph glyph-name="P" unicode="P" horiz-adv-x="577" 
d="M41 691c64.667 9.33301 145.667 14.001 243 14.001c91.333 0 157.166 -16.333 197.499 -49s60.5 -82 60.5 -148v-40c0 -66.667 -20.167 -116.167 -60.5 -148.5s-106.166 -48.5 -197.499 -48.5l-75 3v-270c-28.667 -5.33301 -56.667 -8 -84 -8
c-12.667 0 -26 0.666992 -40 2s-25 2.66602 -33 3.99902l-11 2v687zM209 599.001v-223h75c34 0 57.5 6.83301 70.5 20.5s19.5 37.5 19.5 71.5v40c0 34 -6.5 57.667 -19.5 71s-36.5 20 -70.5 20h-75z" />
    <glyph glyph-name="Q" unicode="Q" horiz-adv-x="594" 
d="M370 -171l-78 164.001c-90.667 0.666992 -156 17.5 -196 50.5s-60 82.5 -60 148.5v316c0 66 20.5 115.667 61.5 149s107.5 50 199.5 50s158.333 -16.667 199 -50s61 -83 61 -149v-316c0 -95.333 -41.667 -156 -125 -182l103 -181c-26.667 -5.33301 -53.667 -8 -81 -8
c-12 0 -25 0.666992 -39 2s-25 2.66602 -33 3.99902zM204 508.001v-316c0 -34 6.66699 -57.833 20 -71.5s37.666 -20.5 72.999 -20.5c34.667 0 58.667 6.83301 72 20.5s20 37.5 20 71.5v316c0 34 -6.66699 57.833 -20 71.5s-37.333 20.5 -72 20.5
c-35.333 0 -59.666 -6.83301 -72.999 -20.5s-20 -37.5 -20 -71.5z" />
    <glyph glyph-name="R" unicode="R" horiz-adv-x="590" 
d="M403 4l-127.999 267.002l-66 3v-270c-28.667 -5.33301 -56.667 -8 -84 -8c-12.667 0 -26 0.666992 -40 2s-25 2.66602 -33 3.99902l-11 2v687c64.667 9.33301 145.667 14 243 14c91.333 0 157.166 -16.333 197.499 -49s60.5 -82 60.5 -148v-40
c0 -90 -37 -148.667 -111 -176l143 -288c-28 -5.33301 -56 -8 -84 -8c-12 0 -25.333 0.666992 -40 2s-26 2.66602 -34 3.99902zM209.001 599.002v-223h75c34 0 57.5 6.83301 70.5 20.5s19.5 37.5 19.5 71.5v40c0 34 -6.5 57.667 -19.5 71s-36.5 20 -70.5 20h-75z" />
    <glyph glyph-name="S" unicode="S" horiz-adv-x="564" 
d="M199 508l0.00292969 -30.001c0 -16.667 11.5 -30.5 34.5 -41.5s50.833 -20.833 83.5 -29.5s65.334 -19 98.001 -31s60.5 -31 83.5 -57s34.5 -58.333 34.5 -97v-30c0 -67.333 -19.667 -117.333 -59 -150s-104.333 -49 -195 -49c-94.667 0 -160 16.167 -196 48.5
s-54 82.5 -54 150.5v12c28 4.66699 55.333 7 82 7c12 0 24.833 -0.5 38.5 -1.5s24.167 -2.16699 31.5 -3.5l11 -2v-12c0 -34.667 6.16699 -58.667 18.5 -72s34.833 -20 67.5 -20c33.333 0 56.166 6.66699 68.499 20s18.5 37.333 18.5 72v30c0 18.667 -11.333 34 -34 46
s-50.334 22.333 -83.001 31s-65.334 18.834 -98.001 30.501s-60.334 30 -83.001 55s-34 56.167 -34 93.5v30c0 67.333 19.333 117.333 58 150s102.334 49 191.001 49c63.333 0 113.166 -8 149.499 -24s61.166 -37.833 74.499 -65.5s20 -64.167 20 -109.5v-12
c-27.333 -4.66699 -54.333 -7 -81 -7c-12.667 0 -25.667 0.5 -39 1.5s-23.666 2.16699 -30.999 3.5l-11 2v12c0 34 -5.83301 57.833 -17.5 71.5s-33.167 20.5 -64.5 20.5c-30.667 0 -52.167 -7 -64.5 -21s-18.5 -37.667 -18.5 -71z" />
    <glyph glyph-name="T" unicode="T" horiz-adv-x="557" 
d="M530 593l-167.999 0.000976562v-589c-27.333 -5.33301 -55.333 -8 -84 -8c-12.667 0 -25.834 0.666992 -39.501 2s-24.5 2.66602 -32.5 3.99902l-11 2v589h-169c-4 14 -6 31.667 -6 53c0 10 0.5 19.5 1.5 28.5s1.83301 15.5 2.5 19.5l2 6h504c4 -14 6 -32 6 -54
c0 -9.33301 -0.5 -18.5 -1.5 -27.5s-1.83301 -15.5 -2.5 -19.5z" />
    <glyph glyph-name="U" unicode="U" horiz-adv-x="598" 
d="M557 696l-0.000976562 -504.002c0 -66 -20.167 -115.667 -60.5 -149s-106.166 -50 -197.499 -50c-92 0 -158 16.5 -198 49.5s-60 82.833 -60 149.5v504c27.333 5.33301 55.333 8 84 8c12.667 0 26 -0.666992 40 -2s25 -2.66602 33 -3.99902l11 -2v-504
c0 -34 6.5 -57.833 19.5 -71.5s36.5 -20.5 70.5 -20.5s57.5 6.83301 70.5 20.5s19.5 37.5 19.5 71.5v504c27.333 5.33301 55.333 8 84 8c12.667 0 26 -0.666992 40 -2s25 -2.66602 33 -3.99902z" />
    <glyph glyph-name="V" unicode="V" horiz-adv-x="618" 
d="M196 4l-187 691.999c28 5.33301 54.667 8 80 8c11.333 0 24 -0.666992 38 -2s25 -2.66602 33 -3.99902l13 -2l136 -558l136 558c29.333 5.33301 57 8 83 8c11.333 0 23.833 -0.666992 37.5 -2s24.5 -2.66602 32.5 -3.99902l12 -2l-187 -692
c-35.333 -5.33301 -73 -8 -113 -8c-18 0 -36.5 0.666992 -55.5 2s-33.5 2.66602 -43.5 3.99902z" />
    <glyph glyph-name="W" unicode="W" horiz-adv-x="960" 
d="M574 4l-93.999 526.999l-94 -527c-36.667 -5.33301 -75 -8 -115 -8c-18 0 -36.5 0.666992 -55.5 2s-33.5 2.66602 -43.5 3.99902l-15 2l-148 692c28.667 5.33301 55.667 8 81 8c11.333 0 24 -0.666992 38 -2s25.333 -2.66602 34 -3.99902l12 -2l102 -541l102 541
c30 5.33301 64 8 102 8c16.667 0 33.5 -0.666992 50.5 -2s30.167 -2.66602 39.5 -3.99902l13 -2l101 -541l102 541c30 5.33301 58 8 84 8c11.333 0 23.666 -0.666992 36.999 -2s24 -2.66602 32 -3.99902l12 -2l-148 -692c-36 -5.33301 -73.667 -8 -113 -8
c-18 0 -36.667 0.666992 -56 2s-34 2.66602 -44 3.99902z" />
    <glyph glyph-name="X" unicode="X" horiz-adv-x="628" 
d="M437 4l-123 256l-123 -256c-32 -5.33301 -61.667 -8 -89 -8c-12 0 -25.5 0.666992 -40.5 2s-26.833 2.66602 -35.5 3.99902l-14 2l187 352l-179 340c34 5.33301 64.333 8 91 8c12 0 25.5 -0.666992 40.5 -2s27.167 -2.66602 36.5 -3.99902l13 -2l113 -243l113 243
c32.667 5.33301 62.667 8 90 8c12.667 0 26.5 -0.666992 41.5 -2s26.833 -2.66602 35.5 -3.99902l13 -2l-176 -340l186 -352c-35.333 -5.33301 -66.333 -8 -93 -8c-12 0 -25.167 0.666992 -39.5 2s-25.833 2.66602 -34.5 3.99902z" />
    <glyph glyph-name="Y" unicode="Y" horiz-adv-x="628" 
d="M607 696l-209 -444.001v-248c-27.333 -5.33301 -55.333 -8 -84 -8c-12.667 0 -26 0.666992 -40 2s-24.667 2.66602 -32 3.99902l-12 2v248l-210 444c34 5.33301 64.333 8 91 8c12 0 25.5 -0.666992 40.5 -2s27.167 -2.66602 36.5 -3.99902l13 -2l113 -281l113 281
c32.667 5.33301 62.667 8 90 8c12.667 0 26.5 -0.666992 41.5 -2s26.833 -2.66602 35.5 -3.99902z" />
    <glyph glyph-name="Z" unicode="Z" horiz-adv-x="546" 
d="M504 593l-281 -481h283c4 -16 6 -34.667 6 -56c0 -9.33301 -0.5 -18.666 -1.5 -27.999s-1.83301 -16.333 -2.5 -21l-2 -7h-466c-4.66699 14 -7 31.667 -7 53c0 10 0.5 19.5 1.5 28.5s2.16699 15.5 3.5 19.5l2 6l281 481h-280c-4 15.333 -6 34 -6 56
c0 9.33301 0.5 18.666 1.5 27.999s2.16699 16.333 3.5 21l1 7h463c4 -14 6 -32 6 -54c0 -9.33301 -0.5 -18.5 -1.5 -27.5s-1.83301 -15.5 -2.5 -19.5z" />
    <glyph glyph-name="bracketleft" unicode="[" horiz-adv-x="357" 
d="M41 -150l-0.000976562 902.998c52 0 101.833 -0.666992 149.5 -2s82.167 -2.66602 103.5 -3.99902l33 -2c4 -12 6 -27.667 6 -47c0 -8 -0.5 -15.833 -1.5 -23.5s-2.16699 -13.167 -3.5 -16.5l-1 -6c-37.333 -6 -84 -9 -140 -9v-683c24.667 0 48.667 -0.666992 72 -2
s40.333 -2.66602 51 -3.99902l17 -3c4 -13.333 6 -29 6 -47c0 -8 -0.5 -15.833 -1.5 -23.5s-2.16699 -13.167 -3.5 -16.5l-1 -6c-73.333 -5.33301 -168.666 -8 -285.999 -8z" />
    <glyph glyph-name="backslash" unicode="\" horiz-adv-x="386" 
d="M216 -96l-196.004 842c24.667 5.33301 49.667 8 75 8c10.667 0 22.334 -0.666992 35.001 -2s22.667 -2.66602 30 -3.99902l10 -2l197 -842c-25.333 -5.33301 -50.666 -8 -75.999 -8c-11.333 0 -23.166 0.666992 -35.499 2s-22.166 2.66602 -29.499 3.99902z" />
    <glyph glyph-name="bracketright" unicode="]" horiz-adv-x="357" 
d="M316 753v-903c-52 0 -101.833 0.666992 -149.5 2s-82.5 2.66602 -104.5 3.99902l-32 2c-4 12 -6 27.333 -6 46c0 8 0.5 16 1.5 24s1.83301 14 2.5 18l2 5c38 6 84.667 9 140 9v683c-24.667 0 -48.667 0.833008 -72 2.5s-40.666 3.16699 -51.999 4.5l-16 2
c-4 12.667 -6 28 -6 46c0 8.66699 0.5 16.834 1.5 24.501s1.83301 13.5 2.5 17.5l2 5c73.333 5.33301 168.666 8 285.999 8z" />
    <glyph glyph-name="asciicircum" unicode="^" horiz-adv-x="443" 
d="M222 705l201 -201c-6 -12.667 -16 -26 -30 -40c-6 -6 -12.333 -11.5 -19 -16.5s-12 -8.5 -16 -10.5l-5 -3l-131 131l-133 -132c-12.667 6.66699 -25.667 16.667 -39 30c-6 6 -11.5 12.333 -16.5 19s-8.5 12 -10.5 16l-3 5z" />
    <glyph glyph-name="underscore" unicode="_" horiz-adv-x="500" 
d="M500 -148h-500v98h500v-98z" />
    <glyph glyph-name="grave" unicode="`" horiz-adv-x="241" 
d="M148 558l-145.999 138c26 5.33301 50.333 8 73 8c10.667 0 22 -0.666992 34 -2s21.333 -2.66602 28 -3.99902l10 -2l91 -138c-14 -5.33301 -29 -8 -45 -8c-6 0 -12.833 0.666992 -20.5 2s-13.834 2.66602 -18.501 3.99902z" />
    <glyph glyph-name="a" unicode="a" horiz-adv-x="515" 
d="M315 4l0.000976562 26.001c-35.333 -24.667 -78.666 -37 -129.999 -37c-52.667 0 -90.667 12.333 -114 37s-35 62 -35 112v10c0 42 14.5 74.5 43.5 97.5s77.167 38.833 144.5 47.5l91 11v35c0 24 -4.33301 41 -13 51s-24 15 -46 15c-22.667 0 -38.167 -4.66699 -46.5 -14
s-12.5 -25.333 -12.5 -48v-9c-24.667 -4.66699 -50 -7 -76 -7c-10.667 0 -22.334 0.5 -35.001 1.5s-22.667 2.16699 -30 3.5l-10 2v9c0 54.667 15.167 95 45.5 121s85.166 39 164.499 39c77.333 0 133 -13.667 167 -41s51 -68.333 51 -123v-339
c-26 -5.33301 -52.333 -8 -79 -8c-12.667 0 -25.667 0.666992 -39 2s-23.333 2.66602 -30 3.99902zM315.001 213.001l-60 -9c-39.333 -6 -59 -23.333 -59 -52v-10c0 -18.667 3.83301 -31.834 11.5 -39.501s21.5 -11.5 41.5 -11.5c14 0 26.5 2.33301 37.5 7
s18.5 9.33398 22.5 14.001l6 7v94z" />
    <glyph glyph-name="b" unicode="b" 
d="M200 30v-26.002c-26.667 -5.33301 -53.334 -8 -80.001 -8c-11.333 0 -23.666 0.666992 -36.999 2s-23.666 2.66602 -30.999 3.99902l-11 2v692c26.667 5.33301 53 8 79 8c12 0 24.667 -0.666992 38 -2s23.666 -2.66602 30.999 -3.99902l11 -2v-211
c25.333 14.667 56.333 22 93 22c66 0 113.5 -14.667 142.5 -44s43.5 -73.666 43.5 -132.999v-160c0 -59.333 -12 -103.666 -36 -132.999s-63.333 -44 -118 -44c-22 0 -43.333 3.16699 -64 9.5s-36 12.5 -46 18.5zM320 169.998l-0.000976562 160
c0 29.333 -4.16699 49.833 -12.5 61.5s-23.5 17.5 -45.5 17.5c-23.333 0 -39.5 -5.83301 -48.5 -17.5s-13.5 -32.167 -13.5 -61.5v-211c12.667 -18.667 34.334 -28 65.001 -28c20.667 0 35 5.83301 43 17.5s12 32.167 12 61.5z" />
    <glyph glyph-name="c" unicode="c" horiz-adv-x="488" 
d="M36 170l-0.000976562 160.002c0 59.333 17 103.666 51 132.999s90 44 168 44c76.667 0 129.5 -14.333 158.5 -43s43.5 -73.334 43.5 -134.001v-12c-24 -4.66699 -47.667 -7 -71 -7c-10.667 0 -22 0.5 -34 1.5s-21.333 2.16699 -28 3.5l-9 2v12
c0 29.333 -4.33301 49.833 -13 61.5s-24.334 17.5 -47.001 17.5s-38.167 -5.83301 -46.5 -17.5s-12.5 -32.167 -12.5 -61.5v-160c0 -29.333 6.33301 -49.833 19 -61.5s36.334 -17.5 71.001 -17.5c25.333 0 50.333 2.33301 75 7s43 9.16699 55 13.5s18 6.83301 18 7.5l1 -3
c0.666992 -1.33301 1.33398 -3.5 2.00098 -6.5s1.5 -6.33301 2.5 -10s1.83301 -8.16699 2.5 -13.5s1 -10.666 1 -15.999c0 -8.66699 -0.833008 -17.167 -2.5 -25.5s-3.16699 -14.5 -4.5 -18.5l-2 -6c-40.667 -18 -90 -27 -148 -27c-88.667 0 -152.5 14.667 -191.5 44
s-58.5 73.666 -58.5 132.999z" />
    <glyph glyph-name="d" unicode="d" 
d="M316 4l0.000976562 25.998c-34 -24.667 -75.667 -37 -125 -37c-54.667 0 -94.167 14.833 -118.5 44.5s-36.5 73.834 -36.5 132.501v160c0 58.667 14.667 102.834 44 132.501s77 44.5 143 44.5c16 0 31.833 -1.83301 47.5 -5.5s27.167 -7.5 34.5 -11.5l11 -5v211
c26 5.33301 52.333 8 79 8c12 0 24.667 -0.666992 38 -2s23.666 -2.66602 30.999 -3.99902l11 -2v-692c-26.667 -5.33301 -53.334 -8 -80.001 -8c-12 0 -24.667 0.666992 -38 2s-23.666 2.66602 -30.999 3.99902zM196.001 329.998v-160.001
c0 -29.333 3.83301 -49.833 11.5 -61.5s22.167 -17.5 43.5 -17.5c13.333 0 25.5 2.33301 36.5 7s18.5 9.33398 22.5 14.001l6 7v211c0 29.333 -4.5 49.833 -13.5 61.5s-25.5 17.5 -49.5 17.5c-22 0 -37 -5.83301 -45 -17.5s-12 -32.167 -12 -61.5z" />
    <glyph glyph-name="e" unicode="e" horiz-adv-x="504" 
d="M36 170l-0.00195312 160.002c0 59.333 17.167 103.666 51.5 132.999s90.5 44 168.5 44c80 0 135.167 -14.333 165.5 -43s45.5 -73.334 45.5 -134.001v-119c-29.333 -9.33301 -74.333 -14 -135 -14h-136v-27c0 -29.333 6.5 -49.833 19.5 -61.5s36.833 -17.5 71.5 -17.5
c27.333 0 54 2.33301 80 7s45.5 9.16699 58.5 13.5s19.5 6.83301 19.5 7.5l1 -3c0.666992 -1.33301 1.5 -3.5 2.5 -6.5s1.83301 -6.33301 2.5 -10s1.33398 -8.16699 2.00098 -13.5s1 -10.666 1 -15.999c0 -8.66699 -0.666992 -17.167 -2 -25.5
s-2.66602 -14.5 -3.99902 -18.5l-3 -6c-43.333 -18 -96 -27 -158 -27c-89.333 0 -153.5 14.667 -192.5 44s-58.5 73.666 -58.5 132.999zM195.998 295.002h121.001v35c0 29.333 -4.33301 49.833 -13 61.5s-24.667 17.5 -48 17.5c-22.667 0 -38.334 -5.83301 -47.001 -17.5
s-13 -32.167 -13 -61.5v-35z" />
    <glyph glyph-name="f" unicode="f" horiz-adv-x="376" 
d="M347 402l-114.002 0.00195312v-397c-26 -5.33301 -52.333 -8 -79 -8c-12 0 -24.667 0.666992 -38 2s-23.666 2.66602 -30.999 3.99902l-11 2v397h-42c-4.66699 12.667 -7 29 -7 49c0 8.66699 0.5 17.167 1.5 25.5s2.16699 14.166 3.5 17.499l2 6h42v41
c0 55.333 11.833 96.833 35.5 124.5s62.834 41.5 117.501 41.5c52 0 92 -4.66699 120 -14c4 -14.667 6 -30 6 -46l-6 -45c-9.33301 4.66699 -29.333 7 -60 7c-20 0 -34 -5.16699 -42 -15.5s-12 -27.833 -12 -52.5v-41h114c4 -12.667 6 -29 6 -49
c0 -8.66699 -0.5 -17 -1.5 -25s-2.16699 -14 -3.5 -18z" />
    <glyph glyph-name="g" unicode="g" 
d="M316 -30l0.000976562 44.9961c-0.666992 -0.666992 -4.66699 -2.66699 -12 -6s-18.666 -6.83301 -33.999 -10.5s-31 -5.5 -47 -5.5c-66 0 -113.667 14.833 -143 44.5s-44 73.834 -44 132.501v160c0 58.667 12.167 102.834 36.5 132.501s63.833 44.5 118.5 44.5
c22 0 43.333 -3.16699 64 -9.5s36 -12.5 46 -18.5l15 -9v26c25.333 5.33301 51.666 8 78.999 8c12 0 24.667 -0.666992 38 -2s23.666 -2.66602 30.999 -3.99902l11 -2v-526c0 -59.333 -19.5 -103.666 -58.5 -132.999s-102.833 -44 -191.5 -44
c-27.333 0 -54.333 1.83301 -81 5.5s-46.667 7.16699 -60 10.5l-19 5c-6.66699 13.333 -10 29.666 -10 48.999c0 5.33301 0.333008 10.833 1 16.5s1.5 10.334 2.5 14.001s2 7 3 10s1.83301 5.16699 2.5 6.5l1 3c0 -0.666992 6.5 -2.66699 19.5 -6
s32.833 -6.83301 59.5 -10.5s53.667 -5.5 81 -5.5c34.667 0 58.5 5.83301 71.5 17.5s19.5 32.167 19.5 61.5zM196.001 329.996v-160c0 -29.333 4 -49.833 12 -61.5s23 -17.5 45 -17.5c24 0 40.5 5.83301 49.5 17.5s13.5 32.167 13.5 61.5v211c-13.333 18.667 -35 28 -65 28
c-21.333 0 -35.833 -5.83301 -43.5 -17.5s-11.5 -32.167 -11.5 -61.5z" />
    <glyph glyph-name="h" unicode="h" 
d="M200 696l0.000976562 -225.997c34 24.667 75.667 37 125 37c54.667 0 94.167 -14.833 118.5 -44.5s36.5 -73.834 36.5 -132.501v-326c-26.667 -5.33301 -53.334 -8 -80.001 -8c-12 0 -24.5 0.666992 -37.5 2s-23.167 2.66602 -30.5 3.99902l-11 2v326
c0 29.333 -4 49.833 -12 61.5s-22.667 17.5 -44 17.5c-13.333 0 -25.5 -2.33301 -36.5 -7s-18.5 -9.33398 -22.5 -14.001l-6 -7v-377c-26.667 -5.33301 -53.334 -8 -80.001 -8c-11.333 0 -23.666 0.666992 -36.999 2s-23.666 2.66602 -30.999 3.99902l-11 2v692
c26.667 5.33301 53 8 79 8c12 0 24.667 -0.666992 38 -2s23.666 -2.66602 30.999 -3.99902z" />
    <glyph glyph-name="i" unicode="i" horiz-adv-x="241" 
d="M200 496v-492c-26.667 -5.33301 -53.334 -8 -80.001 -8c-11.333 0 -23.666 0.666992 -36.999 2s-23.666 2.66602 -30.999 3.99902l-11 2v492c26.667 5.33301 53 8 79 8c12 0 24.667 -0.666992 38 -2s23.666 -2.66602 30.999 -3.99902zM200 696v-122.001
c-26.667 -4.66699 -53.334 -7 -80.001 -7c-11.333 0 -23.666 0.5 -36.999 1.5s-23.666 2.16699 -30.999 3.5l-11 2v122c26.667 5.33301 53 8 79 8c12 0 24.667 -0.666992 38 -2s23.666 -2.66602 30.999 -3.99902z" />
    <glyph glyph-name="j" unicode="j" horiz-adv-x="252" 
d="M51 -42l-0.00390625 537.997c26.667 5.33301 53.334 8 80.001 8c12 0 24.667 -0.666992 38 -2s23.666 -2.66602 30.999 -3.99902l11 -2v-538c0 -55.333 -11.667 -96.666 -35 -123.999s-61.666 -41 -114.999 -41c-11.333 0 -22.666 0.5 -33.999 1.5
s-21.166 2.33301 -29.499 4s-15.666 3.33398 -21.999 5.00098s-11.5 3.16699 -15.5 4.5l-6 1c-4 14 -6 29 -6 45l6 44c9.33301 -4.66699 25 -7 47 -7c19.333 0 32.5 5 39.5 15s10.5 27.333 10.5 52zM210.996 695.997v-122.001c-26.667 -4.66699 -53.334 -7 -80.001 -7
c-12 0 -24.667 0.5 -38 1.5s-23.666 2.16699 -30.999 3.5l-11 2v122c26.667 5.33301 53.334 8 80.001 8c12 0 24.667 -0.666992 38 -2s23.666 -2.66602 30.999 -3.99902z" />
    <glyph glyph-name="k" unicode="k" horiz-adv-x="514" 
d="M336 4l-116 201l-20 -5v-196c-26.667 -5.33301 -53.334 -8 -80.001 -8c-11.333 0 -23.666 0.666992 -36.999 2s-23.666 2.66602 -30.999 3.99902l-11 2v692c26.667 5.33301 53 8 79 8c12 0 24.667 -0.666992 38 -2s23.666 -2.66602 30.999 -3.99902l11 -2v-391l20 6
l104 185c28.667 5.33301 56.667 8 84 8c12 0 24.5 -0.666992 37.5 -2s23.167 -2.66602 30.5 -3.99902l11 -2l-132 -236l147 -256c-28 -5.33301 -55.333 -8 -82 -8c-12 0 -25 0.666992 -39 2s-25 2.66602 -33 3.99902z" />
    <glyph glyph-name="l" unicode="l" horiz-adv-x="281" 
d="M238 91c7.33301 0 15.668 1.33105 25.001 3.99805c3.33301 -13.333 5 -27.666 5 -42.999l-5 -43c-28 -10.667 -56.333 -16 -85 -16c-48.667 0 -83.667 12.333 -105 37s-32 61.667 -32 111v555c26.667 5.33301 53 8 79 8c12 0 24.667 -0.666992 38 -2
s23.666 -2.66602 30.999 -3.99902l11 -2v-555c0 -18.667 2.66699 -31.667 8 -39s15.333 -11 30 -11z" />
    <glyph glyph-name="m" unicode="m" horiz-adv-x="786" 
d="M41 4v492.001c26.667 5.33301 53 8 79 8c12 0 24.667 -0.666992 38 -2s23.666 -2.66602 30.999 -3.99902l11 -2v-26c33.333 24.667 74 37 122 37c57.333 0 96.666 -14.667 117.999 -44c4.66699 3.33301 11.5 7.5 20.5 12.5s27.167 11.5 54.5 19.5s54.666 12 81.999 12
c54 0 92.833 -14.667 116.5 -44s35.5 -73.333 35.5 -132v-327c-26.667 -5.33301 -53 -8 -79 -8c-12 0 -24.667 0.666992 -38 2s-23.666 2.66602 -30.999 3.99902l-11 2v327c0 28.667 -3.83301 48.834 -11.5 60.501s-21.5 17.5 -41.5 17.5
c-22.667 0 -43.334 -9.33301 -62.001 -28v-377c-26.667 -5.33301 -53.334 -8 -80.001 -8c-12 0 -24.667 0.666992 -38 2s-23.666 2.66602 -30.999 3.99902l-11 2v327c0 28.667 -3.83301 48.834 -11.5 60.501s-21.5 17.5 -41.5 17.5c-13.333 0 -25.166 -2.33301 -35.499 -7
s-17.166 -9.33398 -20.499 -14.001l-6 -7v-377c-26.667 -5.33301 -53.334 -8 -80.001 -8c-11.333 0 -23.666 0.666992 -36.999 2s-23.666 2.66602 -30.999 3.99902z" />
    <glyph glyph-name="n" unicode="n" horiz-adv-x="517" 
d="M200 496l-0.000976562 -25.999c34 24.667 76 37 126 37c54.667 0 94 -14.667 118 -44s36 -73.666 36 -132.999v-326c-26 -5.33301 -52.333 -8 -79 -8c-12 0 -24.667 0.666992 -38 2s-23.666 2.66602 -30.999 3.99902l-11 2v326c0 29.333 -3.83301 49.833 -11.5 61.5
s-22.167 17.5 -43.5 17.5c-13.333 0 -25.5 -2.33301 -36.5 -7s-18.833 -9.33398 -23.5 -14.001l-6 -7v-377c-26.667 -5.33301 -53.334 -8 -80.001 -8c-11.333 0 -23.666 0.666992 -36.999 2s-23.666 2.66602 -30.999 3.99902l-11 2v492c26.667 5.33301 53 8 79 8
c12 0 24.667 -0.666992 38 -2s23.666 -2.66602 30.999 -3.99902z" />
    <glyph glyph-name="o" unicode="o" horiz-adv-x="514" 
d="M36 170v159.996c0 58.667 17.333 102.834 52 132.501s91 44.5 169 44.5s134.167 -14.667 168.5 -44s51.5 -73.666 51.5 -132.999v-160c0 -59.333 -17.167 -103.666 -51.5 -132.999s-90.5 -44 -168.5 -44s-134.333 14.833 -169 44.5s-52 73.834 -52 132.501zM196 329.996
v-160c0 -29.333 4.33301 -49.833 13 -61.5s24.667 -17.5 48 -17.5s39.333 5.83301 48 17.5s13 32.167 13 61.5v160c0 29.333 -4.33301 49.833 -13 61.5s-24.667 17.5 -48 17.5s-39.333 -5.83301 -48 -17.5s-13 -32.167 -13 -61.5z" />
    <glyph glyph-name="p" unicode="p" 
d="M200 496v-26.002c34 24.667 75.667 37 125 37c54.667 0 94 -14.667 118 -44s36 -73.666 36 -132.999v-160c0 -59.333 -14.5 -103.666 -43.5 -132.999s-76.5 -44 -142.5 -44c-16 0 -31.833 1.83301 -47.5 5.5s-27.167 7.5 -34.5 11.5l-11 5v-211
c-26.667 -5.33301 -53.334 -8 -80.001 -8c-11.333 0 -23.666 0.666992 -36.999 2s-23.666 2.66602 -30.999 3.99902l-11 2v692c26.667 5.33301 53 8 79 8c12 0 24.667 -0.666992 38 -2s23.666 -2.66602 30.999 -3.99902zM320 169.998v160.001c0 29.333 -4 49.833 -12 61.5
s-22.333 17.5 -43 17.5c-13.333 0 -25.5 -2.33301 -36.5 -7s-18.5 -9.33398 -22.5 -14.001l-6 -7v-211c0 -29.333 4.5 -49.833 13.5 -61.5s25.167 -17.5 48.5 -17.5c22 0 37.167 5.83301 45.5 17.5s12.5 32.167 12.5 61.5z" />
    <glyph glyph-name="q" unicode="q" 
d="M316 470l0.00292969 25.998c25.333 5.33301 51.666 8 78.999 8c12 0 24.667 -0.666992 38 -2s23.666 -2.66602 30.999 -3.99902l11 -2v-692c-26.667 -5.33301 -53.334 -8 -80.001 -8c-12 0 -24.5 0.666992 -37.5 2s-23.167 2.66602 -30.5 3.99902l-11 2v211
c-26 -14.667 -57 -22 -93 -22c-66 0 -113.667 14.833 -143 44.5s-44 73.834 -44 132.501v160c0 58.667 12.167 102.834 36.5 132.501s63.833 44.5 118.5 44.5c22 0 43.333 -3.16699 64 -9.5s36 -12.5 46 -18.5zM196.003 329.998v-160c0 -29.333 4 -49.833 12 -61.5
s23 -17.5 45 -17.5c24 0 40.5 5.83301 49.5 17.5s13.5 32.167 13.5 61.5v211c-13.333 18.667 -35 28 -65 28c-21.333 0 -35.833 -5.83301 -43.5 -17.5s-11.5 -32.167 -11.5 -61.5z" />
    <glyph glyph-name="r" unicode="r" horiz-adv-x="372" 
d="M200 496v-44.9971c4 4 9.83301 9.16699 17.5 15.5s24 14.666 49 24.999s51.167 15.5 78.5 15.5c4 -14.667 6 -31.667 6 -51c0 -8.66699 -0.5 -17.334 -1.5 -26.001s-2.16699 -15.334 -3.5 -20.001l-1 -6c-18 0 -35.333 -3.16699 -52 -9.5s-30.334 -14 -41.001 -23
s-20.167 -18 -28.5 -27s-14.166 -16.5 -17.499 -22.5l-6 -10v-308c-26.667 -5.33301 -53.334 -8 -80.001 -8c-11.333 0 -23.666 0.666992 -36.999 2s-23.666 2.66602 -30.999 3.99902l-11 2v492c26.667 5.33301 53 8 79 8c12 0 24.667 -0.666992 38 -2
s23.666 -2.66602 30.999 -3.99902z" />
    <glyph glyph-name="s" unicode="s" horiz-adv-x="511" 
d="M199 361l-0.00585938 -20.001c0 -10 4.33301 -17.333 13 -22s22.334 -9 41.001 -13c16 -2.66699 28.167 -4.83398 36.5 -6.50098s21.333 -4.66699 39 -9s31.834 -8.66602 42.501 -12.999s23.167 -10.5 37.5 -18.5s25.5 -16.333 33.5 -25s15 -19.5 21 -32.5
s9 -27.167 9 -42.5v-20c0 -49.333 -17 -86 -51 -110s-90 -36 -168 -36c-82 0 -138.333 13 -169 39s-46 66.333 -46 121v8c26 4.66699 51.667 7 77 7c11.333 0 23.5 -0.666992 36.5 -2s23.167 -2.66602 30.5 -3.99902l10 -1v-8c0 -22.667 4.33301 -38.667 13 -48
s24.334 -14 47.001 -14c23.333 0 39.166 3.5 47.499 10.5s12.5 19.5 12.5 37.5v20c0 18 -19.667 30.333 -59 37c-19.333 3.33301 -33.666 6 -42.999 8s-24.166 5.83301 -44.499 11.5s-36.333 11.667 -48 18s-24.167 14.5 -37.5 24.5s-23.166 22 -29.499 36
s-9.5 29.667 -9.5 47v20c0 49.333 16.667 86 50 110s88.333 36 165 36c79.333 0 134 -13 164 -39s45 -66.333 45 -121v-8c-26 -4.66699 -51.667 -7 -77 -7c-11.333 0 -23.5 0.666992 -36.5 2s-22.833 2.66602 -29.5 3.99902l-11 1v8c0 22.667 -3.83301 38.667 -11.5 48
s-22.167 14 -43.5 14s-36.166 -3.66699 -44.499 -11s-12.5 -19.666 -12.5 -36.999z" />
    <glyph glyph-name="t" unicode="t" horiz-adv-x="376" 
d="M337 402l-105.001 -0.00292969v-243c0 -24.667 4 -42.167 12 -52.5s22.333 -15.5 43 -15.5c17.333 0 34 4 50 12c4 -13.333 6 -28 6 -44l-6 -44c-0.666992 0 -2.83398 -0.833008 -6.50098 -2.5s-9 -3.5 -16 -5.5s-14.667 -4 -23 -6s-18.166 -3.83301 -29.499 -5.5
s-22.666 -2.5 -33.999 -2.5c-54.667 0 -94.167 13.833 -118.5 41.5s-36.5 69.167 -36.5 124.5v243h-43c-4 12 -6 28.333 -6 49c0 8.66699 0.5 17 1.5 25s1.83301 14 2.5 18l2 6h52l17 96c22 5.33301 44.333 8 67 8c10 0 20.5 -0.666992 31.5 -2s19.5 -2.66602 25.5 -3.99902
l9 -2v-96h105c4 -13.333 6 -29.666 6 -48.999c0 -8.66699 -0.5 -17.167 -1.5 -25.5s-2.16699 -14.166 -3.5 -17.499z" />
    <glyph glyph-name="u" unicode="u" 
d="M321 4l0.00292969 25.999c-34 -24.667 -76 -37 -126 -37c-54.667 0 -94 14.667 -118 44s-36 73.666 -36 132.999v326c26.667 5.33301 53 8 79 8c12 0 24.667 -0.666992 38 -2s23.666 -2.66602 30.999 -3.99902l11 -2v-326c0 -29.333 4 -49.833 12 -61.5
s22.333 -17.5 43 -17.5c13.333 0 25.5 2.33301 36.5 7s18.5 9.33398 22.5 14.001l7 7v377c26 5.33301 52.333 8 79 8c12 0 24.667 -0.666992 38 -2s23.666 -2.66602 30.999 -3.99902l11 -2v-492c-26.667 -5.33301 -53.334 -8 -80.001 -8c-12 0 -24.5 0.666992 -37.5 2
s-23.167 2.66602 -30.5 3.99902z" />
    <glyph glyph-name="v" unicode="v" horiz-adv-x="518" 
d="M154 4l-144.999 491.999c26 5.33301 51.333 8 76 8c10.667 0 22.667 -0.666992 36 -2s24 -2.66602 32 -3.99902l12 -2l94 -371l95 371c27.333 5.33301 53.666 8 78.999 8c10.667 0 22.5 -0.666992 35.5 -2s23.167 -2.66602 30.5 -3.99902l11 -2l-146 -492
c-32 -5.33301 -66.667 -8 -104 -8c-16 0 -32.833 0.666992 -50.5 2s-31.5 2.66602 -41.5 3.99902z" />
    <glyph glyph-name="w" unicode="w" horiz-adv-x="808" 
d="M471 4l-66.0029 335.999l-68 -336c-34 -5.33301 -69.333 -8 -106 -8c-16.667 0 -33.667 0.666992 -51 2s-30.666 2.66602 -39.999 3.99902l-14 2l-117 492c26.667 5.33301 52.334 8 77.001 8c10.667 0 22.667 -0.666992 36 -2s24 -2.66602 32 -3.99902l11 -2l71 -363
l75 363c27.333 5.33301 58.666 8 93.999 8c15.333 0 30.833 -0.666992 46.5 -2s27.5 -2.66602 35.5 -3.99902l12 -2l73 -363l71 363c28.667 5.33301 55.334 8 80.001 8c10.667 0 22.334 -0.666992 35.001 -2s22.667 -2.66602 30 -3.99902l11 -2l-116 -492
c-33.333 -5.33301 -68.333 -8 -105 -8c-16 0 -33 0.666992 -51 2s-31.667 2.66602 -41 3.99902z" />
    <glyph glyph-name="x" unicode="x" horiz-adv-x="526" 
d="M350 4l-86.998 164l-87 -164c-30 -5.33301 -57.667 -8 -83 -8c-10.667 0 -22.834 0.666992 -36.501 2s-24.5 2.66602 -32.5 3.99902l-12 2l152 252l-144 240c30.667 5.33301 58 8 82 8c10.667 0 23 -0.666992 37 -2s25 -2.66602 33 -3.99902l13 -2l78 -151l77 151
c30.667 5.33301 58.334 8 83.001 8c11.333 0 23.833 -0.666992 37.5 -2s24.5 -2.66602 32.5 -3.99902l12 -2l-141 -240l150 -252c-30.667 -5.33301 -58 -8 -82 -8c-10.667 0 -22.834 0.666992 -36.501 2s-24.834 2.66602 -33.501 3.99902z" />
    <glyph glyph-name="y" unicode="y" horiz-adv-x="520" 
d="M203 -47l13.002 44.999l-51 6l-154 492c26 5.33301 51.333 8 76 8c10.667 0 22.667 -0.666992 36 -2s23.666 -2.66602 30.999 -3.99902l12 -2l95 -360l95 360c27.333 5.33301 53.333 8 78 8c11.333 0 23.333 -0.666992 36 -2s22.667 -2.66602 30 -3.99902l11 -2
l-168 -538c-18 -58.667 -42.5 -100.834 -73.5 -126.501s-74.833 -38.5 -131.5 -38.5c-12 0 -23.833 1.16699 -35.5 3.5s-20.167 4.5 -25.5 6.5l-8 3c-5.33301 12 -8 27.333 -8 46c0 8 0.666992 15.833 2 23.5s2.66602 13.167 3.99902 16.5l2 6c16 -4.66699 38 -7 66 -7
c35.333 0 58 20.667 68 62z" />
    <glyph glyph-name="z" unicode="z" horiz-adv-x="466" 
d="M426 402l-216 -298.002h216c4 -15.333 6 -32.666 6 -51.999c0 -8.66699 -0.5 -17.334 -1.5 -26.001s-1.83301 -15.334 -2.5 -20.001l-2 -6h-386c-4.66699 12.667 -7 29 -7 49c0 8.66699 0.5 17.167 1.5 25.5s2.16699 14.166 3.5 17.499l2 6l215 298h-215
c-4.66699 14.667 -7 32 -7 52c0 8.66699 0.5 17.334 1.5 26.001s2.16699 15.334 3.5 20.001l2 6h386c4 -13.333 6 -29.666 6 -48.999c0 -8.66699 -0.5 -17.167 -1.5 -25.5s-1.83301 -14.166 -2.5 -17.499z" />
    <glyph glyph-name="braceleft" unicode="{" horiz-adv-x="334" 
d="M310 654c-26.667 0 -45 -5.83398 -55 -17.501s-15 -32.167 -15 -61.5v-144c0 -59.333 -16 -102.333 -48 -129c32 -28 48 -71 48 -129v-144c0 -30 5 -50.833 15 -62.5s28.333 -17.5 55 -17.5c4 -12.667 6 -28.667 6 -48c0 -8.66699 -0.5 -17.167 -1.5 -25.5
s-1.83301 -14.5 -2.5 -18.5l-2 -6c-76.667 0 -131.834 14.833 -165.501 44.5s-50.5 74.167 -50.5 133.5v144c0 29.333 -5 50 -15 62s-28.333 18 -55 18c-4 12.667 -6 28.667 -6 48c0 8.66699 0.5 17.167 1.5 25.5s1.83301 14.5 2.5 18.5l2 6c26.667 0 45 6 55 18
s15 32.667 15 62v144c0 59.333 16.833 103.833 50.5 133.5s88.834 44.5 165.501 44.5c4 -13.333 6 -30 6 -50c0 -8.66699 -0.5 -17.167 -1.5 -25.5s-1.83301 -14.166 -2.5 -17.499z" />
    <glyph glyph-name="bar" unicode="|" horiz-adv-x="206" 
d="M165 746v-842c-20.667 -5.33301 -41.334 -8 -62.001 -8c-9.33301 0 -19.166 0.666992 -29.499 2s-18.166 2.66602 -23.499 3.99902l-9 2v842c20.667 5.33301 41.334 8 62.001 8c9.33301 0 19.166 -0.666992 29.499 -2s18.166 -2.66602 23.499 -3.99902z" />
    <glyph glyph-name="braceright" unicode="}" horiz-adv-x="334" 
d="M24 654c-4 12.667 -6 29 -6 49c0 8.66699 0.5 17.167 1.5 25.5s1.83301 14.5 2.5 18.5l2 6c76.667 0 131.834 -14.833 165.501 -44.5s50.5 -74.167 50.5 -133.5v-144c0 -29.333 5 -50 15 -62s28.333 -18 55 -18c4 -14 6 -30.667 6 -50c0 -8.66699 -0.5 -17 -1.5 -25
s-1.83301 -14 -2.5 -18l-2 -5c-26.667 0 -45 -6 -55 -18s-15 -32.667 -15 -62v-144c0 -59.333 -16.833 -103.833 -50.5 -133.5s-88.834 -44.5 -165.501 -44.5c-4 14 -6 30.667 -6 50c0 8.66699 0.5 17 1.5 25s1.83301 14 2.5 18l2 5c26.667 0 45 5.83301 55 17.5
s15 32.5 15 62.5v144c0 58.667 15.667 101.667 47 129c-31.333 26 -47 69 -47 129v144c0 29.333 -5 49.833 -15 61.5s-28.333 17.5 -55 17.5z" />
    <glyph glyph-name="asciitilde" unicode="~" horiz-adv-x="442" 
d="M25 242v4.00098c0 45.333 7.16699 78.5 21.5 99.5s39.833 31.5 76.5 31.5c30 0 54.667 -4.5 74 -13.5s34.5 -17.833 45.5 -26.5s21.167 -13 30.5 -13c16 0 26.833 3 32.5 9s8.5 16.667 8.5 32v5c18 4.66699 35.333 7 52 7l51 -7v-4
c0 -46.667 -6.66699 -80.334 -20 -101.001s-39.333 -31 -78 -31c-30 0 -54.667 4.33301 -74 13s-34.333 17.5 -45 26.5s-20.667 13.5 -30 13.5c-16 0 -27 -2.83301 -33 -8.5s-9 -16.167 -9 -31.5v-5c-18 -4.66699 -35.333 -7 -52 -7z" />
    <glyph glyph-name="exclamdown" unicode="&#xa1;" horiz-adv-x="241" 
d="M41 363l0.000976562 133c26.667 5.33301 53 8 79 8c12 0 24.667 -0.666992 38 -2s23.666 -2.66602 30.999 -3.99902l11 -2v-133c-26 -5.33301 -52.667 -8 -80 -8c-12 0 -24.5 0.666992 -37.5 2s-23.167 2.66602 -30.5 3.99902zM41.001 -196v475c26.667 4.66699 53 7 79 7
c12 0 24.667 -0.666992 38 -2s23.666 -2.66602 30.999 -3.99902l11 -1v-475c-26.667 -5.33301 -53.334 -8 -80.001 -8c-11.333 0 -23.666 0.666992 -36.999 2s-23.666 2.66602 -30.999 3.99902z" />
    <glyph glyph-name="cent" unicode="&#xa2;" horiz-adv-x="488" 
d="M36 170l0.00195312 159.999c0 50 12.333 89.5 37 118.5s64.334 47.167 119.001 54.5v93c20.667 5.33301 41.667 8 63 8c9.33301 0 19.166 -0.666992 29.499 -2s18.166 -2.66602 23.499 -3.99902l9 -2v-93c52 -7.33301 88.333 -25.166 109 -53.499s31 -68.166 31 -119.499
v-12c-24 -4.66699 -47.667 -7 -71 -7c-10.667 0 -22 0.5 -34 1.5s-21.333 2.16699 -28 3.5l-9 2v12c0 29.333 -4.33301 49.833 -13 61.5s-24.334 17.5 -47.001 17.5s-38.167 -5.83301 -46.5 -17.5s-12.5 -32.167 -12.5 -61.5v-160c0 -29.333 6.33301 -49.833 19 -61.5
s36.334 -17.5 71.001 -17.5c25.333 0 50.333 2.33301 75 7s43 9.16699 55 13.5s18 6.83301 18 7.5l1 -3c0.666992 -1.33301 1.33398 -3.5 2.00098 -6.5s1.5 -6.33301 2.5 -10s1.83301 -8.16699 2.5 -13.5s1 -10.666 1 -15.999c0 -8.66699 -0.833008 -17.167 -2.5 -25.5
s-3.16699 -14.5 -4.5 -18.5l-2 -6c-31.333 -14 -70.333 -22.667 -117 -26v-90c-20.667 -5.33301 -41.334 -8 -62.001 -8c-9.33301 0 -19.333 0.666992 -30 2s-19 2.66602 -25 3.99902l-8 2v96c-54.667 9.33301 -94.334 28.166 -119.001 56.499s-37 66.166 -37 113.499z" />
    <glyph glyph-name="sterling" unicode="&#xa3;" horiz-adv-x="560" 
d="M350 277h-126.002v-170h299c4.66699 -14 7 -32 7 -54c0 -9.33301 -0.666992 -18.5 -2 -27.5s-2.66602 -15.5 -3.99902 -19.5l-1 -6h-497c-4 14 -6 31.667 -6 53c0 10 0.5 19.5 1.5 28.5s1.83301 15.5 2.5 19.5l2 6h30v170h-30c-4 12.667 -6 29 -6 49
c0 8.66699 0.5 17.167 1.5 25.5s1.83301 14.5 2.5 18.5l2 5h30v133c0 66 19.167 115.667 57.5 149s101.166 50 188.499 50s147.5 -16.167 180.5 -48.5s49.5 -82.5 49.5 -150.5v-12c-25.333 -4.66699 -50.666 -7 -75.999 -7c-11.333 0 -23.166 0.5 -35.499 1.5
s-21.833 2.16699 -28.5 3.5l-11 2v12c0 34.667 -5.66699 58.667 -17 72s-32 20 -62 20s-50.5 -6.66699 -61.5 -20s-16.5 -37.333 -16.5 -72v-133h126c4.66699 -12.667 7 -29 7 -49c0 -8.66699 -0.5 -17 -1.5 -25s-2.16699 -14 -3.5 -18z" />
    <glyph glyph-name="currency" unicode="&#xa4;" horiz-adv-x="430" 
d="M69 300l-0.00292969 29.001c0 23.333 4 42.666 12 57.999l-63 63c6 12.667 16 26 30 40c6 6 12.167 11.5 18.5 16.5s11.5 8.5 15.5 10.5l5 3l75 -74c18.667 4 36 6 52 6c14.667 0 32 -2 52 -6l75 74c12.667 -6.66699 25.667 -16.667 39 -30c6 -6 11.667 -12.333 17 -19
s9 -11.667 11 -15l3 -6l-64 -63c8.66699 -16.667 13 -36 13 -58v-29c0 -18.667 -2.33301 -34 -7 -46l57 -56c-6 -12 -16.333 -25.333 -31 -40c-6 -6 -12.167 -11.5 -18.5 -16.5s-11.166 -8.5 -14.499 -10.5l-6 -3l-59 59c-21.333 -6.66699 -43.666 -10 -66.999 -10
c-27.333 0 -49.666 3.33301 -66.999 10l-59 -59c-12 6 -25 16 -39 30c-6 6 -11.5 12.333 -16.5 19s-8.5 11.667 -10.5 15l-3 6l57 57c-4.66699 12 -7 27 -7 45zM162.997 329.001l0.000976562 -29c0 -27.333 17 -41 51 -41c34.667 0 52 13.667 52 41v29c0 14 -4 24 -12 30
s-21.333 9 -40 9s-31.834 -3 -39.501 -9s-11.5 -16 -11.5 -30z" />
    <glyph glyph-name="yen" unicode="&#xa5;" horiz-adv-x="628" 
d="M502 84l-104 -0.00390625v-80c-27.333 -5.33301 -55.333 -8 -84 -8c-12.667 0 -26 0.666992 -40 2s-24.667 2.66602 -32 3.99902l-12 2v80h-104c-4 12 -6 28.333 -6 49c0 8.66699 0.5 17 1.5 25s1.83301 14 2.5 18l2 6h104v49h-104c-4 12.667 -6 29 -6 49
c0 8.66699 0.5 17 1.5 25s1.83301 14 2.5 18l2 6h67l-173 367c34 5.33301 64.333 8 91 8c12 0 25.5 -0.666992 40.5 -2s27.167 -2.66602 36.5 -3.99902l13 -2l113 -281l113 281c32.667 5.33301 62.667 8 90 8c12.667 0 26.5 -0.666992 41.5 -2
s26.833 -2.66602 35.5 -3.99902l13 -2l-173 -367h68c4.66699 -13.333 7 -29.666 7 -48.999c0 -8.66699 -0.5 -17 -1.5 -25s-2.16699 -14 -3.5 -18l-2 -6h-104v-49h104c4.66699 -13.333 7 -29.666 7 -48.999c0 -8.66699 -0.5 -17.167 -1.5 -25.5
s-2.16699 -14.166 -3.5 -17.499z" />
    <glyph glyph-name="brokenbar" unicode="&#xa6;" horiz-adv-x="206" 
d="M165 746v-367c-20.667 -5.33301 -41.334 -8 -62.001 -8c-9.33301 0 -19.166 0.666992 -29.499 2s-18.166 2.66602 -23.499 3.99902l-9 2v367c20.667 5.33301 41.334 8 62.001 8c9.33301 0 19.166 -0.666992 29.499 -2s18.166 -2.66602 23.499 -3.99902zM165 271v-367
c-20.667 -5.33301 -41.334 -8 -62.001 -8c-9.33301 0 -19.166 0.666992 -29.499 2s-18.166 2.66602 -23.499 3.99902l-9 2v367c20.667 5.33301 41.334 8 62.001 8c9.33301 0 19.166 -0.666992 29.499 -2s18.166 -2.66602 23.499 -3.99902z" />
    <glyph glyph-name="section" unicode="&#xa7;" horiz-adv-x="564" 
d="M533 239c0 -58.667 -17.6699 -103.333 -53.0029 -134c35.333 -30.667 53 -68.334 53 -113.001v-13c0 -62.667 -19.667 -109.334 -59 -140.001s-104.333 -46 -195 -46c-94.667 0 -160 15.167 -196 45.5s-54 77.166 -54 140.499v12c26 4.66699 51.667 7 77 7
c11.333 0 23.5 -0.666992 36.5 -2s22.833 -2.66602 29.5 -3.99902l11 -1v-12c0 -33.333 6.83301 -56.333 20.5 -69s38.5 -19 74.5 -19c36.667 0 61.834 6.33301 75.501 19s20.5 35.667 20.5 69v13c0 18.667 -11.667 34 -35 46s-51.833 22.333 -85.5 31
s-67.167 18.834 -100.5 30.501s-61.666 30 -84.999 55s-35 56.167 -35 93.5v13c0 62 17.667 107.333 53 136c-35.333 27.333 -53 64.333 -53 111v13c0 62.667 19.333 109.334 58 140.001s102.334 46 191.001 46c92.667 0 156.5 -15.167 191.5 -45.5
s52.5 -77.166 52.5 -140.499v-12c-25.333 -4.66699 -51 -7 -77 -7c-11.333 0 -23.5 0.666992 -36.5 2s-23.167 2.66602 -30.5 3.99902l-10 1v12c0 32.667 -6.33301 55.5 -19 68.5s-36.334 19.5 -71.001 19.5c-33.333 0 -57 -6.83301 -71 -20.5s-21 -36.167 -21 -67.5v-13
c0 -16.667 11.833 -30.5 35.5 -41.5s52.334 -20.833 86.001 -29.5s67.167 -19 100.5 -31s61.833 -31 85.5 -57s35.5 -58.333 35.5 -97v-13zM373.997 252.001c0 6.66699 -1.33398 12.8291 -4.00098 18.4961s-7.16699 10.834 -13.5 15.501s-12.333 8.83398 -18 12.501
s-14 7.33398 -25 11.001l-27.5 9c-7.33301 2.33301 -18 5.5 -32 9.5l-32 9c-21.333 -12 -32 -37.333 -32 -76v-13c0 -8.66699 2.83301 -16.5 8.5 -23.5s14.334 -13.167 26.001 -18.5s23 -9.66602 34 -12.999l44.5 -13c18.667 -5.33301 33.667 -10 45 -14
c17.333 12.667 26 37 26 73v13z" />
    <glyph glyph-name="dieresis" unicode="&#xa8;" horiz-adv-x="417" 
d="M166 696l0.000976562 -109c-18.667 -4.66699 -39.334 -7 -62.001 -7c-10.667 0 -21.167 0.666992 -31.5 2s-18.166 2.66602 -23.499 3.99902l-8 1v109c18.667 5.33301 39.667 8 63 8c10 0 20.167 -0.666992 30.5 -2s18.166 -2.66602 23.499 -3.99902zM376.001 696
l0.000976562 -109c-18.667 -4.66699 -39.334 -7 -62.001 -7c-10.667 0 -21.167 0.666992 -31.5 2s-18.166 2.66602 -23.499 3.99902l-8 1v109c18.667 5.33301 39.667 8 63 8c10 0 20.167 -0.666992 30.5 -2s18.166 -2.66602 23.499 -3.99902z" />
    <glyph glyph-name="copyright" unicode="&#xa9;" horiz-adv-x="810" 
d="M36 240v220c0 82 29 143.667 87 185s152 62 282 62s223.833 -20.667 281.5 -62s86.5 -103 86.5 -185v-220c0 -82 -28.833 -143.667 -86.5 -185s-151.5 -62 -281.5 -62s-224 20.667 -282 62s-87 103 -87 185zM187 460v-220c0 -55.333 15.667 -94 47 -116
s88.333 -33 171 -33s139.667 11 171 33s47 60.667 47 116v220c0 54.667 -15.833 93.167 -47.5 115.5s-88.5 33.5 -170.5 33.5s-138.833 -11.167 -170.5 -33.5s-47.5 -60.833 -47.5 -115.5zM281 277l-0.000976562 150c0 34.667 10.167 60.667 30.5 78s53.833 26 100.5 26
c46 0 77.667 -8.33301 95 -25s26 -43 26 -79v-5c-14.667 -2.66699 -28.667 -4 -42 -4l-43 4v5c0 16.667 -2.66699 28.167 -8 34.5s-14.666 9.5 -27.999 9.5c-14 0 -23.5 -3.16699 -28.5 -9.5s-7.5 -17.833 -7.5 -34.5v-150c0 -16.667 3.33301 -28.167 10 -34.5
s19.334 -9.5 38.001 -9.5c16.667 0 33 1.66699 49 5s28 6.5 36 9.5s12 4.83301 12 5.5c2.66699 -8 4 -18 4 -30l-4 -31c-28.667 -12.667 -61.334 -19 -98.001 -19c-50.667 0 -87 8.66699 -109 26s-33 43.333 -33 78z" />
    <glyph glyph-name="ordfeminine" unicode="&#xaa;" horiz-adv-x="371" 
d="M223 353l0.000976562 17.002c-24 -16.667 -53.667 -25 -89 -25c-36.667 0 -63.167 8.66699 -79.5 26s-24.5 43.666 -24.5 78.999v7c0 30 10.167 53.167 30.5 69.5s54.166 27.166 101.499 32.499l61 8v23c0 16 -2.83301 27.333 -8.5 34s-15.5 10 -29.5 10
c-14.667 0 -24.834 -3 -30.501 -9s-8.5 -17 -8.5 -33v-5c-18 -4 -36.333 -6 -55 -6l-54 6v5c0 38.667 10.5 67.167 31.5 85.5s59.833 27.5 116.5 27.5c54.667 0 94 -9.5 118 -28.5s36 -47.833 36 -86.5v-237c-19.333 -4 -38.666 -6 -57.999 -6zM223.001 498.002
l-39.001 -5.99902c-25.333 -4.66699 -38 -16.334 -38 -35.001v-7c0 -12 2.66699 -20.667 8 -26s14.666 -8 27.999 -8c8.66699 0 16.334 1.66699 23.001 5s11.334 6.33301 14.001 9l4 5v63z" />
    <glyph glyph-name="guillemotleft" unicode="&#xab;" horiz-adv-x="518" 
d="M20 271l200.999 201c12 -6 25 -16 39 -30c6 -6 11.667 -12.333 17 -19s9 -11.667 11 -15l3 -6l-132 -131l133 -133c-6.66699 -12 -17 -25 -31 -39c-6 -6 -12.167 -11.5 -18.5 -16.5s-11.166 -8.5 -14.499 -10.5l-6 -3zM221.999 271l201 201c12 -6 25.333 -16 40 -30
c6 -6 11.5 -12.333 16.5 -19s8.5 -11.667 10.5 -15l3 -6l-132 -131l133 -133c-6.66699 -12 -16.667 -25 -30 -39c-6 -6 -12.333 -11.5 -19 -16.5s-11.667 -8.5 -15 -10.5l-6 -3z" />
    <glyph glyph-name="logicalnot" unicode="&#xac;" horiz-adv-x="399" 
d="M244 213v66.002h-214c-4 13.333 -6 29.666 -6 48.999c0 8.66699 0.5 17.167 1.5 25.5s1.83301 14.5 2.5 18.5l2 5h127c39.333 0 77.333 -0.833008 114 -2.5s63.667 -3.16699 81 -4.5l25 -3v-154c-22.667 -5.33301 -45 -8 -67 -8c-10 0 -20.5 0.666992 -31.5 2
s-19.5 2.66602 -25.5 3.99902z" />
    <glyph glyph-name="uni00AD" unicode="&#xad;" horiz-adv-x="275" 
d="M243 228l-213.001 -0.00195312c-4 12.667 -6 29 -6 49c0 8.66699 0.5 17 1.5 25s1.83301 14 2.5 18l2 6h213c4.66699 -13.333 7 -29.666 7 -48.999c0 -8.66699 -0.666992 -17.167 -2 -25.5s-2.66602 -14.166 -3.99902 -17.499z" />
    <glyph glyph-name="registered" unicode="&#xae;" horiz-adv-x="810" 
d="M36 240v220c0 82 29 143.667 87 185s152 62 282 62s223.833 -20.667 281.5 -62s86.5 -103 86.5 -185v-220c0 -82 -28.833 -143.667 -86.5 -185s-151.5 -62 -281.5 -62s-224 20.667 -282 62s-87 103 -87 185zM187 460v-220c0 -55.333 15.667 -94 47 -116
s88.333 -33 171 -33s139.667 11 171 33s47 60.667 47 116v220c0 54.667 -15.833 93.167 -47.5 115.5s-88.5 33.5 -170.5 33.5s-138.833 -11.167 -170.5 -33.5s-47.5 -60.833 -47.5 -115.5zM459 177l-59.999 129l-24 2v-131c-16 -2.66699 -32 -4 -48 -4l-47 4v344
c33.333 4.66699 75 7 125 7c47.333 0 81.166 -8.5 101.499 -25.5s30.5 -42.833 30.5 -77.5v-17c0 -45.333 -17.333 -75.333 -52 -90l70 -141c-16 -2.66699 -32 -4 -48 -4zM375.001 469v-104h30c14.667 0 24.667 3 30 9s8 17.333 8 34v17c0 16.667 -2.66699 28.167 -8 34.5
s-15.333 9.5 -30 9.5h-30z" />
    <glyph glyph-name="macron" unicode="&#xaf;" horiz-adv-x="258" 
d="M271 585h-285c-4 8.66699 -6 20.667 -6 36c0 6 0.5 12 1.5 18s1.83301 10.333 2.5 13l2 5h285c4 -10 6 -22 6 -36c0 -6.66699 -0.5 -13 -1.5 -19s-2.16699 -10.333 -3.5 -13z" />
    <glyph glyph-name="degree" unicode="&#xb0;" horiz-adv-x="310" 
d="M48 584v23c0 64 36.333 96 109 96s109 -32 109 -96v-23c0 -64 -36.333 -96 -109 -96s-109 32 -109 96zM120 607v-23c0 -20 12.333 -30 37 -30s37 10 37 30v23c0 20 -12.333 30 -37 30s-37 -10 -37 -30z" />
    <glyph glyph-name="plusminus" unicode="&#xb1;" horiz-adv-x="399" 
d="M250 496l-0.00195312 -120.001h118c4.66699 -13.333 7 -29.666 7 -48.999c0 -8.66699 -0.5 -17.167 -1.5 -25.5s-2.16699 -14.166 -3.5 -17.499l-2 -6h-118v-119c-13.333 -4.66699 -30.333 -7 -51 -7c-9.33301 0 -18.166 0.666992 -26.499 2s-14.5 2.66602 -18.5 3.99902
l-6 1v119h-118c-4 12.667 -6 29 -6 49c0 8.66699 0.5 17 1.5 25s1.83301 14 2.5 18l2 6h118v120c13.333 4.66699 30.333 7 51 7c8.66699 0 17.334 -0.5 26.001 -1.5s15 -2.16699 19 -3.5zM367.998 35.999h-338c-4 12 -6 27.667 -6 47c0 8 0.5 15.833 1.5 23.5
s1.83301 13.5 2.5 17.5l2 5h338c4.66699 -12.667 7 -28 7 -46c0 -8 -0.5 -16 -1.5 -24s-2.16699 -13.667 -3.5 -17z" />
    <glyph glyph-name="twosuperior" unicode="&#xb2;" horiz-adv-x="291" 
d="M182 588l-0.000976562 11.999c0 18 -3 30.667 -9 38s-15.667 11 -29 11c-14.667 0 -24.667 -3.5 -30 -10.5s-8 -19.833 -8 -38.5v-5c-14 -2.66699 -28.667 -4 -44 -4l-43 4v5c0 36 8.83301 62.333 26.5 79s50.5 25 98.5 25c45.333 0 77.833 -8.5 97.5 -25.5
s29.5 -43.167 29.5 -78.5v-12c0 -26 -8.33301 -47.667 -25 -65s-35.167 -29.5 -55.5 -36.5s-38.833 -16 -55.5 -27s-25 -24.167 -25 -39.5v-15h154c2 -7.33301 3 -16.666 3 -27.999l-3 -27h-129c-20 0 -39.333 0.5 -58 1.5s-32.334 1.83301 -41.001 2.5l-13 2v64
c0 24.667 8.33301 45.5 25 62.5s34.834 29.167 54.501 36.5s37.834 16.833 54.501 28.5s25 25.167 25 40.5z" />
    <glyph glyph-name="threesuperior" unicode="&#xb3;" horiz-adv-x="280" 
d="M28 642c-2.66699 8 -3.99902 17.665 -3.99902 28.998l4 29h217c2 -7.33301 3 -16.333 3 -27l-3 -28l-84 -86c66.667 0 100 -32 100 -96v-18c0 -33.333 -11 -58.166 -33 -74.499s-58.333 -24.5 -109 -24.5c-16 0 -31.833 1.66699 -47.5 5s-27.5 6.33301 -35.5 9l-11 5
c-2.66699 7.33301 -4 17 -4 29c0 3.33301 0.166992 6.5 0.5 9.5s0.666016 5.5 0.999023 7.5s0.666016 3.83301 0.999023 5.5s0.5 2.83398 0.5 3.50098l1 2c0 -0.666992 3.83301 -2.66699 11.5 -6s19.167 -6.66602 34.5 -9.99902s30.666 -5 45.999 -5
c20.667 0 34.834 3.16699 42.501 9.5s11.5 17.833 11.5 34.5v18c0 15.333 -3.16699 26.166 -9.5 32.499s-18.166 9.5 -35.499 9.5h-51c-1.33301 8 -2 17.667 -2 29l2 29l74 79h-121z" />
    <glyph glyph-name="acute" unicode="&#xb4;" horiz-adv-x="241" 
d="M238 696l-145 -138c-16 -5.33301 -31 -8 -45 -8c-7.33301 0 -14.833 0.666992 -22.5 2s-13.5 2.66602 -17.5 3.99902l-6 2l92 138c23.333 5.33301 47 8 71 8c10.667 0 22 -0.666992 34 -2s21.667 -2.66602 29 -3.99902z" />
    <glyph glyph-name="mu" unicode="&#xb5;" 
d="M200 30v-126c-26.667 -5.33301 -53.334 -8 -80.001 -8c-11.333 0 -23.666 0.666992 -36.999 2s-23.666 2.66602 -30.999 3.99902l-11 2v592c26.667 5.33301 53 8 79 8c12 0 24.667 -0.666992 38 -2s23.666 -2.66602 30.999 -3.99902l11 -2v-377
c12.667 -18.667 34.334 -28 65.001 -28c21.333 0 36 5.83301 44 17.5s12 32.167 12 61.5v326c26 5.33301 52.333 8 79 8c12 0 24.667 -0.666992 38 -2s23.666 -2.66602 30.999 -3.99902l11 -2v-326c0 -58.667 -12.167 -102.834 -36.5 -132.501s-63.833 -44.5 -118.5 -44.5
c-22 0 -43.333 3.16699 -64 9.5s-36 12.5 -46 18.5z" />
    <glyph glyph-name="paragraph" unicode="&#xb6;" horiz-adv-x="753" 
d="M723 602h-43.001v-698c-26.667 -5.33301 -53.334 -8 -80.001 -8c-11.333 0 -23.666 0.666992 -36.999 2s-23.666 2.66602 -30.999 3.99902l-11 2v698h-72v-698c-26.667 -5.33301 -53.334 -8 -80.001 -8c-12 0 -24.667 0.666992 -38 2s-23.666 2.66602 -30.999 3.99902
l-11 2v367c-91.333 0 -157.166 16.167 -197.499 48.5s-60.5 81.833 -60.5 148.5v35c0 66 20.167 115.333 60.5 148s106.166 49 197.499 49h434c4 -13.333 6 -29.666 6 -48.999c0 -8.66699 -0.5 -17.167 -1.5 -25.5s-2.16699 -14.166 -3.5 -17.499z" />
    <glyph glyph-name="periodcentered" unicode="&#xb7;" horiz-adv-x="232" 
d="M192 328l-0.000976562 -134c-26 -4.66699 -51.333 -7 -76 -7c-11.333 0 -23.166 0.5 -35.499 1.5s-21.833 2.16699 -28.5 3.5l-11 2v134c24.667 4.66699 49.667 7 75 7c11.333 0 23.333 -0.5 36 -1.5s22.667 -2.16699 30 -3.5z" />
    <glyph glyph-name="cedilla" unicode="&#xb8;" horiz-adv-x="511" 
d="M292 0l-0.00292969 -22.001c0 -8 4.83301 -14.667 14.5 -20s20.334 -9.66602 32.001 -12.999s22.334 -9.66602 32.001 -18.999s14.5 -21.666 14.5 -36.999v-10c0 -50 -38 -75 -114 -75c-42 0 -70.833 6.66699 -86.5 20s-23.5 33.666 -23.5 60.999v5
c14.667 2.66699 28.334 4 41.001 4l40 -4v-5c0 -11.333 2 -19 6 -23s11.667 -6 23 -6c10.667 0 18.167 1.66699 22.5 5s6.5 9.33301 6.5 18v10c0 7.33301 -4.83301 13.666 -14.5 18.999s-20.167 9.5 -31.5 12.5s-21.833 9.5 -31.5 19.5s-14.5 22.667 -14.5 38v22h84z" />
    <glyph glyph-name="onesuperior" unicode="&#xb9;" horiz-adv-x="218" 
d="M171 702v-350c-15.333 -2.66699 -30.333 -4 -45 -4l-45 4v283l-63 5c-2 8 -3 17.333 -3 28l3 29c38.667 3.33301 89.667 5 153 5z" />
    <glyph glyph-name="ordmasculine" unicode="&#xba;" horiz-adv-x="371" 
d="M30 470v110c0 42 12.167 73.333 36.5 94s63.833 31 118.5 31c55.333 0 95.166 -10.333 119.499 -31s36.5 -52 36.5 -94v-110c0 -42 -12.167 -73.333 -36.5 -94s-64.166 -31 -119.499 -31c-54.667 0 -94.167 10.333 -118.5 31s-36.5 52 -36.5 94zM146 580v-110
c0 -20 2.83301 -34 8.5 -42s15.834 -12 30.501 -12c15.333 0 25.833 4 31.5 12s8.5 22 8.5 42v110c0 20 -2.83301 34 -8.5 42s-16.167 12 -31.5 12c-14.667 0 -24.834 -4 -30.501 -12s-8.5 -22 -8.5 -42z" />
    <glyph glyph-name="guillemotright" unicode="&#xbb;" horiz-adv-x="518" 
d="M292 270l-202 -201c-12 6 -25 16 -39 30c-6 6 -11.5 12.333 -16.5 19s-8.5 11.667 -10.5 15l-3 5l131 132l-132 132c6.66699 12.667 16.667 26 30 40c6 6 12.333 11.5 19 16.5s11.667 8.5 15 10.5l5 3zM494 270l-201 -201c-12 6 -25.333 16 -40 30
c-6 6 -11.5 12.333 -16.5 19s-8.5 11.667 -10.5 15l-3 5l131 132l-132 132c6.66699 12.667 16.667 26 30 40c6 6 12.333 11.5 19 16.5s11.667 8.5 15 10.5l6 3z" />
    <glyph glyph-name="onequarter" unicode="&#xbc;" horiz-adv-x="643" 
d="M589 696l-418.003 -692c-26 -5.33301 -51.333 -8 -76 -8c-11.333 0 -23.166 0.666992 -35.499 2s-22.166 2.66602 -29.499 3.99902l-10 2l418 692c24.667 5.33301 49.667 8 75 8c11.333 0 23.333 -0.666992 36 -2s22.334 -2.66602 29.001 -3.99902zM170.997 702v-350
c-15.333 -2.66699 -30.333 -4 -45 -4l-45 4v283l-63 5c-2 8 -3 17.333 -3 28l3 29c38.667 3.33301 89.667 5 153 5zM594.997 248l-0.000976562 -117h24c2 -8 3 -17.667 3 -29l-3 -29h-20v-71c-15.333 -2.66699 -30 -4 -44 -4l-44 4v71h-146
c-2.66699 7.33301 -4 16.333 -4 27l78 248c10.667 2.66699 24.334 4 41.001 4l44 -4l-66 -217h54v117c13.333 2.66699 27.333 4 42 4z" />
    <glyph glyph-name="onehalf" unicode="&#xbd;" horiz-adv-x="667" 
d="M589 696l-418.003 -692c-26 -5.33301 -51.333 -8 -76 -8c-11.333 0 -23.166 0.666992 -35.499 2s-22.166 2.66602 -29.499 3.99902l-10 2l418 692c24.667 5.33301 49.667 8 75 8c11.333 0 23.333 -0.666992 36 -2s22.334 -2.66602 29.001 -3.99902zM170.997 702v-350
c-15.333 -2.66699 -30.333 -4 -45 -4l-45 4v283l-63 5c-2 8 -3 17.333 -3 28l3 29c38.667 3.33301 89.667 5 153 5zM558.997 238l-0.000976562 12c0 18 -2.83301 30.667 -8.5 38s-15.5 11 -29.5 11c-14.667 0 -24.5 -3.5 -29.5 -10.5s-7.5 -19.833 -7.5 -38.5v-5
c-14.667 -2.66699 -29.334 -4 -44.001 -4l-43 4v5c0 36 8.83301 62.333 26.5 79s50.167 25 97.5 25c45.333 0 77.833 -8.5 97.5 -25.5s29.5 -43.167 29.5 -78.5v-12c0 -26 -8.33301 -47.667 -25 -65s-35.167 -29.5 -55.5 -36.5s-38.833 -16 -55.5 -27s-25 -24.167 -25 -39.5
v-15h154c2.66699 -8 4 -17.333 4 -28l-4 -27h-128c-20 0 -39.5 0.5 -58.5 1.5s-32.833 1.83301 -41.5 2.5l-13 2v64c0 24.667 8.33301 45.5 25 62.5s34.834 29.167 54.501 36.5s37.834 16.833 54.501 28.5s25 25.167 25 40.5z" />
    <glyph glyph-name="threequarters" unicode="&#xbe;" horiz-adv-x="687" 
d="M637 696l-417.999 -692c-25.333 -5.33301 -50.333 -8 -75 -8c-11.333 0 -23.333 0.666992 -36 2s-22.667 2.66602 -30 3.99902l-10 2l418 692c24.667 5.33301 50 8 76 8c11.333 0 23.166 -0.666992 35.499 -2s21.833 -2.66602 28.5 -3.99902zM28.001 642
c-2.66699 8 -3.99902 17.665 -3.99902 28.998l4 29h217c2 -7.33301 3 -16.333 3 -27l-3 -28l-84 -86c66.667 0 100 -32 100 -96v-18c0 -33.333 -11 -58.166 -33 -74.499s-58.333 -24.5 -109 -24.5c-16 0 -31.833 1.66699 -47.5 5s-27.5 6.33301 -35.5 9l-11 5
c-2.66699 7.33301 -4 17 -4 29c0 3.33301 0.166992 6.5 0.5 9.5s0.666016 5.5 0.999023 7.5s0.666016 3.83301 0.999023 5.5s0.5 2.83398 0.5 3.50098l1 2c0 -0.666992 3.83301 -2.66699 11.5 -6s19.167 -6.66602 34.5 -9.99902s30.666 -5 45.999 -5
c20.667 0 34.834 3.16699 42.501 9.5s11.5 17.833 11.5 34.5v18c0 15.333 -3.16699 26.166 -9.5 32.499s-18.166 9.5 -35.499 9.5h-51c-1.33301 8 -2 17.667 -2 29l2 29l74 79h-121zM641.002 247.998l-0.000976562 -117h24c2 -8 3 -17.667 3 -29l-3 -29h-20v-71
c-15.333 -2.66699 -30 -4 -44 -4l-44 4v71h-146c-2.66699 7.33301 -4 16.333 -4 27l78 248c10.667 2.66699 24.334 4 41.001 4l44 -4l-66 -217h54v117c13.333 2.66699 27.333 4 42 4z" />
    <glyph glyph-name="questiondown" unicode="&#xbf;" horiz-adv-x="549" 
d="M188 21v-30.001c0 -36.667 6.66699 -62.667 20 -78s36 -23 68 -23c32.667 0 55.167 7.5 67.5 22.5s18.5 41.167 18.5 78.5v12c25.333 4.66699 51 7 77 7c11.333 0 23.333 -0.666992 36 -2s22.667 -2.66602 30 -3.99902l11 -1v-12c0 -68 -17.167 -118.167 -51.5 -150.5
s-97.166 -48.5 -188.499 -48.5c-87.333 0 -150 16.333 -188 49s-57 82.667 -57 150v30c0 28 5.66699 52 17 72s25.166 35.5 41.499 46.5s32.5 21.167 48.5 30.5s29.667 20.333 41 33s17 27.667 17 45v30c26 4.66699 52.333 7 79 7c12 0 24.667 -0.5 38 -1.5
s23.666 -2.16699 30.999 -3.5l11 -2v-30c0 -28.667 -5.66699 -53 -17 -73s-25.166 -35.5 -41.499 -46.5s-32.833 -21 -49.5 -30s-30.667 -19.833 -42 -32.5s-17 -27.667 -17 -45zM195 361.999v132.999c26.667 5.33301 53.334 8 80.001 8c12 0 24.667 -0.666992 38 -2
s23.666 -2.66602 30.999 -3.99902l11 -2v-133c-26.667 -4.66699 -53.334 -7 -80.001 -7c-12 0 -24.667 0.5 -38 1.5s-23.666 2.16699 -30.999 3.5z" />
    <glyph glyph-name="Agrave" unicode="&#xc0;" horiz-adv-x="618" 
d="M9 4l187 692.001c35.333 5.33301 73 8 113 8c17.333 0 35.5 -0.666992 54.5 -2s33.833 -2.66602 44.5 -3.99902l15 -2l187 -692c-28.667 -5.33301 -55.667 -8 -81 -8c-11.333 0 -24 0.666992 -38 2s-25 2.66602 -33 3.99902l-13 2l-35 142h-201l-36 -142
c-29.333 -5.33301 -57 -8 -83 -8c-11.333 0 -23.833 0.666992 -37.5 2s-24.5 2.66602 -32.5 3.99902zM310 567.001l-78 -314h154zM308 754.001l-144.997 138c25.333 5.33301 49.666 8 72.999 8c10.667 0 22 -0.666992 34 -2s21.333 -2.66602 28 -3.99902l9 -2l92 -138
c-14.667 -5.33301 -29.667 -8 -45 -8c-6.66699 0 -13.834 0.666992 -21.501 2s-13.834 2.66602 -18.501 3.99902z" />
    <glyph glyph-name="Aacute" unicode="&#xc1;" horiz-adv-x="618" 
d="M9 4l187 692.001c35.333 5.33301 73 8 113 8c17.333 0 35.5 -0.666992 54.5 -2s33.833 -2.66602 44.5 -3.99902l15 -2l187 -692c-28.667 -5.33301 -55.667 -8 -81 -8c-11.333 0 -24 0.666992 -38 2s-25 2.66602 -33 3.99902l-13 2l-35 142h-201l-36 -142
c-29.333 -5.33301 -57 -8 -83 -8c-11.333 0 -23.833 0.666992 -37.5 2s-24.5 2.66602 -32.5 3.99902zM310 567.001l-78 -314h154zM454 892.001l-145.001 -138c-16 -5.33301 -31 -8 -45 -8c-7.33301 0 -14.666 0.666992 -21.999 2s-13 2.66602 -17 3.99902l-6 2l91 138
c23.333 5.33301 47 8 71 8c10.667 0 22 -0.666992 34 -2s21.667 -2.66602 29 -3.99902z" />
    <glyph glyph-name="Acircumflex" unicode="&#xc2;" horiz-adv-x="618" 
d="M9 4l187 692.001c35.333 5.33301 73 8 113 8c17.333 0 35.5 -0.666992 54.5 -2s33.833 -2.66602 44.5 -3.99902l15 -2l187 -692c-28.667 -5.33301 -55.667 -8 -81 -8c-11.333 0 -24 0.666992 -38 2s-25 2.66602 -33 3.99902l-13 2l-35 142h-201l-36 -142
c-29.333 -5.33301 -57 -8 -83 -8c-11.333 0 -23.833 0.666992 -37.5 2s-24.5 2.66602 -32.5 3.99902zM310 567.001l-78 -314h154zM383 754.001l-74 74.001l-74 -74c-16 -5.33301 -31 -8 -45 -8c-7.33301 0 -14.833 0.666992 -22.5 2s-13.5 2.66602 -17.5 3.99902l-6 2
l97 137c22 4.66699 44.333 7 67 7c10 0 20.667 -0.666992 32 -2s20 -2.66602 26 -3.99902l10 -1l97 -137c-14.667 -5.33301 -29.667 -8 -45 -8c-6.66699 0 -13.667 0.666992 -21 2s-13 2.66602 -17 3.99902z" />
    <glyph glyph-name="Atilde" unicode="&#xc3;" horiz-adv-x="618" 
d="M9 4l187 692.001c35.333 5.33301 73 8 113 8c17.333 0 35.5 -0.666992 54.5 -2s33.833 -2.66602 44.5 -3.99902l15 -2l187 -692c-28.667 -5.33301 -55.667 -8 -81 -8c-11.333 0 -24 0.666992 -38 2s-25 2.66602 -33 3.99902l-13 2l-35 142h-201l-36 -142
c-29.333 -5.33301 -57 -8 -83 -8c-11.333 0 -23.833 0.666992 -37.5 2s-24.5 2.66602 -32.5 3.99902zM310 567.001l-78 -314h154zM137 755.001l-0.000976562 4.00195c0 38.667 6.33301 67 19 85s35.667 27 69 27c20.667 0 38.834 -2.83301 54.501 -8.5
s26.834 -12 33.501 -19s14 -13.333 22 -19s15.667 -8.5 23 -8.5c14 0 23.667 3.16699 29 9.5s8 17.5 8 33.5v5c14 4.66699 28.333 7 43 7c6 0 12.5 -0.5 19.5 -1.5s12.5 -2.16699 16.5 -3.5l6 -2v-4c0 -40 -6 -68.833 -18 -86.5s-35 -26.5 -69 -26.5
c-26.667 0 -48.667 4.66699 -66 14s-30.833 18.666 -40.5 27.999s-18.834 14 -27.501 14c-14 0 -23.667 -3.16699 -29 -9.5s-8 -17.5 -8 -33.5v-5c-14 -5.33301 -28.333 -8 -43 -8c-6 0 -12.5 0.666992 -19.5 2s-12.5 2.66602 -16.5 3.99902z" />
    <glyph glyph-name="Adieresis" unicode="&#xc4;" horiz-adv-x="618" 
d="M9 4l187 692.001c35.333 5.33301 73 8 113 8c17.333 0 35.5 -0.666992 54.5 -2s33.833 -2.66602 44.5 -3.99902l15 -2l187 -692c-28.667 -5.33301 -55.667 -8 -81 -8c-11.333 0 -24 0.666992 -38 2s-25 2.66602 -33 3.99902l-13 2l-35 142h-201l-36 -142
c-29.333 -5.33301 -57 -8 -83 -8c-11.333 0 -23.833 0.666992 -37.5 2s-24.5 2.66602 -32.5 3.99902zM310 567.001l-78 -314h154zM266 864.001l0.000976562 -108.999c-18.667 -5.33301 -39.334 -8 -62.001 -8c-10.667 0 -21.167 0.666992 -31.5 2
s-18.166 2.66602 -23.499 3.99902l-8 2v109c18.667 4.66699 39.667 7 63 7c10 0 20.167 -0.5 30.5 -1.5s18.166 -2.16699 23.499 -3.5zM476.001 864.002l0.000976562 -108.999c-18.667 -5.33301 -39.334 -8 -62.001 -8c-10.667 0 -21.167 0.666992 -31.5 2
s-18.166 2.66602 -23.499 3.99902l-8 2v109c18.667 4.66699 39.667 7 63 7c10 0 20.167 -0.5 30.5 -1.5s18.166 -2.16699 23.499 -3.5z" />
    <glyph glyph-name="Aring" unicode="&#xc5;" horiz-adv-x="618" 
d="M9 4l187 692.001c35.333 5.33301 73 8 113 8c17.333 0 35.5 -0.666992 54.5 -2s33.833 -2.66602 44.5 -3.99902l15 -2l187 -692c-28.667 -5.33301 -55.667 -8 -81 -8c-11.333 0 -24 0.666992 -38 2s-25 2.66602 -33 3.99902l-13 2l-35 142h-201l-36 -142
c-29.333 -5.33301 -57 -8 -83 -8c-11.333 0 -23.833 0.666992 -37.5 2s-24.5 2.66602 -32.5 3.99902zM216 813.001v14c0 50 31 75 93 75c61.333 0 92 -25 92 -75v-14c0 -50 -30.667 -75 -92 -75c-62 0 -93 25 -93 75zM310 567.001l-78 -314h154zM275 827.001v-14
c0 -18 11.333 -27 34 -27c22 0 33 9 33 27v14c0 17.333 -11 26 -33 26c-22.667 0 -34 -8.66699 -34 -26z" />
    <glyph glyph-name="AE" unicode="&#xc6;" horiz-adv-x="765" 
d="M492 306l-0.000976562 -198.999h242c4.66699 -14 7 -32 7 -54c0 -9.33301 -0.5 -18.5 -1.5 -27.5s-2.16699 -15.5 -3.5 -19.5l-2 -6h-190c-39.333 0 -77.333 0.833008 -114 2.5s-63.334 3.5 -80.001 5.5l-26 2v136h-115l-36 -142c-29.333 -5.33301 -57 -8 -83 -8
c-11.333 0 -23.833 0.666992 -37.5 2s-24.5 2.66602 -32.5 3.99902l-11 2l185 686c94.667 6.66699 211.334 10 350.001 10h185c4.66699 -14 7 -32 7 -54c0 -9.33301 -0.666992 -18.5 -2 -27.5s-2.66602 -15.5 -3.99902 -19.5l-1 -6h-237v-180h207c4 -14 6 -31.667 6 -53
c0 -9.33301 -0.5 -18.5 -1.5 -27.5s-2.16699 -15.833 -3.5 -20.5l-1 -6h-207zM317.999 593.001l-87 -340h93v340h-6z" />
    <glyph glyph-name="Ccedilla" unicode="&#xc7;" horiz-adv-x="560" 
d="M36 192l-0.00390625 315.999c0 66 20 115.667 60 149s105.667 50 197 50s154.166 -16.167 188.499 -48.5s51.5 -82.5 51.5 -150.5v-12c-25.333 -4.66699 -50.333 -7 -75 -7c-11.333 0 -23.333 0.5 -36 1.5s-22.667 2.16699 -30 3.5l-10 2v12
c0 34.667 -6.33301 58.667 -19 72s-36 20 -70 20s-57.333 -6.83301 -70 -20.5s-19 -37.5 -19 -71.5v-316c0 -34 8 -57.833 24 -71.5s44.667 -20.5 86 -20.5c34 0 67.333 3.5 100 10.5s57 13.5 73 19.5s24 9.66699 24 11l1 -3c0.666992 -1.33301 1.5 -3.5 2.5 -6.5
s1.83301 -6.5 2.5 -10.5s1.33398 -9 2.00098 -15s1 -12 1 -18c0 -10 -0.666992 -19.667 -2 -29s-2.66602 -16.333 -3.99902 -21l-3 -6c-50 -24 -111 -37 -183 -39v-15c0 -8 4.83301 -14.667 14.5 -20s20.334 -9.66602 32.001 -12.999s22.334 -9.66602 32.001 -18.999
s14.5 -21.666 14.5 -36.999v-10c0 -50 -38 -75 -114 -75c-42 0 -70.833 6.66699 -86.5 20s-23.5 33.666 -23.5 60.999v5c14.667 2.66699 28.334 4 41.001 4l40 -4v-5c0 -11.333 2 -19 6 -23s11.667 -6 23 -6c10.667 0 18.167 1.66699 22.5 5s6.5 9.33301 6.5 18v10
c0 7.33301 -4.83301 13.666 -14.5 18.999s-20.167 9.5 -31.5 12.5s-21.833 9.5 -31.5 19.5s-14.5 22.667 -14.5 38v18c-73.333 7.33301 -126.333 27.333 -159 60s-49 78 -49 136z" />
    <glyph glyph-name="Egrave" unicode="&#xc8;" horiz-adv-x="511" 
d="M209 306l-0.000976562 -199h273c4.66699 -14 7 -32 7 -54c0 -9.33301 -0.5 -18.5 -1.5 -27.5s-2.16699 -15.5 -3.5 -19.5l-2 -6h-221c-39.333 -0 -77.333 0.833008 -114 2.5s-63.667 3.5 -81 5.5l-25 2v680c58.667 6.66699 132 10 220 10h216c4.66699 -14 7 -32 7 -54
c0 -9.33301 -0.666992 -18.5 -2 -27.5s-2.66602 -15.5 -3.99902 -19.5l-1 -6h-268v-180h238c4 -14 6 -31.667 6 -53c0 -9.33301 -0.5 -18.5 -1.5 -27.5s-2.16699 -15.833 -3.5 -20.5l-1 -6h-238zM265.999 754l-144.997 138c25.333 5.33301 49.666 8 72.999 8
c10.667 0 22 -0.666992 34 -2s21.333 -2.66602 28 -3.99902l9 -2l92 -138c-14.667 -5.33301 -29.667 -8 -45 -8c-6.66699 0 -13.834 0.666992 -21.501 2s-13.834 2.66602 -18.501 3.99902z" />
    <glyph glyph-name="Eacute" unicode="&#xc9;" horiz-adv-x="511" 
d="M209 306l-0.000976562 -199h273c4.66699 -14 7 -32 7 -54c0 -9.33301 -0.5 -18.5 -1.5 -27.5s-2.16699 -15.5 -3.5 -19.5l-2 -6h-221c-39.333 -0 -77.333 0.833008 -114 2.5s-63.667 3.5 -81 5.5l-25 2v680c58.667 6.66699 132 10 220 10h216c4.66699 -14 7 -32 7 -54
c0 -9.33301 -0.666992 -18.5 -2 -27.5s-2.66602 -15.5 -3.99902 -19.5l-1 -6h-268v-180h238c4 -14 6 -31.667 6 -53c0 -9.33301 -0.5 -18.5 -1.5 -27.5s-2.16699 -15.833 -3.5 -20.5l-1 -6h-238zM410.999 892l-145 -138c-16 -5.33301 -31.333 -8 -46 -8
c-6.66699 0 -13.834 0.666992 -21.501 2s-13.5 2.66602 -17.5 3.99902l-6 2l92 138c22.667 5.33301 46.334 8 71.001 8c10.667 0 22 -0.666992 34 -2s21.333 -2.66602 28 -3.99902z" />
    <glyph glyph-name="Ecircumflex" unicode="&#xca;" horiz-adv-x="511" 
d="M209 306l-0.000976562 -199h273c4.66699 -14 7 -32 7 -54c0 -9.33301 -0.5 -18.5 -1.5 -27.5s-2.16699 -15.5 -3.5 -19.5l-2 -6h-221c-39.333 -0 -77.333 0.833008 -114 2.5s-63.667 3.5 -81 5.5l-25 2v680c58.667 6.66699 132 10 220 10h216c4.66699 -14 7 -32 7 -54
c0 -9.33301 -0.666992 -18.5 -2 -27.5s-2.66602 -15.5 -3.99902 -19.5l-1 -6h-268v-180h238c4 -14 6 -31.667 6 -53c0 -9.33301 -0.5 -18.5 -1.5 -27.5s-2.16699 -15.833 -3.5 -20.5l-1 -6h-238zM339.999 754l-74.001 74.002l-74 -74c-15.333 -5.33301 -30.333 -8 -45 -8
c-7.33301 0 -14.666 0.666992 -21.999 2s-13 2.66602 -17 3.99902l-6 2l96 137c22 4.66699 44.333 7 67 7l69 -7l96 -137c-14 -5.33301 -29 -8 -45 -8c-6.66699 0 -13.667 0.666992 -21 2s-13.333 2.66602 -18 3.99902z" />
    <glyph glyph-name="Edieresis" unicode="&#xcb;" horiz-adv-x="511" 
d="M209 306l-0.000976562 -199h273c4.66699 -14 7 -32 7 -54c0 -9.33301 -0.5 -18.5 -1.5 -27.5s-2.16699 -15.5 -3.5 -19.5l-2 -6h-221c-39.333 -0 -77.333 0.833008 -114 2.5s-63.667 3.5 -81 5.5l-25 2v680c58.667 6.66699 132 10 220 10h216c4.66699 -14 7 -32 7 -54
c0 -9.33301 -0.666992 -18.5 -2 -27.5s-2.66602 -15.5 -3.99902 -19.5l-1 -6h-268v-180h238c4 -14 6 -31.667 6 -53c0 -9.33301 -0.5 -18.5 -1.5 -27.5s-2.16699 -15.833 -3.5 -20.5l-1 -6h-238zM222.999 864v-108.999c-18 -5.33301 -38.667 -8 -62 -8
c-10.667 0 -21.167 0.666992 -31.5 2s-18.166 2.66602 -23.499 3.99902l-7 2v109c18 4.66699 38.667 7 62 7c10.667 0 21.167 -0.5 31.5 -1.5s18.166 -2.16699 23.499 -3.5zM432.999 864.001v-108.999c-18 -5.33301 -38.667 -8 -62 -8c-10.667 0 -21.167 0.666992 -31.5 2
s-18.166 2.66602 -23.499 3.99902l-7 2v109c18 4.66699 38.667 7 62 7c10.667 0 21.167 -0.5 31.5 -1.5s18.166 -2.16699 23.499 -3.5z" />
    <glyph glyph-name="Igrave" unicode="&#xcc;" horiz-adv-x="342" 
d="M28 107h59v486h-59c-4 14 -6 31.667 -6 53c0 10 0.5 19.5 1.5 28.5s1.83301 15.5 2.5 19.5l2 6h286c4.66699 -14 7 -32 7 -54c0 -9.33301 -0.5 -18.5 -1.5 -27.5s-2.16699 -15.5 -3.5 -19.5l-2 -6h-59v-486h59c4.66699 -14 7 -32 7 -54c0 -9.33301 -0.5 -18.5 -1.5 -27.5
s-2.16699 -15.5 -3.5 -19.5l-2 -6h-286c-4 14 -6 31.667 -6 53c0 10 0.5 19.5 1.5 28.5s1.83301 15.5 2.5 19.5zM171 754l-145.999 138c25.333 5.33301 49.666 8 72.999 8c10.667 0 22 -0.666992 34 -2s21.333 -2.66602 28 -3.99902l10 -2l91 -138
c-14 -5.33301 -29 -8 -45 -8c-6.66699 0 -13.667 0.666992 -21 2s-13 2.66602 -17 3.99902z" />
    <glyph glyph-name="Iacute" unicode="&#xcd;" horiz-adv-x="342" 
d="M28 107h59v486h-59c-4 14 -6 31.667 -6 53c0 10 0.5 19.5 1.5 28.5s1.83301 15.5 2.5 19.5l2 6h286c4.66699 -14 7 -32 7 -54c0 -9.33301 -0.5 -18.5 -1.5 -27.5s-2.16699 -15.5 -3.5 -19.5l-2 -6h-59v-486h59c4.66699 -14 7 -32 7 -54c0 -9.33301 -0.5 -18.5 -1.5 -27.5
s-2.16699 -15.5 -3.5 -19.5l-2 -6h-286c-4 14 -6 31.667 -6 53c0 10 0.5 19.5 1.5 28.5s1.83301 15.5 2.5 19.5zM317 892l-146.002 -138c-15.333 -5.33301 -30.333 -8 -45 -8c-7.33301 0 -14.666 0.666992 -21.999 2s-13 2.66602 -17 3.99902l-6 2l92 138
c22.667 5.33301 46.334 8 71.001 8c10.667 0 22 -0.666992 34 -2s21.333 -2.66602 28 -3.99902z" />
    <glyph glyph-name="Icircumflex" unicode="&#xce;" horiz-adv-x="342" 
d="M28 107h59v486h-59c-4 14 -6 31.667 -6 53c0 10 0.5 19.5 1.5 28.5s1.83301 15.5 2.5 19.5l2 6h286c4.66699 -14 7 -32 7 -54c0 -9.33301 -0.5 -18.5 -1.5 -27.5s-2.16699 -15.5 -3.5 -19.5l-2 -6h-59v-486h59c4.66699 -14 7 -32 7 -54c0 -9.33301 -0.5 -18.5 -1.5 -27.5
s-2.16699 -15.5 -3.5 -19.5l-2 -6h-286c-4 14 -6 31.667 -6 53c0 10 0.5 19.5 1.5 28.5s1.83301 15.5 2.5 19.5zM245 754l-74.001 74.002l-74 -74c-15.333 -5.33301 -30.333 -8 -45 -8c-7.33301 0 -14.666 0.666992 -21.999 2s-13 2.66602 -17 3.99902l-6 2l96 137
c22 4.66699 44.333 7 67 7l69 -7l96 -137c-14 -5.33301 -29 -8 -45 -8c-6.66699 0 -13.667 0.666992 -21 2s-13 2.66602 -17 3.99902z" />
    <glyph glyph-name="Idieresis" unicode="&#xcf;" horiz-adv-x="342" 
d="M140 863l-0.000976562 -109c-18.667 -5.33301 -39.667 -8 -63 -8c-10 0 -20.167 0.666992 -30.5 2s-18.166 2.66602 -23.499 3.99902l-8 2v109c18.667 4.66699 39.334 7 62.001 7c10.667 0 21.167 -0.666992 31.5 -2s18.166 -2.66602 23.499 -3.99902zM326.999 863
l0.000976562 -109c-18.667 -5.33301 -39.334 -8 -62.001 -8c-10.667 0 -21.167 0.666992 -31.5 2s-18.166 2.66602 -23.499 3.99902l-7 2v109c18 4.66699 38.667 7 62 7c10.667 0 21.167 -0.666992 31.5 -2s18.166 -2.66602 23.499 -3.99902zM28 107h59v486h-59
c-4 14 -6 31.667 -6 53c0 10 0.5 19.5 1.5 28.5s1.83301 15.5 2.5 19.5l2 6h286c4.66699 -14 7 -32 7 -54c0 -9.33301 -0.5 -18.5 -1.5 -27.5s-2.16699 -15.5 -3.5 -19.5l-2 -6h-59v-486h59c4.66699 -14 7 -32 7 -54c0 -9.33301 -0.5 -18.5 -1.5 -27.5
s-2.16699 -15.5 -3.5 -19.5l-2 -6h-286c-4 14 -6 31.667 -6 53c0 10 0.5 19.5 1.5 28.5s1.83301 15.5 2.5 19.5z" />
    <glyph glyph-name="Eth" unicode="&#xd0;" horiz-adv-x="623" 
d="M73 691c67.333 9.33301 151.667 14 253 14c92.667 0 159.167 -16.333 199.5 -49s60.5 -82 60.5 -148v-316c0 -66 -20.167 -115.333 -60.5 -148s-106.833 -49 -199.5 -49c-45.333 0 -89 1.16699 -131 3.5s-73 4.83301 -93 7.5l-29 3v302h-43c-4 12.667 -6 29 -6 49
c0 8.66699 0.5 17 1.5 25s1.83301 14 2.5 18l2 6h43v282zM329.001 311l-88.001 -0.000976562v-210h85c34.667 0 58.667 6.66699 72 20s20 37 20 71v316c0 34 -6.66699 57.667 -20 71s-37.333 20 -72 20h-85v-190h88c4.66699 -13.333 7 -29.666 7 -48.999
c0 -8.66699 -0.666992 -17 -2 -25s-2.66602 -14 -3.99902 -18z" />
    <glyph glyph-name="Ntilde" unicode="&#xd1;" horiz-adv-x="618" 
d="M41 4l-0.000976562 692c23.333 5.33301 47 8 71 8c10.667 0 21.834 -0.666992 33.501 -2s20.834 -2.66602 27.501 -3.99902l10 -2l235 -386v386c26.667 5.33301 53.334 8 80.001 8c12 0 24.667 -0.666992 38 -2s23.666 -2.66602 30.999 -3.99902l11 -2v-692
c-24 -5.33301 -47.667 -8 -71 -8c-10.667 0 -21.834 0.666992 -33.501 2s-20.834 2.66602 -27.501 3.99902l-10 2l-236 386v-386c-26.667 -5.33301 -53.334 -8 -80.001 -8c-11.333 0 -23.666 0.666992 -36.999 2s-23.666 2.66602 -30.999 3.99902zM136.999 755
l-0.000976562 4.00195c0 38.667 6.33301 67 19 85s35.667 27 69 27c20.667 0 38.834 -2.83301 54.501 -8.5s26.834 -12 33.501 -19s14 -13.333 22 -19s15.667 -8.5 23 -8.5c14 0 23.667 3.16699 29 9.5s8 17.5 8 33.5v5c14 4.66699 28.333 7 43 7c6 0 12.5 -0.5 19.5 -1.5
s12.5 -2.16699 16.5 -3.5l6 -2v-4c0 -40 -6 -68.833 -18 -86.5s-35 -26.5 -69 -26.5c-26.667 0 -48.667 4.66699 -66 14s-30.833 18.666 -40.5 27.999s-18.834 14 -27.501 14c-14 0 -23.667 -3.16699 -29 -9.5s-8 -17.5 -8 -33.5v-5c-14 -5.33301 -28.333 -8 -43 -8
c-6 0 -12.5 0.666992 -19.5 2s-12.5 2.66602 -16.5 3.99902z" />
    <glyph glyph-name="Ograve" unicode="&#xd2;" horiz-adv-x="594" 
d="M36 192v316c0 66 20.5 115.667 61.5 149s107.5 50 199.5 50s158.333 -16.667 199 -50s61 -83 61 -149v-316c0 -66 -20.333 -115.667 -61 -149s-107 -50 -199 -50s-158.5 16.667 -199.5 50s-61.5 83 -61.5 149zM204 508v-316c0 -34 6.66699 -57.833 20 -71.5
s37.666 -20.5 72.999 -20.5c34.667 0 58.667 6.83301 72 20.5s20 37.5 20 71.5v316c0 34 -6.66699 57.833 -20 71.5s-37.333 20.5 -72 20.5c-35.333 0 -59.666 -6.83301 -72.999 -20.5s-20 -37.5 -20 -71.5zM297 754l-145.999 138c25.333 5.33301 49.666 8 72.999 8
c10.667 0 22 -0.666992 34 -2s21.333 -2.66602 28 -3.99902l9 -2l92 -138c-14 -5.33301 -29 -8 -45 -8c-6.66699 0 -13.667 0.666992 -21 2s-13 2.66602 -17 3.99902z" />
    <glyph glyph-name="Oacute" unicode="&#xd3;" horiz-adv-x="594" 
d="M36 192v316c0 66 20.5 115.667 61.5 149s107.5 50 199.5 50s158.333 -16.667 199 -50s61 -83 61 -149v-316c0 -66 -20.333 -115.667 -61 -149s-107 -50 -199 -50s-158.5 16.667 -199.5 50s-61.5 83 -61.5 149zM204 508v-316c0 -34 6.66699 -57.833 20 -71.5
s37.666 -20.5 72.999 -20.5c34.667 0 58.667 6.83301 72 20.5s20 37.5 20 71.5v316c0 34 -6.66699 57.833 -20 71.5s-37.333 20.5 -72 20.5c-35.333 0 -59.666 -6.83301 -72.999 -20.5s-20 -37.5 -20 -71.5zM443 892l-146.001 -138c-15.333 -5.33301 -30.333 -8 -45 -8
c-7.33301 0 -14.666 0.666992 -21.999 2s-13 2.66602 -17 3.99902l-6 2l91 138c23.333 5.33301 47.333 8 72 8c10.667 0 22 -0.666992 34 -2s21.333 -2.66602 28 -3.99902z" />
    <glyph glyph-name="Ocircumflex" unicode="&#xd4;" horiz-adv-x="594" 
d="M36 192v316c0 66 20.5 115.667 61.5 149s107.5 50 199.5 50s158.333 -16.667 199 -50s61 -83 61 -149v-316c0 -66 -20.333 -115.667 -61 -149s-107 -50 -199 -50s-158.5 16.667 -199.5 50s-61.5 83 -61.5 149zM204 508v-316c0 -34 6.66699 -57.833 20 -71.5
s37.666 -20.5 72.999 -20.5c34.667 0 58.667 6.83301 72 20.5s20 37.5 20 71.5v316c0 34 -6.66699 57.833 -20 71.5s-37.333 20.5 -72 20.5c-35.333 0 -59.666 -6.83301 -72.999 -20.5s-20 -37.5 -20 -71.5zM371 754l-74.001 74.002l-74 -74
c-15.333 -5.33301 -30.333 -8 -45 -8c-7.33301 0 -14.666 0.666992 -21.999 2s-13 2.66602 -17 3.99902l-6 2l96 137c22 4.66699 44.333 7 67 7l69 -7l96 -137c-14 -5.33301 -29 -8 -45 -8c-6.66699 0 -13.667 0.666992 -21 2s-13 2.66602 -17 3.99902z" />
    <glyph glyph-name="Otilde" unicode="&#xd5;" horiz-adv-x="594" 
d="M36 192v316c0 66 20.5 115.667 61.5 149s107.5 50 199.5 50s158.333 -16.667 199 -50s61 -83 61 -149v-316c0 -66 -20.333 -115.667 -61 -149s-107 -50 -199 -50s-158.5 16.667 -199.5 50s-61.5 83 -61.5 149zM204 508v-316c0 -34 6.66699 -57.833 20 -71.5
s37.666 -20.5 72.999 -20.5c34.667 0 58.667 6.83301 72 20.5s20 37.5 20 71.5v316c0 34 -6.66699 57.833 -20 71.5s-37.333 20.5 -72 20.5c-35.333 0 -59.666 -6.83301 -72.999 -20.5s-20 -37.5 -20 -71.5zM125 755l0.000976562 4.00195c0 38.667 6.33301 67 19 85
s35.667 27 69 27c21.333 0 39.666 -2.83301 54.999 -8.5s26.5 -12 33.5 -19s14.333 -13.333 22 -19s15.167 -8.5 22.5 -8.5c14 0 23.667 3.16699 29 9.5s8 17.5 8 33.5v5c14.667 4.66699 29 7 43 7c6 0 12.5 -0.5 19.5 -1.5s12.5 -2.16699 16.5 -3.5l6 -2v-4
c0 -40 -6 -68.833 -18 -86.5s-35 -26.5 -69 -26.5c-26.667 0 -48.667 4.66699 -66 14s-30.833 18.666 -40.5 27.999s-18.5 14 -26.5 14c-14 0 -23.667 -3.16699 -29 -9.5s-8 -17.5 -8 -33.5v-5c-14.667 -5.33301 -29 -8 -43 -8c-6 0 -12.667 0.666992 -20 2
s-13 2.66602 -17 3.99902z" />
    <glyph glyph-name="Odieresis" unicode="&#xd6;" horiz-adv-x="594" 
d="M36 192v316c0 66 20.5 115.667 61.5 149s107.5 50 199.5 50s158.333 -16.667 199 -50s61 -83 61 -149v-316c0 -66 -20.333 -115.667 -61 -149s-107 -50 -199 -50s-158.5 16.667 -199.5 50s-61.5 83 -61.5 149zM204 508v-316c0 -34 6.66699 -57.833 20 -71.5
s37.666 -20.5 72.999 -20.5c34.667 0 58.667 6.83301 72 20.5s20 37.5 20 71.5v316c0 34 -6.66699 57.833 -20 71.5s-37.333 20.5 -72 20.5c-35.333 0 -59.666 -6.83301 -72.999 -20.5s-20 -37.5 -20 -71.5zM254 863v-109c-18 -5.33301 -38.667 -8 -62 -8
c-10.667 0 -21.167 0.666992 -31.5 2s-17.833 2.66602 -22.5 3.99902l-8 2v109c18 4.66699 38.667 7 62 7c10.667 0 21.167 -0.666992 31.5 -2s17.833 -2.66602 22.5 -3.99902zM464 863v-109c-18 -5.33301 -38.667 -8 -62 -8c-10.667 0 -21.167 0.666992 -31.5 2
s-17.833 2.66602 -22.5 3.99902l-8 2v109c18 4.66699 38.667 7 62 7c10.667 0 21.167 -0.666992 31.5 -2s17.833 -2.66602 22.5 -3.99902z" />
    <glyph glyph-name="multiply" unicode="&#xd7;" horiz-adv-x="399" 
d="M89 479l110 -109l109 109c12.667 -6.66699 26 -16.667 40 -30c6 -6 11.5 -12.333 16.5 -19s8.5 -12 10.5 -16l3 -5l-110 -109l109 -108c-6 -12.667 -16 -26 -30 -40c-6 -6 -12.333 -11.5 -19 -16.5s-12 -8.5 -16 -10.5l-5 -3l-108 108l-109 -108c-12 6 -25 16 -39 30
c-6 6 -11.5 12.333 -16.5 19s-8.5 11.667 -10.5 15l-3 6l108 108l-109 109c6.66699 12.667 16.667 26 30 40c6 6 12.333 11.5 19 16.5s11.667 8.5 15 10.5z" />
    <glyph glyph-name="Oslash" unicode="&#xd8;" horiz-adv-x="594" 
d="M573 696l-45.0029 -73c19.333 -30 29 -68.333 29 -115v-316c0 -66 -20.333 -115.667 -61 -149s-107 -50 -199 -50c-58.667 0 -107 6.66699 -145 20l-6 -9c-20.667 -5.33301 -41.667 -8 -63 -8c-9.33301 0 -19.166 0.666992 -29.499 2s-18.166 2.66602 -23.499 3.99902
l-9 2l45 72c-20 29.333 -30 68 -30 116v316c0 66 20.5 115.667 61.5 149s107.5 50 199.5 50c58.667 0 107 -7 145 -21l6 10c20.667 5.33301 41.334 8 62.001 8c9.33301 0 19.333 -0.666992 30 -2s18.667 -2.66602 24 -3.99902zM296.997 95c38 0 64.333 7.16699 79 21.5
s22 39.5 22 75.5v220l-182 -294c14.667 -15.333 41.667 -23 81 -23zM195.997 508l0.000976562 -221l181 295c-14.667 15.333 -41.334 23 -80.001 23c-38 0 -64.333 -7.33301 -79 -22s-22 -39.667 -22 -75z" />
    <glyph glyph-name="Ugrave" unicode="&#xd9;" horiz-adv-x="598" 
d="M557 696l-0.000976562 -504.002c0 -66 -20.167 -115.667 -60.5 -149s-106.166 -50 -197.499 -50c-92 0 -158 16.5 -198 49.5s-60 82.833 -60 149.5v504c27.333 5.33301 55.333 8 84 8c12.667 0 26 -0.666992 40 -2s25 -2.66602 33 -3.99902l11 -2v-504
c0 -34 6.5 -57.833 19.5 -71.5s36.5 -20.5 70.5 -20.5s57.5 6.83301 70.5 20.5s19.5 37.5 19.5 71.5v504c27.333 5.33301 55.333 8 84 8c12.667 0 26 -0.666992 40 -2s25 -2.66602 33 -3.99902zM298.999 753.998l-145.999 138c25.333 5.33301 49.666 8 72.999 8
c10.667 0 22 -0.666992 34 -2s21.333 -2.66602 28 -3.99902l9 -2l92 -138c-14 -5.33301 -29 -8 -45 -8c-6.66699 0 -13.667 0.666992 -21 2s-13 2.66602 -17 3.99902z" />
    <glyph glyph-name="Uacute" unicode="&#xda;" horiz-adv-x="598" 
d="M557 696l-0.000976562 -504.002c0 -66 -20.167 -115.667 -60.5 -149s-106.166 -50 -197.499 -50c-92 0 -158 16.5 -198 49.5s-60 82.833 -60 149.5v504c27.333 5.33301 55.333 8 84 8c12.667 0 26 -0.666992 40 -2s25 -2.66602 33 -3.99902l11 -2v-504
c0 -34 6.5 -57.833 19.5 -71.5s36.5 -20.5 70.5 -20.5s57.5 6.83301 70.5 20.5s19.5 37.5 19.5 71.5v504c27.333 5.33301 55.333 8 84 8c12.667 0 26 -0.666992 40 -2s25 -2.66602 33 -3.99902zM444.999 891.998l-146.001 -138c-15.333 -5.33301 -30.333 -8 -45 -8
c-7.33301 0 -14.666 0.666992 -21.999 2s-13 2.66602 -17 3.99902l-6 2l91 138c23.333 5.33301 47.333 8 72 8c10.667 0 22 -0.666992 34 -2s21.333 -2.66602 28 -3.99902z" />
    <glyph glyph-name="Ucircumflex" unicode="&#xdb;" horiz-adv-x="598" 
d="M557 696l-0.000976562 -504.002c0 -66 -20.167 -115.667 -60.5 -149s-106.166 -50 -197.499 -50c-92 0 -158 16.5 -198 49.5s-60 82.833 -60 149.5v504c27.333 5.33301 55.333 8 84 8c12.667 0 26 -0.666992 40 -2s25 -2.66602 33 -3.99902l11 -2v-504
c0 -34 6.5 -57.833 19.5 -71.5s36.5 -20.5 70.5 -20.5s57.5 6.83301 70.5 20.5s19.5 37.5 19.5 71.5v504c27.333 5.33301 55.333 8 84 8c12.667 0 26 -0.666992 40 -2s25 -2.66602 33 -3.99902zM372.999 753.998l-74.001 74.002l-74 -74c-15.333 -5.33301 -30.333 -8 -45 -8
c-7.33301 0 -14.666 0.666992 -21.999 2s-13 2.66602 -17 3.99902l-6 2l96 137c22 4.66699 44.333 7 67 7l69 -7l96 -137c-14 -5.33301 -29 -8 -45 -8c-6.66699 0 -13.667 0.666992 -21 2s-13 2.66602 -17 3.99902z" />
    <glyph glyph-name="Udieresis" unicode="&#xdc;" horiz-adv-x="598" 
d="M557 696l-0.000976562 -504.002c0 -66 -20.167 -115.667 -60.5 -149s-106.166 -50 -197.499 -50c-92 0 -158 16.5 -198 49.5s-60 82.833 -60 149.5v504c27.333 5.33301 55.333 8 84 8c12.667 0 26 -0.666992 40 -2s25 -2.66602 33 -3.99902l11 -2v-504
c0 -34 6.5 -57.833 19.5 -71.5s36.5 -20.5 70.5 -20.5s57.5 6.83301 70.5 20.5s19.5 37.5 19.5 71.5v504c27.333 5.33301 55.333 8 84 8c12.667 0 26 -0.666992 40 -2s25 -2.66602 33 -3.99902zM255.999 862.998l0.000976562 -109c-18.667 -5.33301 -39.334 -8 -62.001 -8
c-10.667 0 -21.167 0.666992 -31.5 2s-17.833 2.66602 -22.5 3.99902l-8 2v109c18 4.66699 38.667 7 62 7c10.667 0 21.167 -0.666992 31.5 -2s17.833 -2.66602 22.5 -3.99902zM466 862.998l0.000976562 -109c-18.667 -5.33301 -39.334 -8 -62.001 -8
c-10.667 0 -21.167 0.666992 -31.5 2s-17.833 2.66602 -22.5 3.99902l-8 2v109c18 4.66699 38.667 7 62 7c10.667 0 21.167 -0.666992 31.5 -2s17.833 -2.66602 22.5 -3.99902z" />
    <glyph glyph-name="Yacute" unicode="&#xdd;" horiz-adv-x="628" 
d="M607 696l-209 -444.001v-248c-27.333 -5.33301 -55.333 -8 -84 -8c-12.667 0 -26 0.666992 -40 2s-24.667 2.66602 -32 3.99902l-12 2v248l-210 444c34 5.33301 64.333 8 91 8c12 0 25.5 -0.666992 40.5 -2s27.167 -2.66602 36.5 -3.99902l13 -2l113 -281l113 281
c32.667 5.33301 62.667 8 90 8c12.667 0 26.5 -0.666992 41.5 -2s26.833 -2.66602 35.5 -3.99902zM460 891.999l-146.002 -138c-15.333 -5.33301 -30.333 -8 -45 -8c-7.33301 0 -14.666 0.666992 -21.999 2s-13 2.66602 -17 3.99902l-6 2l92 138
c22.667 5.33301 46.334 8 71.001 8c10.667 0 22 -0.666992 34 -2s21.667 -2.66602 29 -3.99902z" />
    <glyph glyph-name="Thorn" unicode="&#xde;" horiz-adv-x="552" 
d="M209 696v-122c18 1.33301 40.667 2 68 2c84.667 0 145.667 -16.167 183 -48.5s56 -81.5 56 -147.5v-40c0 -66.667 -18.667 -116.167 -56 -148.5s-98.333 -48.5 -183 -48.5l-68 3v-142c-28.667 -5.33301 -56.667 -8 -84 -8c-12.667 0 -26 0.666992 -40 2
s-25 2.66602 -33 3.99902l-11 2v692c27.333 5.33301 55.333 8 84 8c12.667 0 26 -0.666992 40 -2s25 -2.66602 33 -3.99902zM209 471v-223h63c29.333 0 49.333 6.66699 60 20s16 37.333 16 72v40c0 34 -5.33301 57.667 -16 71s-30.667 20 -60 20h-63z" />
    <glyph glyph-name="germandbls" unicode="&#xdf;" horiz-adv-x="734" 
d="M74 5v397.002h-42c-4.66699 12.667 -7 29 -7 49c0 8.66699 0.5 17.167 1.5 25.5s2.16699 14.166 3.5 17.499l2 6h42v36c0 57.333 17.333 100.166 52 128.499s91.334 42.5 170.001 42.5c79.333 0 136.333 -14 171 -42s52 -71 52 -129v-17c0 -24 -4 -44.167 -12 -60.5
s-16.667 -27.5 -26 -33.5s-18 -13.333 -26 -22s-12 -18.334 -12 -29.001v-15c0 -10.667 4 -18.667 12 -24s20.333 -10 37 -14c20.667 -4 37.5 -7.5 50.5 -10.5s30.667 -8.83301 53 -17.5s40 -18.167 53 -28.5s24.833 -24.833 35.5 -43.5s16 -39.334 16 -62.001v-20
c0 -49.333 -16.333 -86 -49 -110s-86.334 -36 -161.001 -36c-78.667 0 -132.834 12.833 -162.501 38.5s-44.5 65.834 -44.5 120.501v8c26 4.66699 51.667 7 77 7c11.333 0 23.5 -0.5 36.5 -1.5s22.833 -2.16699 29.5 -3.5l11 -2v-8c0 -22.667 3.66699 -38.5 11 -47.5
s21 -13.5 41 -13.5s33.667 3.5 41 10.5s11 19.5 11 37.5v20c0 11.333 -4.33301 19.833 -13 25.5s-22.334 10.5 -41.001 14.5c-22 4.66699 -38.5 8.33398 -49.5 11.001s-27.833 8.33398 -50.5 17.001s-40 18 -52 28s-23.167 24.167 -33.5 42.5s-15.5 38.833 -15.5 61.5v15
c0 24 3.83301 43.833 11.5 59.5s16 26.5 25 32.5s17.333 13.5 25 22.5s11.5 19.167 11.5 30.5v17c0 20.667 -4.5 35.167 -13.5 43.5s-25.5 12.5 -49.5 12.5c-23.333 0 -39.666 -4.66699 -48.999 -14s-14 -23.333 -14 -42v-531c-26 -5.33301 -52.333 -8 -79 -8
c-12 0 -24.667 0.666992 -38 2s-23.666 2.66602 -30.999 3.99902z" />
    <glyph glyph-name="agrave" unicode="&#xe0;" horiz-adv-x="515" 
d="M315 4l0.000976562 26.001c-35.333 -24.667 -78.666 -37 -129.999 -37c-52.667 0 -90.667 12.333 -114 37s-35 62 -35 112v10c0 42 14.5 74.5 43.5 97.5s77.167 38.833 144.5 47.5l91 11v35c0 24 -4.33301 41 -13 51s-24 15 -46 15c-22.667 0 -38.167 -4.66699 -46.5 -14
s-12.5 -25.333 -12.5 -48v-9c-24.667 -4.66699 -50 -7 -76 -7c-10.667 0 -22.334 0.5 -35.001 1.5s-22.667 2.16699 -30 3.5l-10 2v9c0 54.667 15.167 95 45.5 121s85.166 39 164.499 39c77.333 0 133 -13.667 167 -41s51 -68.333 51 -123v-339
c-26 -5.33301 -52.333 -8 -79 -8c-12.667 0 -25.667 0.666992 -39 2s-23.333 2.66602 -30 3.99902zM315.001 213.001l-60 -9c-39.333 -6 -59 -23.333 -59 -52v-10c0 -18.667 3.83301 -31.834 11.5 -39.501s21.5 -11.5 41.5 -11.5c14 0 26.5 2.33301 37.5 7
s18.5 9.33398 22.5 14.001l6 7v94zM257.001 558.001l-145.999 138c25.333 5.33301 49.666 8 72.999 8c10.667 0 22 -0.666992 34 -2s21.333 -2.66602 28 -3.99902l10 -2l91 -138c-14 -5.33301 -29 -8 -45 -8c-6.66699 0 -13.667 0.666992 -21 2s-13 2.66602 -17 3.99902z
" />
    <glyph glyph-name="aacute" unicode="&#xe1;" horiz-adv-x="515" 
d="M315 4l0.000976562 26.001c-35.333 -24.667 -78.666 -37 -129.999 -37c-52.667 0 -90.667 12.333 -114 37s-35 62 -35 112v10c0 42 14.5 74.5 43.5 97.5s77.167 38.833 144.5 47.5l91 11v35c0 24 -4.33301 41 -13 51s-24 15 -46 15c-22.667 0 -38.167 -4.66699 -46.5 -14
s-12.5 -25.333 -12.5 -48v-9c-24.667 -4.66699 -50 -7 -76 -7c-10.667 0 -22.334 0.5 -35.001 1.5s-22.667 2.16699 -30 3.5l-10 2v9c0 54.667 15.167 95 45.5 121s85.166 39 164.499 39c77.333 0 133 -13.667 167 -41s51 -68.333 51 -123v-339
c-26 -5.33301 -52.333 -8 -79 -8c-12.667 0 -25.667 0.666992 -39 2s-23.333 2.66602 -30 3.99902zM315.001 213.001l-60 -9c-39.333 -6 -59 -23.333 -59 -52v-10c0 -18.667 3.83301 -31.834 11.5 -39.501s21.5 -11.5 41.5 -11.5c14 0 26.5 2.33301 37.5 7
s18.5 9.33398 22.5 14.001l6 7v94zM403.001 696.001l-146 -138c-15.333 -5.33301 -30.333 -8 -45 -8c-6.66699 0 -13.834 0.666992 -21.501 2s-13.5 2.66602 -17.5 3.99902l-6 2l92 138c22.667 5.33301 46.334 8 71.001 8c10.667 0 22 -0.666992 34 -2
s21.333 -2.66602 28 -3.99902z" />
    <glyph glyph-name="acircumflex" unicode="&#xe2;" horiz-adv-x="515" 
d="M315 4l0.000976562 26.001c-35.333 -24.667 -78.666 -37 -129.999 -37c-52.667 0 -90.667 12.333 -114 37s-35 62 -35 112v10c0 42 14.5 74.5 43.5 97.5s77.167 38.833 144.5 47.5l91 11v35c0 24 -4.33301 41 -13 51s-24 15 -46 15c-22.667 0 -38.167 -4.66699 -46.5 -14
s-12.5 -25.333 -12.5 -48v-9c-24.667 -4.66699 -50 -7 -76 -7c-10.667 0 -22.334 0.5 -35.001 1.5s-22.667 2.16699 -30 3.5l-10 2v9c0 54.667 15.167 95 45.5 121s85.166 39 164.499 39c77.333 0 133 -13.667 167 -41s51 -68.333 51 -123v-339
c-26 -5.33301 -52.333 -8 -79 -8c-12.667 0 -25.667 0.666992 -39 2s-23.333 2.66602 -30 3.99902zM315.001 213.001l-60 -9c-39.333 -6 -59 -23.333 -59 -52v-10c0 -18.667 3.83301 -31.834 11.5 -39.501s21.5 -11.5 41.5 -11.5c14 0 26.5 2.33301 37.5 7
s18.5 9.33398 22.5 14.001l6 7v94zM331.001 559.001l-74.001 74l-74 -74c-15.333 -4.66699 -30.333 -7 -45 -7c-7.33301 0 -14.666 0.666992 -21.999 2s-13 2.66602 -17 3.99902l-6 1l96 137c22 5.33301 44.333 8 67 8c10 0 20.667 -0.666992 32 -2
s20.333 -2.66602 27 -3.99902l10 -2l96 -137c-14 -4.66699 -29 -7 -45 -7z" />
    <glyph glyph-name="atilde" unicode="&#xe3;" horiz-adv-x="515" 
d="M315 4l0.000976562 26.001c-35.333 -24.667 -78.666 -37 -129.999 -37c-52.667 0 -90.667 12.333 -114 37s-35 62 -35 112v10c0 42 14.5 74.5 43.5 97.5s77.167 38.833 144.5 47.5l91 11v35c0 24 -4.33301 41 -13 51s-24 15 -46 15c-22.667 0 -38.167 -4.66699 -46.5 -14
s-12.5 -25.333 -12.5 -48v-9c-24.667 -4.66699 -50 -7 -76 -7c-10.667 0 -22.334 0.5 -35.001 1.5s-22.667 2.16699 -30 3.5l-10 2v9c0 54.667 15.167 95 45.5 121s85.166 39 164.499 39c77.333 0 133 -13.667 167 -41s51 -68.333 51 -123v-339
c-26 -5.33301 -52.333 -8 -79 -8c-12.667 0 -25.667 0.666992 -39 2s-23.333 2.66602 -30 3.99902zM315.001 213.001l-60 -9c-39.333 -6 -59 -23.333 -59 -52v-10c0 -18.667 3.83301 -31.834 11.5 -39.501s21.5 -11.5 41.5 -11.5c14 0 26.5 2.33301 37.5 7
s18.5 9.33398 22.5 14.001l6 7v94zM86.001 584.001l0.000976562 4c0 39.333 6.16699 68 18.5 86s35.166 27 68.499 27c21.333 0 39.666 -2.83301 54.999 -8.5s26.5 -12 33.5 -19s14.333 -13.333 22 -19s15.167 -8.5 22.5 -8.5c14 0 23.667 3.16699 29 9.5s8 17.5 8 33.5v5
c14.667 4.66699 29 7 43 7c6 0 12.667 -0.5 20 -1.5s13 -2.16699 17 -3.5l6 -2v-4c0 -40 -6.16699 -68.833 -18.5 -86.5s-35.5 -26.5 -69.5 -26.5c-21.333 0 -39.666 2.83301 -54.999 8.5s-26.5 12 -33.5 19s-14.333 13.333 -22 19s-15.167 8.5 -22.5 8.5
c-14.667 0 -24.5 -3 -29.5 -9s-7.5 -17.333 -7.5 -34v-5c-14.667 -4.66699 -29 -7 -43 -7c-6 0 -12.5 0.5 -19.5 1.5s-12.5 2.16699 -16.5 3.5z" />
    <glyph glyph-name="adieresis" unicode="&#xe4;" horiz-adv-x="515" 
d="M315 4l0.000976562 26.001c-35.333 -24.667 -78.666 -37 -129.999 -37c-52.667 0 -90.667 12.333 -114 37s-35 62 -35 112v10c0 42 14.5 74.5 43.5 97.5s77.167 38.833 144.5 47.5l91 11v35c0 24 -4.33301 41 -13 51s-24 15 -46 15c-22.667 0 -38.167 -4.66699 -46.5 -14
s-12.5 -25.333 -12.5 -48v-9c-24.667 -4.66699 -50 -7 -76 -7c-10.667 0 -22.334 0.5 -35.001 1.5s-22.667 2.16699 -30 3.5l-10 2v9c0 54.667 15.167 95 45.5 121s85.166 39 164.499 39c77.333 0 133 -13.667 167 -41s51 -68.333 51 -123v-339
c-26 -5.33301 -52.333 -8 -79 -8c-12.667 0 -25.667 0.666992 -39 2s-23.333 2.66602 -30 3.99902zM315.001 213.001l-60 -9c-39.333 -6 -59 -23.333 -59 -52v-10c0 -18.667 3.83301 -31.834 11.5 -39.501s21.5 -11.5 41.5 -11.5c14 0 26.5 2.33301 37.5 7
s18.5 9.33398 22.5 14.001l6 7v94zM214.001 696.001v-109c-18 -4.66699 -38.667 -7 -62 -7c-10.667 0 -21.167 0.666992 -31.5 2s-17.833 2.66602 -22.5 3.99902l-8 1v109c18 5.33301 38.667 8 62 8c10.667 0 21.167 -0.666992 31.5 -2s17.833 -2.66602 22.5 -3.99902z
M424.001 696.001v-109c-18 -4.66699 -38.667 -7 -62 -7c-10.667 0 -21.167 0.666992 -31.5 2s-17.833 2.66602 -22.5 3.99902l-8 1v109c18 5.33301 38.667 8 62 8c10.667 0 21.167 -0.666992 31.5 -2s17.833 -2.66602 22.5 -3.99902z" />
    <glyph glyph-name="aring" unicode="&#xe5;" horiz-adv-x="515" 
d="M315 4l0.000976562 26.001c-35.333 -24.667 -78.666 -37 -129.999 -37c-52.667 0 -90.667 12.333 -114 37s-35 62 -35 112v10c0 42 14.5 74.5 43.5 97.5s77.167 38.833 144.5 47.5l91 11v35c0 24 -4.33301 41 -13 51s-24 15 -46 15c-22.667 0 -38.167 -4.66699 -46.5 -14
s-12.5 -25.333 -12.5 -48v-9c-24.667 -4.66699 -50 -7 -76 -7c-10.667 0 -22.334 0.5 -35.001 1.5s-22.667 2.16699 -30 3.5l-10 2v9c0 54.667 15.167 95 45.5 121s85.166 39 164.499 39c77.333 0 133 -13.667 167 -41s51 -68.333 51 -123v-339
c-26 -5.33301 -52.333 -8 -79 -8c-12.667 0 -25.667 0.666992 -39 2s-23.333 2.66602 -30 3.99902zM165.001 614.001v15c0 49.333 30.667 74 92 74c62 0 93 -24.667 93 -74v-15c0 -49.333 -31 -74 -93 -74c-61.333 0 -92 24.667 -92 74zM315.001 213.001l-60 -9
c-39.333 -6 -59 -23.333 -59 -52v-10c0 -18.667 3.83301 -31.834 11.5 -39.501s21.5 -11.5 41.5 -11.5c14 0 26.5 2.33301 37.5 7s18.5 9.33398 22.5 14.001l6 7v94zM224.001 629.001v-15c0 -18 11 -27 33 -27s33 9 33 27v15c0 16.667 -11 25 -33 25s-33 -8.33301 -33 -25z
" />
    <glyph glyph-name="ae" unicode="&#xe6;" horiz-adv-x="776" 
d="M185 -7c-52.667 0 -90.666 12.333 -113.999 37s-35 62 -35 112v10c0 42 14.5 74.5 43.5 97.5s77.167 38.833 144.5 47.5l91 11v35c0 24 -4.33301 41 -13 51s-24 15 -46 15c-22.667 0 -38.167 -4.66699 -46.5 -14s-12.5 -25.333 -12.5 -48v-9
c-24.667 -4.66699 -50 -7 -76 -7c-10.667 0 -22.334 0.5 -35.001 1.5s-22.667 2.16699 -30 3.5l-10 2v9c0 54.667 15.167 95 45.5 121s85.166 39 164.499 39c67.333 0 114 -16.667 140 -50c27.333 33.333 73.333 50 138 50c78 0 131.833 -14.333 161.5 -43
s44.5 -73.334 44.5 -134.001v-119c-28.667 -9.33301 -73 -14 -133 -14h-133v-27c0 -29.333 6.5 -49.833 19.5 -61.5s36.5 -17.5 70.5 -17.5c26.667 0 52.667 2.33301 78 7s44.166 9.16699 56.499 13.5s18.5 6.83301 18.5 7.5l1 -3c0.666992 -1.33301 1.5 -3.5 2.5 -6.5
s1.83301 -6.33301 2.5 -10s1.33398 -8.16699 2.00098 -13.5s1 -10.666 1 -15.999c0 -8.66699 -0.666992 -17.167 -2 -25.5s-2.66602 -14.5 -3.99902 -18.5l-3 -6c-42 -18 -93 -27 -153 -27c-85.333 0 -143 20.667 -173 62c-36 -41.333 -104.667 -62 -206 -62zM315.001 213
l-60.001 -8.99902c-39.333 -6 -59 -23.333 -59 -52v-10c0 -18.667 3.83301 -31.834 11.5 -39.501s21.5 -11.5 41.5 -11.5c24.667 0 41.834 5.83301 51.501 17.5s14.5 32.167 14.5 61.5v43zM474 295.001h115v35c0 29.333 -4 49.833 -12 61.5s-23 17.5 -45 17.5
s-37.167 -5.83301 -45.5 -17.5s-12.5 -32.167 -12.5 -61.5v-35z" />
    <glyph glyph-name="ccedilla" unicode="&#xe7;" horiz-adv-x="488" 
d="M36 170l-0.000976562 159.999c0 59.333 17 103.666 51 132.999s90 44 168 44c76.667 0 129.5 -14.333 158.5 -43s43.5 -73.334 43.5 -134.001v-12c-24 -4.66699 -47.667 -7 -71 -7c-10.667 0 -22 0.5 -34 1.5s-21.333 2.16699 -28 3.5l-9 2v12
c0 29.333 -4.33301 49.833 -13 61.5s-24.334 17.5 -47.001 17.5s-38.167 -5.83301 -46.5 -17.5s-12.5 -32.167 -12.5 -61.5v-160c0 -29.333 6.33301 -49.833 19 -61.5s36.334 -17.5 71.001 -17.5c25.333 0 50.333 2.33301 75 7s43 9.16699 55 13.5s18 6.83301 18 7.5l1 -3
c0.666992 -1.33301 1.33398 -3.5 2.00098 -6.5s1.5 -6.33301 2.5 -10s1.83301 -8.16699 2.5 -13.5s1 -10.666 1 -15.999c0 -8.66699 -0.833008 -17.167 -2.5 -25.5s-3.16699 -14.5 -4.5 -18.5l-2 -6c-40.667 -18 -90 -27 -148 -27v-15c0 -8 4.83301 -14.667 14.5 -20
s20.167 -9.66602 31.5 -12.999s21.833 -9.66602 31.5 -18.999s14.5 -21.666 14.5 -36.999v-10c0 -50 -37.667 -75 -113 -75c-42 0 -70.833 6.66699 -86.5 20s-23.5 33.666 -23.5 60.999v5c14 2.66699 27.333 4 40 4l41 -4v-5c0 -11.333 2 -19 6 -23s11.667 -6 23 -6
c10.667 0 18 1.66699 22 5s6 9.33301 6 18v10c0 7.33301 -4.83301 13.666 -14.5 18.999s-20.167 9.5 -31.5 12.5s-21.833 9.5 -31.5 19.5s-14.5 22.667 -14.5 38v21c-58 8 -100 26.333 -126 55s-39 67.334 -39 116.001z" />
    <glyph glyph-name="egrave" unicode="&#xe8;" horiz-adv-x="504" 
d="M36 170l-0.00195312 160.002c0 59.333 17.167 103.666 51.5 132.999s90.5 44 168.5 44c80 0 135.167 -14.333 165.5 -43s45.5 -73.334 45.5 -134.001v-119c-29.333 -9.33301 -74.333 -14 -135 -14h-136v-27c0 -29.333 6.5 -49.833 19.5 -61.5s36.833 -17.5 71.5 -17.5
c27.333 0 54 2.33301 80 7s45.5 9.16699 58.5 13.5s19.5 6.83301 19.5 7.5l1 -3c0.666992 -1.33301 1.5 -3.5 2.5 -6.5s1.83301 -6.33301 2.5 -10s1.33398 -8.16699 2.00098 -13.5s1 -10.666 1 -15.999c0 -8.66699 -0.666992 -17.167 -2 -25.5
s-2.66602 -14.5 -3.99902 -18.5l-3 -6c-43.333 -18 -96 -27 -158 -27c-89.333 0 -153.5 14.667 -192.5 44s-58.5 73.666 -58.5 132.999zM195.998 295.002h121.001v35c0 29.333 -4.33301 49.833 -13 61.5s-24.667 17.5 -48 17.5c-22.667 0 -38.334 -5.83301 -47.001 -17.5
s-13 -32.167 -13 -61.5v-35zM251.999 558.002l-145.999 138c25.333 5.33301 49.666 8 72.999 8c10.667 0 22 -0.666992 34 -2s21 -2.66602 27 -3.99902l10 -2l92 -138c-14 -5.33301 -29 -8 -45 -8c-6.66699 0 -13.667 0.666992 -21 2s-13.333 2.66602 -18 3.99902z" />
    <glyph glyph-name="eacute" unicode="&#xe9;" horiz-adv-x="504" 
d="M36 170l-0.00195312 160.002c0 59.333 17.167 103.666 51.5 132.999s90.5 44 168.5 44c80 0 135.167 -14.333 165.5 -43s45.5 -73.334 45.5 -134.001v-119c-29.333 -9.33301 -74.333 -14 -135 -14h-136v-27c0 -29.333 6.5 -49.833 19.5 -61.5s36.833 -17.5 71.5 -17.5
c27.333 0 54 2.33301 80 7s45.5 9.16699 58.5 13.5s19.5 6.83301 19.5 7.5l1 -3c0.666992 -1.33301 1.5 -3.5 2.5 -6.5s1.83301 -6.33301 2.5 -10s1.33398 -8.16699 2.00098 -13.5s1 -10.666 1 -15.999c0 -8.66699 -0.666992 -17.167 -2 -25.5
s-2.66602 -14.5 -3.99902 -18.5l-3 -6c-43.333 -18 -96 -27 -158 -27c-89.333 0 -153.5 14.667 -192.5 44s-58.5 73.666 -58.5 132.999zM195.998 295.002h121.001v35c0 29.333 -4.33301 49.833 -13 61.5s-24.667 17.5 -48 17.5c-22.667 0 -38.334 -5.83301 -47.001 -17.5
s-13 -32.167 -13 -61.5v-35zM397.999 696.002l-146.001 -138c-15.333 -5.33301 -30.333 -8 -45 -8c-7.33301 0 -14.666 0.666992 -21.999 2s-13 2.66602 -17 3.99902l-6 2l91 138c23.333 5.33301 47.333 8 72 8c10.667 0 22 -0.666992 34 -2s21.667 -2.66602 29 -3.99902z
" />
    <glyph glyph-name="ecircumflex" unicode="&#xea;" horiz-adv-x="504" 
d="M36 170l-0.00195312 160.002c0 59.333 17.167 103.666 51.5 132.999s90.5 44 168.5 44c80 0 135.167 -14.333 165.5 -43s45.5 -73.334 45.5 -134.001v-119c-29.333 -9.33301 -74.333 -14 -135 -14h-136v-27c0 -29.333 6.5 -49.833 19.5 -61.5s36.833 -17.5 71.5 -17.5
c27.333 0 54 2.33301 80 7s45.5 9.16699 58.5 13.5s19.5 6.83301 19.5 7.5l1 -3c0.666992 -1.33301 1.5 -3.5 2.5 -6.5s1.83301 -6.33301 2.5 -10s1.33398 -8.16699 2.00098 -13.5s1 -10.666 1 -15.999c0 -8.66699 -0.666992 -17.167 -2 -25.5
s-2.66602 -14.5 -3.99902 -18.5l-3 -6c-43.333 -18 -96 -27 -158 -27c-89.333 0 -153.5 14.667 -192.5 44s-58.5 73.666 -58.5 132.999zM195.998 295.002h121.001v35c0 29.333 -4.33301 49.833 -13 61.5s-24.667 17.5 -48 17.5c-22.667 0 -38.334 -5.83301 -47.001 -17.5
s-13 -32.167 -13 -61.5v-35zM325.999 559.002l-74.001 74.001l-74 -74c-15.333 -4.66699 -30.333 -7 -45 -7c-7.33301 0 -14.666 0.666992 -21.999 2s-13 2.66602 -17 3.99902l-6 1l96 137c22 5.33301 44.333 8 67 8c10 0 20.667 -0.666992 32 -2
s20.333 -2.66602 27 -3.99902l10 -2l96 -137c-14 -4.66699 -29 -7 -45 -7c-6.66699 0 -13.667 0.666992 -21 2s-13.333 2.66602 -18 3.99902z" />
    <glyph glyph-name="edieresis" unicode="&#xeb;" horiz-adv-x="504" 
d="M36 170l-0.00195312 160.002c0 59.333 17.167 103.666 51.5 132.999s90.5 44 168.5 44c80 0 135.167 -14.333 165.5 -43s45.5 -73.334 45.5 -134.001v-119c-29.333 -9.33301 -74.333 -14 -135 -14h-136v-27c0 -29.333 6.5 -49.833 19.5 -61.5s36.833 -17.5 71.5 -17.5
c27.333 0 54 2.33301 80 7s45.5 9.16699 58.5 13.5s19.5 6.83301 19.5 7.5l1 -3c0.666992 -1.33301 1.5 -3.5 2.5 -6.5s1.83301 -6.33301 2.5 -10s1.33398 -8.16699 2.00098 -13.5s1 -10.666 1 -15.999c0 -8.66699 -0.666992 -17.167 -2 -25.5
s-2.66602 -14.5 -3.99902 -18.5l-3 -6c-43.333 -18 -96 -27 -158 -27c-89.333 0 -153.5 14.667 -192.5 44s-58.5 73.666 -58.5 132.999zM195.998 295.002h121.001v35c0 29.333 -4.33301 49.833 -13 61.5s-24.667 17.5 -48 17.5c-22.667 0 -38.334 -5.83301 -47.001 -17.5
s-13 -32.167 -13 -61.5v-35zM208.999 696.002v-109c-18 -4.66699 -38.667 -7 -62 -7c-10.667 0 -21.167 0.666992 -31.5 2s-18.166 2.66602 -23.499 3.99902l-7 1v109c18 5.33301 38.667 8 62 8c10.667 0 21.167 -0.666992 31.5 -2s18.166 -2.66602 23.499 -3.99902z
M418.999 696.002v-109c-18 -4.66699 -38.667 -7 -62 -7c-10.667 0 -21.167 0.666992 -31.5 2s-18.166 2.66602 -23.499 3.99902l-7 1v109c18 5.33301 38.667 8 62 8c10.667 0 21.167 -0.666992 31.5 -2s18.166 -2.66602 23.499 -3.99902z" />
    <glyph glyph-name="igrave" unicode="&#xec;" horiz-adv-x="241" 
d="M120 558l-145 138c25.333 5.33301 49.666 8 72.999 8c10.667 0 21.834 -0.666992 33.501 -2s20.834 -2.66602 27.501 -3.99902l10 -2l92 -138c-14.667 -5.33301 -30 -8 -46 -8c-6 0 -12.833 0.666992 -20.5 2s-13.834 2.66602 -18.501 3.99902zM200 496v-492
c-26.667 -5.33301 -53.334 -8 -80.001 -8c-11.333 0 -23.666 0.666992 -36.999 2s-23.666 2.66602 -30.999 3.99902l-11 2v492c26.667 5.33301 53 8 79 8c12 0 24.667 -0.666992 38 -2s23.666 -2.66602 30.999 -3.99902z" />
    <glyph glyph-name="iacute" unicode="&#xed;" horiz-adv-x="241" 
d="M266 696l-144.999 -138c-16 -5.33301 -31.333 -8 -46 -8c-6.66699 0 -13.834 0.666992 -21.501 2s-13.5 2.66602 -17.5 3.99902l-6 2l92 138c23.333 5.33301 47 8 71 8c10.667 0 22 -0.666992 34 -2s21.667 -2.66602 29 -3.99902zM200.001 496v-492
c-26.667 -5.33301 -53.334 -8 -80.001 -8c-11.333 0 -23.666 0.666992 -36.999 2s-23.666 2.66602 -30.999 3.99902l-11 2v492c26.667 5.33301 53 8 79 8c12 0 24.667 -0.666992 38 -2s23.666 -2.66602 30.999 -3.99902z" />
    <glyph glyph-name="icircumflex" unicode="&#xee;" horiz-adv-x="241" 
d="M200 496v-492c-26.667 -5.33301 -53.334 -8 -80.001 -8c-11.333 0 -23.666 0.666992 -36.999 2s-23.666 2.66602 -30.999 3.99902l-11 2v492c26.667 5.33301 53 8 79 8c12 0 24.667 -0.666992 38 -2s23.666 -2.66602 30.999 -3.99902zM194 559l-73.998 74l-73 -74
c-16 -4.66699 -31.333 -7 -46 -7c-6.66699 0 -13.834 0.666992 -21.501 2s-13.5 2.66602 -17.5 3.99902l-6 1l97 137c21.333 5.33301 43.666 8 66.999 8c10 0 20.667 -0.666992 32 -2s20 -2.66602 26 -3.99902l10 -2l97 -137c-14.667 -4.66699 -30 -7 -46 -7z" />
    <glyph glyph-name="idieresis" unicode="&#xef;" horiz-adv-x="241" 
d="M200 496v-492c-26.667 -5.33301 -53.334 -8 -80.001 -8c-11.333 0 -23.666 0.666992 -36.999 2s-23.666 2.66602 -30.999 3.99902l-11 2v492c26.667 5.33301 53 8 79 8c12 0 24.667 -0.666992 38 -2s23.666 -2.66602 30.999 -3.99902zM95 696v-109
c-18 -4.66699 -38.667 -7 -62 -7c-10.667 0 -21.167 0.666992 -31.5 2s-18.166 2.66602 -23.499 3.99902l-7 1v109c18 5.33301 38.667 8 62 8c10.667 0 21.167 -0.666992 31.5 -2s18.166 -2.66602 23.499 -3.99902zM270 696l0.000976562 -109
c-18.667 -4.66699 -39.334 -7 -62.001 -7c-10.667 0 -21.167 0.666992 -31.5 2s-17.833 2.66602 -22.5 3.99902l-8 1v109c18 5.33301 38.667 8 62 8c10.667 0 21.167 -0.666992 31.5 -2s17.833 -2.66602 22.5 -3.99902z" />
    <glyph glyph-name="eth" unicode="&#xf0;" horiz-adv-x="513" 
d="M409 696l-45 -46c75.333 -37.333 113 -87.333 113 -150v-330c0 -58.667 -17.167 -102.834 -51.5 -132.501s-90.5 -44.5 -168.5 -44.5s-134.333 14.833 -169 44.5s-52 73.834 -52 132.501v160c0 58.667 12.167 102.834 36.5 132.501s63.833 44.5 118.5 44.5
c22 0 43.5 -3.16699 64.5 -9.5s36.5 -12.5 46.5 -18.5l15 -9v30c0 24 -13 44.333 -39 61l-19 -19c-18 -4.66699 -35 -7 -51 -7c-8 0 -16.167 0.5 -24.5 1.5s-14.833 2.16699 -19.5 3.5l-6 2l47 51c-18.667 5.33301 -38.834 9.83301 -60.501 13.5s-38.5 6.16699 -50.5 7.5
l-18 2v2l-2.5 7.5c-1 3 -1.83301 6.33301 -2.5 10s-1.16699 8.16699 -1.5 13.5s-0.5 10.666 -0.5 15.999c0 8.66699 0.5 17.167 1.5 25.5s2.16699 14.166 3.5 17.499l2 6c70.667 -2 140.334 -13.333 209.001 -34l15 16c17.333 5.33301 35.333 8 54 8
c8 0 16.5 -0.666992 25.5 -2s16.167 -2.66602 21.5 -3.99902zM317 170l-0.000976562 211c-12.667 18.667 -34.667 28 -66 28c-21.333 0 -35.833 -5.83301 -43.5 -17.5s-11.5 -32.167 -11.5 -61.5v-160c0 -29.333 4.33301 -49.833 13 -61.5s24.667 -17.5 48 -17.5
c22.667 0 38.334 5.83301 47.001 17.5s13 32.167 13 61.5z" />
    <glyph glyph-name="ntilde" unicode="&#xf1;" horiz-adv-x="517" 
d="M200 496l-0.000976562 -25.999c34 24.667 76 37 126 37c54.667 0 94 -14.667 118 -44s36 -73.666 36 -132.999v-326c-26 -5.33301 -52.333 -8 -79 -8c-12 0 -24.667 0.666992 -38 2s-23.666 2.66602 -30.999 3.99902l-11 2v326c0 29.333 -3.83301 49.833 -11.5 61.5
s-22.167 17.5 -43.5 17.5c-13.333 0 -25.5 -2.33301 -36.5 -7s-18.833 -9.33398 -23.5 -14.001l-6 -7v-377c-26.667 -5.33301 -53.334 -8 -80.001 -8c-11.333 0 -23.666 0.666992 -36.999 2s-23.666 2.66602 -30.999 3.99902l-11 2v492c26.667 5.33301 53 8 79 8
c12 0 24.667 -0.666992 38 -2s23.666 -2.66602 30.999 -3.99902zM85.999 584.001v4c0 39.333 6.33301 68 19 86s35.667 27 69 27c21.333 0 39.666 -2.83301 54.999 -8.5s26.5 -12 33.5 -19s14.333 -13.333 22 -19s15.167 -8.5 22.5 -8.5c14 0 23.667 3.16699 29 9.5
s8 17.5 8 33.5v5c14.667 4.66699 29 7 43 7c6 0 12.667 -0.5 20 -1.5s13 -2.16699 17 -3.5l6 -2v-4c0 -40 -6.16699 -68.833 -18.5 -86.5s-35.5 -26.5 -69.5 -26.5c-21.333 0 -39.666 2.83301 -54.999 8.5s-26.5 12 -33.5 19s-14.333 13.333 -22 19s-15.167 8.5 -22.5 8.5
c-14.667 0 -24.5 -3 -29.5 -9s-7.5 -17.333 -7.5 -34v-5c-14.667 -4.66699 -29 -7 -43 -7c-6 0 -12.667 0.5 -20 1.5s-13 2.16699 -17 3.5z" />
    <glyph glyph-name="ograve" unicode="&#xf2;" horiz-adv-x="514" 
d="M36 170v159.996c0 58.667 17.333 102.834 52 132.501s91 44.5 169 44.5s134.167 -14.667 168.5 -44s51.5 -73.666 51.5 -132.999v-160c0 -59.333 -17.167 -103.666 -51.5 -132.999s-90.5 -44 -168.5 -44s-134.333 14.833 -169 44.5s-52 73.834 -52 132.501zM196 329.996
v-160c0 -29.333 4.33301 -49.833 13 -61.5s24.667 -17.5 48 -17.5s39.333 5.83301 48 17.5s13 32.167 13 61.5v160c0 29.333 -4.33301 49.833 -13 61.5s-24.667 17.5 -48 17.5s-39.333 -5.83301 -48 -17.5s-13 -32.167 -13 -61.5zM257 557.996l-145.999 138
c25.333 5.33301 49.666 8 72.999 8c10.667 0 22 -0.666992 34 -2s21.333 -2.66602 28 -3.99902l9 -2l92 -138c-14 -5.33301 -29 -8 -45 -8c-6.66699 0 -13.667 0.666992 -21 2s-13 2.66602 -17 3.99902z" />
    <glyph glyph-name="oacute" unicode="&#xf3;" horiz-adv-x="514" 
d="M36 170v159.996c0 58.667 17.333 102.834 52 132.501s91 44.5 169 44.5s134.167 -14.667 168.5 -44s51.5 -73.666 51.5 -132.999v-160c0 -59.333 -17.167 -103.666 -51.5 -132.999s-90.5 -44 -168.5 -44s-134.333 14.833 -169 44.5s-52 73.834 -52 132.501zM196 329.996
v-160c0 -29.333 4.33301 -49.833 13 -61.5s24.667 -17.5 48 -17.5s39.333 5.83301 48 17.5s13 32.167 13 61.5v160c0 29.333 -4.33301 49.833 -13 61.5s-24.667 17.5 -48 17.5s-39.333 -5.83301 -48 -17.5s-13 -32.167 -13 -61.5zM403 695.996l-146.001 -138
c-15.333 -5.33301 -30.333 -8 -45 -8c-7.33301 0 -14.666 0.666992 -21.999 2s-13 2.66602 -17 3.99902l-6 2l91 138c23.333 5.33301 47.333 8 72 8c10.667 0 22 -0.666992 34 -2s21.333 -2.66602 28 -3.99902z" />
    <glyph glyph-name="ocircumflex" unicode="&#xf4;" horiz-adv-x="514" 
d="M36 170v159.996c0 58.667 17.333 102.834 52 132.501s91 44.5 169 44.5s134.167 -14.667 168.5 -44s51.5 -73.666 51.5 -132.999v-160c0 -59.333 -17.167 -103.666 -51.5 -132.999s-90.5 -44 -168.5 -44s-134.333 14.833 -169 44.5s-52 73.834 -52 132.501zM196 329.996
v-160c0 -29.333 4.33301 -49.833 13 -61.5s24.667 -17.5 48 -17.5s39.333 5.83301 48 17.5s13 32.167 13 61.5v160c0 29.333 -4.33301 49.833 -13 61.5s-24.667 17.5 -48 17.5s-39.333 -5.83301 -48 -17.5s-13 -32.167 -13 -61.5zM331 558.996l-74.001 74.001l-74 -74
c-15.333 -4.66699 -30.333 -7 -45 -7c-7.33301 0 -14.666 0.666992 -21.999 2s-13 2.66602 -17 3.99902l-6 1l96 137c22 5.33301 44.333 8 67 8c10 0 20.667 -0.666992 32 -2s20.333 -2.66602 27 -3.99902l10 -2l96 -137c-14 -4.66699 -29 -7 -45 -7
c-6.66699 0 -13.667 0.666992 -21 2s-13 2.66602 -17 3.99902z" />
    <glyph glyph-name="otilde" unicode="&#xf5;" horiz-adv-x="514" 
d="M36 170v159.996c0 58.667 17.333 102.834 52 132.501s91 44.5 169 44.5s134.167 -14.667 168.5 -44s51.5 -73.666 51.5 -132.999v-160c0 -59.333 -17.167 -103.666 -51.5 -132.999s-90.5 -44 -168.5 -44s-134.333 14.833 -169 44.5s-52 73.834 -52 132.501zM196 329.996
v-160c0 -29.333 4.33301 -49.833 13 -61.5s24.667 -17.5 48 -17.5s39.333 5.83301 48 17.5s13 32.167 13 61.5v160c0 29.333 -4.33301 49.833 -13 61.5s-24.667 17.5 -48 17.5s-39.333 -5.83301 -48 -17.5s-13 -32.167 -13 -61.5zM85 583.996l0.00195312 4
c0 39.333 6.33301 68 19 86s35.667 27 69 27c21.333 0 39.666 -2.83301 54.999 -8.5s26.5 -12 33.5 -19s14.333 -13.333 22 -19s15.167 -8.5 22.5 -8.5c14 0 23.667 3.16699 29 9.5s8 17.5 8 33.5v5c14.667 4.66699 29 7 43 7c6 0 12.5 -0.5 19.5 -1.5
s12.5 -2.16699 16.5 -3.5l6 -2v-4c0 -40 -6 -68.833 -18 -86.5s-35 -26.5 -69 -26.5c-21.333 0 -39.833 2.83301 -55.5 8.5s-27 12 -34 19s-14.333 13.333 -22 19s-14.834 8.5 -21.501 8.5c-14.667 0 -24.5 -3 -29.5 -9s-7.5 -17.333 -7.5 -34v-5
c-14.667 -4.66699 -29 -7 -43 -7c-6 0 -12.667 0.5 -20 1.5s-13 2.16699 -17 3.5z" />
    <glyph glyph-name="odieresis" unicode="&#xf6;" horiz-adv-x="514" 
d="M36 170v159.996c0 58.667 17.333 102.834 52 132.501s91 44.5 169 44.5s134.167 -14.667 168.5 -44s51.5 -73.666 51.5 -132.999v-160c0 -59.333 -17.167 -103.666 -51.5 -132.999s-90.5 -44 -168.5 -44s-134.333 14.833 -169 44.5s-52 73.834 -52 132.501zM196 329.996
v-160c0 -29.333 4.33301 -49.833 13 -61.5s24.667 -17.5 48 -17.5s39.333 5.83301 48 17.5s13 32.167 13 61.5v160c0 29.333 -4.33301 49.833 -13 61.5s-24.667 17.5 -48 17.5s-39.333 -5.83301 -48 -17.5s-13 -32.167 -13 -61.5zM214 695.996v-109
c-18 -4.66699 -38.667 -7 -62 -7c-10.667 0 -21.167 0.666992 -31.5 2s-17.833 2.66602 -22.5 3.99902l-8 1v109c18 5.33301 38.667 8 62 8c10.667 0 21.167 -0.666992 31.5 -2s17.833 -2.66602 22.5 -3.99902zM424 695.996v-109c-18 -4.66699 -38.667 -7 -62 -7
c-10.667 0 -21.167 0.666992 -31.5 2s-17.833 2.66602 -22.5 3.99902l-8 1v109c18 5.33301 38.667 8 62 8c10.667 0 21.167 -0.666992 31.5 -2s17.833 -2.66602 22.5 -3.99902z" />
    <glyph glyph-name="divide" unicode="&#xf7;" horiz-adv-x="417" 
d="M386 242l-356 0.000976562c-4 12.667 -6 29 -6 49c0 8.66699 0.5 17.167 1.5 25.5s1.83301 14.166 2.5 17.499l2 6h356c4 -12.667 6 -29 6 -49c0 -8.66699 -0.5 -17 -1.5 -25s-1.83301 -14 -2.5 -18zM269 495.001v-109c-20.667 -3.33301 -41 -5 -61 -5l-60 5v109
c19.333 4 39.333 6 60 6zM269 196.001v-109c-20.667 -3.33301 -41 -5 -61 -5l-60 5v109c19.333 4 39.333 6 60 6z" />
    <glyph glyph-name="oslash" unicode="&#xf8;" horiz-adv-x="514" 
d="M488 496l-41 -56.001c20 -26.667 30 -63.334 30 -110.001v-160c0 -59.333 -17.167 -103.666 -51.5 -132.999s-90.5 -44 -168.5 -44c-51.333 0 -94 6.66699 -128 20l-6 -9c-17.333 -5.33301 -34 -8 -50 -8c-7.33301 0 -15.166 0.666992 -23.499 2
s-14.833 2.66602 -19.5 3.99902l-6 2l42 56c-20 27.333 -30 64 -30 110v160c0 58.667 17.333 102.834 52 132.501s91 44.5 169 44.5c51.333 0 93.333 -6.66699 126 -20l7 9c16 5.33301 32.333 8 49 8c7.33301 0 15.166 -0.666992 23.499 -2s14.833 -2.66602 19.5 -3.99902z
M257 81.999c30 0 50.666 6.5 61.999 19.5s17 35.833 17 68.5v121l-141 -190c10.667 -12.667 31.334 -19 62.001 -19zM177.999 329.999v-119l140 188c-12 12.667 -32.333 19 -61 19c-30 0 -50.667 -6.5 -62 -19.5s-17 -35.833 -17 -68.5z" />
    <glyph glyph-name="ugrave" unicode="&#xf9;" 
d="M321 4l0.00292969 25.999c-34 -24.667 -76 -37 -126 -37c-54.667 0 -94 14.667 -118 44s-36 73.666 -36 132.999v326c26.667 5.33301 53 8 79 8c12 0 24.667 -0.666992 38 -2s23.666 -2.66602 30.999 -3.99902l11 -2v-326c0 -29.333 4 -49.833 12 -61.5
s22.333 -17.5 43 -17.5c13.333 0 25.5 2.33301 36.5 7s18.5 9.33398 22.5 14.001l7 7v377c26 5.33301 52.333 8 79 8c12 0 24.667 -0.666992 38 -2s23.666 -2.66602 30.999 -3.99902l11 -2v-492c-26.667 -5.33301 -53.334 -8 -80.001 -8c-12 0 -24.5 0.666992 -37.5 2
s-23.167 2.66602 -30.5 3.99902zM257.003 557.999l-144.998 138c25.333 5.33301 49.666 8 72.999 8c10.667 0 22 -0.666992 34 -2s21 -2.66602 27 -3.99902l10 -2l92 -138c-14.667 -5.33301 -29.667 -8 -45 -8c-6.66699 0 -13.834 0.666992 -21.501 2
s-13.5 2.66602 -17.5 3.99902z" />
    <glyph glyph-name="uacute" unicode="&#xfa;" 
d="M321 4l0.00292969 25.999c-34 -24.667 -76 -37 -126 -37c-54.667 0 -94 14.667 -118 44s-36 73.666 -36 132.999v326c26.667 5.33301 53 8 79 8c12 0 24.667 -0.666992 38 -2s23.666 -2.66602 30.999 -3.99902l11 -2v-326c0 -29.333 4 -49.833 12 -61.5
s22.333 -17.5 43 -17.5c13.333 0 25.5 2.33301 36.5 7s18.5 9.33398 22.5 14.001l7 7v377c26 5.33301 52.333 8 79 8c12 0 24.667 -0.666992 38 -2s23.666 -2.66602 30.999 -3.99902l11 -2v-492c-26.667 -5.33301 -53.334 -8 -80.001 -8c-12 0 -24.5 0.666992 -37.5 2
s-23.167 2.66602 -30.5 3.99902zM403.003 695.999l-145 -138c-16 -5.33301 -31 -8 -45 -8c-7.33301 0 -14.833 0.666992 -22.5 2s-13.5 2.66602 -17.5 3.99902l-6 2l92 138c23.333 5.33301 47 8 71 8c10.667 0 22 -0.666992 34 -2s21.333 -2.66602 28 -3.99902z" />
    <glyph glyph-name="ucircumflex" unicode="&#xfb;" 
d="M321 4l0.00292969 25.999c-34 -24.667 -76 -37 -126 -37c-54.667 0 -94 14.667 -118 44s-36 73.666 -36 132.999v326c26.667 5.33301 53 8 79 8c12 0 24.667 -0.666992 38 -2s23.666 -2.66602 30.999 -3.99902l11 -2v-326c0 -29.333 4 -49.833 12 -61.5
s22.333 -17.5 43 -17.5c13.333 0 25.5 2.33301 36.5 7s18.5 9.33398 22.5 14.001l7 7v377c26 5.33301 52.333 8 79 8c12 0 24.667 -0.666992 38 -2s23.666 -2.66602 30.999 -3.99902l11 -2v-492c-26.667 -5.33301 -53.334 -8 -80.001 -8c-12 0 -24.5 0.666992 -37.5 2
s-23.167 2.66602 -30.5 3.99902zM332.003 558.999l-74 74.001l-74 -74c-16 -4.66699 -31 -7 -45 -7c-7.33301 0 -14.833 0.666992 -22.5 2s-13.5 2.66602 -17.5 3.99902l-6 1l97 137c22 5.33301 44.333 8 67 8c10 0 20.667 -0.666992 32 -2s20.333 -2.66602 27 -3.99902
l9 -2l97 -137c-14.667 -4.66699 -29.667 -7 -45 -7c-6.66699 0 -13.667 0.666992 -21 2s-13.333 2.66602 -18 3.99902z" />
    <glyph glyph-name="udieresis" unicode="&#xfc;" 
d="M321 4l0.00292969 25.999c-34 -24.667 -76 -37 -126 -37c-54.667 0 -94 14.667 -118 44s-36 73.666 -36 132.999v326c26.667 5.33301 53 8 79 8c12 0 24.667 -0.666992 38 -2s23.666 -2.66602 30.999 -3.99902l11 -2v-326c0 -29.333 4 -49.833 12 -61.5
s22.333 -17.5 43 -17.5c13.333 0 25.5 2.33301 36.5 7s18.5 9.33398 22.5 14.001l7 7v377c26 5.33301 52.333 8 79 8c12 0 24.667 -0.666992 38 -2s23.666 -2.66602 30.999 -3.99902l11 -2v-492c-26.667 -5.33301 -53.334 -8 -80.001 -8c-12 0 -24.5 0.666992 -37.5 2
s-23.167 2.66602 -30.5 3.99902zM215.003 695.999l0.000976562 -109c-18.667 -4.66699 -39.334 -7 -62.001 -7c-10.667 0 -21.167 0.666992 -31.5 2s-18.166 2.66602 -23.499 3.99902l-8 1v109c18.667 5.33301 39.667 8 63 8c10 0 20.167 -0.666992 30.5 -2
s18.166 -2.66602 23.499 -3.99902zM425.004 695.999l0.000976562 -109c-18.667 -4.66699 -39.334 -7 -62.001 -7c-10.667 0 -21.167 0.666992 -31.5 2s-18.166 2.66602 -23.499 3.99902l-8 1v109c18.667 5.33301 39.667 8 63 8c10 0 20.167 -0.666992 30.5 -2
s18.166 -2.66602 23.499 -3.99902z" />
    <glyph glyph-name="yacute" unicode="&#xfd;" horiz-adv-x="520" 
d="M203 -47l13.002 44.999l-51 6l-154 492c26 5.33301 51.333 8 76 8c10.667 0 22.667 -0.666992 36 -2s23.666 -2.66602 30.999 -3.99902l12 -2l95 -360l95 360c27.333 5.33301 53.333 8 78 8c11.333 0 23.333 -0.666992 36 -2s22.667 -2.66602 30 -3.99902l11 -2
l-168 -538c-18 -58.667 -42.5 -100.834 -73.5 -126.501s-74.833 -38.5 -131.5 -38.5c-12 0 -23.833 1.16699 -35.5 3.5s-20.167 4.5 -25.5 6.5l-8 3c-5.33301 12 -8 27.333 -8 46c0 8 0.666992 15.833 2 23.5s2.66602 13.167 3.99902 16.5l2 6c16 -4.66699 38 -7 66 -7
c35.333 0 58 20.667 68 62zM405.002 695.999l-145 -138c-16 -5.33301 -31 -8 -45 -8c-7.33301 0 -14.833 0.666992 -22.5 2s-13.5 2.66602 -17.5 3.99902l-6 2l92 138c23.333 5.33301 47 8 71 8c10.667 0 22 -0.666992 34 -2s21.333 -2.66602 28 -3.99902z" />
    <glyph glyph-name="thorn" unicode="&#xfe;" 
d="M200 696v-226.002c34 24.667 75.667 37 125 37c54.667 0 94 -14.667 118 -44s36 -73.666 36 -132.999v-160c0 -59.333 -14.5 -103.666 -43.5 -132.999s-76.5 -44 -142.5 -44c-16 0 -31.833 1.83301 -47.5 5.5s-27.167 7.5 -34.5 11.5l-11 5v-211
c-26.667 -5.33301 -53.334 -8 -80.001 -8c-11.333 0 -23.666 0.666992 -36.999 2s-23.666 2.66602 -30.999 3.99902l-11 2v892c26.667 5.33301 53 8 79 8c12 0 24.667 -0.666992 38 -2s23.666 -2.66602 30.999 -3.99902zM320 169.998v160.001c0 29.333 -4 49.833 -12 61.5
s-22.333 17.5 -43 17.5c-13.333 0 -25.5 -2.33301 -36.5 -7s-18.5 -9.33398 -22.5 -14.001l-6 -7v-211c0 -29.333 4.5 -49.833 13.5 -61.5s25.167 -17.5 48.5 -17.5c22 0 37.167 5.83301 45.5 17.5s12.5 32.167 12.5 61.5z" />
    <glyph glyph-name="ydieresis" unicode="&#xff;" horiz-adv-x="520" 
d="M203 -47l13.002 44.999l-51 6l-154 492c26 5.33301 51.333 8 76 8c10.667 0 22.667 -0.666992 36 -2s23.666 -2.66602 30.999 -3.99902l12 -2l95 -360l95 360c27.333 5.33301 53.333 8 78 8c11.333 0 23.333 -0.666992 36 -2s22.667 -2.66602 30 -3.99902l11 -2
l-168 -538c-18 -58.667 -42.5 -100.834 -73.5 -126.501s-74.833 -38.5 -131.5 -38.5c-12 0 -23.833 1.16699 -35.5 3.5s-20.167 4.5 -25.5 6.5l-8 3c-5.33301 12 -8 27.333 -8 46c0 8 0.666992 15.833 2 23.5s2.66602 13.167 3.99902 16.5l2 6c16 -4.66699 38 -7 66 -7
c35.333 0 58 20.667 68 62zM217.002 695.999l0.000976562 -109c-18.667 -4.66699 -39.334 -7 -62.001 -7c-10.667 0 -21.167 0.666992 -31.5 2s-18.166 2.66602 -23.499 3.99902l-8 1v109c18.667 5.33301 39.667 8 63 8c10 0 20.167 -0.666992 30.5 -2
s18.166 -2.66602 23.499 -3.99902zM427.003 695.999l0.000976562 -109c-18.667 -4.66699 -39.334 -7 -62.001 -7c-10.667 0 -21.167 0.666992 -31.5 2s-18.166 2.66602 -23.499 3.99902l-8 1v109c18.667 5.33301 39.667 8 63 8c10 0 20.167 -0.666992 30.5 -2
s18.166 -2.66602 23.499 -3.99902z" />
    <glyph glyph-name="Amacron" unicode="&#x100;" horiz-adv-x="618" 
d="M9 4l187 692.001c35.333 5.33301 73 8 113 8c17.333 0 35.5 -0.666992 54.5 -2s33.833 -2.66602 44.5 -3.99902l15 -2l187 -692c-28.667 -5.33301 -55.667 -8 -81 -8c-11.333 0 -24 0.666992 -38 2s-25 2.66602 -33 3.99902l-13 2l-35 142h-201l-36 -142
c-29.333 -5.33301 -57 -8 -83 -8c-11.333 0 -23.833 0.666992 -37.5 2s-24.5 2.66602 -32.5 3.99902zM310 567.001l-78 -314h154zM451 771.001h-284c-4.66699 8.66699 -7 20.667 -7 36c0 6 0.666992 12 2 18s2.66602 10.333 3.99902 13l1 5h284c4.66699 -10 7 -22 7 -36
c0 -6.66699 -0.666992 -13 -2 -19s-2.66602 -10.333 -3.99902 -13z" />
    <glyph glyph-name="amacron" unicode="&#x101;" horiz-adv-x="515" 
d="M315 4l0.000976562 26.001c-35.333 -24.667 -78.666 -37 -129.999 -37c-52.667 0 -90.667 12.333 -114 37s-35 62 -35 112v10c0 42 14.5 74.5 43.5 97.5s77.167 38.833 144.5 47.5l91 11v35c0 24 -4.33301 41 -13 51s-24 15 -46 15c-22.667 0 -38.167 -4.66699 -46.5 -14
s-12.5 -25.333 -12.5 -48v-9c-24.667 -4.66699 -50 -7 -76 -7c-10.667 0 -22.334 0.5 -35.001 1.5s-22.667 2.16699 -30 3.5l-10 2v9c0 54.667 15.167 95 45.5 121s85.166 39 164.499 39c77.333 0 133 -13.667 167 -41s51 -68.333 51 -123v-339
c-26 -5.33301 -52.333 -8 -79 -8c-12.667 0 -25.667 0.666992 -39 2s-23.333 2.66602 -30 3.99902zM315.001 213.001l-60 -9c-39.333 -6 -59 -23.333 -59 -52v-10c0 -18.667 3.83301 -31.834 11.5 -39.501s21.5 -11.5 41.5 -11.5c14 0 26.5 2.33301 37.5 7
s18.5 9.33398 22.5 14.001l6 7v94zM400.001 585.001h-285c-4 8.66699 -6 20.667 -6 36c0 6 0.5 12 1.5 18s2.16699 10.333 3.5 13l1 5h285c4 -10 6 -22 6 -36c0 -6.66699 -0.5 -13 -1.5 -19s-1.83301 -10.333 -2.5 -13z" />
    <glyph glyph-name="Abreve" unicode="&#x102;" horiz-adv-x="618" 
d="M9 4l187 692.001c35.333 5.33301 73 8 113 8c17.333 0 35.5 -0.666992 54.5 -2s33.833 -2.66602 44.5 -3.99902l15 -2l187 -692c-28.667 -5.33301 -55.667 -8 -81 -8c-11.333 0 -24 0.666992 -38 2s-25 2.66602 -33 3.99902l-13 2l-35 142h-201l-36 -142
c-29.333 -5.33301 -57 -8 -83 -8c-11.333 0 -23.833 0.666992 -37.5 2s-24.5 2.66602 -32.5 3.99902zM310 567.001l-78 -314h154zM309 746.001c-60 0 -101.334 10.167 -124.001 30.5s-34 51.833 -34 94.5v9c17.333 4.66699 34.333 7 51 7c8 0 16.167 -0.5 24.5 -1.5
s14.833 -2.16699 19.5 -3.5l7 -2v-11c0 -20 4 -34.167 12 -42.5s22.667 -12.5 44 -12.5c20.667 0 35 4.16699 43 12.5s12 22.5 12 42.5v11c17.333 4.66699 34.333 7 51 7c8 0 16.333 -0.5 25 -1.5s15.334 -2.16699 20.001 -3.5l7 -2v-9c0 -42.667 -11.333 -74.167 -34 -94.5
s-64 -30.5 -124 -30.5z" />
    <glyph glyph-name="abreve" unicode="&#x103;" horiz-adv-x="515" 
d="M315 4l0.000976562 26.001c-35.333 -24.667 -78.666 -37 -129.999 -37c-52.667 0 -90.667 12.333 -114 37s-35 62 -35 112v10c0 42 14.5 74.5 43.5 97.5s77.167 38.833 144.5 47.5l91 11v35c0 24 -4.33301 41 -13 51s-24 15 -46 15c-22.667 0 -38.167 -4.66699 -46.5 -14
s-12.5 -25.333 -12.5 -48v-9c-24.667 -4.66699 -50 -7 -76 -7c-10.667 0 -22.334 0.5 -35.001 1.5s-22.667 2.16699 -30 3.5l-10 2v9c0 54.667 15.167 95 45.5 121s85.166 39 164.499 39c77.333 0 133 -13.667 167 -41s51 -68.333 51 -123v-339
c-26 -5.33301 -52.333 -8 -79 -8c-12.667 0 -25.667 0.666992 -39 2s-23.333 2.66602 -30 3.99902zM315.001 213.001l-60 -9c-39.333 -6 -59 -23.333 -59 -52v-10c0 -18.667 3.83301 -31.834 11.5 -39.501s21.5 -11.5 41.5 -11.5c14 0 26.5 2.33301 37.5 7
s18.5 9.33398 22.5 14.001l6 7v94zM257.001 562.001c-60 0 -101.335 9.99805 -124.002 29.998s-34 51.333 -34 94v9c17.333 5.33301 34.333 8 51 8c8 0 16.333 -0.666992 25 -2s15.334 -2.66602 20.001 -3.99902l7 -2v-10c0 -20.667 3.83301 -35 11.5 -43
s22.167 -12 43.5 -12s35.833 4 43.5 12s11.5 22.333 11.5 43v10c17.333 5.33301 34.333 8 51 8c8 0 16.333 -0.666992 25 -2s15.334 -2.66602 20.001 -3.99902l7 -2v-9c0 -42.667 -11.333 -74 -34 -94s-64 -30 -124 -30z" />
    <glyph glyph-name="Aogonek" unicode="&#x104;" horiz-adv-x="618" 
d="M468 -94c0 30.667 15.666 60.666 46.999 89.999l-70 8l-35 142h-201l-36 -142c-29.333 -5.33301 -57 -8 -83 -8c-11.333 0 -23.833 0.666992 -37.5 2s-24.5 2.66602 -32.5 3.99902l-11 2l187 692c35.333 5.33301 73 8 113 8c17.333 0 35.5 -0.666992 54.5 -2
s33.833 -2.66602 44.5 -3.99902l15 -2l187 -692c-7.33301 -1.33301 -16 -2.66602 -26 -3.99902c-20.667 -30 -31 -57.667 -31 -83c0 -20.667 9.33301 -31 28 -31c6 0 11.833 0.833008 17.5 2.5s9.83398 3.5 12.501 5.5l4 2c3.33301 -8 5 -17 5 -27l-5 -26
c-12.667 -11.333 -32.667 -17 -60 -17c-58 0 -87 26.667 -87 80zM309.999 566.999l-78 -314h154z" />
    <glyph glyph-name="aogonek" unicode="&#x105;" horiz-adv-x="515" 
d="M333 -94c0 30.667 15.667 60.667 47 90l-65 8v26c-35.333 -24.667 -78.666 -37 -129.999 -37c-52.667 0 -90.667 12.333 -114 37s-35 62 -35 112v10c0 42 14.5 74.5 43.5 97.5s77.167 38.833 144.5 47.5l91 11v35c0 24 -4.33301 41 -13 51s-24 15 -46 15
c-22.667 0 -38.167 -4.66699 -46.5 -14s-12.5 -25.333 -12.5 -48v-9c-24.667 -4.66699 -50 -7 -76 -7c-10.667 0 -22.334 0.5 -35.001 1.5s-22.667 2.16699 -30 3.5l-10 2v9c0 54.667 15.167 95 45.5 121s85.166 39 164.499 39c77.333 0 133 -13.667 167 -41
s51 -68.333 51 -123v-339c-7.33301 -2 -16 -3.33301 -26 -4c-20.667 -32 -31 -59.667 -31 -83c0 -20.667 9.66699 -31 29 -31c6 0 11.833 0.833008 17.5 2.5s9.83398 3.5 12.501 5.5l4 2c3.33301 -8 5 -17 5 -27l-5 -26c-13.333 -11.333 -33.333 -17 -60 -17
c-58 0 -87 26.667 -87 80zM315 213l-60 -9c-39.333 -6 -59 -23.333 -59 -52v-10c0 -18.667 3.83301 -31.834 11.5 -39.501s21.5 -11.5 41.5 -11.5c14 0 26.5 2.33301 37.5 7s18.5 9.33398 22.5 14.001l6 7v94z" />
    <glyph glyph-name="Cacute" unicode="&#x106;" horiz-adv-x="560" 
d="M36 192l-0.000976562 316c0 66 20 115.667 60 149s105.667 50 197 50s154.166 -16.167 188.499 -48.5s51.5 -82.5 51.5 -150.5v-12c-25.333 -4.66699 -50.333 -7 -75 -7c-11.333 0 -23.333 0.5 -36 1.5s-22.667 2.16699 -30 3.5l-10 2v12
c0 34.667 -6.33301 58.667 -19 72s-36 20 -70 20s-57.333 -6.83301 -70 -20.5s-19 -37.5 -19 -71.5v-316c0 -34 8 -57.833 24 -71.5s44.667 -20.5 86 -20.5c34 0 67.333 3.5 100 10.5s57 13.5 73 19.5s24 9.66699 24 11l1 -3c0.666992 -1.33301 1.5 -3.5 2.5 -6.5
s1.83301 -6.5 2.5 -10.5s1.33398 -9 2.00098 -15s1 -12 1 -18c0 -10 -0.666992 -19.667 -2 -29s-2.66602 -16.333 -3.99902 -21l-3 -6c-54 -26 -120 -39 -198 -39c-98.667 0 -169.5 16.5 -212.5 49.5s-64.5 82.833 -64.5 149.5zM425.999 892l-146.001 -138
c-15.333 -5.33301 -30.333 -8 -45 -8c-7.33301 0 -14.666 0.666992 -21.999 2s-13 2.66602 -17 3.99902l-6 2l91 138c23.333 5.33301 47.333 8 72 8c10.667 0 22 -0.666992 34 -2s21.667 -2.66602 29 -3.99902z" />
    <glyph glyph-name="cacute" unicode="&#x107;" horiz-adv-x="488" 
d="M36 170l-0.000976562 160.002c0 59.333 17 103.666 51 132.999s90 44 168 44c76.667 0 129.5 -14.333 158.5 -43s43.5 -73.334 43.5 -134.001v-12c-24 -4.66699 -47.667 -7 -71 -7c-10.667 0 -22 0.5 -34 1.5s-21.333 2.16699 -28 3.5l-9 2v12
c0 29.333 -4.33301 49.833 -13 61.5s-24.334 17.5 -47.001 17.5s-38.167 -5.83301 -46.5 -17.5s-12.5 -32.167 -12.5 -61.5v-160c0 -29.333 6.33301 -49.833 19 -61.5s36.334 -17.5 71.001 -17.5c25.333 0 50.333 2.33301 75 7s43 9.16699 55 13.5s18 6.83301 18 7.5l1 -3
c0.666992 -1.33301 1.33398 -3.5 2.00098 -6.5s1.5 -6.33301 2.5 -10s1.83301 -8.16699 2.5 -13.5s1 -10.666 1 -15.999c0 -8.66699 -0.833008 -17.167 -2.5 -25.5s-3.16699 -14.5 -4.5 -18.5l-2 -6c-40.667 -18 -90 -27 -148 -27c-88.667 0 -152.5 14.667 -191.5 44
s-58.5 73.666 -58.5 132.999zM390.999 696.002l-145 -138c-16 -5.33301 -31 -8 -45 -8c-7.33301 0 -14.833 0.666992 -22.5 2s-13.5 2.66602 -17.5 3.99902l-6 2l92 138c23.333 5.33301 47 8 71 8c10.667 0 22 -0.666992 34 -2s21.333 -2.66602 28 -3.99902z" />
    <glyph glyph-name="Ccircumflex" unicode="&#x108;" horiz-adv-x="560" 
d="M36 192l-0.000976562 316c0 66 20 115.667 60 149s105.667 50 197 50s154.166 -16.167 188.499 -48.5s51.5 -82.5 51.5 -150.5v-12c-25.333 -4.66699 -50.333 -7 -75 -7c-11.333 0 -23.333 0.5 -36 1.5s-22.667 2.16699 -30 3.5l-10 2v12
c0 34.667 -6.33301 58.667 -19 72s-36 20 -70 20s-57.333 -6.83301 -70 -20.5s-19 -37.5 -19 -71.5v-316c0 -34 8 -57.833 24 -71.5s44.667 -20.5 86 -20.5c34 0 67.333 3.5 100 10.5s57 13.5 73 19.5s24 9.66699 24 11l1 -3c0.666992 -1.33301 1.5 -3.5 2.5 -6.5
s1.83301 -6.5 2.5 -10.5s1.33398 -9 2.00098 -15s1 -12 1 -18c0 -10 -0.666992 -19.667 -2 -29s-2.66602 -16.333 -3.99902 -21l-3 -6c-54 -26 -120 -39 -198 -39c-98.667 0 -169.5 16.5 -212.5 49.5s-64.5 82.833 -64.5 149.5zM353.999 754l-74.001 74.002l-74 -74
c-15.333 -5.33301 -30.333 -8 -45 -8c-7.33301 0 -14.666 0.666992 -21.999 2s-13 2.66602 -17 3.99902l-6 2l96 137c22 4.66699 44.333 7 67 7l69 -7l96 -137c-14 -5.33301 -29 -8 -45 -8c-6.66699 0 -13.667 0.666992 -21 2s-13.333 2.66602 -18 3.99902z" />
    <glyph glyph-name="ccircumflex" unicode="&#x109;" horiz-adv-x="488" 
d="M36 170l-0.000976562 160.002c0 59.333 17 103.666 51 132.999s90 44 168 44c76.667 0 129.5 -14.333 158.5 -43s43.5 -73.334 43.5 -134.001v-12c-24 -4.66699 -47.667 -7 -71 -7c-10.667 0 -22 0.5 -34 1.5s-21.333 2.16699 -28 3.5l-9 2v12
c0 29.333 -4.33301 49.833 -13 61.5s-24.334 17.5 -47.001 17.5s-38.167 -5.83301 -46.5 -17.5s-12.5 -32.167 -12.5 -61.5v-160c0 -29.333 6.33301 -49.833 19 -61.5s36.334 -17.5 71.001 -17.5c25.333 0 50.333 2.33301 75 7s43 9.16699 55 13.5s18 6.83301 18 7.5l1 -3
c0.666992 -1.33301 1.33398 -3.5 2.00098 -6.5s1.5 -6.33301 2.5 -10s1.83301 -8.16699 2.5 -13.5s1 -10.666 1 -15.999c0 -8.66699 -0.833008 -17.167 -2.5 -25.5s-3.16699 -14.5 -4.5 -18.5l-2 -6c-40.667 -18 -90 -27 -148 -27c-88.667 0 -152.5 14.667 -191.5 44
s-58.5 73.666 -58.5 132.999zM319.999 559.002l-74 74.001l-74 -74c-16 -4.66699 -31 -7 -45 -7c-7.33301 0 -14.833 0.666992 -22.5 2s-13.5 2.66602 -17.5 3.99902l-6 1l97 137c22 5.33301 44.333 8 67 8c10 0 20.667 -0.666992 32 -2s20.333 -2.66602 27 -3.99902l9 -2
l97 -137c-14.667 -4.66699 -29.667 -7 -45 -7c-6.66699 0 -13.667 0.666992 -21 2s-13.333 2.66602 -18 3.99902z" />
    <glyph glyph-name="Cdotaccent" unicode="&#x10a;" horiz-adv-x="560" 
d="M36 192l-0.000976562 316c0 66 20 115.667 60 149s105.667 50 197 50s154.166 -16.167 188.499 -48.5s51.5 -82.5 51.5 -150.5v-12c-25.333 -4.66699 -50.333 -7 -75 -7c-11.333 0 -23.333 0.5 -36 1.5s-22.667 2.16699 -30 3.5l-10 2v12
c0 34.667 -6.33301 58.667 -19 72s-36 20 -70 20s-57.333 -6.83301 -70 -20.5s-19 -37.5 -19 -71.5v-316c0 -34 8 -57.833 24 -71.5s44.667 -20.5 86 -20.5c34 0 67.333 3.5 100 10.5s57 13.5 73 19.5s24 9.66699 24 11l1 -3c0.666992 -1.33301 1.5 -3.5 2.5 -6.5
s1.83301 -6.5 2.5 -10.5s1.33398 -9 2.00098 -15s1 -12 1 -18c0 -10 -0.666992 -19.667 -2 -29s-2.66602 -16.333 -3.99902 -21l-3 -6c-54 -26 -120 -39 -198 -39c-98.667 0 -169.5 16.5 -212.5 49.5s-64.5 82.833 -64.5 149.5zM359.999 877v-122
c-26.667 -5.33301 -53.334 -8 -80.001 -8c-12 0 -24.667 0.666992 -38 2s-23.666 2.66602 -30.999 3.99902l-11 2v122c26.667 4.66699 53.334 7 80.001 7c12 0 24.667 -0.666992 38 -2s23.666 -2.66602 30.999 -3.99902z" />
    <glyph glyph-name="cdotaccent" unicode="&#x10b;" horiz-adv-x="488" 
d="M36 170l-0.000976562 160.002c0 59.333 17 103.666 51 132.999s90 44 168 44c76.667 0 129.5 -14.333 158.5 -43s43.5 -73.334 43.5 -134.001v-12c-24 -4.66699 -47.667 -7 -71 -7c-10.667 0 -22 0.5 -34 1.5s-21.333 2.16699 -28 3.5l-9 2v12
c0 29.333 -4.33301 49.833 -13 61.5s-24.334 17.5 -47.001 17.5s-38.167 -5.83301 -46.5 -17.5s-12.5 -32.167 -12.5 -61.5v-160c0 -29.333 6.33301 -49.833 19 -61.5s36.334 -17.5 71.001 -17.5c25.333 0 50.333 2.33301 75 7s43 9.16699 55 13.5s18 6.83301 18 7.5l1 -3
c0.666992 -1.33301 1.33398 -3.5 2.00098 -6.5s1.5 -6.33301 2.5 -10s1.83301 -8.16699 2.5 -13.5s1 -10.666 1 -15.999c0 -8.66699 -0.833008 -17.167 -2.5 -25.5s-3.16699 -14.5 -4.5 -18.5l-2 -6c-40.667 -18 -90 -27 -148 -27c-88.667 0 -152.5 14.667 -191.5 44
s-58.5 73.666 -58.5 132.999zM324.999 696.002l-0.00195312 -122.001c-26.667 -4.66699 -53 -7 -79 -7c-12 0 -24.667 0.5 -38 1.5s-23.666 2.16699 -30.999 3.5l-11 2v122c26.667 5.33301 53.334 8 80.001 8c12 0 24.5 -0.666992 37.5 -2s23.167 -2.66602 30.5 -3.99902z
" />
    <glyph glyph-name="Ccaron" unicode="&#x10c;" horiz-adv-x="560" 
d="M36 192l-0.000976562 316c0 66 20 115.667 60 149s105.667 50 197 50s154.166 -16.167 188.499 -48.5s51.5 -82.5 51.5 -150.5v-12c-25.333 -4.66699 -50.333 -7 -75 -7c-11.333 0 -23.333 0.5 -36 1.5s-22.667 2.16699 -30 3.5l-10 2v12
c0 34.667 -6.33301 58.667 -19 72s-36 20 -70 20s-57.333 -6.83301 -70 -20.5s-19 -37.5 -19 -71.5v-316c0 -34 8 -57.833 24 -71.5s44.667 -20.5 86 -20.5c34 0 67.333 3.5 100 10.5s57 13.5 73 19.5s24 9.66699 24 11l1 -3c0.666992 -1.33301 1.5 -3.5 2.5 -6.5
s1.83301 -6.5 2.5 -10.5s1.33398 -9 2.00098 -15s1 -12 1 -18c0 -10 -0.666992 -19.667 -2 -29s-2.66602 -16.333 -3.99902 -21l-3 -6c-54 -26 -120 -39 -198 -39c-98.667 0 -169.5 16.5 -212.5 49.5s-64.5 82.833 -64.5 149.5zM205.999 891l74.001 -74.001l74 74
c15.333 4.66699 30.333 7 45 7c7.33301 0 14.666 -0.666992 21.999 -2s13 -2.66602 17 -3.99902l6 -1l-96 -137c-22 -5.33301 -44.333 -8 -67 -8c-10 0 -20.667 0.666992 -32 2s-20.333 2.66602 -27 3.99902l-10 2l-96 137c14 4.66699 29 7 45 7
c6.66699 0 13.667 -0.666992 21 -2s13.333 -2.66602 18 -3.99902z" />
    <glyph glyph-name="ccaron" unicode="&#x10d;" horiz-adv-x="488" 
d="M36 170l-0.000976562 160.002c0 59.333 17 103.666 51 132.999s90 44 168 44c76.667 0 129.5 -14.333 158.5 -43s43.5 -73.334 43.5 -134.001v-12c-24 -4.66699 -47.667 -7 -71 -7c-10.667 0 -22 0.5 -34 1.5s-21.333 2.16699 -28 3.5l-9 2v12
c0 29.333 -4.33301 49.833 -13 61.5s-24.334 17.5 -47.001 17.5s-38.167 -5.83301 -46.5 -17.5s-12.5 -32.167 -12.5 -61.5v-160c0 -29.333 6.33301 -49.833 19 -61.5s36.334 -17.5 71.001 -17.5c25.333 0 50.333 2.33301 75 7s43 9.16699 55 13.5s18 6.83301 18 7.5l1 -3
c0.666992 -1.33301 1.33398 -3.5 2.00098 -6.5s1.5 -6.33301 2.5 -10s1.83301 -8.16699 2.5 -13.5s1 -10.666 1 -15.999c0 -8.66699 -0.833008 -17.167 -2.5 -25.5s-3.16699 -14.5 -4.5 -18.5l-2 -6c-40.667 -18 -90 -27 -148 -27c-88.667 0 -152.5 14.667 -191.5 44
s-58.5 73.666 -58.5 132.999zM171.999 696.002l73.998 -74.001l74 74c15.333 5.33301 30.333 8 45 8c6.66699 0 13.834 -0.666992 21.501 -2s13.5 -2.66602 17.5 -3.99902l6 -2l-97 -137c-21.333 -4.66699 -43.333 -7 -66 -7c-10 0 -20.833 0.666992 -32.5 2
s-20.5 2.66602 -26.5 3.99902l-10 1l-97 137c14.667 5.33301 30 8 46 8c6 0 12.833 -0.666992 20.5 -2s13.834 -2.66602 18.501 -3.99902z" />
    <glyph glyph-name="Dcaron" unicode="&#x10e;" horiz-adv-x="591" 
d="M41 691c67.333 9.33301 151.667 14 253 14c92.667 0 159.167 -16.333 199.5 -49s60.5 -82 60.5 -148v-316c0 -66 -20.167 -115.333 -60.5 -148s-106.833 -49 -199.5 -49c-45.333 0 -89 1.16699 -131 3.5s-73 4.83301 -93 7.5l-29 3v682zM209.001 599v-498h85
c34.667 0 58.667 6.66699 72 20s20 37 20 71v316c0 34 -6.66699 57.667 -20 71s-37.333 20 -72 20h-85zM220.001 891l74.001 -74.001l74 74c15.333 4.66699 30.333 7 45 7c7.33301 0 14.666 -0.666992 21.999 -2s13 -2.66602 17 -3.99902l6 -1l-96 -137
c-22 -5.33301 -44.333 -8 -67 -8c-10 0 -20.667 0.666992 -32 2s-20.333 2.66602 -27 3.99902l-10 2l-96 137c14 4.66699 29 7 45 7c6.66699 0 13.667 -0.666992 21 -2s13.333 -2.66602 18 -3.99902z" />
    <glyph glyph-name="dcaron" unicode="&#x10f;" horiz-adv-x="670" 
d="M316 4l0.000976562 25.998c-34 -24.667 -75.667 -37 -125 -37c-54.667 0 -94.167 14.833 -118.5 44.5s-36.5 73.834 -36.5 132.501v160c0 58.667 14.667 102.834 44 132.501s77 44.5 143 44.5c16 0 31.833 -1.83301 47.5 -5.5s27.167 -7.5 34.5 -11.5l11 -5v211
c26 5.33301 52.333 8 79 8c12 0 24.667 -0.666992 38 -2s23.666 -2.66602 30.999 -3.99902l11 -2v-692c-26.667 -5.33301 -53.334 -8 -80.001 -8c-12 0 -24.667 0.666992 -38 2s-23.666 2.66602 -30.999 3.99902zM196.001 329.998v-160.001
c0 -29.333 3.83301 -49.833 11.5 -61.5s22.167 -17.5 43.5 -17.5c13.333 0 25.5 2.33301 36.5 7s18.5 9.33398 22.5 14.001l6 7v211c0 29.333 -4.5 49.833 -13.5 61.5s-25.5 17.5 -49.5 17.5c-22 0 -37 -5.83301 -45 -17.5s-12 -32.167 -12 -61.5zM678.001 695.997
c0 -33.333 -2.99902 -64.668 -8.99902 -94.001s-13.333 -53 -22 -71s-17.334 -33.667 -26.001 -47s-16 -22.666 -22 -27.999l-9 -9c-12 -5.33301 -24 -8 -36 -8c-5.33301 0 -11 0.666992 -17 2s-10.667 2.66602 -14 3.99902l-5 2c2.66699 6 6 15 10 27s9.33301 39.5 16 82.5
s10 89.5 10 139.5c20.667 5.33301 41.334 8 62.001 8c9.33301 0 19.166 -0.666992 29.499 -2s18.5 -2.66602 24.5 -3.99902z" />
    <glyph glyph-name="Dcroat" unicode="&#x110;" horiz-adv-x="623" 
d="M73 691c67.333 9.33301 151.667 14 253 14c92.667 0 159.167 -16.333 199.5 -49s60.5 -82 60.5 -148v-316c0 -66 -20.167 -115.333 -60.5 -148s-106.833 -49 -199.5 -49c-45.333 0 -89 1.16699 -131 3.5s-73 4.83301 -93 7.5l-29 3v302h-43c-4 12.667 -6 29 -6 49
c0 8.66699 0.5 17 1.5 25s1.83301 14 2.5 18l2 6h43v282zM329.001 311l-88.001 -0.000976562v-210h85c34.667 0 58.667 6.66699 72 20s20 37 20 71v316c0 34 -6.66699 57.667 -20 71s-37.333 20 -72 20h-85v-190h88c4.66699 -13.333 7 -29.666 7 -48.999
c0 -8.66699 -0.666992 -17 -2 -25s-2.66602 -14 -3.99902 -18z" />
    <glyph glyph-name="dcroat" unicode="&#x111;" horiz-adv-x="548" 
d="M517 561l-42 -0.000976562v-557c-26.667 -5.33301 -53.334 -8 -80.001 -8c-12 0 -24.667 0.666992 -38 2s-23.666 2.66602 -30.999 3.99902l-10 2v26c-34 -24.667 -75.667 -37 -125 -37c-54.667 0 -94.167 14.833 -118.5 44.5s-36.5 73.834 -36.5 132.501v160
c0 58.667 14.667 102.834 44 132.501s77 44.5 143 44.5c10 0 20 -0.833008 30 -2.5s18.5 -3.5 25.5 -5.5s13.333 -4 19 -6s10.167 -3.66699 13.5 -5l5 -3v76h-125c-4 11.333 -6 26.333 -6 45c0 8 0.5 15.667 1.5 23s2.16699 12.666 3.5 15.999l1 5h125v46
c26 5.33301 52.333 8 79 8c12 0 24.667 -0.666992 38 -2s23.666 -2.66602 30.999 -3.99902l11 -2v-46h42c4.66699 -11.333 7 -26 7 -44c0 -8 -0.666992 -15.667 -2 -23s-2.66602 -13 -3.99902 -17zM196 329.999v-160.001c0 -29.333 3.83301 -49.833 11.5 -61.5
s22.167 -17.5 43.5 -17.5c13.333 0 25.5 2.33301 36.5 7s18.5 9.33398 22.5 14.001l6 7v211c0 29.333 -4.5 49.833 -13.5 61.5s-25.5 17.5 -49.5 17.5c-22 0 -37 -5.83301 -45 -17.5s-12 -32.167 -12 -61.5z" />
    <glyph glyph-name="Emacron" unicode="&#x112;" horiz-adv-x="511" 
d="M209 306l-0.000976562 -199h273c4.66699 -14 7 -32 7 -54c0 -9.33301 -0.5 -18.5 -1.5 -27.5s-2.16699 -15.5 -3.5 -19.5l-2 -6h-221c-39.333 -0 -77.333 0.833008 -114 2.5s-63.667 3.5 -81 5.5l-25 2v680c58.667 6.66699 132 10 220 10h216c4.66699 -14 7 -32 7 -54
c0 -9.33301 -0.666992 -18.5 -2 -27.5s-2.66602 -15.5 -3.99902 -19.5l-1 -6h-268v-180h238c4 -14 6 -31.667 6 -53c0 -9.33301 -0.5 -18.5 -1.5 -27.5s-2.16699 -15.833 -3.5 -20.5l-1 -6h-238zM407.999 771h-285c-4 8.66699 -6 20.667 -6 36c0 6 0.5 12 1.5 18
s2.16699 10.333 3.5 13l1 5h285c4 -10 6 -22 6 -36c0 -6.66699 -0.5 -13 -1.5 -19s-1.83301 -10.333 -2.5 -13z" />
    <glyph glyph-name="emacron" unicode="&#x113;" horiz-adv-x="504" 
d="M36 170l-0.00195312 160.002c0 59.333 17.167 103.666 51.5 132.999s90.5 44 168.5 44c80 0 135.167 -14.333 165.5 -43s45.5 -73.334 45.5 -134.001v-119c-29.333 -9.33301 -74.333 -14 -135 -14h-136v-27c0 -29.333 6.5 -49.833 19.5 -61.5s36.833 -17.5 71.5 -17.5
c27.333 0 54 2.33301 80 7s45.5 9.16699 58.5 13.5s19.5 6.83301 19.5 7.5l1 -3c0.666992 -1.33301 1.5 -3.5 2.5 -6.5s1.83301 -6.33301 2.5 -10s1.33398 -8.16699 2.00098 -13.5s1 -10.666 1 -15.999c0 -8.66699 -0.666992 -17.167 -2 -25.5
s-2.66602 -14.5 -3.99902 -18.5l-3 -6c-43.333 -18 -96 -27 -158 -27c-89.333 0 -153.5 14.667 -192.5 44s-58.5 73.666 -58.5 132.999zM195.998 295.002h121.001v35c0 29.333 -4.33301 49.833 -13 61.5s-24.667 17.5 -48 17.5c-22.667 0 -38.334 -5.83301 -47.001 -17.5
s-13 -32.167 -13 -61.5v-35zM393.999 585.002h-285c-4 8.66699 -6 20.667 -6 36c0 6 0.5 12 1.5 18s2.16699 10.333 3.5 13l1 5h285c4 -10 6 -22 6 -36c0 -6.66699 -0.5 -13 -1.5 -19s-1.83301 -10.333 -2.5 -13z" />
    <glyph glyph-name="Ebreve" unicode="&#x114;" horiz-adv-x="511" 
d="M209 306l-0.000976562 -199h273c4.66699 -14 7 -32 7 -54c0 -9.33301 -0.5 -18.5 -1.5 -27.5s-2.16699 -15.5 -3.5 -19.5l-2 -6h-221c-39.333 -0 -77.333 0.833008 -114 2.5s-63.667 3.5 -81 5.5l-25 2v680c58.667 6.66699 132 10 220 10h216c4.66699 -14 7 -32 7 -54
c0 -9.33301 -0.666992 -18.5 -2 -27.5s-2.66602 -15.5 -3.99902 -19.5l-1 -6h-268v-180h238c4 -14 6 -31.667 6 -53c0 -9.33301 -0.5 -18.5 -1.5 -27.5s-2.16699 -15.833 -3.5 -20.5l-1 -6h-238zM263.999 746c-60 0 -101.335 10.167 -124.002 30.5s-34 51.833 -34 94.5v9
c17.333 4.66699 34.333 7 51 7c8 0 16.333 -0.5 25 -1.5s15.334 -2.16699 20.001 -3.5l7 -2v-11c0 -20.667 3.83301 -35 11.5 -43s22.167 -12 43.5 -12s35.833 4 43.5 12s11.5 22.333 11.5 43v11c17.333 4.66699 34.333 7 51 7c8 0 16.333 -0.5 25 -1.5
s15.334 -2.16699 20.001 -3.5l7 -2v-9c0 -42.667 -11.333 -74.167 -34 -94.5s-64 -30.5 -124 -30.5z" />
    <glyph glyph-name="ebreve" unicode="&#x115;" horiz-adv-x="504" 
d="M36 170l-0.00195312 160.002c0 59.333 17.167 103.666 51.5 132.999s90.5 44 168.5 44c80 0 135.167 -14.333 165.5 -43s45.5 -73.334 45.5 -134.001v-119c-29.333 -9.33301 -74.333 -14 -135 -14h-136v-27c0 -29.333 6.5 -49.833 19.5 -61.5s36.833 -17.5 71.5 -17.5
c27.333 0 54 2.33301 80 7s45.5 9.16699 58.5 13.5s19.5 6.83301 19.5 7.5l1 -3c0.666992 -1.33301 1.5 -3.5 2.5 -6.5s1.83301 -6.33301 2.5 -10s1.33398 -8.16699 2.00098 -13.5s1 -10.666 1 -15.999c0 -8.66699 -0.666992 -17.167 -2 -25.5
s-2.66602 -14.5 -3.99902 -18.5l-3 -6c-43.333 -18 -96 -27 -158 -27c-89.333 0 -153.5 14.667 -192.5 44s-58.5 73.666 -58.5 132.999zM195.998 295.002h121.001v35c0 29.333 -4.33301 49.833 -13 61.5s-24.667 17.5 -48 17.5c-22.667 0 -38.334 -5.83301 -47.001 -17.5
s-13 -32.167 -13 -61.5v-35zM251.999 562.002c-60 0 -101.335 9.99805 -124.002 29.998s-34 51.333 -34 94v9c17.333 5.33301 34.333 8 51 8c8 0 16.333 -0.666992 25 -2s15.334 -2.66602 20.001 -3.99902l7 -2v-10c0 -20.667 3.83301 -35 11.5 -43s22.167 -12 43.5 -12
s35.833 4 43.5 12s11.5 22.333 11.5 43v10c17.333 5.33301 34.333 8 51 8c8 0 16.333 -0.666992 25 -2s15.334 -2.66602 20.001 -3.99902l7 -2v-9c0 -42.667 -11.333 -74 -34 -94s-64 -30 -124 -30z" />
    <glyph glyph-name="Edotaccent" unicode="&#x116;" horiz-adv-x="511" 
d="M209 306l-0.000976562 -199h273c4.66699 -14 7 -32 7 -54c0 -9.33301 -0.5 -18.5 -1.5 -27.5s-2.16699 -15.5 -3.5 -19.5l-2 -6h-221c-39.333 -0 -77.333 0.833008 -114 2.5s-63.667 3.5 -81 5.5l-25 2v680c58.667 6.66699 132 10 220 10h216c4.66699 -14 7 -32 7 -54
c0 -9.33301 -0.666992 -18.5 -2 -27.5s-2.66602 -15.5 -3.99902 -19.5l-1 -6h-268v-180h238c4 -14 6 -31.667 6 -53c0 -9.33301 -0.5 -18.5 -1.5 -27.5s-2.16699 -15.833 -3.5 -20.5l-1 -6h-238zM345.999 877l-0.00195312 -122c-26 -5.33301 -52.333 -8 -79 -8
c-12 0 -24.667 0.666992 -38 2s-23.666 2.66602 -30.999 3.99902l-11 2v122c26.667 4.66699 53.334 7 80.001 7c12 0 24.5 -0.666992 37.5 -2s23.167 -2.66602 30.5 -3.99902z" />
    <glyph glyph-name="edotaccent" unicode="&#x117;" horiz-adv-x="504" 
d="M36 170l-0.00195312 160.002c0 59.333 17.167 103.666 51.5 132.999s90.5 44 168.5 44c80 0 135.167 -14.333 165.5 -43s45.5 -73.334 45.5 -134.001v-119c-29.333 -9.33301 -74.333 -14 -135 -14h-136v-27c0 -29.333 6.5 -49.833 19.5 -61.5s36.833 -17.5 71.5 -17.5
c27.333 0 54 2.33301 80 7s45.5 9.16699 58.5 13.5s19.5 6.83301 19.5 7.5l1 -3c0.666992 -1.33301 1.5 -3.5 2.5 -6.5s1.83301 -6.33301 2.5 -10s1.33398 -8.16699 2.00098 -13.5s1 -10.666 1 -15.999c0 -8.66699 -0.666992 -17.167 -2 -25.5
s-2.66602 -14.5 -3.99902 -18.5l-3 -6c-43.333 -18 -96 -27 -158 -27c-89.333 0 -153.5 14.667 -192.5 44s-58.5 73.666 -58.5 132.999zM195.998 295.002h121.001v35c0 29.333 -4.33301 49.833 -13 61.5s-24.667 17.5 -48 17.5c-22.667 0 -38.334 -5.83301 -47.001 -17.5
s-13 -32.167 -13 -61.5v-35zM331.999 696.002v-122.001c-26.667 -4.66699 -53.334 -7 -80.001 -7c-12 0 -24.667 0.5 -38 1.5s-23.666 2.16699 -30.999 3.5l-11 2v122c26.667 5.33301 53.334 8 80.001 8c12 0 24.667 -0.666992 38 -2s23.666 -2.66602 30.999 -3.99902z" />
    <glyph glyph-name="Eogonek" unicode="&#x118;" horiz-adv-x="511" 
d="M337 -94c0 32.667 16.998 64.001 50.998 94.001h-127c-39.333 0 -77.333 0.833008 -114 2.5s-63.667 3.5 -81 5.5l-25 2v680c58.667 6.66699 132 10 220 10h216c4.66699 -14 7 -32 7 -54c0 -9.33301 -0.666992 -18.5 -2 -27.5s-2.66602 -15.5 -3.99902 -19.5l-1 -6h-268
v-180h238c4 -14 6 -31.667 6 -53c0 -9.33301 -0.5 -18.5 -1.5 -27.5s-2.16699 -15.833 -3.5 -20.5l-1 -6h-238v-199h273c4.66699 -14 7 -32 7 -54c0 -9.33301 -0.5 -18.5 -1.5 -27.5s-2.16699 -15.5 -3.5 -19.5l-2 -6h-29c-21.333 -30.667 -32 -58.334 -32 -83.001
c0 -20.667 9.66699 -31 29 -31c6 0 11.833 0.833008 17.5 2.5s9.83398 3.5 12.501 5.5l4 2c3.33301 -8 5 -17 5 -27l-5 -26c-12.667 -11.333 -32.667 -17 -60 -17c-58 0 -87 26.667 -87 80z" />
    <glyph glyph-name="eogonek" unicode="&#x119;" horiz-adv-x="504" 
d="M277 -94c0 28.667 14.9951 58.001 44.9951 88.001c-8 -0.666992 -19.667 -1 -35 -1c-89.333 0 -153.5 14.667 -192.5 44s-58.5 73.666 -58.5 132.999v160c0 59.333 17.167 103.666 51.5 132.999s90.5 44 168.5 44c80 0 135.167 -14.333 165.5 -43
s45.5 -73.334 45.5 -134.001v-119c-29.333 -9.33301 -74.333 -14 -135 -14h-136v-27c0 -29.333 6.5 -49.833 19.5 -61.5s36.833 -17.5 71.5 -17.5c27.333 0 54 2.33301 80 7s45.5 9.16699 58.5 13.5s19.5 6.83301 19.5 7.5l1 -3c0.666992 -1.33301 1.5 -3.5 2.5 -6.5
s1.83301 -6.33301 2.5 -10s1.33398 -8.16699 2.00098 -13.5s1 -10.666 1 -15.999c0 -8.66699 -0.666992 -17.167 -2 -25.5s-2.66602 -14.5 -3.99902 -18.5l-3 -6c-13.333 -5.33301 -29.666 -10.333 -48.999 -15l-2 -3c-1.33301 -2.66699 -3 -5.5 -5 -8.5
s-4.16699 -6.66699 -6.5 -11s-4.66602 -9.16602 -6.99902 -14.499s-4.5 -10.833 -6.5 -16.5s-3.66699 -11.5 -5 -17.5s-2 -11.667 -2 -17c0 -20.667 9.33301 -31 28 -31c6 0 11.833 0.833008 17.5 2.5s9.83398 3.5 12.501 5.5l4 2c3.33301 -8 5 -17 5 -27l-5 -26
c-12.667 -11.333 -32.667 -17 -60 -17c-58 0 -87 26.667 -87 80zM195.995 295.001h121.001v35c0 29.333 -4.33301 49.833 -13 61.5s-24.667 17.5 -48 17.5c-22.667 0 -38.334 -5.83301 -47.001 -17.5s-13 -32.167 -13 -61.5v-35z" />
    <glyph glyph-name="Ecaron" unicode="&#x11a;" horiz-adv-x="511" 
d="M209 306l-0.000976562 -199h273c4.66699 -14 7 -32 7 -54c0 -9.33301 -0.5 -18.5 -1.5 -27.5s-2.16699 -15.5 -3.5 -19.5l-2 -6h-221c-39.333 -0 -77.333 0.833008 -114 2.5s-63.667 3.5 -81 5.5l-25 2v680c58.667 6.66699 132 10 220 10h216c4.66699 -14 7 -32 7 -54
c0 -9.33301 -0.666992 -18.5 -2 -27.5s-2.66602 -15.5 -3.99902 -19.5l-1 -6h-268v-180h238c4 -14 6 -31.667 6 -53c0 -9.33301 -0.5 -18.5 -1.5 -27.5s-2.16699 -15.833 -3.5 -20.5l-1 -6h-238zM191.999 891l74.001 -74.001l74 74c15.333 4.66699 30.333 7 45 7
c7.33301 0 14.666 -0.666992 21.999 -2s13 -2.66602 17 -3.99902l6 -1l-96 -137c-22 -5.33301 -44.333 -8 -67 -8c-10 0 -20.667 0.666992 -32 2s-20.333 2.66602 -27 3.99902l-10 2l-96 137c14 4.66699 29 7 45 7c6.66699 0 13.667 -0.666992 21 -2
s13.333 -2.66602 18 -3.99902z" />
    <glyph glyph-name="ecaron" unicode="&#x11b;" horiz-adv-x="504" 
d="M36 170l-0.00195312 160.002c0 59.333 17.167 103.666 51.5 132.999s90.5 44 168.5 44c80 0 135.167 -14.333 165.5 -43s45.5 -73.334 45.5 -134.001v-119c-29.333 -9.33301 -74.333 -14 -135 -14h-136v-27c0 -29.333 6.5 -49.833 19.5 -61.5s36.833 -17.5 71.5 -17.5
c27.333 0 54 2.33301 80 7s45.5 9.16699 58.5 13.5s19.5 6.83301 19.5 7.5l1 -3c0.666992 -1.33301 1.5 -3.5 2.5 -6.5s1.83301 -6.33301 2.5 -10s1.33398 -8.16699 2.00098 -13.5s1 -10.666 1 -15.999c0 -8.66699 -0.666992 -17.167 -2 -25.5
s-2.66602 -14.5 -3.99902 -18.5l-3 -6c-43.333 -18 -96 -27 -158 -27c-89.333 0 -153.5 14.667 -192.5 44s-58.5 73.666 -58.5 132.999zM195.998 295.002h121.001v35c0 29.333 -4.33301 49.833 -13 61.5s-24.667 17.5 -48 17.5c-22.667 0 -38.334 -5.83301 -47.001 -17.5
s-13 -32.167 -13 -61.5v-35zM177.999 696.002l74.001 -74.002l74 74c15.333 5.33301 30.333 8 45 8c7.33301 0 14.666 -0.666992 21.999 -2s13 -2.66602 17 -3.99902l6 -2l-96 -137c-22 -4.66699 -44.333 -7 -67 -7l-69 7l-96 137c14 5.33301 29 8 45 8
c6.66699 0 13.667 -0.666992 21 -2s13.333 -2.66602 18 -3.99902z" />
    <glyph glyph-name="Gcircumflex" unicode="&#x11c;" horiz-adv-x="583" 
d="M542 382l-0.00195312 -339.002c-7.33301 -3.33301 -17.833 -7.66602 -31.5 -12.999s-41.667 -12.5 -84 -21.5s-85.166 -13.5 -128.499 -13.5c-92.667 0 -159.5 16.333 -200.5 49s-61.5 82 -61.5 148v316c0 66.667 20.333 116.5 61 149.5s107.667 49.5 201 49.5
c92.667 0 156.5 -16.167 191.5 -48.5s52.5 -82.5 52.5 -150.5v-12c-25.333 -4.66699 -50.333 -7 -75 -7c-11.333 0 -23.166 0.5 -35.499 1.5s-22.166 2.16699 -29.499 3.5l-10 2v12c0 34.667 -6.66699 58.667 -20 72s-38 20 -74 20s-60.667 -6.66699 -74 -20
s-20 -37.333 -20 -72v-316c0 -34 6.83301 -57.667 20.5 -71s38.167 -20 73.5 -20c16.667 0 32 1.33301 46 4s24 5.33398 30 8.00098l9 4v169h-79c-4 14 -6 32 -6 54c0 9.33301 0.5 18.5 1.5 27.5s1.83301 15.5 2.5 19.5l2 6h44c34.667 0 68.167 -0.833008 100.5 -2.5
s56.166 -3.5 71.499 -5.5zM364.998 753.998l-72.999 74.001l-74 -74c-16 -5.33301 -31 -8 -45 -8c-7.33301 0 -14.833 0.666992 -22.5 2s-13.5 2.66602 -17.5 3.99902l-6 2l97 137c22 4.66699 44.333 7 67 7c10 0 20.667 -0.666992 32 -2s20.333 -2.66602 27 -3.99902l9 -1
l97 -137c-14.667 -5.33301 -29.667 -8 -45 -8c-6.66699 0 -13.834 0.666992 -21.501 2s-13.5 2.66602 -17.5 3.99902z" />
    <glyph glyph-name="gcircumflex" unicode="&#x11d;" 
d="M316 -30l0.000976562 44.9961c-0.666992 -0.666992 -4.66699 -2.66699 -12 -6s-18.666 -6.83301 -33.999 -10.5s-31 -5.5 -47 -5.5c-66 0 -113.667 14.833 -143 44.5s-44 73.834 -44 132.501v160c0 58.667 12.167 102.834 36.5 132.501s63.833 44.5 118.5 44.5
c22 0 43.333 -3.16699 64 -9.5s36 -12.5 46 -18.5l15 -9v26c25.333 5.33301 51.666 8 78.999 8c12 0 24.667 -0.666992 38 -2s23.666 -2.66602 30.999 -3.99902l11 -2v-526c0 -59.333 -19.5 -103.666 -58.5 -132.999s-102.833 -44 -191.5 -44
c-27.333 0 -54.333 1.83301 -81 5.5s-46.667 7.16699 -60 10.5l-19 5c-6.66699 13.333 -10 29.666 -10 48.999c0 5.33301 0.333008 10.833 1 16.5s1.5 10.334 2.5 14.001s2 7 3 10s1.83301 5.16699 2.5 6.5l1 3c0 -0.666992 6.5 -2.66699 19.5 -6
s32.833 -6.83301 59.5 -10.5s53.667 -5.5 81 -5.5c34.667 0 58.5 5.83301 71.5 17.5s19.5 32.167 19.5 61.5zM196.001 329.996v-160c0 -29.333 4 -49.833 12 -61.5s23 -17.5 45 -17.5c24 0 40.5 5.83301 49.5 17.5s13.5 32.167 13.5 61.5v211c-13.333 18.667 -35 28 -65 28
c-21.333 0 -35.833 -5.83301 -43.5 -17.5s-11.5 -32.167 -11.5 -61.5zM331.001 558.996l-73.998 74l-73 -74c-16 -4.66699 -31.333 -7 -46 -7c-6.66699 0 -13.834 0.666992 -21.501 2s-13.5 2.66602 -17.5 3.99902l-6 1l97 137c21.333 5.33301 43.666 8 66.999 8
c10 0 20.667 -0.666992 32 -2s20.333 -2.66602 27 -3.99902l9 -2l97 -137c-14.667 -4.66699 -30 -7 -46 -7z" />
    <glyph glyph-name="Gbreve" unicode="&#x11e;" horiz-adv-x="583" 
d="M542 382l-0.00195312 -339.002c-7.33301 -3.33301 -17.833 -7.66602 -31.5 -12.999s-41.667 -12.5 -84 -21.5s-85.166 -13.5 -128.499 -13.5c-92.667 0 -159.5 16.333 -200.5 49s-61.5 82 -61.5 148v316c0 66.667 20.333 116.5 61 149.5s107.667 49.5 201 49.5
c92.667 0 156.5 -16.167 191.5 -48.5s52.5 -82.5 52.5 -150.5v-12c-25.333 -4.66699 -50.333 -7 -75 -7c-11.333 0 -23.166 0.5 -35.499 1.5s-22.166 2.16699 -29.499 3.5l-10 2v12c0 34.667 -6.66699 58.667 -20 72s-38 20 -74 20s-60.667 -6.66699 -74 -20
s-20 -37.333 -20 -72v-316c0 -34 6.83301 -57.667 20.5 -71s38.167 -20 73.5 -20c16.667 0 32 1.33301 46 4s24 5.33398 30 8.00098l9 4v169h-79c-4 14 -6 32 -6 54c0 9.33301 0.5 18.5 1.5 27.5s1.83301 15.5 2.5 19.5l2 6h44c34.667 0 68.167 -0.833008 100.5 -2.5
s56.166 -3.5 71.499 -5.5zM291.998 745.998c-60 0 -101.333 10.167 -124 30.5s-34 51.833 -34 94.5v9c16.667 4.66699 33.667 7 51 7c8 0 16.167 -0.5 24.5 -1.5s14.833 -2.16699 19.5 -3.5l7 -2v-11c0 -20 4 -34.167 12 -42.5s22.667 -12.5 44 -12.5
c20.667 0 35 4.16699 43 12.5s12 22.5 12 42.5v11c17.333 4.66699 34.333 7 51 7c8 0 16.167 -0.5 24.5 -1.5s14.833 -2.16699 19.5 -3.5l7 -2v-9c0 -42.667 -11.167 -74.167 -33.5 -94.5s-63.5 -30.5 -123.5 -30.5z" />
    <glyph glyph-name="gbreve" unicode="&#x11f;" 
d="M316 -30l0.000976562 44.9961c-0.666992 -0.666992 -4.66699 -2.66699 -12 -6s-18.666 -6.83301 -33.999 -10.5s-31 -5.5 -47 -5.5c-66 0 -113.667 14.833 -143 44.5s-44 73.834 -44 132.501v160c0 58.667 12.167 102.834 36.5 132.501s63.833 44.5 118.5 44.5
c22 0 43.333 -3.16699 64 -9.5s36 -12.5 46 -18.5l15 -9v26c25.333 5.33301 51.666 8 78.999 8c12 0 24.667 -0.666992 38 -2s23.666 -2.66602 30.999 -3.99902l11 -2v-526c0 -59.333 -19.5 -103.666 -58.5 -132.999s-102.833 -44 -191.5 -44
c-27.333 0 -54.333 1.83301 -81 5.5s-46.667 7.16699 -60 10.5l-19 5c-6.66699 13.333 -10 29.666 -10 48.999c0 5.33301 0.333008 10.833 1 16.5s1.5 10.334 2.5 14.001s2 7 3 10s1.83301 5.16699 2.5 6.5l1 3c0 -0.666992 6.5 -2.66699 19.5 -6
s32.833 -6.83301 59.5 -10.5s53.667 -5.5 81 -5.5c34.667 0 58.5 5.83301 71.5 17.5s19.5 32.167 19.5 61.5zM196.001 329.996v-160c0 -29.333 4 -49.833 12 -61.5s23 -17.5 45 -17.5c24 0 40.5 5.83301 49.5 17.5s13.5 32.167 13.5 61.5v211c-13.333 18.667 -35 28 -65 28
c-21.333 0 -35.833 -5.83301 -43.5 -17.5s-11.5 -32.167 -11.5 -61.5zM257.001 561.996c-60 0 -101.171 9.99805 -123.504 29.998s-33.5 51.333 -33.5 94v9c16.667 5.33301 33.334 8 50.001 8c8 0 16.333 -0.666992 25 -2s15.334 -2.66602 20.001 -3.99902l7 -2v-10
c0 -20.667 4 -35 12 -43s22.333 -12 43 -12c21.333 0 36 4 44 12s12 22.333 12 43v10c16.667 5.33301 33.334 8 50.001 8c8 0 16.333 -0.666992 25 -2s15.334 -2.66602 20.001 -3.99902l7 -2v-9c0 -42.667 -11.167 -74 -33.5 -94s-63.833 -30 -124.5 -30z" />
    <glyph glyph-name="Gdotaccent" unicode="&#x120;" horiz-adv-x="583" 
d="M542 382l-0.00195312 -339.002c-7.33301 -3.33301 -17.833 -7.66602 -31.5 -12.999s-41.667 -12.5 -84 -21.5s-85.166 -13.5 -128.499 -13.5c-92.667 0 -159.5 16.333 -200.5 49s-61.5 82 -61.5 148v316c0 66.667 20.333 116.5 61 149.5s107.667 49.5 201 49.5
c92.667 0 156.5 -16.167 191.5 -48.5s52.5 -82.5 52.5 -150.5v-12c-25.333 -4.66699 -50.333 -7 -75 -7c-11.333 0 -23.166 0.5 -35.499 1.5s-22.166 2.16699 -29.499 3.5l-10 2v12c0 34.667 -6.66699 58.667 -20 72s-38 20 -74 20s-60.667 -6.66699 -74 -20
s-20 -37.333 -20 -72v-316c0 -34 6.83301 -57.667 20.5 -71s38.167 -20 73.5 -20c16.667 0 32 1.33301 46 4s24 5.33398 30 8.00098l9 4v169h-79c-4 14 -6 32 -6 54c0 9.33301 0.5 18.5 1.5 27.5s1.83301 15.5 2.5 19.5l2 6h44c34.667 0 68.167 -0.833008 100.5 -2.5
s56.166 -3.5 71.499 -5.5zM370.998 876.998v-122c-26.667 -5.33301 -53 -8 -79 -8c-12 0 -24.667 0.666992 -38 2s-23.666 2.66602 -30.999 3.99902l-11 2v122c26.667 4.66699 53.334 7 80.001 7c11.333 0 23.666 -0.666992 36.999 -2s23.666 -2.66602 30.999 -3.99902z" />
    <glyph glyph-name="gdotaccent" unicode="&#x121;" 
d="M316 -30l0.000976562 44.9961c-0.666992 -0.666992 -4.66699 -2.66699 -12 -6s-18.666 -6.83301 -33.999 -10.5s-31 -5.5 -47 -5.5c-66 0 -113.667 14.833 -143 44.5s-44 73.834 -44 132.501v160c0 58.667 12.167 102.834 36.5 132.501s63.833 44.5 118.5 44.5
c22 0 43.333 -3.16699 64 -9.5s36 -12.5 46 -18.5l15 -9v26c25.333 5.33301 51.666 8 78.999 8c12 0 24.667 -0.666992 38 -2s23.666 -2.66602 30.999 -3.99902l11 -2v-526c0 -59.333 -19.5 -103.666 -58.5 -132.999s-102.833 -44 -191.5 -44
c-27.333 0 -54.333 1.83301 -81 5.5s-46.667 7.16699 -60 10.5l-19 5c-6.66699 13.333 -10 29.666 -10 48.999c0 5.33301 0.333008 10.833 1 16.5s1.5 10.334 2.5 14.001s2 7 3 10s1.83301 5.16699 2.5 6.5l1 3c0 -0.666992 6.5 -2.66699 19.5 -6
s32.833 -6.83301 59.5 -10.5s53.667 -5.5 81 -5.5c34.667 0 58.5 5.83301 71.5 17.5s19.5 32.167 19.5 61.5zM196.001 329.996v-160c0 -29.333 4 -49.833 12 -61.5s23 -17.5 45 -17.5c24 0 40.5 5.83301 49.5 17.5s13.5 32.167 13.5 61.5v211c-13.333 18.667 -35 28 -65 28
c-21.333 0 -35.833 -5.83301 -43.5 -17.5s-11.5 -32.167 -11.5 -61.5zM337.001 695.996l0.00195312 -122.001c-26.667 -4.66699 -53.334 -7 -80.001 -7c-12 0 -24.5 0.5 -37.5 1.5s-23.167 2.16699 -30.5 3.5l-11 2v122c26 5.33301 52.333 8 79 8
c12 0 24.667 -0.666992 38 -2s23.666 -2.66602 30.999 -3.99902z" />
    <glyph glyph-name="Gcommaaccent" unicode="&#x122;" horiz-adv-x="583" 
d="M542 382l-0.00195312 -339.002c-7.33301 -3.33301 -17.833 -7.66602 -31.5 -12.999s-41.667 -12.5 -84 -21.5s-85.166 -13.5 -128.499 -13.5c-92.667 0 -159.5 16.333 -200.5 49s-61.5 82 -61.5 148v316c0 66.667 20.333 116.5 61 149.5s107.667 49.5 201 49.5
c92.667 0 156.5 -16.167 191.5 -48.5s52.5 -82.5 52.5 -150.5v-12c-25.333 -4.66699 -50.333 -7 -75 -7c-11.333 0 -23.166 0.5 -35.499 1.5s-22.166 2.16699 -29.499 3.5l-10 2v12c0 34.667 -6.66699 58.667 -20 72s-38 20 -74 20s-60.667 -6.66699 -74 -20
s-20 -37.333 -20 -72v-316c0 -34 6.83301 -57.667 20.5 -71s38.167 -20 73.5 -20c16.667 0 32 1.33301 46 4s24 5.33398 30 8.00098l9 4v169h-79c-4 14 -6 32 -6 54c0 9.33301 0.5 18.5 1.5 27.5s1.83301 15.5 2.5 19.5l2 6h44c34.667 0 68.167 -0.833008 100.5 -2.5
s56.166 -3.5 71.499 -5.5zM341.998 -42.002c0 -31.333 -5.33203 -60.002 -15.999 -86.002s-21.334 -44 -32.001 -54l-15 -15c-10.667 -4 -21 -6 -31 -6l-32 6c18.667 36.667 28 88.334 28 155.001c16 5.33301 32.333 8 49 8c7.33301 0 15 -0.666992 23 -2
s14.333 -2.66602 19 -3.99902z" />
    <glyph glyph-name="gcommaaccent" unicode="&#x123;" 
d="M209 588c0 32 5.16699 61.168 15.5 87.501s20.833 44.5 31.5 54.5l16 16c10.667 4 21 6 31 6l32 -6c-18 -36.667 -27 -89.334 -27 -158.001c-16 -4.66699 -32.667 -7 -50 -7c-7.33301 0 -15 0.5 -23 1.5s-14.333 2.16699 -19 3.5zM316 -29.999l0.000976562 44.9961
c-0.666992 -0.666992 -4.66699 -2.66699 -12 -6s-18.666 -6.83301 -33.999 -10.5s-31 -5.5 -47 -5.5c-66 0 -113.667 14.833 -143 44.5s-44 73.834 -44 132.501v160c0 58.667 12.167 102.834 36.5 132.501s63.833 44.5 118.5 44.5c22 0 43.333 -3.16699 64 -9.5
s36 -12.5 46 -18.5l15 -9v26c25.333 5.33301 51.666 8 78.999 8c12 0 24.667 -0.666992 38 -2s23.666 -2.66602 30.999 -3.99902l11 -2v-526c0 -59.333 -19.5 -103.666 -58.5 -132.999s-102.833 -44 -191.5 -44c-27.333 0 -54.333 1.83301 -81 5.5s-46.667 7.16699 -60 10.5
l-19 5c-6.66699 13.333 -10 29.666 -10 48.999c0 5.33301 0.333008 10.833 1 16.5s1.5 10.334 2.5 14.001s2 7 3 10s1.83301 5.16699 2.5 6.5l1 3c0 -0.666992 6.5 -2.66699 19.5 -6s32.833 -6.83301 59.5 -10.5s53.667 -5.5 81 -5.5c34.667 0 58.5 5.83301 71.5 17.5
s19.5 32.167 19.5 61.5zM196.001 329.997v-160c0 -29.333 4 -49.833 12 -61.5s23 -17.5 45 -17.5c24 0 40.5 5.83301 49.5 17.5s13.5 32.167 13.5 61.5v211c-13.333 18.667 -35 28 -65 28c-21.333 0 -35.833 -5.83301 -43.5 -17.5s-11.5 -32.167 -11.5 -61.5z" />
    <glyph glyph-name="Hcircumflex" unicode="&#x124;" horiz-adv-x="622" 
d="M581 696v-692c-27.333 -5.33301 -55.333 -8 -84 -8c-12.667 0 -26 0.666992 -40 2s-25 2.66602 -33 3.99902l-11 2v298h-204v-298c-28 -5.33301 -56 -8 -84 -8c-12.667 0 -26 0.666992 -40 2s-25 2.66602 -33 3.99902l-11 2v692c27.333 5.33301 55.333 8 84 8
c12.667 0 26 -0.666992 40 -2s25 -2.66602 33 -3.99902l11 -2v-287h204v287c28 5.33301 56 8 84 8c12.667 0 26 -0.666992 40 -2s25 -2.66602 33 -3.99902zM385 754l-74.001 74.002l-74 -74c-15.333 -5.33301 -30.333 -8 -45 -8c-7.33301 0 -14.666 0.666992 -21.999 2
s-13 2.66602 -17 3.99902l-6 2l96 137c22 4.66699 44.333 7 67 7l69 -7l96 -137c-14 -5.33301 -29 -8 -45 -8c-6.66699 0 -13.667 0.666992 -21 2s-13 2.66602 -17 3.99902z" />
    <glyph glyph-name="hcircumflex" unicode="&#x125;" 
d="M200 696l0.000976562 -225.997c34 24.667 75.667 37 125 37c54.667 0 94.167 -14.833 118.5 -44.5s36.5 -73.834 36.5 -132.501v-326c-26.667 -5.33301 -53.334 -8 -80.001 -8c-12 0 -24.5 0.666992 -37.5 2s-23.167 2.66602 -30.5 3.99902l-11 2v326
c0 29.333 -4 49.833 -12 61.5s-22.667 17.5 -44 17.5c-13.333 0 -25.5 -2.33301 -36.5 -7s-18.5 -9.33398 -22.5 -14.001l-6 -7v-377c-26.667 -5.33301 -53.334 -8 -80.001 -8c-11.333 0 -23.666 0.666992 -36.999 2s-23.666 2.66602 -30.999 3.99902l-11 2v692
c26.667 5.33301 53 8 79 8c12 0 24.667 -0.666992 38 -2s23.666 -2.66602 30.999 -3.99902zM318.001 754.003l-74.001 74.002l-74 -74c-16 -5.33301 -31 -8 -45 -8c-7.33301 0 -14.666 0.666992 -21.999 2s-13 2.66602 -17 3.99902l-6 2l96 137c22 4.66699 44.333 7 67 7
l69 -7l96 -137c-14.667 -5.33301 -29.667 -8 -45 -8c-6.66699 0 -13.667 0.666992 -21 2s-13.333 2.66602 -18 3.99902z" />
    <glyph glyph-name="Hbar" unicode="&#x126;" horiz-adv-x="683" 
d="M654 504l-41.999 0.000976562v-500c-28 -5.33301 -56 -8 -84 -8c-12.667 0 -26 0.666992 -40 2s-24.667 2.66602 -32 3.99902l-12 2v298h-205v-298c-27.333 -5.33301 -55.333 -8 -84 -8c-12.667 0 -26 0.666992 -40 2s-25 2.66602 -33 3.99902l-11 2v500h-42
c-4.66699 12.667 -7 29 -7 49c0 8.66699 0.666992 17.167 2 25.5s2.66602 14.166 3.99902 17.499l1 6h42v94c28 5.33301 56 8 84 8c12.667 0 26 -0.666992 40 -2s25 -2.66602 33 -3.99902l11 -2v-94h205v94c27.333 5.33301 55.333 8 84 8c12.667 0 26 -0.666992 40 -2
s24.667 -2.66602 32 -3.99902l12 -2v-94h42c4.66699 -12.667 7 -29 7 -49c0 -8.66699 -0.5 -17 -1.5 -25s-2.16699 -14 -3.5 -18zM239.001 409.001h205v95h-205v-95z" />
    <glyph glyph-name="hbar" unicode="&#x127;" horiz-adv-x="548" 
d="M376 553l-144 0.00390625v-83c34 24.667 76 37 126 37c54.667 0 94 -14.833 118 -44.5s36 -73.834 36 -132.501v-326c-26.667 -5.33301 -53.334 -8 -80.001 -8c-12 0 -24.5 0.666992 -37.5 2s-23.167 2.66602 -30.5 3.99902l-11 2v326c0 29.333 -4 49.833 -12 61.5
s-22.333 17.5 -43 17.5c-13.333 0 -25.5 -2.33301 -36.5 -7s-18.833 -9.33398 -23.5 -14.001l-6 -7v-377c-26.667 -5.33301 -53 -8 -79 -8c-12 0 -24.667 0.666992 -38 2s-23.666 2.66602 -30.999 3.99902l-11 2v549h-43c-4 11.333 -6 26.333 -6 45c0 8 0.5 15.667 1.5 23
s1.83301 12.666 2.5 15.999l2 5h52l17 54c22 5.33301 44.333 8 67 8c10 0 20.5 -0.666992 31.5 -2s19.5 -2.66602 25.5 -3.99902l9 -2v-54h144c4 -12 6 -26.667 6 -44c0 -8 -0.5 -15.667 -1.5 -23s-1.83301 -13 -2.5 -17z" />
    <glyph glyph-name="Itilde" unicode="&#x128;" horiz-adv-x="342" 
d="M28 107h59v486h-59c-4 14 -6 31.667 -6 53c0 10 0.5 19.5 1.5 28.5s1.83301 15.5 2.5 19.5l2 6h286c4.66699 -14 7 -32 7 -54c0 -9.33301 -0.5 -18.5 -1.5 -27.5s-2.16699 -15.5 -3.5 -19.5l-2 -6h-59v-486h59c4.66699 -14 7 -32 7 -54c0 -9.33301 -0.5 -18.5 -1.5 -27.5
s-2.16699 -15.5 -3.5 -19.5l-2 -6h-286c-4 14 -6 31.667 -6 53c0 10 0.5 19.5 1.5 28.5s1.83301 15.5 2.5 19.5zM0 755l0.000976562 4.00195c0 39.333 6.16699 67.833 18.5 85.5s35.166 26.5 68.499 26.5c21.333 0 39.666 -2.83301 54.999 -8.5s26.5 -12 33.5 -19
s14.333 -13.333 22 -19s15.167 -8.5 22.5 -8.5c14 0 23.667 3.16699 29 9.5s8 17.5 8 33.5v5c14.667 4.66699 29 7 43 7c6 0 12.667 -0.5 20 -1.5s13 -2.16699 17 -3.5l6 -2v-4c0 -40 -6.16699 -68.833 -18.5 -86.5s-35.5 -26.5 -69.5 -26.5
c-26.667 0 -48.667 4.66699 -66 14s-30.666 18.666 -39.999 27.999s-18.333 14 -27 14c-14 0 -23.667 -3.16699 -29 -9.5s-8 -17.5 -8 -33.5v-5c-14.667 -5.33301 -29 -8 -43 -8c-6 0 -12.5 0.666992 -19.5 2s-12.5 2.66602 -16.5 3.99902z" />
    <glyph glyph-name="itilde" unicode="&#x129;" horiz-adv-x="241" 
d="M-51 584l0.000976562 4c0 39.333 6.33301 68 19 86s35.334 27 68.001 27c21.333 0 39.666 -2.83301 54.999 -8.5s26.5 -12 33.5 -19s14.5 -13.333 22.5 -19s15.667 -8.5 23 -8.5c14 0 23.667 3.16699 29 9.5s8 17.5 8 33.5v5c14 4.66699 28.333 7 43 7
c6 0 12.5 -0.5 19.5 -1.5s12.5 -2.16699 16.5 -3.5l6 -2v-4c0 -40 -6 -68.833 -18 -86.5s-35 -26.5 -69 -26.5c-26.667 0 -48.667 4.5 -66 13.5s-30.833 18.167 -40.5 27.5s-18.834 14 -27.501 14c-14 0 -23.667 -3 -29 -9s-8 -17.333 -8 -34v-5
c-14 -4.66699 -28.333 -7 -43 -7c-6 0 -12.5 0.5 -19.5 1.5s-12.5 2.16699 -16.5 3.5zM200.001 496v-492c-26.667 -5.33301 -53.334 -8 -80.001 -8c-11.333 0 -23.666 0.666992 -36.999 2s-23.666 2.66602 -30.999 3.99902l-11 2v492c26.667 5.33301 53 8 79 8
c12 0 24.667 -0.666992 38 -2s23.666 -2.66602 30.999 -3.99902z" />
    <glyph glyph-name="Imacron" unicode="&#x12a;" horiz-adv-x="342" 
d="M28 107h59v486h-59c-4 14 -6 31.667 -6 53c0 10 0.5 19.5 1.5 28.5s1.83301 15.5 2.5 19.5l2 6h286c4.66699 -14 7 -32 7 -54c0 -9.33301 -0.5 -18.5 -1.5 -27.5s-2.16699 -15.5 -3.5 -19.5l-2 -6h-59v-486h59c4.66699 -14 7 -32 7 -54c0 -9.33301 -0.5 -18.5 -1.5 -27.5
s-2.16699 -15.5 -3.5 -19.5l-2 -6h-286c-4 14 -6 31.667 -6 53c0 10 0.5 19.5 1.5 28.5s1.83301 15.5 2.5 19.5zM313 771h-285c-4 8.66699 -6 20.667 -6 36c0 6 0.5 12 1.5 18s1.83301 10.333 2.5 13l2 5h285c4 -10 6 -22 6 -36c0 -6.66699 -0.5 -13 -1.5 -19
s-2.16699 -10.333 -3.5 -13z" />
    <glyph glyph-name="imacron" unicode="&#x12b;" horiz-adv-x="241" 
d="M263 585h-284c-4.66699 8.66699 -7 20.667 -7 36c0 6 0.666992 12 2 18s2.66602 10.333 3.99902 13l1 5h284c4.66699 -10 7 -22 7 -36c0 -6.66699 -0.666992 -13 -2 -19s-2.66602 -10.333 -3.99902 -13zM200 496v-492c-26.667 -5.33301 -53.334 -8 -80.001 -8
c-11.333 0 -23.666 0.666992 -36.999 2s-23.666 2.66602 -30.999 3.99902l-11 2v492c26.667 5.33301 53 8 79 8c12 0 24.667 -0.666992 38 -2s23.666 -2.66602 30.999 -3.99902z" />
    <glyph glyph-name="Ibreve" unicode="&#x12c;" horiz-adv-x="342" 
d="M28 107h59v486h-59c-4 14 -6 31.667 -6 53c0 10 0.5 19.5 1.5 28.5s1.83301 15.5 2.5 19.5l2 6h286c4.66699 -14 7 -32 7 -54c0 -9.33301 -0.5 -18.5 -1.5 -27.5s-2.16699 -15.5 -3.5 -19.5l-2 -6h-59v-486h59c4.66699 -14 7 -32 7 -54c0 -9.33301 -0.5 -18.5 -1.5 -27.5
s-2.16699 -15.5 -3.5 -19.5l-2 -6h-286c-4 14 -6 31.667 -6 53c0 10 0.5 19.5 1.5 28.5s1.83301 15.5 2.5 19.5zM171 746c-60 0 -101.335 10.167 -124.002 30.5s-34 51.833 -34 94.5v9c17.333 4.66699 34.333 7 51 7c8 0 16.333 -0.5 25 -1.5s15.334 -2.16699 20.001 -3.5
l7 -2v-11c0 -20.667 3.83301 -35 11.5 -43s22.167 -12 43.5 -12s35.833 4 43.5 12s11.5 22.333 11.5 43v11c17.333 4.66699 34.333 7 51 7c8 0 16.333 -0.5 25 -1.5s15.334 -2.16699 20.001 -3.5l7 -2v-9c0 -42.667 -11.333 -74.167 -34 -94.5s-64 -30.5 -124 -30.5z" />
    <glyph glyph-name="ibreve" unicode="&#x12d;" horiz-adv-x="241" 
d="M120 562c-60 0 -101.169 9.99805 -123.502 29.998s-33.5 51.333 -33.5 94v9c16.667 5.33301 33.334 8 50.001 8c8 0 16.333 -0.666992 25 -2s15.334 -2.66602 20.001 -3.99902l7 -2v-10c0 -20.667 4 -35 12 -43s22.333 -12 43 -12c21.333 0 36 4 44 12s12 22.333 12 43
v10c16.667 5.33301 33.667 8 51 8c8 0 16.167 -0.666992 24.5 -2s14.833 -2.66602 19.5 -3.99902l7 -2v-9c0 -42.667 -11.167 -74 -33.5 -94s-63.833 -30 -124.5 -30zM199.998 495.998v-492c-26.667 -5.33301 -53.334 -8 -80.001 -8c-11.333 0 -23.666 0.666992 -36.999 2
s-23.666 2.66602 -30.999 3.99902l-11 2v492c26.667 5.33301 53 8 79 8c12 0 24.667 -0.666992 38 -2s23.666 -2.66602 30.999 -3.99902z" />
    <glyph glyph-name="Iogonek" unicode="&#x12e;" horiz-adv-x="342" 
d="M169 -94c0 32.667 16.999 64.001 50.999 94.001h-192c-4 14 -6 31.667 -6 53c0 10 0.5 19.5 1.5 28.5s1.83301 15.5 2.5 19.5l2 6h59v486h-59c-4 14 -6 31.667 -6 53c0 10 0.5 19.5 1.5 28.5s1.83301 15.5 2.5 19.5l2 6h286c4.66699 -14 7 -32 7 -54
c0 -9.33301 -0.5 -18.5 -1.5 -27.5s-2.16699 -15.5 -3.5 -19.5l-2 -6h-59v-486h59c4.66699 -14 7 -32 7 -54c0 -9.33301 -0.5 -18.5 -1.5 -27.5s-2.16699 -15.5 -3.5 -19.5l-2 -6h-29c-21.333 -30.667 -32 -58.334 -32 -83.001c0 -20.667 9.66699 -31 29 -31
c6 0 11.833 0.833008 17.5 2.5s9.83398 3.5 12.501 5.5l4 2c3.33301 -8 5 -17 5 -27l-5 -26c-12.667 -11.333 -32.667 -17 -60 -17c-58 0 -87 26.667 -87 80z" />
    <glyph glyph-name="iogonek" unicode="&#x12f;" horiz-adv-x="241" 
d="M59 -94c0 30.667 15.667 60.666 47 89.999l-65 8v492c26.667 5.33301 53 8 79 8c12 0 24.667 -0.666992 38 -2s23.666 -2.66602 30.999 -3.99902l11 -2v-492c-8 -2 -17 -3.33301 -27 -4c-20 -31.333 -30 -59 -30 -83c0 -20.667 9.66699 -31 29 -31
c5.33301 0 10.833 0.833008 16.5 2.5s10.167 3.5 13.5 5.5l4 2c2.66699 -8 4 -17 4 -27l-4 -26c-13.333 -11.333 -33.666 -17 -60.999 -17c-57.333 0 -86 26.667 -86 80zM200 695.999v-122.001c-26.667 -4.66699 -53.334 -7 -80.001 -7c-11.333 0 -23.666 0.5 -36.999 1.5
s-23.666 2.16699 -30.999 3.5l-11 2v122c26.667 5.33301 53 8 79 8c12 0 24.667 -0.666992 38 -2s23.666 -2.66602 30.999 -3.99902z" />
    <glyph glyph-name="Idotaccent" unicode="&#x130;" horiz-adv-x="342" 
d="M28 107h59v486h-59c-4 14 -6 31.667 -6 53c0 10 0.5 19.5 1.5 28.5s1.83301 15.5 2.5 19.5l2 6h286c4.66699 -14 7 -32 7 -54c0 -9.33301 -0.5 -18.5 -1.5 -27.5s-2.16699 -15.5 -3.5 -19.5l-2 -6h-59v-486h59c4.66699 -14 7 -32 7 -54c0 -9.33301 -0.5 -18.5 -1.5 -27.5
s-2.16699 -15.5 -3.5 -19.5l-2 -6h-286c-4 14 -6 31.667 -6 53c0 10 0.5 19.5 1.5 28.5s1.83301 15.5 2.5 19.5zM251 877v-122c-26.667 -5.33301 -53.334 -8 -80.001 -8c-12 0 -24.667 0.666992 -38 2s-23.666 2.66602 -30.999 3.99902l-11 2v122
c26.667 4.66699 53.334 7 80.001 7c12 0 24.667 -0.666992 38 -2s23.666 -2.66602 30.999 -3.99902z" />
    <glyph glyph-name="dotlessi" unicode="&#x131;" horiz-adv-x="241" 
d="M200 496v-492c-26.667 -5.33301 -53.334 -8 -80.001 -8c-11.333 0 -23.666 0.666992 -36.999 2s-23.666 2.66602 -30.999 3.99902l-11 2v492c26.667 5.33301 53 8 79 8c12 0 24.667 -0.666992 38 -2s23.666 -2.66602 30.999 -3.99902z" />
    <glyph glyph-name="IJ" unicode="&#x132;" horiz-adv-x="762" 
d="M28 107h59v486h-59c-4 14 -6 31.667 -6 53c0 10 0.5 19.5 1.5 28.5s1.83301 15.5 2.5 19.5l2 6h286c4.66699 -14 7 -32 7 -54c0 -9.33301 -0.5 -18.5 -1.5 -27.5s-2.16699 -15.5 -3.5 -19.5l-2 -6h-59v-486h59c4.66699 -14 7 -32 7 -54c0 -9.33301 -0.5 -18.5 -1.5 -27.5
s-2.16699 -15.5 -3.5 -19.5l-2 -6h-286c-4 14 -6 31.667 -6 53c0 10 0.5 19.5 1.5 28.5s1.83301 15.5 2.5 19.5zM721 700l-0.000976562 -507c0 -64.667 -18.667 -113.5 -56 -146.5s-98.666 -49.5 -183.999 -49.5c-18 0 -35.5 1.16699 -52.5 3.5s-29.167 4.83301 -36.5 7.5
l-12 4c-6.66699 14.667 -10 33 -10 55c0 9.33301 0.833008 18.333 2.5 27s3.5 14.667 5.5 18l2 6c26.667 -10.667 59.667 -16 99 -16c28 0 47.333 7 58 21s16 37.333 16 70v400h-83c-4 14 -6 31.667 -6 53c0 10 0.5 19.5 1.5 28.5s1.83301 15.5 2.5 19.5l2 6h251z" />
    <glyph glyph-name="ij" unicode="&#x133;" horiz-adv-x="482" 
d="M200 496v-492c-26.667 -5.33301 -53.334 -8 -80.001 -8c-11.333 0 -23.666 0.666992 -36.999 2s-23.666 2.66602 -30.999 3.99902l-11 2v492c26.667 5.33301 53 8 79 8c12 0 24.667 -0.666992 38 -2s23.666 -2.66602 30.999 -3.99902zM200 696v-122.001
c-26.667 -4.66699 -53.334 -7 -80.001 -7c-11.333 0 -23.666 0.5 -36.999 1.5s-23.666 2.16699 -30.999 3.5l-11 2v122c26.667 5.33301 53 8 79 8c12 0 24.667 -0.666992 38 -2s23.666 -2.66602 30.999 -3.99902zM282 -42.001l-0.00390625 537.997
c26.667 5.33301 53.334 8 80.001 8c12 0 24.667 -0.666992 38 -2s23.666 -2.66602 30.999 -3.99902l11 -2v-538c0 -55.333 -11.667 -96.666 -35 -123.999s-61.666 -41 -114.999 -41c-11.333 0 -22.666 0.5 -33.999 1.5s-21.166 2.33301 -29.499 4
s-15.666 3.33398 -21.999 5.00098s-11.5 3.16699 -15.5 4.5l-6 1c-4 14 -6 29 -6 45l6 44c9.33301 -4.66699 25 -7 47 -7c19.333 0 32.5 5 39.5 15s10.5 27.333 10.5 52zM441.996 695.996v-122.001c-26.667 -4.66699 -53.334 -7 -80.001 -7c-12 0 -24.667 0.5 -38 1.5
s-23.666 2.16699 -30.999 3.5l-11 2v122c26.667 5.33301 53.334 8 80.001 8c12 0 24.667 -0.666992 38 -2s23.666 -2.66602 30.999 -3.99902z" />
    <glyph glyph-name="Jcircumflex" unicode="&#x134;" horiz-adv-x="470" 
d="M429 696l-0.000976562 -504.002c0 -66.667 -18.833 -116.5 -56.5 -149.5s-99.834 -49.5 -186.501 -49.5c-26 0 -51.5 3.16699 -76.5 9.5s-43.5 12.833 -55.5 19.5l-17 10c-6 14.667 -9 33.334 -9 56.001c0 6 0.333008 12 1 18s1.33398 11 2.00098 15s1.5 7.5 2.5 10.5
s1.83301 5.16699 2.5 6.5l1 3c0 -1.33301 5.83301 -5 17.5 -11s29.834 -12.5 54.501 -19.5s49.667 -10.5 75 -10.5c29.333 0 49.5 6.66699 60.5 20s16.5 37.333 16.5 72v504c28 5.33301 56 8 84 8c12.667 0 26 -0.666992 40 -2s25 -2.66602 33 -3.99902zM418.999 753.998
l-74.002 74.001l-74 -74c-15.333 -5.33301 -30.333 -8 -45 -8c-7.33301 0 -14.666 0.666992 -21.999 2s-13 2.66602 -17 3.99902l-6 2l96 137c22 4.66699 44.333 7 67 7c10 0 20.833 -0.666992 32.5 -2s20.834 -2.66602 27.501 -3.99902l9 -1l96 -137
c-14 -5.33301 -29 -8 -45 -8c-6 0 -12.833 0.666992 -20.5 2s-13.5 2.66602 -17.5 3.99902z" />
    <glyph glyph-name="jcircumflex" unicode="&#x135;" horiz-adv-x="252" 
d="M51 -42l-0.00390625 537.997c26.667 5.33301 53.334 8 80.001 8c12 0 24.667 -0.666992 38 -2s23.666 -2.66602 30.999 -3.99902l11 -2v-538c0 -55.333 -11.667 -96.666 -35 -123.999s-61.666 -41 -114.999 -41c-11.333 0 -22.666 0.5 -33.999 1.5
s-21.166 2.33301 -29.499 4s-15.666 3.33398 -21.999 5.00098s-11.5 3.16699 -15.5 4.5l-6 1c-4 14 -6 29 -6 45l6 44c9.33301 -4.66699 25 -7 47 -7c19.333 0 32.5 5 39.5 15s10.5 27.333 10.5 52zM200.996 558.997l-74.001 74.001l-74 -74c-16 -4.66699 -31 -7 -45 -7
c-7.33301 0 -14.666 0.666992 -21.999 2s-13 2.66602 -17 3.99902l-6 1l96 137c22 5.33301 44.333 8 67 8c10 0 20.667 -0.666992 32 -2s20.333 -2.66602 27 -3.99902l10 -2l96 -137c-14.667 -4.66699 -29.667 -7 -45 -7c-6.66699 0 -13.667 0.666992 -21 2
s-13 2.66602 -17 3.99902z" />
    <glyph glyph-name="Kcommaaccent" unicode="&#x136;" horiz-adv-x="594" 
d="M407 4l-161.999 299l-36 -9v-290c-28.667 -5.33301 -56.667 -8 -84 -8c-12.667 0 -26 0.666992 -40 2s-25 2.66602 -33 3.99902l-11 2v692c27.333 5.33301 55.333 8 84 8c12 0 25 -0.666992 39 -2s25 -2.66602 33 -3.99902l12 -2v-288l36 9l150 279
c30 5.33301 59.333 8 88 8c12.667 0 26 -0.666992 40 -2s25 -2.66602 33 -3.99902l11 -2l-175 -336l190 -356c-30 -5.33301 -59 -8 -87 -8c-12 0 -25.333 0.666992 -40 2s-26.334 2.66602 -35.001 3.99902zM353.001 -42c0 -20 -2.16602 -38.833 -6.49902 -56.5
s-9.5 -32.334 -15.5 -44.001s-12.167 -21.834 -18.5 -30.501s-11.833 -15 -16.5 -19l-6 -5c-10.667 -4 -21.334 -6 -32.001 -6l-31 6c18.667 36.667 28 88.334 28 155.001c16 5.33301 32.333 8 49 8c7.33301 0 15 -0.666992 23 -2s14.333 -2.66602 19 -3.99902z" />
    <glyph glyph-name="kcommaaccent" unicode="&#x137;" horiz-adv-x="514" 
d="M336 4l-116 201l-20 -5v-196c-26.667 -5.33301 -53.334 -8 -80.001 -8c-11.333 0 -23.666 0.666992 -36.999 2s-23.666 2.66602 -30.999 3.99902l-11 2v692c26.667 5.33301 53 8 79 8c12 0 24.667 -0.666992 38 -2s23.666 -2.66602 30.999 -3.99902l11 -2v-391l20 6
l104 185c28.667 5.33301 56.667 8 84 8c12 0 24.5 -0.666992 37.5 -2s23.167 -2.66602 30.5 -3.99902l11 -2l-132 -236l147 -256c-28 -5.33301 -55.333 -8 -82 -8c-12 0 -25 0.666992 -39 2s-25 2.66602 -33 3.99902zM315 -42c0 -20 -2.16602 -38.833 -6.49902 -56.5
s-9.5 -32.334 -15.5 -44.001s-12.167 -21.834 -18.5 -30.501s-11.833 -15 -16.5 -19l-6 -5c-10.667 -4 -21.334 -6 -32.001 -6l-31 6c18.667 36.667 28 88.334 28 155.001c16 5.33301 32.333 8 49 8c7.33301 0 15 -0.666992 23 -2s14.333 -2.66602 19 -3.99902z" />
    <glyph glyph-name="Lacute" unicode="&#x139;" horiz-adv-x="480" 
d="M209 696v-589.001h243c4.66699 -14 7 -32 7 -54c0 -9.33301 -0.5 -18.5 -1.5 -27.5s-2.16699 -15.5 -3.5 -19.5l-2 -6h-191c-39.333 0 -77.333 0.833008 -114 2.5s-63.667 3.5 -81 5.5l-25 2v686c27.333 5.33301 55.333 8 84 8c12.667 0 26 -0.666992 40 -2
s25 -2.66602 33 -3.99902zM296 891.999l-146.002 -138c-15.333 -5.33301 -30.333 -8 -45 -8c-7.33301 0 -14.666 0.666992 -21.999 2s-13 2.66602 -17 3.99902l-6 2l92 138c22.667 5.33301 46.334 8 71.001 8c10.667 0 22 -0.666992 34 -2s21.667 -2.66602 29 -3.99902z" />
    <glyph glyph-name="lacute" unicode="&#x13a;" horiz-adv-x="281" 
d="M238 91c7.33301 0 15.668 1.33105 25.001 3.99805c3.33301 -13.333 5 -27.666 5 -42.999l-5 -43c-28 -10.667 -56.333 -16 -85 -16c-48.667 0 -83.667 12.333 -105 37s-32 61.667 -32 111v555c26.667 5.33301 53 8 79 8c12 0 24.667 -0.666992 38 -2
s23.666 -2.66602 30.999 -3.99902l11 -2v-555c0 -18.667 2.66699 -31.667 8 -39s15.333 -11 30 -11zM266.002 891.998l-145 -138c-16 -5.33301 -31.333 -8 -46 -8c-6.66699 0 -13.834 0.666992 -21.501 2s-13.5 2.66602 -17.5 3.99902l-6 2l92 138
c22.667 5.33301 46.334 8 71.001 8c10.667 0 22 -0.666992 34 -2s21.667 -2.66602 29 -3.99902z" />
    <glyph glyph-name="Lcommaaccent" unicode="&#x13b;" horiz-adv-x="480" 
d="M209 696v-589.001h243c4.66699 -14 7 -32 7 -54c0 -9.33301 -0.5 -18.5 -1.5 -27.5s-2.16699 -15.5 -3.5 -19.5l-2 -6h-191c-39.333 0 -77.333 0.833008 -114 2.5s-63.667 3.5 -81 5.5l-25 2v686c27.333 5.33301 55.333 8 84 8c12.667 0 26 -0.666992 40 -2
s25 -2.66602 33 -3.99902zM303 -42.001c0 -20 -2.16602 -38.833 -6.49902 -56.5s-9.5 -32.334 -15.5 -44.001s-12.167 -21.834 -18.5 -30.501s-11.833 -15 -16.5 -19l-6 -5c-10.667 -4 -21.334 -6 -32.001 -6l-31 6c18.667 36.667 28 88.334 28 155.001
c16 5.33301 32.333 8 49 8c7.33301 0 15 -0.666992 23 -2s14.333 -2.66602 19 -3.99902z" />
    <glyph glyph-name="lcommaaccent" unicode="&#x13c;" horiz-adv-x="281" 
d="M238 91c7.33301 0 15.668 1.33105 25.001 3.99805c3.33301 -13.333 5 -27.666 5 -42.999l-5 -43c-28 -10.667 -56.333 -16 -85 -16c-48.667 0 -83.667 12.333 -105 37s-32 61.667 -32 111v555c26.667 5.33301 53 8 79 8c12 0 24.667 -0.666992 38 -2
s23.666 -2.66602 30.999 -3.99902l11 -2v-555c0 -18.667 2.66699 -31.667 8 -39s15.333 -11 30 -11zM204.002 -42.002c0 -31.333 -5.33203 -60.002 -15.999 -86.002s-21.334 -44 -32.001 -54l-15 -15c-10.667 -4 -21 -6 -31 -6l-32 6c18.667 36.667 28 88.334 28 155.001
c16 5.33301 32.333 8 49 8c7.33301 0 15 -0.666992 23 -2s14.333 -2.66602 19 -3.99902z" />
    </font>
</defs>
</svg>
