<?xml version="1.0" encoding="UTF-8" standalone="no"?>
<svg width="60px" height="54px" viewBox="0 0 60 54" version="1.1" xmlns="http://www.w3.org/2000/svg" xmlns:xlink="http://www.w3.org/1999/xlink">
    <!-- Generator: Sketch 49.1 (51147) - http://www.bohemiancoding.com/sketch -->
    <title>icon_pr</title>
    <desc>Created with Sketch.</desc>
    <defs></defs>
    <g id="Peperoncino" stroke="none" stroke-width="1" fill="none" fill-rule="evenodd" stroke-linecap="round" stroke-linejoin="round">
        <g id="1.-Peperoncino---Homepage" transform="translate(-1373.000000, -1464.000000)" stroke="#E30613" stroke-width="2">
            <g id="What-we-can-do" transform="translate(390.000000, 980.000000)">
                <g id="8" transform="translate(884.000000, 420.000000)">
                    <g id="icon_pr" transform="translate(100.000000, 65.000000)">
                        <path d="M12,40 L2,40 C0.9,40 0,39.1 0,38 L0,2 C0,0.9 0.9,0 2,0 L56,0 C57.1,0 58,0.9 58,2 L58,38 C58,39.1 57.1,40 56,40 L22,40" id="Stroke-1"></path>
                        <polyline id="Stroke-3" points="22 40 12 52 12 40"></polyline>
                        <path d="M32,17 L39.595,17 C40.458,17 41.086,17.691 40.99,18.536 L38.143,29.463 C38.047,30.309 37.263,31 36.4,31 L28.875,31 C28.012,31 26.764,30.554 26.101,30.011 L23,28 L19,28" id="Stroke-5"></path>
                        <path d="M32,11 L32,17" id="Stroke-7"></path>
                        <path d="M32,11 C32,9.467 31.438,8 29.437,8 C28.429,8 27.312,9.093 27.036,9.964 C26.76,10.832 24.938,17 24.938,17 L19,17" id="Stroke-9"></path>
                        <path d="M19,15 L19,30" id="Stroke-11"></path>
                    </g>
                </g>
            </g>
        </g>
    </g>
</svg>