<?xml version="1.0" encoding="UTF-8" standalone="no"?>
<svg width="60px" height="61px" viewBox="0 0 60 61" version="1.1" xmlns="http://www.w3.org/2000/svg" xmlns:xlink="http://www.w3.org/1999/xlink">
    <!-- Generator: Sketch 49.1 (51147) - http://www.bohemiancoding.com/sketch -->
    <title>icon_creative</title>
    <desc>Created with Sketch.</desc>
    <defs></defs>
    <g id="Peperoncino" stroke="none" stroke-width="1" fill="none" fill-rule="evenodd" stroke-linecap="round" stroke-linejoin="round">
        <g id="1.-Peperoncino---Homepage" transform="translate(-489.000000, -1461.000000)" stroke="#E30613" stroke-width="2">
            <g id="What-we-can-do" transform="translate(390.000000, 980.000000)">
                <g id="5" transform="translate(0.000000, 420.000000)">
                    <g id="icon_creative" transform="translate(100.000000, 62.000000)">
                        <path d="M20.999,42.0488 C20.999,42.0488 21.253,39.1738 19.697,37.7148" id="Stroke-1"></path>
                        <path d="M36.9961,42.0488 C36.9961,42.0488 36.7421,39.1138 38.2991,37.7148" id="Stroke-3"></path>
                        <path d="M56,0 L50,6" id="Stroke-5"></path>
                        <path d="M56,0 L50,6" id="Stroke-7"></path>
                        <path d="M56,43 L50,36.999" id="Stroke-9"></path>
                        <path d="M56,43 L50,36.999" id="Stroke-11"></path>
                        <path d="M58,22 L54,22" id="Stroke-13"></path>
                        <path d="M58,22 L54,22" id="Stroke-15"></path>
                        <path d="M2,43 L8,37" id="Stroke-17"></path>
                        <path d="M2,43 L8,37" id="Stroke-19"></path>
                        <path d="M2,0 L8,6.001" id="Stroke-21"></path>
                        <path d="M2,0 L8,6.001" id="Stroke-23"></path>
                        <path d="M0,21 L4,21" id="Stroke-25"></path>
                        <path d="M0,21 L4,21" id="Stroke-27"></path>
                        <path d="M19.6973,37.7148 C14.5213,33.8478 10.9983,28.4878 10.9983,21.6988 C10.9983,11.3708 19.0553,2.9998 28.9973,2.9998" id="Stroke-29"></path>
                        <path d="M38.2988,37.7148 C43.4748,33.8478 46.9978,28.4878 46.9978,21.6988 C46.9978,11.3708 38.9408,2.9998 28.9968,2.9998" id="Stroke-31"></path>
                        <path d="M28.9971,59 C21.9121,59 20.9991,53.094 20.9991,53.094 L20.9991,42.049" id="Stroke-33"></path>
                        <path d="M28.9971,59 C36.0841,59 36.9961,53.094 36.9961,53.094 L36.9961,42.049" id="Stroke-35"></path>
                        <path d="M20.998,44.9551 C20.998,44.9551 29.031,49.5561 36.998,44.9551" id="Stroke-37"></path>
                    </g>
                </g>
            </g>
        </g>
    </g>
</svg>