<?xml version="1.0" encoding="UTF-8" standalone="no"?>
<svg width="47px" height="60px" viewBox="0 0 47 60" version="1.1" xmlns="http://www.w3.org/2000/svg" xmlns:xlink="http://www.w3.org/1999/xlink">
    <!-- Generator: Sketch 49.1 (51147) - http://www.bohemiancoding.com/sketch -->
    <title>icon_brand creation</title>
    <desc>Created with Sketch.</desc>
    <defs></defs>
    <g id="Peperoncino" stroke="none" stroke-width="1" fill="none" fill-rule="evenodd" stroke-linecap="round" stroke-linejoin="round">
        <g id="1.-Peperoncino---Homepage" transform="translate(-789.000000, -1173.000000)" stroke="#E30613" stroke-width="2">
            <g id="What-we-can-do" transform="translate(390.000000, 980.000000)">
                <g id="2" transform="translate(294.000000, 132.000000)">
                    <g id="icon_brand-creation" transform="translate(106.000000, 62.000000)">
                        <path d="M35,30 L38,30 C42.178,30 45,33 45,37 C45,41 42.178,44 38,44 L35,44" id="Stroke-1"></path>
                        <path d="M35,53 C35,55.938 32.786,58 30,58 L8,58 C5.214,58 3,55.784 3,53 L3,26 L35,26 L35,53 Z" id="Stroke-3"></path>
                        <path d="M35.6142,0.1612 C38.2162,4.1292 34.3602,6.3072 33.4622,8.4372 C32.5122,10.6932 33.4362,12.8552 35.6942,13.8052 C43.0082,16.8892 45.1842,2.4772 35.6142,0.1612 Z" id="Stroke-5"></path>
                        <path d="M27.917,26 L35.001,13.292" id="Stroke-7"></path>
                        <path d="M37.5508,14.2354 L33.0928,25.9994" id="Stroke-9"></path>
                        <polygon id="Stroke-11" points="13 26 5 26 1 18 0 10 7 14"></polygon>
                        <path d="M1,18 L7,14" id="Stroke-13"></path>
                        <polygon id="Stroke-15" points="15 26 27 26 27 0 15 0"></polygon>
                        <path d="M27,6 L21,6" id="Stroke-17"></path>
                        <path d="M27,10 L23,10" id="Stroke-18"></path>
                        <path d="M27,14 L21,14" id="Stroke-19"></path>
                        <path d="M27,20 L23,20" id="Stroke-20"></path>
                    </g>
                </g>
            </g>
        </g>
    </g>
</svg>