<?xml version="1.0" encoding="UTF-8" standalone="no"?>
<svg width="56px" height="60px" viewBox="0 0 56 60" version="1.1" xmlns="http://www.w3.org/2000/svg" xmlns:xlink="http://www.w3.org/1999/xlink">
    <!-- Generator: Sketch 49.1 (51147) - http://www.bohemiancoding.com/sketch -->
    <title>icon_atl btl</title>
    <desc>Created with Sketch.</desc>
    <defs></defs>
    <g id="Peperoncino" stroke="none" stroke-width="1" fill="none" fill-rule="evenodd" stroke-linecap="round" stroke-linejoin="round">
        <g id="1.-Peperoncino---Homepage" transform="translate(-785.000000, -1461.000000)" stroke="#E30613" stroke-width="2">
            <g id="What-we-can-do" transform="translate(390.000000, 980.000000)">
                <g id="6" transform="translate(294.000000, 420.000000)">
                    <g id="icon_atl-btl" transform="translate(102.000000, 62.000000)">
                        <path d="M32.9248,1.077 C29.8478,-1.999 21.1218,1.739 13.4308,9.431 C5.7368,17.122 1.9968,25.847 5.0738,28.923 C8.1498,31.998 16.8788,28.261 24.5708,20.569 C32.2648,12.88 36.0028,4.153 32.9248,1.077 Z" id="Stroke-1"></path>
                        <path d="M33.79,49.2484 C35.94,51.3954 42.038,48.7824 47.408,43.4114 C52.783,38.0384 55.396,31.9444 53.248,29.7954" id="Stroke-3"></path>
                        <path d="M33.7939,49.243 L5.0739,28.923" id="Stroke-5"></path>
                        <path d="M32.9248,1.077 L53.2528,29.792" id="Stroke-7"></path>
                        <path d="M6,40.0008 C6,40.0008 12,46.3308 12,52.1378 C12,55.3758 9.314,58.0008 6,58.0008 C2.686,58.0008 0,55.3758 0,52.1378 C0,46.3308 6,40.0008 6,40.0008" id="Stroke-9"></path>
                        <path d="M41.958,1.9578 C48.613,1.9578 54,7.3488 54,14.0008 C54,20.6508 48.613,26.0418 41.958,26.0418 L30,26.0418" id="Stroke-11"></path>
                        <path d="M41.958,1.9578 L34.015,1.9578" id="Stroke-13"></path>
                    </g>
                </g>
            </g>
        </g>
    </g>
</svg>