<?xml version="1.0" encoding="UTF-8" standalone="no"?>
<svg width="63px" height="63px" viewBox="0 0 63 63" version="1.1" xmlns="http://www.w3.org/2000/svg" xmlns:xlink="http://www.w3.org/1999/xlink">
    <!-- Generator: Sketch 49.1 (51147) - http://www.bohemiancoding.com/sketch -->
    <title>icon_integration</title>
    <desc>Created with Sketch.</desc>
    <defs></defs>
    <g id="Peperoncino" stroke="none" stroke-width="1" fill="none" fill-rule="evenodd" stroke-linecap="round" stroke-linejoin="round">
        <g id="1.-Peperoncino---Homepage" transform="translate(-1371.000000, -1172.000000)" stroke="#E30613" stroke-width="2">
            <g id="What-we-can-do" transform="translate(390.000000, 980.000000)">
                <g id="4" transform="translate(884.000000, 132.000000)">
                    <g id="icon_integration" transform="translate(98.000000, 61.000000)">
                        <path d="M50,44 L50,50" id="Stroke-1"></path>
                        <path d="M56,50 L50,50" id="Stroke-2"></path>
                        <path d="M61,50 C61,56.076 56.076,61 50,61 C43.928,61 39,56.076 39,50 C39,43.924 43.928,39 50,39 C56.076,39 61,43.924 61,50 Z" id="Stroke-3"></path>
                        <path d="M33,50 L9.91,50 C8.857,50 8,49.141 8,48.09 L8,9.908 C8,8.859 8.857,8 9.91,8 L48.092,8 C49.141,8 50,8.859 50,9.908 L50,33" id="Stroke-5"></path>
                        <path d="M29,8 L29,0" id="Stroke-7"></path>
                        <path d="M13,8 L13,0" id="Stroke-9"></path>
                        <path d="M45,8 L45,0" id="Stroke-11"></path>
                        <path d="M29,58 L29,50" id="Stroke-13"></path>
                        <path d="M13,58 L13,50" id="Stroke-15"></path>
                        <path d="M50,29 L58,29" id="Stroke-17"></path>
                        <path d="M50,13 L58,13" id="Stroke-19"></path>
                        <path d="M0,29 L8,29" id="Stroke-21"></path>
                        <path d="M0,13 L8,13" id="Stroke-23"></path>
                        <path d="M0,45 L8,45" id="Stroke-25"></path>
                        <polygon id="Stroke-27" points="21 37 37 37 37 21 21 21"></polygon>
                    </g>
                </g>
            </g>
        </g>
    </g>
</svg>