<?xml version="1.0" encoding="UTF-8" standalone="no"?>
<svg width="60px" height="54px" viewBox="0 0 60 54" version="1.1" xmlns="http://www.w3.org/2000/svg" xmlns:xlink="http://www.w3.org/1999/xlink">
    <!-- Generator: Sketch 49.1 (51147) - http://www.bohemiancoding.com/sketch -->
    <title>icon_video</title>
    <desc>Created with Sketch.</desc>
    <defs></defs>
    <g id="Peperoncino" stroke="none" stroke-width="1" fill="none" fill-rule="evenodd" stroke-linecap="round" stroke-linejoin="round">
        <g id="1.-Peperoncino---Homepage" transform="translate(-1078.000000, -1464.000000)" stroke="#E30613" stroke-width="2">
            <g id="What-we-can-do" transform="translate(390.000000, 980.000000)">
                <g id="7" transform="translate(589.000000, 420.000000)">
                    <g id="icon_video" transform="translate(100.000000, 65.000000)">
                        <path d="M42,43 L42,51 C42,51.55 41.55,52 41,52 L1,52 C0.45,52 0,51.55 0,51 L0,23 C0,22.45 0.45,22 1,22 L41,22 C41.55,22 42,22.45 42,23 L42,31" id="Stroke-1"></path>
                        <polyline id="Stroke-3" points="42 43 58 49 58 25 42 31"></polyline>
                        <path d="M42,10 C42,15.523 37.523,20 32,20 C26.477,20 22,15.523 22,10 C22,4.479 26.477,0 32,0 C37.523,0 42,4.479 42,10 Z" id="Stroke-5"></path>
                        <path d="M16,12 C16,16.418 12.418,20 8,20 C3.582,20 0,16.418 0,12 C0,7.582 3.582,4 8,4 C12.418,4 16,7.582 16,12 Z" id="Stroke-7"></path>
                    </g>
                </g>
            </g>
        </g>
    </g>
</svg>