<?xml version="1.0" encoding="UTF-8" standalone="no"?>
<svg width="60px" height="61px" viewBox="0 0 60 61" version="1.1" xmlns="http://www.w3.org/2000/svg" xmlns:xlink="http://www.w3.org/1999/xlink">
    <!-- Generator: Sketch 49.1 (51147) - http://www.bohemiancoding.com/sketch -->
    <title>icon_event marketing</title>
    <desc>Created with Sketch.</desc>
    <defs></defs>
    <g id="Peperoncino" stroke="none" stroke-width="1" fill="none" fill-rule="evenodd" stroke-linecap="round" stroke-linejoin="round">
        <g id="1.-Peperoncino---Homepage" transform="translate(-489.000000, -1173.000000)" stroke="#E30613" stroke-width="2">
            <g id="What-we-can-do" transform="translate(390.000000, 980.000000)">
                <g id="1" transform="translate(0.000000, 132.000000)">
                    <g id="icon_event-marketing" transform="translate(100.000000, 62.000000)">
                        <path d="M52,52 L30,30" id="Stroke-1"></path>
                        <polyline id="Stroke-2" points="58 52 52 52 52 58"></polyline>
                        <path d="M43.715,54.13 C39.399,56.669 34.369,58.125 29,58.125 C12.949,58.125 0,45.113 0,29.063 C0,13.012 12.949,0 29,0 C45.051,0 58,13.012 58,29.063 C58,34.207 56.727,39.039 54.381,43.231" id="Stroke-4"></path>
                        <path d="M34.629,45.218 C32.858,45.836 30.982,46 29,46 C19.53,46 12,38.47 12,29 C12,19.531 19.53,12 29,12 C38.469,12 46.119,19.557 46.119,29.027 C46.119,30.809 45.848,32.529 45.343,34.145" id="Stroke-6"></path>
                        <path d="M35.043,29.031 C35.043,32.351 32.352,35.042 29.031,35.042 C25.712,35.042 23,32.319 23,29 C23,25.68 25.681,23 29,23 C32.319,23 35.043,25.712 35.043,29.031 Z" id="Stroke-8"></path>
                    </g>
                </g>
            </g>
        </g>
    </g>
</svg>