<?xml version="1.0" encoding="UTF-8" standalone="no"?>
<svg width="32px" height="32px" viewBox="0 0 32 32" version="1.1" xmlns="http://www.w3.org/2000/svg" xmlns:xlink="http://www.w3.org/1999/xlink">
    <!-- Generator: Sketch 49.1 (51147) - http://www.bohemiancoding.com/sketch -->
    <title>Instagram_footer</title>
    <desc>Created with Sketch.</desc>
    <defs></defs>
    <g id="Peperoncino" stroke="none" stroke-width="1" fill="none" fill-rule="evenodd">
        <g id="1.-Peperoncino---Homepage" transform="translate(-1379.000000, -3858.000000)">
            <g id="Footer" transform="translate(0.000000, 3844.000000)">
                <g id="Social-media" transform="translate(1380.000000, 15.000000)">
                    <g id="Instagram_footer">
                        <path d="M14.9711053,29.9422421 C6.71605263,29.9422421 0.000157894737,23.2263474 0.000157894737,14.9712947 C0.000157894737,6.71592632 6.71605263,3.15789474e-05 14.9711053,3.15789474e-05 C23.2264737,3.15789474e-05 29.9423684,6.71592632 29.9423684,14.9712947 C29.9423684,23.2263474 23.2264737,29.9422421 14.9711053,29.9422421 Z" id="Stroke-1" stroke="#FFFFFF" stroke-width="2"></path>
                        <path d="M27.8179263,14.9712316 C27.8179263,22.0660737 22.0661368,27.8178632 14.9709789,27.8178632 C7.87613684,27.8178632 2.12466316,22.0660737 2.12466316,14.9712316 C2.12466316,7.87607368 7.87613684,2.1246 14.9709789,2.1246 C22.0661368,2.1246 27.8179263,7.87607368 27.8179263,14.9712316" id="Fill-3" fill="#FFFFFF"></path>
                        <path d="M14.9843684,7.81291579 C12.9671053,7.81291579 12.7144737,7.82144211 11.9221579,7.85775789 C11.1317368,7.89375789 10.5917368,8.01912632 10.1193158,8.20291579 C9.63078947,8.39270526 9.21647368,8.6466 8.80373684,9.05965263 C8.39068421,9.47238947 8.13678947,9.88670526 7.947,10.3749158 C7.76352632,10.8476526 7.63784211,11.3873368 7.60184211,12.1780737 C7.56584211,12.9703895 7.557,13.2230211 7.557,15.2402842 C7.557,17.2575474 7.56584211,17.5101789 7.60184211,18.3024947 C7.63784211,19.0929158 7.76352632,19.6329158 7.947,20.1053368 C8.13678947,20.5938632 8.39068421,21.0081789 8.80373684,21.4209158 C9.21647368,21.8336526 9.63078947,22.0878632 10.1193158,22.2776526 C10.5917368,22.4611263 11.1317368,22.5868105 11.9221579,22.6228105 C12.7144737,22.6591263 12.9671053,22.6676526 14.9843684,22.6676526 C17.0016316,22.6676526 17.2542632,22.6591263 18.0465789,22.6228105 C18.8373158,22.5868105 19.377,22.4611263 19.8494211,22.2776526 C20.3379474,22.0878632 20.7522632,21.8336526 21.165,21.4209158 C21.5780526,21.0081789 21.8322632,20.5938632 22.0217368,20.1053368 C22.2052105,19.6329158 22.3312105,19.0929158 22.3672105,18.3024947 C22.4032105,17.5101789 22.4117368,17.2575474 22.4117368,15.2402842 C22.4117368,13.2230211 22.4032105,12.9703895 22.3672105,12.1780737 C22.3312105,11.3873368 22.2052105,10.8476526 22.0217368,10.3749158 C21.8322632,9.88670526 21.5780526,9.47238947 21.165,9.05965263 C20.7522632,8.6466 20.3379474,8.39270526 19.8494211,8.20291579 C19.377,8.01912632 18.8373158,7.89375789 18.0465789,7.85775789 C17.2542632,7.82144211 17.0016316,7.81291579 14.9843684,7.81291579 M14.9843684,9.15123158 C16.9675263,9.15123158 17.2024737,9.15881053 17.9856316,9.19449474 C18.7097368,9.22733684 19.1032105,9.3486 19.3646842,9.45028421 C19.7117368,9.58481053 19.959,9.74586316 20.2188947,10.0057579 C20.4787895,10.2656526 20.6395263,10.5132316 20.7743684,10.8596526 C20.8760526,11.1214421 20.997,11.5149158 21.0304737,12.2390211 C21.0658421,13.0221789 21.0734211,13.2571263 21.0734211,15.2402842 C21.0734211,17.2234421 21.0658421,17.4583895 21.0304737,18.2415474 C20.997,18.9656526 20.8760526,19.3591263 20.7743684,19.6206 C20.6395263,19.9673368 20.4787895,20.2146 20.2188947,20.4748105 C19.959,20.7343895 19.7117368,20.8954421 19.3646842,21.0302842 C19.1032105,21.1319684 18.7097368,21.2529158 17.9856316,21.2860737 C17.2024737,21.3217579 16.9678421,21.3293368 14.9843684,21.3293368 C13.0012105,21.3293368 12.7662632,21.3217579 11.9831053,21.2860737 C11.259,21.2529158 10.8658421,21.1319684 10.6040526,21.0302842 C10.2573158,20.8954421 10.0097368,20.7343895 9.75015789,20.4748105 C9.49026316,20.2146 9.32921053,19.9673368 9.19436842,19.6206 C9.09268421,19.3591263 8.97173684,18.9656526 8.93857895,18.2415474 C8.90289474,17.4583895 8.89531579,17.2234421 8.89531579,15.2402842 C8.89531579,13.2571263 8.90289474,13.0221789 8.93857895,12.2390211 C8.97173684,11.5149158 9.09268421,11.1214421 9.19436842,10.8596526 C9.32921053,10.5132316 9.49026316,10.2656526 9.75015789,10.0057579 C10.0097368,9.74586316 10.2573158,9.58481053 10.6040526,9.45028421 C10.8658421,9.3486 11.259,9.22733684 11.9831053,9.19449474 C12.7665789,9.15881053 13.0015263,9.15123158 14.9843684,9.15123158" id="Fill-5" fill="#E32013"></path>
                        <path d="M14.9843684,17.7160421 C13.617,17.7160421 12.5085789,16.6076211 12.5085789,15.2402526 C12.5085789,13.8728842 13.617,12.7644632 14.9843684,12.7644632 C16.3517368,12.7644632 17.4601579,13.8728842 17.4601579,15.2402526 C17.4601579,16.6076211 16.3517368,17.7160421 14.9843684,17.7160421 M14.9843684,11.4264632 C12.8780526,11.4264632 11.1705789,13.1339368 11.1705789,15.2402526 C11.1705789,17.3468842 12.8780526,19.0543579 14.9843684,19.0543579 C17.091,19.0543579 18.7984737,17.3468842 18.7984737,15.2402526 C18.7984737,13.1339368 17.091,11.4264632 14.9843684,11.4264632" id="Fill-7" fill="#E32013"></path>
                        <path d="M19.8405474,11.2755158 C19.8405474,11.7678316 19.4413895,12.1669895 18.9490737,12.1669895 C18.4567579,12.1669895 18.0576,11.7678316 18.0576,11.2755158 C18.0576,10.7832 18.4567579,10.3843579 18.9490737,10.3843579 C19.4413895,10.3843579 19.8405474,10.7832 19.8405474,11.2755158" id="Fill-9" fill="#E32013"></path>
                    </g>
                </g>
            </g>
        </g>
    </g>
</svg>