<?xml version="1.0" encoding="UTF-8" standalone="no"?>
<svg width="48px" height="48px" viewBox="0 0 48 48" version="1.1" xmlns="http://www.w3.org/2000/svg" xmlns:xlink="http://www.w3.org/1999/xlink">
    <!-- Generator: Sketch 49.1 (51147) - http://www.bohemiancoding.com/sketch -->
    <title>Instagram</title>
    <desc>Created with Sketch.</desc>
    <defs></defs>
    <g id="Peperoncino" stroke="none" stroke-width="1" fill="none" fill-rule="evenodd">
        <g id="1.-Peperoncino---Homepage" transform="translate(-1483.000000, -448.000000)">
            <g id="Top">
                <g id="Social-media" transform="translate(1484.000000, 449.000000)">
                    <g id="Instagram">
                        <path d="M22.9556947,45.9114379 C10.2979474,45.9114379 0.000242105263,35.6137326 0.000242105263,22.9559853 C0.000242105263,10.2977537 10.2979474,4.84210526e-05 22.9556947,4.84210526e-05 C35.6139263,4.84210526e-05 45.9116316,10.2977537 45.9116316,22.9559853 C45.9116316,35.6137326 35.6139263,45.9114379 22.9556947,45.9114379 Z" id="Stroke-1" stroke="#FFFFFF" stroke-width="2"></path>
                        <path d="M42.6541537,22.9558884 C42.6541537,33.8346463 33.8347432,42.6540568 22.9555011,42.6540568 C12.0767432,42.6540568 3.25781684,33.8346463 3.25781684,22.9558884 C3.25781684,12.0766463 12.0767432,3.25772 22.9555011,3.25772 C33.8347432,3.25772 42.6541537,12.0766463 42.6541537,22.9558884" id="Fill-3" fill="#FFFFFF"></path>
                        <path d="M22.9760316,11.9798042 C19.8828947,11.9798042 19.4955263,11.9928779 18.2806421,12.0485621 C17.0686632,12.1037621 16.2406632,12.2959937 15.5162842,12.5778042 C14.7672105,12.8688147 14.1319263,13.25812 13.4990632,13.8914674 C12.8657158,14.5243305 12.4764105,15.1596147 12.1854,15.9082042 C11.9040737,16.6330674 11.7113579,17.4605832 11.6561579,18.6730463 C11.6009579,19.8879305 11.5874,20.2752989 11.5874,23.3684358 C11.5874,26.4615726 11.6009579,26.8489411 11.6561579,28.0638253 C11.7113579,29.2758042 11.9040737,30.1038042 12.1854,30.8281832 C12.4764105,31.5772568 12.8657158,32.2125411 13.4990632,32.8454042 C14.1319263,33.4782674 14.7672105,33.8680568 15.5162842,34.1590674 C16.2406632,34.4403937 17.0686632,34.6331095 18.2806421,34.6883095 C19.4955263,34.7439937 19.8828947,34.7570674 22.9760316,34.7570674 C26.0691684,34.7570674 26.4565368,34.7439937 27.6714211,34.6883095 C28.8838842,34.6331095 29.7114,34.4403937 30.4357789,34.1590674 C31.1848526,33.8680568 31.8201368,33.4782674 32.453,32.8454042 C33.0863474,32.2125411 33.4761368,31.5772568 33.7666632,30.8281832 C34.0479895,30.1038042 34.2411895,29.2758042 34.2963895,28.0638253 C34.3515895,26.8489411 34.3646632,26.4615726 34.3646632,23.3684358 C34.3646632,20.2752989 34.3515895,19.8879305 34.2963895,18.6730463 C34.2411895,17.4605832 34.0479895,16.6330674 33.7666632,15.9082042 C33.4761368,15.1596147 33.0863474,14.5243305 32.453,13.8914674 C31.8201368,13.25812 31.1848526,12.8688147 30.4357789,12.5778042 C29.7114,12.2959937 28.8838842,12.1037621 27.6714211,12.0485621 C26.4565368,11.9928779 26.0691684,11.9798042 22.9760316,11.9798042 M22.9760316,14.0318884 C26.0168737,14.0318884 26.3771263,14.0435095 27.5779684,14.0982253 C28.6882632,14.1485832 29.2915895,14.33452 29.6925158,14.4904358 C30.2246632,14.6967095 30.6038,14.9436568 31.0023053,15.3421621 C31.4008105,15.7406674 31.6472737,16.1202884 31.8540316,16.6514674 C32.0099474,17.0528779 32.1954,17.6562042 32.2467263,18.7664989 C32.3009579,19.9673411 32.3125789,20.3275937 32.3125789,23.3684358 C32.3125789,26.4092779 32.3009579,26.7695305 32.2467263,27.9703726 C32.1954,29.0806674 32.0099474,29.6839937 31.8540316,30.08492 C31.6472737,30.6165832 31.4008105,30.99572 31.0023053,31.3947095 C30.6038,31.7927305 30.2246632,32.0396779 29.6925158,32.2464358 C29.2915895,32.4023516 28.6882632,32.5878042 27.5779684,32.6386463 C26.3771263,32.6933621 26.0173579,32.7049832 22.9760316,32.7049832 C19.9351895,32.7049832 19.5749368,32.6933621 18.3740947,32.6386463 C17.2638,32.5878042 16.6609579,32.4023516 16.2595474,32.2464358 C15.7278842,32.0396779 15.3482632,31.7927305 14.9502421,31.3947095 C14.5517368,30.99572 14.3047895,30.6165832 14.0980316,30.08492 C13.9421158,29.6839937 13.7566632,29.0806674 13.7058211,27.9703726 C13.6511053,26.7695305 13.6394842,26.4092779 13.6394842,23.3684358 C13.6394842,20.3275937 13.6511053,19.9673411 13.7058211,18.7664989 C13.7566632,17.6562042 13.9421158,17.0528779 14.0980316,16.6514674 C14.3047895,16.1202884 14.5517368,15.7406674 14.9502421,15.3421621 C15.3482632,14.9436568 15.7278842,14.6967095 16.2595474,14.4904358 C16.6609579,14.33452 17.2638,14.1485832 18.3740947,14.0982253 C19.5754211,14.0435095 19.9356737,14.0318884 22.9760316,14.0318884" id="Fill-5" fill="#000000"></path>
                        <path d="M22.9760316,27.1645979 C20.8794,27.1645979 19.1798211,25.4650189 19.1798211,23.3683874 C19.1798211,21.2717558 20.8794,19.5721768 22.9760316,19.5721768 C25.0726632,19.5721768 26.7722421,21.2717558 26.7722421,23.3683874 C26.7722421,25.4650189 25.0726632,27.1645979 22.9760316,27.1645979 M22.9760316,17.5205768 C19.7463474,17.5205768 17.1282211,20.1387032 17.1282211,23.3683874 C17.1282211,26.5985558 19.7463474,29.2166821 22.9760316,29.2166821 C26.2062,29.2166821 28.8243263,26.5985558 28.8243263,23.3683874 C28.8243263,20.1387032 26.2062,17.5205768 22.9760316,17.5205768" id="Fill-7" fill="#000000"></path>
                        <path d="M30.4221726,17.2891242 C30.4221726,18.0440084 29.8101305,18.6560505 29.0552463,18.6560505 C28.3003621,18.6560505 27.68832,18.0440084 27.68832,17.2891242 C27.68832,16.53424 28.3003621,15.9226821 29.0552463,15.9226821 C29.8101305,15.9226821 30.4221726,16.53424 30.4221726,17.2891242" id="Fill-9" fill="#000000"></path>
                    </g>
                </g>
            </g>
        </g>
    </g>
</svg>