<?xml version="1.0" encoding="UTF-8" standalone="no"?>
<svg width="32px" height="32px" viewBox="0 0 32 32" version="1.1" xmlns="http://www.w3.org/2000/svg" xmlns:xlink="http://www.w3.org/1999/xlink">
    <!-- Generator: Sketch 49.1 (51147) - http://www.bohemiancoding.com/sketch -->
    <title>LinkedIn_footer</title>
    <desc>Created with Sketch.</desc>
    <defs></defs>
    <g id="Peperoncino" stroke="none" stroke-width="1" fill="none" fill-rule="evenodd">
        <g id="1.-Peperoncino---Homepage" transform="translate(-1419.000000, -3858.000000)">
            <g id="Footer" transform="translate(0.000000, 3844.000000)">
                <g id="Social-media" transform="translate(1380.000000, 15.000000)">
                    <g id="LinkedIn_footer" transform="translate(40.000000, 0.000000)">
                        <path d="M14.971701,29.6341546 C6.88685567,29.6341546 0.30943299,23.056732 0.30943299,14.9718866 C0.30943299,6.88704124 6.88685567,0.309309278 14.971701,0.309309278 C23.0568557,0.309309278 29.6342784,6.88704124 29.6342784,14.9718866 C29.6342784,23.056732 23.0568557,29.6341546 14.971701,29.6341546 Z" id="Stroke-1" stroke="#FFFFFF" stroke-width="2"></path>
                        <path d="M27.5536392,14.9718247 C27.5536392,21.9203814 21.9204433,27.5535773 14.9715773,27.5535773 C8.02302062,27.5535773 2.39013402,21.9203814 2.39013402,14.9718247 C2.39013402,8.02295876 8.02302062,2.39007216 14.9715773,2.39007216 C21.9204433,2.39007216 27.5536392,8.02295876 27.5536392,14.9718247" id="Fill-3" fill="#FFFFFF"></path>
                        <polygon id="Fill-5" fill="#E32013" points="9.01298969 21.2696598 11.7587629 21.2696598 11.7587629 12.3995567 9.01298969 12.3995567"></polygon>
                        <path d="M10.372701,11.238 C11.2696082,11.238 11.9964124,10.504701 11.9964124,9.60098969 C11.9964124,8.69727835 11.2696082,7.96459794 10.372701,7.96459794 C9.47579381,7.96459794 8.74929897,8.69727835 8.74929897,9.60098969 C8.74929897,10.504701 9.47579381,11.238 10.372701,11.238" id="Fill-7" fill="#E32013"></path>
                        <path d="M16.1477938,16.6135052 C16.1477938,15.3664948 16.7215052,14.6236082 17.8206804,14.6236082 C18.8304742,14.6236082 19.3154227,15.3368041 19.3154227,16.6135052 L19.3154227,21.2696907 L22.0482062,21.2696907 L22.0482062,15.6535052 C22.0482062,13.2773196 20.7016082,12.1289691 18.8211959,12.1289691 C16.9395464,12.1289691 16.1477938,13.5943299 16.1477938,13.5943299 L16.1477938,12.3995876 L13.5139794,12.3995876 L13.5139794,21.2696907 L16.1477938,21.2696907 L16.1477938,16.6135052 Z" id="Fill-8" fill="#E32013"></path>
                    </g>
                </g>
            </g>
        </g>
    </g>
</svg>