<?xml version="1.0" encoding="UTF-8" standalone="no"?>
<svg width="48px" height="48px" viewBox="0 0 48 48" version="1.1" xmlns="http://www.w3.org/2000/svg" xmlns:xlink="http://www.w3.org/1999/xlink">
    <!-- Generator: Sketch 49.1 (51147) - http://www.bohemiancoding.com/sketch -->
    <title>LinkedIn</title>
    <desc>Created with Sketch.</desc>
    <defs></defs>
    <g id="Peperoncino" stroke="none" stroke-width="1" fill="none" fill-rule="evenodd">
        <g id="1.-Peperoncino---Homepage" transform="translate(-1483.000000, -514.000000)">
            <g id="Top">
                <g id="Social-media" transform="translate(1484.000000, 449.000000)">
                    <g id="LinkedIn" transform="translate(0.000000, 66.000000)">
                        <path d="M22.9566082,45.4390371 C10.5598454,45.4390371 0.474463918,35.3536557 0.474463918,22.9568928 C0.474463918,10.5601299 10.5598454,0.474274227 22.9566082,0.474274227 C35.3538454,0.474274227 45.4392268,10.5601299 45.4392268,22.9568928 C45.4392268,35.3536557 35.3538454,45.4390371 22.9566082,45.4390371 Z" id="Stroke-1" stroke="#FFFFFF" stroke-width="2"></path>
                        <path d="M42.2489134,22.9567979 C42.2489134,33.6112515 33.6113464,42.2488186 22.9564186,42.2488186 C12.3019649,42.2488186 3.66487216,33.6112515 3.66487216,22.9567979 C3.66487216,12.3018701 12.3019649,3.66477732 22.9564186,3.66477732 C33.6113464,3.66477732 42.2489134,12.3018701 42.2489134,22.9567979" id="Fill-3" fill="#FFFFFF"></path>
                        <polygon id="Fill-5" fill="#000000" points="13.8199175 32.6134784 18.0301031 32.6134784 18.0301031 19.0126536 13.8199175 19.0126536"></polygon>
                        <path d="M15.9048082,17.2316 C17.280066,17.2316 18.394499,16.1072082 18.394499,14.7215175 C18.394499,13.3358268 17.280066,12.2123835 15.9048082,12.2123835 C14.5295505,12.2123835 13.4155918,13.3358268 13.4155918,14.7215175 C13.4155918,16.1072082 14.5295505,17.2316 15.9048082,17.2316" id="Fill-7" fill="#000000"></path>
                        <path d="M24.7599505,25.4740412 C24.7599505,23.5619588 25.6396412,22.422866 27.3250433,22.422866 C28.8733938,22.422866 29.6169814,23.516433 29.6169814,25.4740412 L29.6169814,32.6135258 L33.8072495,32.6135258 L33.8072495,24.0020412 C33.8072495,20.3585567 31.742466,18.5977526 28.859167,18.5977526 C25.9739711,18.5977526 24.7599505,20.8446392 24.7599505,20.8446392 L24.7599505,19.012701 L20.7214351,19.012701 L20.7214351,32.6135258 L24.7599505,32.6135258 L24.7599505,25.4740412 Z" id="Fill-8" fill="#000000"></path>
                    </g>
                </g>
            </g>
        </g>
    </g>
</svg>