<?xml version="1.0" encoding="UTF-8" standalone="no"?>
<svg width="141px" height="40px" viewBox="0 0 141 40" version="1.1" xmlns="http://www.w3.org/2000/svg" xmlns:xlink="http://www.w3.org/1999/xlink">
    <!-- Generator: Sketch 49.1 (51147) - http://www.bohemiancoding.com/sketch -->
    <title>Logo_white</title>
    <desc>Created with Sketch.</desc>
    <defs></defs>
    <g id="Peperoncino" stroke="none" stroke-width="1" fill="none" fill-rule="evenodd">
        <g id="1.-Peperoncino---Homepage" transform="translate(-390.000000, -10.000000)">
            <g id="Top">
                <g id="Logo_white" transform="translate(390.000000, 10.000000)">
                    <g id="Sygnet" fill="#FEFEFE">
                        <path d="M20.5651869,19.9572082 C20.6127841,18.8688787 19.7688482,17.9466819 18.682807,17.9 C17.5935622,17.8533181 16.675942,18.6949657 16.6251411,19.7837529 C16.5784592,20.8702517 17.4223951,21.7897025 18.508894,21.8386728 C19.5972235,21.8853547 20.517132,21.0441648 20.5651869,19.9572082" id="Fill-1"></path>
                        <path d="M16.0059191,19.3853547 C16.0530587,18.2983982 15.2095805,17.3784897 14.1230816,17.3281465 C13.0361251,17.2805492 12.114386,18.1249428 12.0672464,19.2114416 C12.0173608,20.3006865 12.8617544,21.2201373 13.9487109,21.2668192 C15.0365828,21.3157895 15.9583219,20.4718535 16.0059191,19.3853547" id="Fill-3"></path>
                        <path d="M25.249077,18.6704805 C25.295759,17.583524 24.4527384,16.6645309 23.3644088,16.6155606 C22.279283,16.5679634 21.3561709,17.4100686 21.3099466,18.4988558 C21.261434,19.5858124 22.1049123,20.5052632 23.1918688,20.5542334 C24.2801983,20.6009153 25.1996491,19.7592677 25.249077,18.6704805" id="Fill-5"></path>
                        <path d="M24.8951182,28.1561098 C24.9257818,27.4718993 24.3967201,26.8956979 23.7152555,26.866865 C23.033791,26.838032 22.4575896,27.3652632 22.4278413,28.0471854 C22.3971777,28.7286499 22.9248665,29.3048513 23.6067887,29.3364302 C24.2864226,29.3652632 24.8667429,28.8371167 24.8951182,28.1561098" id="Fill-7"></path>
                        <path d="M22.9250038,9.85729977 C22.9574981,9.08933638 22.3597864,8.43441648 21.5881617,8.40146453 C20.8188253,8.36759725 20.1657361,8.9616476 20.1318688,9.73464531 C20.0984592,10.5053547 20.6980015,11.1602746 21.4668802,11.1913959 C22.238505,11.2266362 22.8893059,10.6280092 22.9250038,9.85729977" id="Fill-9"></path>
                        <path d="M30.9846834,11.0796796 C31.0185507,10.3089703 30.4212967,9.657254 29.651045,9.62338673 C28.8803356,9.58997712 28.2286194,10.1844851 28.1942944,10.9574828 C28.1604272,11.7281922 28.7567658,12.3780778 29.5293059,12.4133181 C30.2981846,12.4471854 30.9503585,11.8508467 30.9846834,11.0796796" id="Fill-11"></path>
                        <path d="M31.8803356,6.84448513 C31.9142029,6.07377574 31.3169489,5.42389016 30.5466972,5.38864989 C29.7764455,5.35524027 29.1247292,5.95157895 29.0899466,6.72228833 C29.0560793,7.49254005 29.653791,8.14517162 30.4240427,8.17858124 C31.1938368,8.21153318 31.8478413,7.61519451 31.8803356,6.84448513" id="Fill-13"></path>
                        <path d="M28.41791,21.1863158 C28.4586423,20.2732723 27.7501754,19.5007323 26.8375896,19.458627 C25.9245461,19.4206407 25.1510908,20.1268192 25.1094432,21.0416934 C25.0709992,21.9547368 25.7799237,22.7272769 26.6929672,22.7675515 C27.6060107,22.8073684 28.3776354,22.0993593 28.41791,21.1863158" id="Fill-15"></path>
                        <path d="M15.9375439,14.724897 C15.9718688,13.956476 15.3746148,13.3043021 14.6029901,13.2704348 C13.833196,13.2351945 13.1787338,13.8315332 13.1448665,14.6022426 C13.1109992,15.3747826 13.7100839,16.0251259 14.4803356,16.0589931 C15.2505873,16.0942334 15.9036766,15.4951487 15.9375439,14.724897" id="Fill-17"></path>
                        <path d="M28.8683905,24.6802288 C28.9008848,23.9076888 28.3050038,23.2550572 27.5329214,23.2216476 C26.7626697,23.190984 26.1123265,23.7850343 26.0780015,24.5557437 C26.0441342,25.3282838 26.6386423,25.978627 27.41164,26.0138673 C28.1805187,26.0472769 28.8326926,25.4481922 28.8683905,24.6802288" id="Fill-19"></path>
                        <path d="M14.8550725,28.0334096 C14.8880244,27.2608696 14.2939741,26.6105263 13.5209764,26.5775744 C12.7498093,26.5441648 12.0999237,27.1382151 12.0642258,27.9112128 C12.0312738,28.6814645 12.6285278,29.3318078 13.3987796,29.3675057 C14.1685736,29.4004577 14.8212052,28.801373 14.8550725,28.0334096" id="Fill-21"></path>
                        <path d="M22.3131503,30.0732265 C22.3612052,28.98627 21.5181846,28.0649886 20.4303127,28.0183066 C19.3410679,27.9693364 18.4216171,28.8128146 18.3740198,29.8993135 C18.3255072,30.9885584 19.1703585,31.9080092 20.2568574,31.9569794 C21.3433562,32.0036613 22.2650953,31.1601831 22.3131503,30.0732265" id="Fill-23"></path>
                        <path d="M11.8900839,30.9704805 C11.9376812,29.8839817 11.0946606,28.9622426 10.0067887,28.9128146 C8.92074752,28.8665904 7.99809306,29.7105263 7.9518688,30.7970252 C7.90335622,31.8812357 8.74683448,32.8029748 9.833791,32.8519451 C10.9221205,32.8990847 11.842029,32.0551487 11.8900839,30.9704805" id="Fill-25"></path>
                        <path d="M6.41777269,30.7011899 C6.46445461,29.6142334 5.62326468,28.6924943 4.5344775,28.6458124 C3.44706331,28.5945538 2.52532418,29.4403204 2.47818459,30.5272769 C2.43150267,31.6142334 3.2740656,32.5355149 4.36102212,32.5826545 C5.44980931,32.6288787 6.36926011,31.7876888 6.41777269,30.7011899" id="Fill-27"></path>
                        <path d="M4.29745233,37.7154691 C4.34459191,36.6285126 3.50111365,35.7076888 2.4132418,35.6600915 C1.32765828,35.6102059 0.406376812,36.4545995 0.359237223,37.5415561 C0.307520976,38.6298856 1.15054157,39.55254 2.23978642,39.5987643 C3.32811594,39.6454462 4.24756674,38.8037986 4.29745233,37.7154691" id="Fill-29"></path>
                        <path d="M3.5354386,33.853913 C3.56518688,33.1857208 3.04893974,32.6232494 2.37891686,32.5916705 C1.7125553,32.5628375 1.14825324,33.0818307 1.11713196,33.7491076 C1.08829901,34.4154691 1.60546148,34.9806865 2.27273837,35.0090618 C2.93955759,35.0388101 3.50660564,34.5221053 3.5354386,33.853913" id="Fill-31"></path>
                        <path d="M32.5525095,19.7324027 C32.5991915,18.6793135 31.7840885,17.788238 30.7314569,17.7438444 C29.680656,17.6971625 28.7891228,18.5145538 28.7424409,19.5653547 C28.697132,20.6161556 29.5122349,21.5072311 30.5653242,21.553913 C31.6179558,21.600595 32.5072006,20.7859497 32.5525095,19.7324027" id="Fill-33"></path>
                        <path d="M28.2176812,13.589016 C28.2817544,12.1084668 27.135759,10.8567506 25.6556674,10.7926773 C24.1778642,10.7258581 22.9252326,11.8723112 22.8597864,13.3510297 C22.7957132,14.8338673 23.9403356,16.0828375 25.4218002,16.1501144 C26.8996034,16.2141876 28.1522349,15.0672769 28.2176812,13.589016" id="Fill-35"></path>
                        <path d="M21.8644088,14.7271396 C21.9312281,13.2488787 20.7843173,11.9948741 19.3051411,11.9326316 C17.8255072,11.8681007 16.576537,13.0127231 16.5115484,14.4932723 C16.4451869,15.9715332 17.5920976,17.2255378 19.0703585,17.289611 C20.549077,17.3545995 21.8007933,16.2076888 21.8644088,14.7271396" id="Fill-37"></path>
                        <path d="M24.9465141,24.0835698 C25.0119603,22.6025629 23.8659649,21.3513043 22.3845004,21.2867735 C20.9044088,21.2227002 19.6536079,22.3691533 19.5895347,23.8451259 C19.5240885,25.3284211 20.6705416,26.5773913 22.1488024,26.6442105 C23.6279786,26.7087414 24.8810679,25.5618307 24.9465141,24.0835698" id="Fill-39"></path>
                        <path d="M18.091823,24.2279634 C18.1526926,22.865492 17.0977727,21.7144622 15.734386,21.6540503 C14.3709992,21.5940961 13.2185965,22.6494737 13.1586423,24.0124027 C13.0977727,25.3748741 14.1540656,26.5304805 15.5160793,26.5908924 C16.8794661,26.649016 18.0318688,25.5908924 18.091823,24.2279634" id="Fill-41"></path>
                        <path d="M12.1913196,25.2881007 C12.2650038,23.6400458 10.9881159,22.2464531 9.33777269,22.1732265 C7.68971777,22.0995423 6.2961251,23.3773455 6.22198322,25.0281465 C6.15058734,26.675286 7.42793288,28.071167 9.07644546,28.1425629 C10.7240427,28.2139588 12.1208391,26.9379863 12.1913196,25.2881007" id="Fill-43"></path>
                        <path d="M9.59818459,35.364119 C9.66225782,33.8854005 8.5162624,32.6313959 7.03708619,32.5673227 C5.55699466,32.5027918 4.30710908,33.6492449 4.24120519,35.1270481 C4.17575896,36.6053089 5.32266972,37.8597712 6.80047292,37.9238444 C8.28147979,37.9902059 9.53273837,36.8442105 9.59818459,35.364119" id="Fill-45"></path>
                        <path d="M17.8227613,32.5139588 C17.8872921,31.0324943 16.7403814,29.7816934 15.2621205,29.7167048 C13.783402,29.6526316 12.5307704,30.7990847 12.4653242,32.2778032 C12.4007933,33.7583524 13.544958,35.0091533 15.0264226,35.0745995 C16.5060564,35.1386728 17.758688,33.9922197 17.8227613,32.5139588" id="Fill-47"></path>
                        <path d="M11.5906331,20.5474142 C11.6245004,19.8233867 11.0611137,19.2091991 10.3343402,19.1780778 C9.60939741,19.1442105 8.99429443,19.7080549 8.96271548,20.4320824 C8.92930587,21.1597712 9.4926926,21.7744165 10.2185507,21.8078261 C10.9453242,21.8389474 11.5595118,21.275103 11.5906331,20.5474142" id="Fill-49"></path>
                        <path d="M38.489672,3.06379863 C38.5162166,2.45144165 38.0411594,1.93244851 37.4265141,1.90590389 C36.8159878,1.8789016 36.2974523,2.35350114 36.2709077,2.96585812 C36.2434477,3.5782151 36.718505,4.09949657 37.3299466,4.12604119 C37.9436766,4.15075515 38.4617544,3.67615561 38.489672,3.06379863" id="Fill-51"></path>
                        <path d="M34.3876583,5.76691076 C34.4142029,5.15272311 33.9405187,4.63372998 33.327704,4.60718535 C32.7139741,4.58018307 32.1954386,5.05661327 32.1707246,5.66942792 C32.142807,6.28132723 32.6178642,6.79803204 33.2329672,6.82503432 C33.8430359,6.85340961 34.3611137,6.37697941 34.3876583,5.76691076" id="Fill-53"></path>
                        <path d="M18.2571777,28.3163387 C18.288299,27.6572998 17.7780015,27.0984897 17.1194203,27.0714874 C16.4594661,27.0426545 15.9011137,27.5529519 15.8722807,28.2119908 C15.8429901,28.8710297 16.3555759,29.4302975 17.0118688,29.4563844 C17.671823,29.4856751 18.2292601,28.9753776 18.2571777,28.3163387" id="Fill-55"></path>
                        <path d="M29.9861937,16.3437071 C30.0141114,15.6864989 29.5015256,15.1299771 28.842029,15.1011442 C28.1848207,15.0723112 27.6292143,15.582151 27.5994661,16.2411899 C27.5720061,16.8979405 28.0809306,17.4594966 28.7408848,17.4855835 C29.3994661,17.5148741 29.9569031,17.0045767 29.9861937,16.3437071" id="Fill-57"></path>
                        <path d="M19.7392372,26.3189474 C19.7625782,25.8315332 19.3845461,25.4196339 18.8934706,25.3944622 C18.4065141,25.3747826 17.9927841,25.7532723 17.9717315,26.2434325 C17.9483905,26.7313043 18.3287109,27.145492 18.8161251,27.1651716 C19.3053699,27.1875973 19.7177269,26.8086499 19.7392372,26.3189474" id="Fill-59"></path>
                        <path d="M16.743402,11.5981236 C16.7589626,11.2379405 16.4779558,10.9326773 16.117315,10.915286 C15.757132,10.8992677 15.4518688,11.1802746 15.4363082,11.5409153 C15.4180015,11.9010984 15.7008391,12.2063616 16.0596491,12.2242105 C16.4230359,12.2397712 16.7260107,11.959222 16.743402,11.5981236" id="Fill-61"></path>
                        <path d="M26.6761709,9.64343249 C26.6931045,9.28279176 26.4107246,8.97569794 26.0519146,8.96196796 C25.6917315,8.94686499 25.3860107,9.22466819 25.371823,9.58805492 C25.3530587,9.94869565 25.6345233,10.2535011 25.9942487,10.2690618 C26.3562624,10.2846224 26.6606102,10.0045309 26.6761709,9.64343249" id="Fill-63"></path>
                        <path d="M24.8034935,9.15606407 C24.8190542,8.79542334 24.5380473,8.48787185 24.1796949,8.47231121 C23.8176812,8.45675057 23.5133333,8.73729977 23.4950267,9.09839817 C23.4803814,9.45858124 23.7618459,9.76384439 24.122029,9.7812357 C24.4808391,9.797254 24.7879329,9.51716247 24.8034935,9.15606407" id="Fill-65"></path>
                        <path d="M30.7191915,13.8806407 C30.7342944,13.5204577 30.4564912,13.2151945 30.0949352,13.1973455 C29.7347521,13.1840732 29.4290313,13.4646224 29.413013,13.8234325 C29.3942487,14.1859039 29.6757132,14.4884211 30.0390999,14.5067277 C30.399283,14.5195423 30.7050038,14.2417391 30.7191915,13.8806407" id="Fill-67"></path>
                        <path d="M32.2964455,15.9964302 C32.3101754,15.6353318 32.0309992,15.3300686 31.6708162,15.3149657 C31.3106331,15.2975744 31.0049123,15.5776659 30.987521,15.9387643 C30.9733333,16.296659 31.2534249,16.6042105 31.6131503,16.6216018 C31.9733333,16.6376201 32.2795118,16.3570709 32.2964455,15.9964302" id="Fill-69"></path>
                        <path d="M27.1651411,17.543524 C27.1820748,17.1828833 26.9010679,16.8776201 26.5408848,16.8602288 C26.1807018,16.8446682 25.8749809,17.1256751 25.8580473,17.4858581 C25.8438596,17.8464989 26.1216629,18.1535927 26.4836766,18.1673227 C26.8438596,18.1828833 27.1495805,17.9046224 27.1651411,17.543524" id="Fill-71"></path>
                        <path d="M33.27164,7.68874142 C33.2885736,7.32993135 33.0075667,7.02237986 32.6473837,7.00956522 C32.2872006,6.99125858 31.9814798,7.27226545 31.9654615,7.63290618 C31.9485278,7.99400458 32.2299924,8.30018307 32.5901754,8.31391304 C32.9531045,8.32993135 33.2560793,8.05121281 33.27164,7.68874142" id="Fill-73"></path>
                        <path d="M32.1332876,9.23606407 C32.1488482,8.87542334 31.869672,8.57016018 31.5062853,8.55414188 C31.1474752,8.53949657 30.8417544,8.8195881 30.8261937,9.18022883 C30.8088024,9.54132723 31.090267,9.84613272 31.45045,9.86398169 C31.8120061,9.877254 32.1163539,9.59716247 32.1332876,9.23606407" id="Fill-75"></path>
                        <path d="M36.1222121,4.67816934 C36.1391457,4.31707094 35.8581388,4.00997712 35.4979558,3.99716247 C35.1377727,3.97885584 34.8320519,4.25940503 34.8151182,4.62004577 C34.8004729,4.98114416 35.0805645,5.28823799 35.4407475,5.3015103 C35.8009306,5.3175286 36.1080244,5.03652174 36.1222121,4.67816934" id="Fill-77"></path>
                        <path d="M33.5974523,3.45556064 C33.614386,3.09491991 33.3352098,2.78965675 32.9736537,2.77455378 C32.6134706,2.75670481 32.3072921,3.03679634 32.2903585,3.39789474 C32.2761709,3.75853547 32.5558047,4.06562929 32.9159878,4.08118993 C33.2761709,4.09720824 33.5818917,3.81665904 33.5974523,3.45556064" id="Fill-79"></path>
                        <path d="M26.7584134,26.9089245 C26.7735164,26.5487414 26.4943402,26.2434783 26.1341571,26.2251716 C25.7726011,26.2100686 25.4682532,26.4906178 25.4513196,26.8517162 C25.4353013,27.2118993 25.7149352,27.5167048 26.0751182,27.5327231 C26.438505,27.5482838 26.7410221,27.2695652 26.7584134,26.9089245" id="Fill-81"></path>
                        <path d="M29.3868802,8.55423341 C29.4102212,7.98032037 28.9662853,7.49244851 28.3900839,7.46819222 C27.8170862,7.44347826 27.3315027,7.88878719 27.3045004,8.46315789 C27.2797864,9.03798627 27.725553,9.52311213 28.2999237,9.55011442 C28.8747521,9.57437071 29.3617086,9.12906178 29.3868802,8.55423341" id="Fill-83"></path>
                        <path d="M30.5046377,23.1613272 C30.5215713,22.8029748 30.2391915,22.4954233 29.8790084,22.4803204 C29.5174523,22.4624714 29.2131045,22.7430206 29.1975439,23.1036613 C29.1815256,23.4643021 29.4597864,23.7713959 29.8218002,23.7874142 C30.1819832,23.8029748 30.489077,23.524714 30.5046377,23.1613272" id="Fill-85"></path>
                        <path d="M17.0674294,17.1359268 C17.0843631,16.775286 16.8056445,16.4704805 16.4454615,16.4526316 C16.0825324,16.4370709 15.7777269,16.7180778 15.761251,17.0782609 C15.7452326,17.4393593 16.0262395,17.7459954 16.3855072,17.7597254 C16.744775,17.7775744 17.0523265,17.4970252 17.0674294,17.1359268" id="Fill-87"></path>
                        <path d="M12.2914111,17.1359268 C12.3051411,16.775286 12.0268802,16.4704805 11.6666972,16.4526316 C11.3055988,16.4370709 11.0007933,16.7180778 10.9829443,17.0782609 C10.9673837,17.4393593 11.2483905,17.7459954 11.6085736,17.7620137 C11.9701297,17.7775744 12.2767658,17.4970252 12.2914111,17.1359268" id="Fill-89"></path>
                        <path d="M19.6708619,10.2376201 C19.6992372,9.60604119 19.21045,9.07560641 18.5802441,9.04677346 C17.9523265,9.01748284 17.4205187,9.50581236 17.3912281,10.1355606 C17.3646834,10.7657666 17.8520976,11.2957437 18.4823036,11.326865 C19.1111365,11.3529519 19.643402,10.8664531 19.6708619,10.2376201" id="Fill-91"></path>
                        <path d="M13.0985965,22.1928146 C13.1205645,21.7319451 12.7617544,21.3401831 12.2976812,21.3205034 C11.8354386,21.2976201 11.4432189,21.6564302 11.4244546,22.1195881 C11.4024867,22.5832037 11.7622121,22.974508 12.2239969,22.9946453 C12.6866972,23.0143249 13.0793745,22.6559725 13.0985965,22.1928146" id="Fill-93"></path>
                        <path d="M6.17731503,27.1580778 C6.19790999,26.6976659 5.83955759,26.3059039 5.37731503,26.2834783 C4.91507246,26.2651716 4.52285278,26.6239817 4.50225782,27.0871396 C4.48166285,27.5484668 4.84184592,27.9397712 5.30317315,27.9621968 C5.76724638,27.9823341 6.15763539,27.6239817 6.17731503,27.1580778" id="Fill-95"></path>
                        <path d="M6.48299008,38.9624256 C6.49763539,38.6004119 6.21845919,38.2960641 5.85736079,38.2759268 C5.4962624,38.2635698 5.18962624,38.5432037 5.17589626,38.9033867 C5.15758963,39.2649428 5.43905416,39.5692906 5.79832189,39.5848513 C6.16170862,39.6031579 6.46697178,39.3226087 6.48299008,38.9624256" id="Fill-97"></path>
                        <path d="M7.86715484,29.1067277 C7.88180015,28.746087 7.60262395,28.4408238 7.24152555,28.4234325 C6.87996949,28.4074142 6.57607933,28.6879634 6.55914569,29.0490618 C6.54266972,29.4097025 6.82321892,29.7167963 7.18385965,29.7328146 C7.54495805,29.7479176 7.84930587,29.4678261 7.86715484,29.1067277" id="Fill-99"></path>
                        <path d="M13.1665141,35.8307094 C13.2022121,35.0078261 12.5633105,34.3080549 11.7395118,34.2728146 C10.9134249,34.2375744 10.2150267,34.8755606 10.1784134,35.7016476 C10.1436308,36.5263616 10.7825324,37.2247597 11.6067887,37.2604577 C12.4319603,37.2993593 13.1317315,36.66 13.1665141,35.8307094" id="Fill-101"></path>
                        <path d="M35.6887109,2.90782609 C35.7125095,2.42910755 35.3408848,2.02590389 34.8644546,2.00622426 C34.3861937,1.98608696 33.9825324,2.35588101 33.9623951,2.83414188 C33.9408848,3.31057208 34.3102212,3.71423341 34.7866514,3.73620137 C35.2649123,3.75588101 35.6685736,3.38471396 35.6887109,2.90782609" id="Fill-103"></path>
                        <path d="M39.7612052,1.3623341 C39.7831732,0.88590389 39.4120061,0.480869565 38.9337452,0.458443936 C38.4554844,0.438306636 38.0522807,0.808100686 38.0321434,1.28681922 C38.0101754,1.76370709 38.3795118,2.16874142 38.8577727,2.18887872 C39.3342029,2.20901602 39.7396949,1.83922197 39.7612052,1.3623341" id="Fill-105"></path>
                        <path d="M32.1332876,4.43322654 C32.1488482,4.07212815 31.869672,3.76549199 31.5062853,3.75176201 C31.1474752,3.73437071 30.8417544,4.01446224 30.8261937,4.3773913 C30.8088024,4.7384897 31.090267,5.04329519 31.45045,5.05885584 C31.8120061,5.07212815 32.1163539,4.79386728 32.1332876,4.43322654" id="Fill-108"></path>
                        <path d="M36.6111823,1.49194508 C36.6217086,1.2621968 36.4468802,1.07318078 36.221251,1.06402746 C35.9928757,1.05350114 35.802029,1.22649886 35.7915027,1.45395881 C35.7832647,1.6809611 35.9558047,1.87226545 36.18418,1.88141876 C36.4111823,1.89240275 36.6015713,1.71620137 36.6111823,1.49194508" id="Fill-110"></path>
                        <path d="M40.1947521,2.95675057 C40.2052784,2.73020595 40.0286194,2.53844394 39.8020748,2.52883295 C39.5764455,2.51830664 39.3842258,2.69405034 39.3778185,2.9187643 C39.3654615,3.14622426 39.5393745,3.33798627 39.7659191,3.34851259 C39.9929214,3.3576659 40.1851411,3.1819222 40.1947521,2.95675057" id="Fill-112"></path>
                    </g>
                    <g id="Typo" transform="translate(46.376812, 12.753623)" fill="#F5F5F5">
                        <path d="M1.3000199,2.74281166 L1.3000199,5.96487912 C1.3000199,6.26634166 1.41095413,6.44343846 1.63381753,6.49268729 L2.02382847,6.49268729 C2.59889563,6.49268729 2.88593175,6.27977316 2.88593175,5.85294996 C2.94214506,5.71664511 2.97000298,5.57785295 2.97000298,5.43458362 L2.97000298,3.31837628 C2.97000298,2.73783703 2.79340364,2.39707492 2.44070242,2.29708487 C2.38498657,2.29708487 2.20938215,2.288628 1.91189931,2.27022187 C1.5039797,2.27022187 1.3000199,2.42692269 1.3000199,2.74281166 M0.61302358,0.626604318 L1.85668093,0.626604318 C2.91975923,0.626604318 3.61670481,0.970351209 3.94403542,1.65734753 C4.14899015,2.15879017 4.25146752,2.58611083 4.25146752,2.93881206 C4.27037111,3.24773654 4.27833051,3.64421451 4.27833051,4.12675356 L4.27833051,4.6550592 C4.27833051,6.06088946 4.09227938,6.88220078 3.72117202,7.12396776 C3.25753656,7.75475077 2.69241866,8.07063974 2.02382847,8.07063974 C1.54079196,8.07063974 1.3000199,8.25619341 1.3000199,8.62730077 L1.3000199,13.5755646 C1.3000199,13.8287733 1.16321759,13.9551288 0.891105363,13.9551288 L0.445876032,13.9551288 C0.148890658,13.9367227 0.000149238882,13.8014128 0.000149238882,13.5472092 L0.000149238882,1.1006865 C0.000149238882,0.784797533 0.204606507,0.626604318 0.61302358,0.626604318" id="Fill-170"></path>
                        <path d="M9.36145657,0.645109939 L12.583524,0.645109939 C12.8616058,0.645109939 12.9999005,0.803800617 12.9999005,1.11919212 L12.9999005,1.73206646 C12.9999005,2.08476768 12.8282758,2.25987464 12.4805492,2.25987464 L12.3134017,2.28872749 C12.0348224,2.27032136 11.8035021,2.25987464 11.617451,2.25987464 L10.9210029,2.25987464 C10.5314894,2.25987464 10.3369814,2.40861606 10.3369814,2.7060989 L10.3369814,5.95453189 C10.3369814,6.32563924 10.5409412,6.51119292 10.9493583,6.51119292 L12.5541737,6.51119292 C12.8516566,6.51119292 12.9999005,6.63804597 12.9999005,6.89274699 C12.9999005,7.00417869 13.0098498,7.17082877 13.0287534,7.39369217 C13.0287534,7.85782509 12.9257785,8.08914536 12.7213213,8.08914536 C12.7213213,8.12645508 12.6133718,8.14486121 12.3979704,8.14486121 L10.7538553,8.14486121 C10.4752761,8.14486121 10.3369814,8.28464829 10.3369814,8.56322754 L10.3369814,11.812158 C10.3369814,12.1459556 10.5041289,12.3131032 10.838424,12.3131032 L12.583524,12.3131032 C12.8616058,12.3131032 12.9999005,12.4434385 12.9999005,12.7031141 L12.9999005,13.4542832 C12.9999005,13.7831062 12.7989255,13.9467715 12.3979704,13.9467715 L9.72410705,13.9467715 C9.26544622,13.9467715 9.0376082,13.7831062 9.0376082,13.4542832 L9.0376082,1.11919212 C9.0376082,0.803800617 9.14555766,0.645109939 9.36145657,0.645109939" id="Fill-172"></path>
                        <path d="M19.3286738,2.74281166 L19.3286738,5.96487912 C19.3286738,6.26634166 19.4401055,6.44343846 19.6624714,6.49268729 L20.0524823,6.49268729 C20.628047,6.49268729 20.9145856,6.27977316 20.9145856,5.85294996 C20.9707989,5.71664511 20.9991543,5.57785295 20.9991543,5.43458362 L20.9991543,3.31837628 C20.9991543,2.73783703 20.8220575,2.39707492 20.4693563,2.29708487 C20.4136404,2.29708487 20.2385335,2.288628 19.9410506,2.27022187 C19.5326336,2.27022187 19.3286738,2.42692269 19.3286738,2.74281166 M18.6416774,0.626604318 L19.8853348,0.626604318 C20.9489106,0.626604318 21.6453587,0.970351209 21.9726893,1.65734753 C22.177644,2.15879017 22.2801214,2.58611083 22.2801214,2.93881206 C22.299025,3.24773654 22.3069844,3.64421451 22.3069844,4.12675356 L22.3069844,4.6550592 C22.3069844,6.06088946 22.1214307,6.88220078 21.7503234,7.12396776 C21.2861904,7.75475077 20.7210725,8.07063974 20.0524823,8.07063974 C19.5699433,8.07063974 19.3286738,8.25619341 19.3286738,8.62730077 L19.3286738,13.5755646 C19.3286738,13.8287733 19.1923689,13.9551288 18.9202567,13.9551288 L18.4745299,13.9551288 C18.178042,13.9367227 18.0293006,13.8014128 18.0293006,13.5472092 L18.0293006,1.1006865 C18.0293006,0.784797533 18.2332604,0.626604318 18.6416774,0.626604318" id="Fill-174"></path>
                        <path d="M27.3905582,0.645109939 L30.6121281,0.645109939 C30.8902099,0.645109939 31.0290021,0.803800617 31.0290021,1.11919212 L31.0290021,1.73206646 C31.0290021,2.08476768 30.8568799,2.25987464 30.5096508,2.25987464 L30.3425032,2.28872749 C30.0634265,2.27032136 29.8321063,2.25987464 29.6465526,2.25987464 L28.9501045,2.25987464 C28.5600935,2.25987464 28.366083,2.40861606 28.366083,2.7060989 L28.366083,5.95453189 C28.366083,6.32563924 28.5700428,6.51119292 28.9779624,6.51119292 L30.5832753,6.51119292 C30.8807581,6.51119292 31.0290021,6.63804597 31.0290021,6.89274699 C31.0290021,7.00417869 31.0389513,7.17082877 31.0573575,7.39369217 C31.0573575,7.85782509 30.9543826,8.08914536 30.7504228,8.08914536 C30.7504228,8.12645508 30.6424734,8.14486121 30.4265745,8.14486121 L28.7829569,8.14486121 C28.5038802,8.14486121 28.366083,8.28464829 28.366083,8.56322754 L28.366083,11.812158 C28.366083,12.1459556 28.5332305,12.3131032 28.8670282,12.3131032 L30.6121281,12.3131032 C30.8902099,12.3131032 31.0290021,12.4434385 31.0290021,12.7031141 L31.0290021,13.4542832 C31.0290021,13.7831062 30.8280271,13.9467715 30.4265745,13.9467715 L27.7532086,13.9467715 C27.2945478,13.9467715 27.0662123,13.7831062 27.0662123,13.4542832 L27.0662123,1.11919212 C27.0662123,0.803800617 27.1741618,0.645109939 27.3905582,0.645109939" id="Fill-176"></path>
                        <path d="M37.3845389,5.76887872 C37.3845389,6.25141777 37.5427321,6.49268729 37.858621,6.49268729 L38.1640633,6.49268729 C38.5729778,6.49268729 38.8615063,6.26136703 39.0286539,5.79773157 L39.0286539,5.48980201 C39.0286539,5.32315193 39.0366133,5.13710079 39.0550194,4.93314098 L39.0286539,4.82220675 C39.0286539,4.76599343 39.0366133,4.7396279 39.0550194,4.7396279 C39.0366133,4.46055119 39.0286539,4.25659138 39.0286539,4.12675356 L39.0286539,3.07710676 C38.9351308,2.55725798 38.6759526,2.29708487 38.2481345,2.29708487 C38.2352005,2.29708487 38.1153119,2.288628 37.8859815,2.27022187 C37.5516864,2.27022187 37.3845389,2.43736942 37.3845389,2.77166451 L37.3845389,5.76887872 Z M37.7740523,0.626604318 C38.6351607,0.626604318 39.1550095,0.747985275 39.3335986,0.989752263 C40.0136305,1.43498159 40.3548901,2.28564322 40.3548901,3.54074221 L40.3548901,4.79484628 C40.3548901,6.05740722 40.1439658,6.79613969 39.7231121,7.01253607 C39.3335986,7.38364342 39.1395881,7.63535967 39.1395881,7.76519749 L39.1395881,8.04327928 C39.429609,9.27400259 39.7604218,10.4604517 40.1320267,11.597652 L40.7175405,13.6312805 C40.7175405,13.8218088 40.577256,13.9317481 40.2991742,13.9551288 L39.9091633,13.9551288 C39.4888071,13.9551288 39.2783803,13.7272908 39.2783803,13.26863 C39.148045,12.8179286 38.925679,11.9354293 38.6097901,10.624117 C38.2018705,9.04616456 37.9969157,8.23281266 37.9969157,8.18207144 L37.8302656,8.04327928 L37.6069048,8.04327928 C37.4586608,8.11789872 37.3845389,8.26664014 37.3845389,8.48950353 L37.3845389,13.3243458 C37.3845389,13.6213312 37.3104169,13.8138494 37.1621729,13.8999105 C36.9950254,13.9367227 36.8751368,13.9551288 36.8005174,13.9551288 L36.6607303,13.9551288 C36.2587802,13.9551288 36.0583027,13.7362451 36.0583027,13.2974828 L36.0583027,1.18326535 C36.0583027,0.812157994 36.2304248,0.626604318 36.5781514,0.626604318 L37.7740523,0.626604318 Z" id="Fill-178"></path>
                        <path d="M46.5147249,3.3738434 L46.5147249,11.2924585 C46.5400955,12.016267 46.6326236,12.3774251 46.7933041,12.3774251 C46.7933041,12.4401055 46.9226445,12.4958213 47.1828176,12.5445727 L47.6016814,12.5445727 C48.0653169,12.4147349 48.2966372,12.1092926 48.2966372,11.6267536 L48.2966372,2.99427918 C48.2105761,2.41871456 48.0434285,2.13018605 47.7951945,2.13018605 C47.7951945,2.09934335 47.6200876,2.08093722 47.2673863,2.0744702 C46.7848473,2.17396279 46.5430803,2.41523232 46.5430803,2.79877624 C46.5246742,2.92363944 46.5147249,3.11416774 46.5147249,3.3738434 Z M47.4608994,0.43234504 C48.1056114,0.43234504 48.6224754,0.710426823 49.0124863,1.26808278 C49.4024973,1.53920008 49.5965078,2.26997314 49.5965078,3.4584121 L49.5965078,11.3750373 C49.5965078,12.5580042 49.2726594,13.3614068 48.6224754,13.7887275 C48.6224754,13.8996617 48.2543528,14.0210427 47.5171127,14.1508805 L47.3783206,14.1508805 C46.9818426,14.1508805 46.5092528,14.0026366 45.9575664,13.7056512 C45.6789872,13.4270719 45.5406925,13.2161476 45.5406925,13.0743707 C45.2810168,12.5226843 45.151179,11.9202567 45.151179,11.2636056 L45.151179,2.99427918 C45.2621132,2.14510994 45.4292608,1.5804895 45.6521242,1.29444831 C46.1028256,0.719381156 46.6967963,0.43234504 47.4345339,0.43234504 L47.4608994,0.43234504 Z" id="Fill-180"></path>
                        <path d="M55.7396776,0.626604318 C56.0481047,0.626604318 56.2341558,0.848970252 56.2963387,1.29469705 L56.5460651,2.66023281 C56.6579942,3.10546214 56.8211621,3.94617451 57.0390508,5.18485723 C57.3544423,6.75584519 57.5588996,7.71793851 57.6519252,8.07063974 C57.7494279,8.21938116 57.8155905,8.29350313 57.8454383,8.29350313 L57.8742911,8.29350313 C58.0046264,8.2442543 58.0687991,8.03034524 58.0687991,7.65376579 L58.0687991,0.989254801 C58.0687991,0.747985275 58.2359467,0.626604318 58.5692468,0.626604318 L58.681176,0.626604318 C59.0890956,0.626604318 59.2940503,0.784797533 59.2940503,1.1006865 L59.2940503,13.3527012 C59.2940503,13.7546513 59.0995423,13.9551288 58.7100289,13.9551288 L58.4314496,13.9551288 C58.0414387,13.9551288 57.8454383,13.7914635 57.8454383,13.4646304 C57.3444931,11.0693463 56.9480151,9.05760621 56.6579942,7.4309024 C56.5585016,6.97174411 56.4381156,6.74440354 56.2963387,6.74440354 L56.2679833,6.74440354 C56.1565516,6.74440354 56.1008357,7.06476967 56.1008357,7.70948164 L56.1008357,13.4646304 C56.1008357,13.7914635 55.9152821,13.9551288 55.5436772,13.9551288 L55.4053825,13.9551288 C54.9969655,13.9551288 54.7930057,13.7646005 54.7930057,13.3800617 L54.7930057,1.18326535 C54.7930057,0.812157994 54.9681126,0.626604318 55.3208138,0.626604318 L55.7396776,0.626604318 Z" id="Fill-182"></path>
                        <path d="M66.567257,0.450751169 L66.8189732,0.450751169 C67.0537757,0.450751169 67.4432892,0.581086459 67.9880111,0.840762113 C68.5456671,1.33524027 68.8237489,2.27892747 68.8237489,3.67132624 L68.8237489,4.25634265 C68.8237489,4.62745 68.6566013,4.81350114 68.3223062,4.81350114 L68.0442245,4.81350114 C67.6915232,4.81350114 67.513929,4.69162272 67.513929,4.45085066 C67.4955228,4.3831957 67.487066,4.28022087 67.487066,4.14540842 L67.487066,3.19823898 C67.487066,2.44259278 67.2542533,2.06601333 66.7901204,2.06601333 L66.4289623,2.06601333 C65.9464232,2.06601333 65.7051537,2.40030843 65.7051537,3.06840115 L65.7051537,11.6720227 C65.7051537,12.1684907 65.9648294,12.4649786 66.4846781,12.5634763 L66.6229728,12.5634763 C67.1985375,12.5634763 67.487066,12.2475873 67.487066,11.6163068 L67.487066,10.4751269 C67.487066,10.0353696 67.6169038,9.815491 67.8770769,9.815491 L68.4048851,9.815491 C68.6834643,9.815491 68.8237489,9.98960302 68.8237489,10.3353398 L68.8237489,10.9482141 C68.8237489,12.2237091 68.6093424,13.0410407 68.1825192,13.3982191 C67.7805691,13.8941896 67.2880808,14.1414287 66.7070441,14.1414287 C66.7070441,14.1598348 66.6602826,14.1697841 66.567257,14.1697841 C65.8802607,14.077256 65.5380062,13.9742812 65.5380062,13.862352 C65.0604417,13.5653666 64.7395782,13.1604318 64.5724306,12.6475475 C64.4425928,12.3435977 64.3769277,11.8983683 64.3769277,11.3108646 L64.3769277,3.16988359 C64.3769277,2.27345538 64.6286439,1.51432693 65.1290916,0.896477962 C65.6489404,0.599492588 66.1284947,0.450751169 66.567257,0.450751169" id="Fill-184"></path>
                        <path d="M74.6966968,0.626604318 C75.0986469,0.626604318 75.2991245,0.784797533 75.2991245,1.1006865 L75.2991245,13.3527012 C75.2991245,13.7546513 75.1354592,13.9551288 74.8081285,13.9551288 L74.5006964,13.9551288 C74.1106855,13.9551288 73.9171724,13.7730574 73.9171724,13.4084171 L73.9171724,1.18326535 C73.9171724,0.812157994 74.0922794,0.626604318 74.4449806,0.626604318 L74.6966968,0.626604318 Z" id="Fill-186"></path>
                        <path d="M81.4031937,0.626604318 C81.7136106,0.626604318 81.8991643,0.848970252 81.9598547,1.29469705 L82.211571,2.66023281 C82.3230027,3.10546214 82.486668,3.94617451 82.7025669,5.18485723 C83.0184559,6.75584519 83.2224157,7.71793851 83.3154412,8.07063974 C83.4149338,8.21938116 83.4791066,8.29350313 83.5109442,8.29350313 L83.5383046,8.29350313 C83.6681425,8.2442543 83.7338076,8.03034524 83.7338076,7.65376579 L83.7338076,0.989254801 C83.7338076,0.747985275 83.9009551,0.626604318 84.2347528,0.626604318 L84.3466819,0.626604318 C84.7546015,0.626604318 84.9585613,0.784797533 84.9585613,1.1006865 L84.9585613,13.3527012 C84.9585613,13.7546513 84.7635559,13.9551288 84.3735449,13.9551288 L84.0949657,13.9551288 C83.7049547,13.9551288 83.5109442,13.7914635 83.5109442,13.4646304 C83.0095015,11.0693463 82.613521,9.05760621 82.3230027,7.4309024 C82.2230126,6.97174411 82.1036215,6.74440354 81.9598547,6.74440354 L81.9329917,6.74440354 C81.8220575,6.74440354 81.7658442,7.06476967 81.7658442,7.70948164 L81.7658442,13.4646304 C81.7658442,13.7914635 81.5802905,13.9551288 81.2091832,13.9551288 L81.0688986,13.9551288 C80.6604815,13.9551288 80.4565217,13.7646005 80.4565217,13.3800617 L80.4565217,1.18326535 C80.4565217,0.812157994 80.6336185,0.626604318 80.9863198,0.626604318 L81.4031937,0.626604318 Z" id="Fill-188"></path>
                        <path d="M91.40588,3.3738434 L91.40588,11.2924585 C91.4312506,12.016267 91.5237787,12.3774251 91.6844593,12.3774251 C91.6844593,12.4401055 91.8137996,12.4958213 92.0739727,12.5445727 L92.4928365,12.5445727 C92.956472,12.4147349 93.1877923,12.1092926 93.1877923,11.6267536 L93.1877923,2.99427918 C93.1017312,2.41871456 92.9345836,2.13018605 92.6863496,2.13018605 C92.6863496,2.09934335 92.5112427,2.08093722 92.1585414,2.0744702 C91.6760024,2.17396279 91.4347329,2.41523232 91.4347329,2.79877624 C91.4163267,2.92363944 91.40588,3.11416774 91.40588,3.3738434 Z M92.352552,0.43234504 C92.997264,0.43234504 93.5136305,0.710426823 93.9036414,1.26808278 C94.2931549,1.53920008 94.4871655,2.26997314 94.4871655,3.4584121 L94.4871655,11.3750373 C94.4871655,12.5580042 94.1633171,13.3614068 93.5136305,13.7887275 C93.5136305,13.8996617 93.1455079,14.0210427 92.4082678,14.1508805 L92.2694757,14.1508805 C91.8729977,14.1508805 91.4004079,14.0026366 90.8487215,13.7056512 C90.5721321,13.4270719 90.4318476,13.2161476 90.4318476,13.0743707 C90.1721719,12.5226843 90.0423341,11.9202567 90.0423341,11.2636056 L90.0423341,2.99427918 C90.1532683,2.14510994 90.3204159,1.5804895 90.5437767,1.29444831 C90.9939807,0.719381156 91.5879514,0.43234504 92.325689,0.43234504 L92.352552,0.43234504 Z" id="Fill-190"></path>
                    </g>
                </g>
            </g>
        </g>
    </g>
</svg>