<?xml version="1.0" encoding="UTF-8" standalone="no"?>
<svg width="32px" height="32px" viewBox="0 0 32 32" version="1.1" xmlns="http://www.w3.org/2000/svg" xmlns:xlink="http://www.w3.org/1999/xlink">
    <!-- Generator: Sketch 49.1 (51147) - http://www.bohemiancoding.com/sketch -->
    <title>Vimeo_footer</title>
    <desc>Created with Sketch.</desc>
    <defs></defs>
    <g id="Peperoncino" stroke="none" stroke-width="1" fill="none" fill-rule="evenodd">
        <g id="1.-Peperoncino---Homepage" transform="translate(-1459.000000, -3858.000000)">
            <g id="Footer" transform="translate(0.000000, 3844.000000)">
                <g id="Social-media" transform="translate(1380.000000, 15.000000)">
                    <g id="Vimeo_footer" transform="translate(80.000000, 0.000000)">
                        <path d="M14.9711053,29.9423368 C6.71605263,29.9423368 0.000157894737,23.2261263 0.000157894737,14.9713895 C0.000157894737,6.71602105 6.71605263,0.000126315789 14.9711053,0.000126315789 C23.2264737,0.000126315789 29.9423684,6.71602105 29.9423684,14.9713895 C29.9423684,23.2261263 23.2264737,29.9423368 14.9711053,29.9423368 Z" id="Stroke-1" stroke="#FFFFFF" stroke-width="2"></path>
                        <path d="M27.8179263,14.9713263 C27.8179263,22.0661684 22.0661368,27.8179579 14.9709789,27.8179579 C7.87613684,27.8179579 2.12466316,22.0661684 2.12466316,14.9713263 C2.12466316,7.87616842 7.87613684,2.12437895 14.9709789,2.12437895 C22.0661368,2.12437895 27.8179263,7.87616842 27.8179263,14.9713263" id="Fill-3" fill="#FFFFFF"></path>
                        <path d="M19.9114737,9.00802105 C17.7821053,8.93949474 16.3395789,10.1413895 15.5842105,12.6159158 C15.9738947,12.4485474 16.3534737,12.3639158 16.7213684,12.3639158 C17.5029474,12.3639158 17.8477895,12.8038105 17.7558947,13.6813895 C17.7097895,14.2119158 17.3652632,14.9852842 16.7213684,16.0021263 C16.0771579,17.0183368 15.5943158,17.5261263 15.2731579,17.5261263 C14.8578947,17.5261263 14.4792632,16.7439158 14.1347368,15.1769684 C14.0185263,14.7168632 13.812,13.5427579 13.5132632,11.6543368 C13.2369474,9.90391579 12.5011579,9.08633684 11.3055789,9.20128421 C10.7993684,9.24802105 10.0398947,9.70781053 9.02842105,10.5812842 C8.29231579,11.2485474 7.54484211,11.9154947 6.78631579,12.5818105 L7.50947368,13.5140211 C8.19789474,13.0314947 8.60052632,12.7892842 8.71484211,12.7892842 C9.24252632,12.7892842 9.73515789,13.6179158 10.1949474,15.2713895 C10.6086316,16.7878105 11.0223158,18.3036 11.4356842,19.8203368 C12.0543158,21.4747579 12.8125263,22.3011789 13.7077895,22.3011789 C15.1541053,22.3011789 16.9209474,20.9436 19.0102105,18.2271789 C21.0303158,15.6266526 22.0752632,13.5784421 22.1434737,12.0816 C22.2341053,10.0791789 21.4904211,9.05507368 19.9114737,9.00802105" id="Fill-5" fill="#E32013"></path>
                    </g>
                </g>
            </g>
        </g>
    </g>
</svg>