<?xml version="1.0" encoding="UTF-8" standalone="no"?>
<svg width="48px" height="48px" viewBox="0 0 48 48" version="1.1" xmlns="http://www.w3.org/2000/svg" xmlns:xlink="http://www.w3.org/1999/xlink">
    <!-- Generator: Sketch 49.1 (51147) - http://www.bohemiancoding.com/sketch -->
    <title>Vimeo</title>
    <desc>Created with Sketch.</desc>
    <defs></defs>
    <g id="Peperoncino" stroke="none" stroke-width="1" fill="none" fill-rule="evenodd">
        <g id="1.-Peperoncino---Homepage" transform="translate(-1483.000000, -580.000000)">
            <g id="Top">
                <g id="Social-media" transform="translate(1484.000000, 449.000000)">
                    <g id="Vimeo" transform="translate(0.000000, 132.000000)">
                        <path d="M22.9556947,45.9115832 C10.2979474,45.9115832 0.000242105263,35.6133937 0.000242105263,22.9561305 C0.000242105263,10.2978989 10.2979474,0.000193684211 22.9556947,0.000193684211 C35.6139263,0.000193684211 45.9116316,10.2978989 45.9116316,22.9561305 C45.9116316,35.6133937 35.6139263,45.9115832 22.9556947,45.9115832 Z" id="Stroke-1" stroke="#FFFFFF" stroke-width="2"></path>
                        <path d="M42.6541537,22.9560337 C42.6541537,33.8347916 33.8347432,42.6542021 22.9555011,42.6542021 C12.0767432,42.6542021 3.25781684,33.8347916 3.25781684,22.9560337 C3.25781684,12.0767916 12.0767432,3.25738105 22.9555011,3.25738105 C33.8347432,3.25738105 42.6541537,12.0767916 42.6541537,22.9560337" id="Fill-3" fill="#FFFFFF"></path>
                        <path d="M30.5309263,13.8122989 C27.2658947,13.7072253 25.0540211,15.5501305 23.8957895,19.3444042 C24.4933053,19.0877726 25.0753263,18.9580042 25.6394316,18.9580042 C26.8378526,18.9580042 27.3666105,19.6325095 27.2257053,20.9781305 C27.1550105,21.7916042 26.6267368,22.9774358 25.6394316,24.5365937 C24.6516421,26.0947832 23.9112842,26.8733937 23.4188421,26.8733937 C22.7821053,26.8733937 22.2015368,25.6740042 21.6732632,23.2713516 C21.4950737,22.5658568 21.1784,20.7655621 20.7203368,17.8699832 C20.2966526,15.1860042 19.1684421,13.9323832 17.3352211,14.1086358 C16.5590316,14.1802989 15.3945053,14.8853095 13.8435789,16.2246358 C12.7148842,17.2477726 11.5687579,18.2704253 10.4056842,19.2921095 L11.5145263,20.7214989 C12.5701053,19.9816253 13.1874737,19.6102358 13.3627579,19.6102358 C14.1718737,19.6102358 14.9272421,20.8808042 15.6322526,23.4161305 C16.2665684,25.7413095 16.9008842,28.06552 17.5347158,30.3911832 C18.4832842,32.9279621 19.6458737,34.1951411 21.0186105,34.1951411 C23.2362947,34.1951411 25.9454526,32.11352 29.1489895,27.9483411 C32.2464842,23.9608674 33.8487368,20.8202779 33.9533263,18.52512 C34.0922947,15.4547411 32.9519789,13.8844463 30.5309263,13.8122989" id="Fill-5" fill="#000000"></path>
                    </g>
                </g>
            </g>
        </g>
    </g>
</svg>