<?xml version="1.0" encoding="UTF-8" standalone="no"?>
<svg width="48px" height="48px" viewBox="0 0 48 48" version="1.1" xmlns="http://www.w3.org/2000/svg" xmlns:xlink="http://www.w3.org/1999/xlink">
    <!-- Generator: Sketch 49.1 (51147) - http://www.bohemiancoding.com/sketch -->
    <title>YouTube</title>
    <desc>Created with Sketch.</desc>
    <defs></defs>
    <g id="Peperoncino" stroke="none" stroke-width="1" fill="none" fill-rule="evenodd">
        <g id="1.-Peperoncino---Homepage" transform="translate(-1483.000000, -646.000000)">
            <g id="Top">
                <g id="Social-media" transform="translate(1484.000000, 449.000000)">
                    <g id="YouTube" transform="translate(0.000000, 198.000000)">
                        <path d="M22.9559368,45.9115832 C10.2977053,45.9115832 0,35.6133937 0,22.9561305 C0,10.2978989 10.2977053,0.000193684211 22.9559368,0.000193684211 C35.6136842,0.000193684211 45.9113895,10.2978989 45.9113895,22.9561305 C45.9113895,35.6133937 35.6136842,45.9115832 22.9559368,45.9115832 Z" id="Stroke-1" stroke="#FFFFFF" stroke-width="2"></path>
                        <path d="M42.6539116,22.9560337 C42.6539116,33.8347916 33.8349853,42.6542021 22.9557432,42.6542021 C12.0769853,42.6542021 3.25757474,33.8347916 3.25757474,22.9560337 C3.25757474,12.0767916 12.0769853,3.25738105 22.9557432,3.25738105 C33.8349853,3.25738105 42.6539116,12.0767916 42.6539116,22.9560337" id="Fill-3" fill="#FFFFFF"></path>
                        <path d="M26.7799411,20.1344421 C27.1769937,20.1344421 27.7285095,19.9286526 28.2979411,19.2531789 L28.2979411,20.0327579 L29.6096674,20.0327579 L29.6096674,12.9734526 L28.2979411,12.9734526 L28.2979411,18.3307579 C28.1376674,18.5317053 27.7812884,18.86 27.5256253,18.86 C27.2438147,18.86 27.1760253,18.6692211 27.1760253,18.3854737 L27.1760253,12.972 L25.8628463,12.972 L25.8628463,18.8735579 C25.8628463,19.5708211 26.0768674,20.1344421 26.7799411,20.1344421" id="Fill-5" fill="#000000"></path>
                        <path d="M22.2901474,14.9277747 C22.2901474,14.5408905 22.4683368,14.2542379 22.8368211,14.2542379 C23.2396842,14.2542379 23.4115789,14.5326589 23.4115789,14.9277747 L23.4115789,18.2116905 C23.4115789,18.5966379 23.2159579,18.8799011 22.8624842,18.8799011 C22.5002947,18.8799011 22.2901474,18.5840484 22.2901474,18.2116905 L22.2901474,14.9277747 Z M20.9387158,18.2712484 C20.9387158,19.5156695 21.5899789,20.1635432 22.8624842,20.1635432 C23.9180632,20.1635432 24.7489684,19.4575642 24.7489684,18.2712484 L24.7489684,14.8120484 C24.7489684,13.7065958 23.9267789,12.9149116 22.8624842,12.9149116 C21.7057053,12.9149116 20.9387158,13.6785116 20.9387158,14.8120484 L20.9387158,18.2712484 Z" id="Fill-7" fill="#000000"></path>
                        <polygon id="Fill-9" fill="#000000" points="17.8074232 20.0328063 19.2862021 20.0328063 19.2862021 16.1499221 21.0056337 10.4619011 19.5050653 10.4619011 18.5574653 14.2871642 17.5372337 10.4619011 16.0492547 10.4619011 17.8074232 16.1499221"></polygon>
                        <path d="M32.4074842,29.8049495 L30.0164526,29.8049495 L30.0164526,31.0730968 C30.0164526,31.5776442 30.0585789,32.0134337 30.5621579,32.0134337 C31.0899474,32.0134337 31.1214211,31.6585074 31.1214211,31.0730968 L31.1214211,30.6058337 L32.4074842,30.6058337 L32.4074842,31.1113495 C32.4074842,32.4061284 31.8511263,33.1910337 30.5335895,33.1910337 C29.3395263,33.1910337 28.7299053,32.3213916 28.7299053,31.1113495 L28.7299053,28.0937495 C28.7299053,26.9253495 29.5002842,26.1162337 30.6280105,26.1162337 C31.8274,26.1162337 32.4074842,26.8774126 32.4074842,28.0937495 L32.4074842,29.8049495 Z M27.7866632,31.6158968 C27.7866632,32.4477705 27.4753158,33.0937074 26.6439263,33.0937074 C26.1858632,33.0937074 25.8047895,32.9266547 25.4566421,32.4923179 L25.4566421,33.0084863 L24.1943053,33.0084863 L24.1943053,23.8937074 L25.4566421,23.8937074 L25.4566421,26.8289916 C25.7379684,26.4847179 26.1214632,26.2009705 26.5674211,26.2009705 C27.4830632,26.2009705 27.7866632,26.9737705 27.7866632,27.8855389 L27.7866632,31.6158968 Z M22.9750632,33.0084863 L21.7248316,33.0084863 L21.7248316,32.26716 C21.4943474,32.5397705 21.2541789,32.7484653 21.0057789,32.8917916 C20.3322421,33.2772232 19.4069158,33.26996 19.4069158,31.9049705 L19.4069158,26.2857074 L20.6571474,26.2857074 L20.6571474,31.4386758 C20.6571474,31.7098337 20.723,31.8923811 20.9898,31.8923811 C21.2328737,31.8923811 21.5727895,31.5800653 21.7248316,31.3888021 L21.7248316,26.2857074 L22.9750632,26.2857074 L22.9750632,33.0084863 Z M17.9678421,33.0084863 L16.5602421,33.0084863 L16.5602421,25.2170547 L15.1032526,25.2170547 L15.1032526,23.8937074 L19.4243474,23.8937074 L19.4243474,25.2170547 L17.9678421,25.2170547 L17.9678421,33.0084863 Z M31.3770842,21.6387389 L15.9060737,21.6387389 C14.2432947,21.6387389 12.8967053,22.9867811 12.8967053,24.6490758 L12.8967053,32.2526337 C12.8967053,33.9144442 14.2432947,35.2615179 15.9060737,35.2615179 L31.3770842,35.2615179 C33.0393789,35.2615179 34.3864526,33.9144442 34.3864526,32.2526337 L34.3864526,24.6490758 C34.3864526,22.9867811 33.0393789,21.6387389 31.3770842,21.6387389 Z" id="Fill-11" fill="#000000"></path>
                        <path d="M30.5751347,27.2926232 C30.1122295,27.2926232 30.0163558,27.6189811 30.0163558,28.0809179 L30.0163558,28.7607495 L31.1213242,28.7607495 L31.1213242,28.0809179 C31.1213242,27.6252758 31.0235137,27.2926232 30.5751347,27.2926232" id="Fill-13" fill="#000000"></path>
                        <path d="M25.7145811,27.3342653 C25.6259705,27.3788126 25.5417179,27.4466021 25.4564968,27.5395705 L25.4564968,31.7284758 C25.5586653,31.8383916 25.65696,31.9178021 25.7528337,31.9652547 C25.9557179,32.0683916 26.2539916,32.0771074 26.3910232,31.8964968 C26.4646232,31.8020758 26.5004547,31.6476126 26.5004547,31.4335916 L26.5004547,27.9608337 C26.5004547,27.7347074 26.4544547,27.5618442 26.3668126,27.4451495 C26.2157389,27.2446863 25.93296,27.2233811 25.7145811,27.3342653" id="Fill-15" fill="#000000"></path>
                    </g>
                </g>
            </g>
        </g>
    </g>
</svg>