<?xml version="1.0" encoding="UTF-8" standalone="no"?>
<svg width="32px" height="32px" viewBox="0 0 32 32" version="1.1" xmlns="http://www.w3.org/2000/svg" xmlns:xlink="http://www.w3.org/1999/xlink">
    <!-- Generator: Sketch 49.1 (51147) - http://www.bohemiancoding.com/sketch -->
    <title>YouTube_footer</title>
    <desc>Created with Sketch.</desc>
    <defs></defs>
    <g id="Peperoncino" stroke="none" stroke-width="1" fill="none" fill-rule="evenodd">
        <g id="1.-Peperoncino---Homepage" transform="translate(-1499.000000, -3858.000000)">
            <g id="Footer" transform="translate(0.000000, 3844.000000)">
                <g id="Social-media" transform="translate(1380.000000, 15.000000)">
                    <g id="YouTube_footer" transform="translate(120.000000, 0.000000)">
                        <path d="M14.9712632,29.9423368 C6.71589474,29.9423368 0,23.2261263 0,14.9713895 C0,6.71602105 6.71589474,0.000126315789 14.9712632,0.000126315789 C23.2263158,0.000126315789 29.9422105,6.71602105 29.9422105,14.9713895 C29.9422105,23.2261263 23.2263158,29.9423368 14.9712632,29.9423368 Z" id="Stroke-1" stroke="#FFFFFF" stroke-width="2"></path>
                        <path d="M27.8177684,14.9713263 C27.8177684,22.0661684 22.0662947,27.8179579 14.9711368,27.8179579 C7.87629474,27.8179579 2.12450526,22.0661684 2.12450526,14.9713263 C2.12450526,7.87616842 7.87629474,2.12437895 14.9711368,2.12437895 C22.0662947,2.12437895 27.8177684,7.87616842 27.8177684,14.9713263" id="Fill-3" fill="#FFFFFF"></path>
                        <path d="M17.4651789,13.1311579 C17.7241263,13.1311579 18.0838105,12.9969474 18.4551789,12.5564211 L18.4551789,13.0648421 L19.3106526,13.0648421 L19.3106526,8.46094737 L18.4551789,8.46094737 L18.4551789,11.9548421 C18.3506526,12.0858947 18.1182316,12.3 17.9514947,12.3 C17.7677053,12.3 17.7234947,12.1755789 17.7234947,11.9905263 L17.7234947,8.46 L16.8670737,8.46 L16.8670737,12.3088421 C16.8670737,12.7635789 17.0066526,13.1311579 17.4651789,13.1311579" id="Fill-5" fill="#E32013"></path>
                        <path d="M14.5370526,9.73550526 C14.5370526,9.48318947 14.6532632,9.29624211 14.8935789,9.29624211 C15.1563158,9.29624211 15.2684211,9.47782105 15.2684211,9.73550526 L15.2684211,11.8771895 C15.2684211,12.1282421 15.1408421,12.3129789 14.9103158,12.3129789 C14.6741053,12.3129789 14.5370526,12.1200316 14.5370526,11.8771895 L14.5370526,9.73550526 Z M13.6556842,11.9160316 C13.6556842,12.7276105 14.0804211,13.1501368 14.9103158,13.1501368 C15.5987368,13.1501368 16.1406316,12.6897158 16.1406316,11.9160316 L16.1406316,9.66003158 C16.1406316,8.93908421 15.6044211,8.42276842 14.9103158,8.42276842 C14.1558947,8.42276842 13.6556842,8.92076842 13.6556842,9.66003158 L13.6556842,11.9160316 Z" id="Fill-7" fill="#E32013"></path>
                        <polygon id="Fill-9" fill="#E32013" points="11.6135368 13.0648737 12.5779579 13.0648737 12.5779579 10.5325579 13.6993263 6.82297895 12.7206947 6.82297895 12.1026947 9.31771579 11.4373263 6.82297895 10.4669053 6.82297895 11.6135368 10.5325579"></polygon>
                        <path d="M21.1353158,19.4380105 L19.5759474,19.4380105 L19.5759474,20.2650632 C19.5759474,20.5941158 19.6034211,20.8783263 19.9318421,20.8783263 C20.2760526,20.8783263 20.2965789,20.6468526 20.2965789,20.2650632 L20.2965789,19.9603263 L21.1353158,19.9603263 L21.1353158,20.2900105 C21.1353158,21.1344316 20.7724737,21.6463263 19.9132105,21.6463263 C19.1344737,21.6463263 18.7368947,21.0791684 18.7368947,20.2900105 L18.7368947,18.3220105 C18.7368947,17.5600105 19.2393158,17.0323263 19.9747895,17.0323263 C20.757,17.0323263 21.1353158,17.5287474 21.1353158,18.3220105 L21.1353158,19.4380105 Z M18.1217368,20.6190632 C18.1217368,21.1615895 17.9186842,21.5828526 17.3764737,21.5828526 C17.0777368,21.5828526 16.8292105,21.4739053 16.6021579,21.1906421 L16.6021579,21.5272737 L15.7788947,21.5272737 L15.7788947,15.5828526 L16.6021579,15.5828526 L16.6021579,17.4971684 C16.7856316,17.2726421 17.0357368,17.0875895 17.3265789,17.0875895 C17.9237368,17.0875895 18.1217368,17.5915895 18.1217368,18.1862211 L18.1217368,20.6190632 Z M14.9837368,21.5272737 L14.1683684,21.5272737 L14.1683684,21.0438 C14.0180526,21.2215895 13.8614211,21.3576947 13.6994211,21.4511684 C13.2601579,21.7025368 12.6566842,21.6978 12.6566842,20.8075895 L12.6566842,17.1428526 L13.4720526,17.1428526 L13.4720526,20.5034842 C13.4720526,20.6803263 13.515,20.7993789 13.689,20.7993789 C13.8475263,20.7993789 14.0692105,20.5956947 14.1683684,20.4709579 L14.1683684,17.1428526 L14.9837368,17.1428526 L14.9837368,21.5272737 Z M11.7181579,21.5272737 L10.8001579,21.5272737 L10.8001579,16.4459053 L9.84994737,16.4459053 L9.84994737,15.5828526 L12.6680526,15.5828526 L12.6680526,16.4459053 L11.7181579,16.4459053 L11.7181579,21.5272737 Z M20.4633158,14.1122211 L10.3735263,14.1122211 C9.28910526,14.1122211 8.41089474,14.9913789 8.41089474,16.0754842 L8.41089474,21.0343263 C8.41089474,22.1181158 9.28910526,22.9966421 10.3735263,22.9966421 L20.4633158,22.9966421 C21.5474211,22.9966421 22.4259474,22.1181158 22.4259474,21.0343263 L22.4259474,16.0754842 C22.4259474,14.9913789 21.5474211,14.1122211 20.4633158,14.1122211 Z" id="Fill-11" fill="#E32013"></path>
                        <path d="M19.9403053,17.7995368 C19.6384105,17.7995368 19.5758842,18.0123789 19.5758842,18.3136421 L19.5758842,18.7570105 L20.2965158,18.7570105 L20.2965158,18.3136421 C20.2965158,18.0164842 20.2327263,17.7995368 19.9403053,17.7995368" id="Fill-13" fill="#E32013"></path>
                        <path d="M16.7703789,17.8266947 C16.7125895,17.8557474 16.6576421,17.8999579 16.6020632,17.9605895 L16.6020632,20.6924842 C16.6686947,20.7641684 16.7328,20.8159579 16.7953263,20.8469053 C16.9276421,20.9141684 17.1221684,20.9198526 17.2115368,20.8020632 C17.2595368,20.7404842 17.2829053,20.6397474 17.2829053,20.5001684 L17.2829053,18.2353263 C17.2829053,18.0878526 17.2529053,17.9751158 17.1957474,17.8990105 C17.0972211,17.7682737 16.9128,17.7543789 16.7703789,17.8266947" id="Fill-15" fill="#E32013"></path>
                    </g>
                </g>
            </g>
        </g>
    </g>
</svg>